<svg width="24" height="24" viewBox="0 0 24 24" fill="none" xmlns="http://www.w3.org/2000/svg">
<path fill-rule="evenodd" clip-rule="evenodd" d="M12 2.7C10.069 2.7 8.21393 3.48435 6.84364 4.88578C5.47283 6.28775 4.69999 8.19251 4.69999 10.1818C4.69999 13.0881 6.54254 15.8738 8.51352 18.0016C9.48563 19.051 10.46 19.9094 11.192 20.5055C11.5177 20.7708 11.7943 20.9832 12 21.1366C12.2056 20.9832 12.4823 20.7708 12.808 20.5055C13.54 19.9094 14.5143 19.051 15.4865 18.0016C17.4574 15.8738 19.3 13.0881 19.3 10.1818C19.3 8.19251 18.5271 6.28775 17.1563 4.88578C15.786 3.48435 13.9309 2.7 12 2.7ZM12 22C11.6057 22.5784 11.6055 22.5782 11.6053 22.5781L11.603 22.5765L11.5974 22.5727L11.5777 22.5591C11.5608 22.5474 11.5366 22.5304 11.5055 22.5084C11.4434 22.4644 11.3537 22.4 11.2403 22.3163C11.0138 22.1489 10.6925 21.9042 10.308 21.5911C9.53998 20.9656 8.51435 20.0626 7.48645 18.953C5.45744 16.7626 3.29999 13.6391 3.29999 10.1818C3.29999 7.83123 4.21286 5.57383 5.84263 3.90702C7.47292 2.23968 9.68746 1.3 12 1.3C14.3125 1.3 16.5271 2.23968 18.1573 3.90702C19.7871 5.57383 20.7 7.83123 20.7 10.1818C20.7 13.6391 18.5425 16.7626 16.5135 18.953C15.4856 20.0626 14.46 20.9656 13.692 21.5911C13.3075 21.9042 12.9862 22.1489 12.7596 22.3163C12.6463 22.4 12.5566 22.4644 12.4944 22.5084C12.482 22.5172 12.4707 22.5252 12.4605 22.5324C12.4452 22.5431 12.4324 22.552 12.4223 22.5591L12.4026 22.5727L12.397 22.5765L12.3953 22.5777C12.3951 22.5778 12.3943 22.5784 12 22ZM12 22L12.3943 22.5784L12 22.8472L11.6053 22.5781L12 22Z" fill="#2D00F7"/>
<path fill-rule="evenodd" clip-rule="evenodd" d="M12 12.6C13.4359 12.6 14.6 11.4359 14.6 10C14.6 8.56406 13.4359 7.4 12 7.4C10.564 7.4 9.39999 8.56406 9.39999 10C9.39999 11.4359 10.564 12.6 12 12.6ZM12 14C14.2091 14 16 12.2091 16 10C16 7.79086 14.2091 6 12 6C9.79085 6 7.99999 7.79086 7.99999 10C7.99999 12.2091 9.79085 14 12 14Z" fill="#2D00F7"/>
</svg>
