<svg width="24" height="24" viewBox="0 0 24 24" fill="none" xmlns="http://www.w3.org/2000/svg">
<path fill-rule="evenodd" clip-rule="evenodd" d="M2.7002 11.3418C2.71714 12.6209 3.06141 13.8744 3.70025 14.9828C4.34079 16.0942 5.256 17.0224 6.35819 17.6785L6.75547 17.915L6.36743 20.802L9.89952 19.0909L10.1233 19.1309C10.7005 19.2341 11.2851 19.2907 11.8714 19.3001C17.1147 19.3856 21.2375 15.8209 21.3002 11.6495C21.3629 7.47556 17.3706 3.78538 12.1287 3.69991C6.88874 3.61448 2.77828 7.13457 2.7002 11.3418ZM1.30022 11.3281C1.38853 6.13981 6.35569 2.2056 12.1515 2.3001C17.9496 2.39463 22.7773 6.52445 22.7 11.6705C22.6227 16.8191 17.6454 20.7944 11.8487 20.6999C11.2642 20.6905 10.6811 20.6396 10.104 20.5475L4.63281 23.198L5.24655 18.6317C4.1144 17.8744 3.16957 16.8657 2.4873 15.6819C1.72704 14.3629 1.31827 12.8707 1.30017 11.3483L1.30005 11.3382L1.30022 11.3281Z" fill="#001011"/>
</svg>
