<svg width="300" height="240" viewBox="0 0 300 240" fill="none" xmlns="http://www.w3.org/2000/svg">
<rect x="146.874" y="17.4421" width="96.82" height="75.22" rx="2.31" transform="rotate(15 146.874 17.4421)" fill="#F3F5F6" stroke="#EBEDEF" stroke-width="0.98" stroke-dasharray="4.9 4.9"/>
<path d="M126.414 110.944C126.185 110.961 125.965 111.038 125.776 111.169C126.736 111.108 127.69 110.975 128.63 110.77L126.414 110.944Z" fill="#2F2E41"/>
<path d="M180.524 91.6994H151.025C150.406 91.6994 149.812 91.4526 149.374 91.0133C148.937 90.574 148.691 89.9782 148.691 89.3569C148.691 88.7357 148.937 88.1399 149.374 87.7006C149.812 87.2613 150.406 87.0145 151.025 87.0145H180.524C181.143 87.0145 181.737 87.2613 182.174 87.7006C182.612 88.1399 182.858 88.7357 182.858 89.3569C182.858 89.9782 182.612 90.574 182.174 91.0133C181.737 91.4526 181.143 91.6994 180.524 91.6994Z" fill="#E6E6E6"/>
<path d="M190.151 99.6053H151.025C150.406 99.6053 149.812 99.3585 149.374 98.9192C148.937 98.4799 148.691 97.8841 148.691 97.2629C148.691 96.6416 148.937 96.0458 149.374 95.6065C149.812 95.1672 150.406 94.9204 151.025 94.9204H190.151C190.77 94.9204 191.363 95.1672 191.801 95.6065C192.239 96.0458 192.485 96.6416 192.485 97.2629C192.485 97.8841 192.239 98.4799 191.801 98.9192C191.363 99.3585 190.77 99.6053 190.151 99.6053Z" fill="#E6E6E6"/>
<path d="M180.481 156.004H107.01C106.391 156.004 105.797 155.757 105.359 155.318C104.922 154.879 104.676 154.283 104.676 153.662C104.676 153.041 104.922 152.445 105.359 152.005C105.797 151.566 106.391 151.319 107.01 151.319H180.481C181.1 151.319 181.694 151.566 182.131 152.005C182.569 152.445 182.815 153.041 182.815 153.662C182.815 154.283 182.569 154.879 182.131 155.318C181.694 155.757 181.1 156.004 180.481 156.004Z" fill="#E6E6E6"/>
<path d="M190.108 163.91H107.01C106.391 163.91 105.797 163.663 105.359 163.224C104.922 162.785 104.676 162.189 104.676 161.568C104.676 160.946 104.922 160.351 105.359 159.911C105.797 159.472 106.391 159.225 107.01 159.225H190.108C190.727 159.225 191.32 159.472 191.758 159.911C192.196 160.351 192.442 160.946 192.442 161.568C192.442 162.189 192.196 162.785 191.758 163.224C191.32 163.663 190.727 163.91 190.108 163.91Z" fill="#E6E6E6"/>
<path d="M180.481 182.081H107.01C106.391 182.081 105.797 181.834 105.359 181.395C104.922 180.955 104.676 180.36 104.676 179.738C104.676 179.117 104.922 178.521 105.359 178.082C105.797 177.643 106.391 177.396 107.01 177.396H180.481C181.1 177.396 181.694 177.643 182.131 178.082C182.569 178.521 182.815 179.117 182.815 179.738C182.815 180.36 182.569 180.955 182.131 181.395C181.694 181.834 181.1 182.081 180.481 182.081Z" fill="#E6E6E6"/>
<path d="M190.108 189.987H107.01C106.391 189.987 105.797 189.74 105.359 189.301C104.922 188.861 104.676 188.265 104.676 187.644C104.676 187.023 104.922 186.427 105.359 185.988C105.797 185.548 106.391 185.302 107.01 185.302H190.108C190.726 185.302 191.319 185.55 191.756 185.989C192.193 186.428 192.439 187.023 192.439 187.644C192.439 188.265 192.193 188.86 191.756 189.299C191.319 189.739 190.726 189.986 190.108 189.987Z" fill="#E6E6E6"/>
<rect x="93.49" y="47.89" width="113.62" height="116.62" rx="2.31" fill="#FDFDFD" stroke="#B7B8BE" stroke-width="0.98" stroke-dasharray="4.9 4.9"/>
<rect x="111" y="108.6" width="51.6" height="4.8" rx="2.4" fill="#EBEDEF"/>
<rect x="111" y="118.2" width="51.6" height="4.8" rx="2.4" fill="#EBEDEF"/>
<circle cx="129" cy="83.4" r="18" fill="#EBEDEF"/>
<rect x="147.474" y="57.0421" width="96.82" height="75.22" rx="2.31" transform="rotate(15 147.474 57.0421)" fill="#FDFDFD" stroke="#B7B8BE" stroke-width="0.98"/>
<rect x="155.613" y="71.1389" width="73.8" height="52.2" rx="2.8" transform="rotate(15 155.613 71.1389)" fill="#2D00F7"/>
<circle cx="165.583" cy="88.4078" r="6.9" transform="rotate(15 165.583 88.4078)" fill="#EBEDEF"/>
<g style="mix-blend-mode:multiply">
<path d="M183.589 128.204L198.286 114.913C199.793 113.55 202.205 114.196 202.828 116.131L210.49 139.885L184.742 132.985C182.599 132.411 181.943 129.692 183.589 128.204Z" fill="#B7B8BE"/>
</g>
<path d="M148.477 123.268L176.881 97.4113C178.39 96.0379 180.814 96.6874 181.433 98.6312L193.103 135.226L148.477 123.268Z" fill="#0C0076"/>
<path d="M255.71 143.554V231C255.71 235.369 252.169 238.91 247.8 238.91H52.1999C47.8314 238.91 44.2899 235.369 44.2899 231V119.4C44.2899 115.031 47.8314 111.49 52.1999 111.49H78.8598C80.4927 111.49 82.0855 111.995 83.4197 112.937L113.302 134.019C114.802 135.077 116.592 135.644 118.427 135.644H247.8C252.169 135.644 255.71 139.186 255.71 143.554Z" fill="#FDFDFD" stroke="#001011" stroke-width="0.98"/>
<!--<circle cx="150.6" cy="187.2" r="21.6" fill="#EBEDEF"/>-->
<!--<path d="M150.6 177.6V196.8" stroke="#001011" stroke-width="0.98" stroke-linecap="round" stroke-linejoin="round"/>-->
<!--<path d="M160.2 187.2L141 187.2" stroke="#001011" stroke-width="0.98" stroke-linecap="round" stroke-linejoin="round"/>-->
</svg>
