<svg width="24" height="24" viewBox="0 0 24 24" fill="none" xmlns="http://www.w3.org/2000/svg">
<path fill-rule="evenodd" clip-rule="evenodd" d="M11.9809 6.69973C11.0407 6.67394 10.1025 6.79903 9.20196 7.07025L8.79824 5.72973C9.84054 5.41582 10.9264 5.27079 12.0145 5.30012C14.1846 5.33078 16.308 5.93508 18.1691 7.05173C20.0315 8.1692 21.5648 9.7599 22.6132 11.6621L22.7969 11.9955L22.6169 12.3309C21.7033 14.034 20.3918 15.4913 18.7939 16.5787L18.0063 15.4213C19.3117 14.5329 20.4007 13.365 21.1955 12.0043C20.2755 10.466 18.9892 9.17646 17.4488 8.25222C15.7983 7.26195 13.9151 6.72636 11.9905 6.69992L11.9809 6.69973Z" fill="#2D00F7"/>
<path fill-rule="evenodd" clip-rule="evenodd" d="M2.80838 12.0018C3.91168 10.1745 5.50751 8.69127 7.41638 7.72446L6.78382 6.47552C4.50937 7.62748 2.63076 9.43243 1.38878 11.659L1.19971 11.9979L1.38704 12.3379C2.43537 14.2401 3.9687 15.8308 5.83115 16.9482C7.69359 18.0657 9.81873 18.6701 11.9905 18.6999L12 18.7001L12.0096 18.6999C13.7986 18.6757 15.563 18.2796 17.1907 17.5368L16.6095 16.2632C15.1613 16.924 13.5918 17.2771 12.0002 17.2999C10.0789 17.2718 8.19917 16.7364 6.55144 15.7478C5.01309 14.8247 3.72811 13.5374 2.80838 12.0018Z" fill="#2D00F7"/>
<path fill-rule="evenodd" clip-rule="evenodd" d="M12.9077 9.85122C12.6268 9.7406 12.3262 9.68898 12.0244 9.69958L11.9753 8.30044C12.469 8.2831 12.961 8.36757 13.4207 8.54859C13.8804 8.72961 14.2979 9.0033 14.6472 9.35264C14.9966 9.70197 15.2703 10.1195 15.4513 10.5792C15.6323 11.0388 15.7168 11.5308 15.6994 12.0246L14.3003 11.9754C14.3109 11.6737 14.2593 11.373 14.1486 11.0921C14.038 10.8112 13.8708 10.5561 13.6573 10.3426C13.4438 10.1291 13.1887 9.96185 12.9077 9.85122Z" fill="#2D00F7"/>
<path fill-rule="evenodd" clip-rule="evenodd" d="M10.3662 10.4221C10.1481 10.6169 9.97537 10.8571 9.86019 11.1259C9.745 11.3946 9.69015 11.6854 9.6995 11.9776L9.70025 12.0011L9.69943 12.0246C9.68883 12.3263 9.74045 12.627 9.85107 12.9079C9.96169 13.1888 10.129 13.4439 10.3424 13.6574C10.5559 13.8709 10.8111 14.0382 11.092 14.1488C11.3729 14.2594 11.6736 14.311 11.9753 14.3004L11.9988 14.2996L12.0222 14.3004C12.3145 14.3097 12.6052 14.2549 12.874 14.1397C13.1428 14.0245 13.383 13.8518 13.5778 13.6337L14.6219 14.5663C14.2908 14.9371 13.8824 15.2307 13.4255 15.4265C12.9758 15.6192 12.4899 15.7126 12.001 15.7003C11.5152 15.7142 11.0314 15.6296 10.579 15.4514C10.1193 15.2704 9.70182 14.9967 9.35249 14.6474C9.00315 14.298 8.72945 13.8805 8.54844 13.4209C8.37027 12.9684 8.28564 12.4847 8.29954 11.9988C8.2873 11.5099 8.38067 11.0241 8.57338 10.5744C8.7692 10.1175 9.06281 9.70908 9.43355 9.37794L10.3662 10.4221Z" fill="#2D00F7"/>
<path fill-rule="evenodd" clip-rule="evenodd" d="M20.0049 20.995L3.00488 3.99498L3.99483 3.00504L20.9948 20.005L20.0049 20.995Z" fill="#2D00F7"/>
</svg>
