<svg width="48" height="48" viewBox="0 0 48 48" fill="none" xmlns="http://www.w3.org/2000/svg">
<mask id="mask0_110_770" style="mask-type:luminance" maskUnits="userSpaceOnUse" x="4" y="4" width="40" height="40">
<path d="M39.3 6H8.7C7.98392 6 7.29716 6.28446 6.79081 6.79081C6.28446 7.29716 6 7.98392 6 8.7V39.3C6 40.0161 6.28446 40.7028 6.79081 41.2092C7.29716 41.7155 7.98392 42 8.7 42H39.3C40.0161 42 40.7028 41.7155 41.2092 41.2092C41.7155 40.7028 42 40.0161 42 39.3V8.7C42 7.98392 41.7155 7.29716 41.2092 6.79081C40.7028 6.28446 40.0161 6 39.3 6Z" fill="#555555" stroke="white" stroke-width="4" stroke-linejoin="round"/>
<path d="M36 27L29 30M21 33L14 36" stroke="white" stroke-width="4" stroke-linecap="round" stroke-linejoin="round"/>
<path d="M16 29C18 26.105 19 24.105 19 23C19 22.2044 18.6839 21.4413 18.1213 20.8787C17.5587 20.3161 16.7956 20 16 20C15.2044 20 14.4413 20.3161 13.8787 20.8787C13.3161 21.4413 13 22.2044 13 23C13 24.105 14 26.105 16 29ZM32 22C34 19.105 35 17.105 35 16C35 15.2044 34.6839 14.4413 34.1213 13.8787C33.5587 13.3161 32.7956 13 32 13C31.2044 13 30.4413 13.3161 29.8787 13.8787C29.3161 14.4413 29 15.2044 29 16C29 17.105 30 19.105 32 22Z" fill="#555555" stroke="white" stroke-width="4" stroke-linejoin="round"/>
</mask>
<g mask="url(#mask0_110_770)">
<path d="M0 0H48V48H0V0Z" fill="#FF81FF"/>
</g>
</svg>
