<svg width="29" height="11" viewBox="0 0 29 11" fill="none" xmlns="http://www.w3.org/2000/svg">
<path d="M0.0714766 11V0.402H1.37348V7.668L0.841477 7.542L4.84548 3.454H6.51148L3.61348 6.492L6.70748 11H5.16748L2.33948 6.912L3.15148 6.87L0.953477 9.166L1.37348 8.214V11H0.0714766ZM9.95012 11L7.02412 0.569999H8.46612L10.9161 9.754H10.5801L13.1281 0.569999H14.5701L17.1041 9.754H16.7541L19.2181 0.569999H20.6601L17.7341 11H16.2081L13.6601 1.858H14.0241L11.4761 11H9.95012ZM21.8234 11V0.402H23.1254V4.924L22.8874 4.798C23.0741 4.322 23.3728 3.95333 23.7834 3.692C24.2034 3.42133 24.6934 3.286 25.2534 3.286C25.7948 3.286 26.2754 3.40733 26.6954 3.65C27.1248 3.89267 27.4608 4.22867 27.7034 4.658C27.9554 5.08733 28.0814 5.57267 28.0814 6.114V11H26.7654V6.534C26.7654 6.114 26.6861 5.75933 26.5274 5.47C26.3781 5.18067 26.1681 4.95667 25.8974 4.798C25.6268 4.63 25.3141 4.546 24.9594 4.546C24.6141 4.546 24.3014 4.63 24.0214 4.798C23.7414 4.95667 23.5221 5.18533 23.3634 5.484C23.2048 5.77333 23.1254 6.12333 23.1254 6.534V11H21.8234Z" fill="#757780"/>
</svg>
