<svg width="24" height="24" viewBox="0 0 24 24" fill="none" xmlns="http://www.w3.org/2000/svg">
<g id="lightbulb">
<g id="Color">
<path fill-rule="evenodd" clip-rule="evenodd" d="M14 23.7H10V22.3H14V23.7Z" fill="#2D00F7"/>
<path fill-rule="evenodd" clip-rule="evenodd" d="M12 6.70104C10.9221 6.70104 9.87555 7.06386 9.02894 7.73105C8.18233 8.39825 7.58494 9.33099 7.33298 10.379C7.08102 11.4271 7.18916 12.5295 7.63998 13.5086C8.0908 14.4877 8.85806 15.2865 9.81819 15.7765L10.2 15.9714V19.3H13.8V15.9714L14.1818 15.7765C15.1419 15.2865 15.9092 14.4877 16.36 13.5086C16.8109 12.5295 16.919 11.4271 16.667 10.379C16.4151 9.33099 15.8177 8.39825 14.9711 7.73105C14.1245 7.06386 13.0779 6.70104 12 6.70104ZM8.16238 6.63148C9.25592 5.76968 10.6077 5.30104 12 5.30104C13.3923 5.30104 14.7441 5.76968 15.8376 6.63148C16.9312 7.49327 17.7028 8.69806 18.0282 10.0518C18.3537 11.4055 18.214 12.8294 17.6317 14.0941C17.1105 15.2261 16.2617 16.1716 15.2 16.8114V20.7H8.8V16.8114C7.73827 16.1716 6.88954 15.2261 6.3683 14.0941C5.78599 12.8294 5.64631 11.4055 5.97176 10.0518C6.29721 8.69806 7.06884 7.49327 8.16238 6.63148Z" fill="#2D00F7"/>
<path fill-rule="evenodd" clip-rule="evenodd" d="M11.3 3V0.5H12.7V3H11.3Z" fill="#2D00F7"/>
<path fill-rule="evenodd" clip-rule="evenodd" d="M20.5 10.8H23V12.2H20.5V10.8Z" fill="#2D00F7"/>
<path fill-rule="evenodd" clip-rule="evenodd" d="M3.5 12.2H1V10.8H3.5V12.2Z" fill="#2D00F7"/>
<path fill-rule="evenodd" clip-rule="evenodd" d="M17.3649 5.14502L19.1349 3.37502L20.1248 4.36497L18.3548 6.13497L17.3649 5.14502Z" fill="#2D00F7"/>
<path fill-rule="evenodd" clip-rule="evenodd" d="M5.64514 6.13497L3.87514 4.36497L4.86509 3.37502L6.63509 5.14502L5.64514 6.13497Z" fill="#2D00F7"/>
</g>
</g>
</svg>
