<svg width="18" height="11" viewBox="0 0 18 11" fill="none" xmlns="http://www.w3.org/2000/svg">
<path d="M0.670109 11V3.454H1.94411V4.994L1.76211 4.756C1.94878 4.28 2.24744 3.916 2.65811 3.664C3.06878 3.412 3.53078 3.286 4.04411 3.286C4.63211 3.286 5.15944 3.44933 5.62611 3.776C6.10211 4.10267 6.42878 4.532 6.60611 5.064L6.24211 5.078C6.43811 4.49 6.76944 4.04667 7.23611 3.748C7.70278 3.44 8.22078 3.286 8.79011 3.286C9.31278 3.286 9.78411 3.40733 10.2041 3.65C10.6334 3.89267 10.9741 4.22867 11.2261 4.658C11.4781 5.08733 11.6041 5.57267 11.6041 6.114V11H10.2881V6.534C10.2881 6.114 10.2134 5.75933 10.0641 5.47C9.91478 5.18067 9.70944 4.95667 9.44811 4.798C9.19611 4.63 8.89744 4.546 8.55211 4.546C8.21611 4.546 7.91278 4.63 7.64211 4.798C7.38078 4.95667 7.17078 5.18533 7.01211 5.484C6.86278 5.77333 6.78811 6.12333 6.78811 6.534V11H5.47211V6.534C5.47211 6.114 5.39744 5.75933 5.24811 5.47C5.09878 5.18067 4.89344 4.95667 4.63211 4.798C4.38011 4.63 4.08144 4.546 3.73611 4.546C3.40011 4.546 3.09678 4.63 2.82611 4.798C2.56478 4.95667 2.35478 5.18533 2.19611 5.484C2.04678 5.77333 1.97211 6.12333 1.97211 6.534V11H0.670109ZM12.9213 7.878V6.968L14.9233 4.854C15.2966 4.45267 15.5953 4.126 15.8193 3.874C16.0433 3.622 16.202 3.40267 16.2953 3.216C16.398 3.02 16.4493 2.824 16.4493 2.628C16.4493 2.28267 16.342 2.02133 16.1273 1.844C15.922 1.65733 15.6606 1.564 15.3433 1.564C15.0073 1.564 14.7133 1.662 14.4613 1.858C14.2186 2.04467 14.0506 2.32 13.9573 2.684L12.8793 2.362C12.9633 1.96067 13.122 1.62 13.3553 1.34C13.598 1.06 13.892 0.845333 14.2373 0.695999C14.5826 0.537333 14.9513 0.458 15.3433 0.458C15.81 0.458 16.216 0.546666 16.5613 0.724C16.916 0.901333 17.1866 1.144 17.3733 1.452C17.5693 1.75067 17.6673 2.10067 17.6673 2.502C17.6673 2.95 17.5413 3.36533 17.2893 3.748C17.0466 4.12133 16.7106 4.532 16.2813 4.98L14.5313 6.828H17.8073V7.878H12.9213Z" fill="#757780"/>
</svg>
