<svg width="10" height="12" viewBox="0 0 10 12" fill="none" xmlns="http://www.w3.org/2000/svg">
<path d="M5.85827 11.168C5.20493 11.168 4.5936 11.0373 4.02427 10.776C3.46427 10.5053 2.97427 10.132 2.55427 9.656C2.13427 9.17067 1.8076 8.60133 1.57427 7.948C1.34093 7.28533 1.22427 6.562 1.22427 5.778C1.22427 5.00333 1.33627 4.28933 1.56027 3.636C1.7936 2.98267 2.1156 2.41333 2.52627 1.928C2.94627 1.44267 3.44093 1.06933 4.01027 0.807999C4.5796 0.537333 5.20493 0.402 5.88627 0.402C6.78227 0.402 7.57093 0.64 8.25227 1.116C8.94293 1.58267 9.43293 2.22667 9.72227 3.048L8.49027 3.552C8.26627 2.95467 7.92093 2.48333 7.45427 2.138C6.99693 1.79267 6.46493 1.62 5.85827 1.62C5.2516 1.62 4.70093 1.79733 4.20627 2.152C3.7116 2.50667 3.3196 2.99667 3.03027 3.622C2.74093 4.238 2.59627 4.95667 2.59627 5.778C2.59627 6.59 2.7316 7.31333 3.00227 7.948C3.28227 8.57333 3.66493 9.06333 4.15027 9.418C4.64493 9.76333 5.2096 9.936 5.84427 9.936C6.46027 9.936 6.99693 9.768 7.45427 9.432C7.92093 9.08667 8.26627 8.62 8.49027 8.032L9.72227 8.522C9.52627 9.07267 9.2416 9.544 8.86827 9.936C8.49493 10.328 8.0516 10.6313 7.53827 10.846C7.02493 11.0607 6.46493 11.168 5.85827 11.168ZM-0.00773436 7.332V6.338H6.26427V7.332H-0.00773436ZM-0.00773436 5.218V4.224H6.26427V5.218H-0.00773436Z" fill="#757780"/>
</svg>
