<svg width="24" height="19" viewBox="0 0 24 19" fill="none" xmlns="http://www.w3.org/2000/svg">
<path id="Union" opacity="0.8" fill-rule="evenodd" clip-rule="evenodd" d="M4.04427 -0.00424194H3.83716L3.69072 0.142205L2.25003 1.58289L2.10359 1.72933V1.93644V8.27968H0.802734H0.302734V8.77968V16.3433V16.4244L0.328393 16.5014L1.04873 18.6624L1.1627 19.0043H1.52308H4.04427H4.54427V18.5043V16.8433H19.7519V18.5043V19.0043H20.2519H22.7731H23.1335L23.2475 18.6624L23.9678 16.5014L23.9935 16.4244V16.3433V8.77968V8.27968H23.4935H22.5528V1.93644V1.72933L22.4063 1.58289L20.9657 0.142205L20.8192 -0.00424194H20.6121H4.04427ZM21.5528 8.27968V2.14355L20.405 0.995758H4.25138L3.10359 2.14355V8.27968H4.26461V5.53815V5.03815H4.76461H10.8875H11.3875V5.53815V8.27968H13.629V5.53815V5.03815H14.129H19.8918H20.3918V5.53815V8.27968H21.5528ZM19.3918 8.27968V6.03815H14.629V8.27968H19.3918ZM10.3875 8.27968V6.03815H5.26461V8.27968H10.3875ZM1.30273 16.2621V9.27968H22.9935V16.2621L22.4128 18.0043H20.7519V16.3433V15.8433H20.2519H4.04427H3.54427V16.3433V18.0043H1.88345L1.30273 16.2621Z" fill="white"/>
</svg>
