<svg width="24" height="24" viewBox="0 0 24 24" fill="none" xmlns="http://www.w3.org/2000/svg">
<path fill-rule="evenodd" clip-rule="evenodd" d="M9.30093 1.29999H14.6991L15.7801 4.43507L16.6325 4.95962L19.8445 4.31723L22.6699 8.98538L20.4 11.4715V12.5285L22.6699 15.0146L19.8445 19.6827L16.6325 19.0404L15.7801 19.5649L14.6991 22.7H9.30093L8.21987 19.5649L7.36747 19.0404L4.15554 19.6827L1.33008 15.0146L3.6 12.5285V11.4715L1.33008 8.98538L4.15554 4.31723L7.36747 4.95962L8.21987 4.43507L9.30093 1.29999ZM10.2991 2.69999L9.38013 5.36491L7.63253 6.44036L4.84446 5.88274L3.06992 8.8146L5 10.9285V13.0715L3.06992 15.1854L4.84446 18.1172L7.63253 17.5596L9.38013 18.6351L10.2991 21.3H13.7009L14.6199 18.6351L16.3675 17.5596L19.1555 18.1172L20.9301 15.1854L19 13.0715V10.9285L20.9301 8.8146L19.1555 5.88274L16.3675 6.44036L14.6199 5.36491L13.7009 2.69999H10.2991Z" fill="#001011"/>
<path fill-rule="evenodd" clip-rule="evenodd" d="M12 9.69999C10.7298 9.69999 9.70005 10.7297 9.70005 12C9.70005 13.2702 10.7298 14.3 12 14.3C13.2703 14.3 14.3 13.2702 14.3 12C14.3 10.7297 13.2703 9.69999 12 9.69999ZM8.30005 12C8.30005 9.95653 9.9566 8.29999 12 8.29999C14.0435 8.29999 15.7 9.95653 15.7 12C15.7 14.0434 14.0435 15.7 12 15.7C9.9566 15.7 8.30005 14.0434 8.30005 12Z" fill="#001011"/>
</svg>
