<svg width="24" height="24" viewBox="0 0 24 24" fill="none" xmlns="http://www.w3.org/2000/svg">
<path fill-rule="evenodd" clip-rule="evenodd" d="M12 5.30005L12.0096 5.30018C14.1814 5.33002 16.3065 5.93439 18.169 7.05186C20.0314 8.16932 21.5647 9.76003 22.6131 11.6623L22 12.0001L22.6131 12.338C21.5647 14.2402 20.0314 15.8309 18.169 16.9484C16.3065 18.0658 14.1814 18.6702 12.0096 18.7L12 18.7002L11.9904 18.7C9.81863 18.6702 7.6935 18.0658 5.83105 16.9484C3.96861 15.8309 2.43527 14.2402 1.38695 12.338L1.20074 12.0001L1.38695 11.6623C2.43528 9.76003 3.96861 8.16932 5.83105 7.05186C7.6935 5.93439 9.81863 5.33002 11.9904 5.30018L12 5.30005ZM21.1928 12.0001C20.273 10.4637 18.9876 9.17571 17.4487 8.25235C15.801 7.26372 13.9212 6.72827 12 6.70019C10.0788 6.72827 8.19906 7.26372 6.55135 8.25235C5.01241 9.17571 3.72703 10.4637 2.80723 12.0001C3.72703 13.5365 5.01241 14.8245 6.55135 15.7479C8.19906 16.7365 10.0788 17.272 12 17.3C13.9212 17.272 15.801 16.7365 17.4487 15.7479C18.9876 14.8245 20.273 13.5365 21.1928 12.0001Z" fill="#2D00F7"/>
<path fill-rule="evenodd" clip-rule="evenodd" d="M12 9.70005C10.7297 9.70005 9.69999 10.7298 9.69999 12C9.69999 13.2703 10.7297 14.3 12 14.3C13.2702 14.3 14.3 13.2703 14.3 12C14.3 10.7298 13.2702 9.70005 12 9.70005ZM8.29999 12C8.29999 9.9566 9.95653 8.30005 12 8.30005C14.0434 8.30005 15.7 9.9566 15.7 12C15.7 14.0435 14.0434 15.7 12 15.7C9.95653 15.7 8.29999 14.0435 8.29999 12Z" fill="#2D00F7"/>
</svg>
