<svg width="24" height="24" viewBox="0 0 24 24" fill="none" xmlns="http://www.w3.org/2000/svg">
<path fill-rule="evenodd" clip-rule="evenodd" d="M22.7008 5V10.7H17.0008V9.3H21.3008V5H22.7008Z" fill="#001011"/>
<path fill-rule="evenodd" clip-rule="evenodd" d="M1.30078 13.3H7.00078V14.7H2.70078V19H1.30078V13.3Z" fill="#001011"/>
<path fill-rule="evenodd" clip-rule="evenodd" d="M8.18278 4.15646C10.3007 3.16724 12.73 3.02942 14.95 3.77174L14.9622 3.77581L14.9742 3.78032C16.1943 4.23867 17.3171 4.9157 18.2845 5.77731L18.2907 5.78284L22.4786 9.69497L21.5229 10.718L17.3473 6.81736C16.5141 6.07667 15.5468 5.49261 14.4939 5.09543C12.6168 4.47121 10.5635 4.58967 8.77525 5.42491C6.98362 6.26174 5.6047 7.74924 4.92952 9.56289L3.61749 9.07445C4.42324 6.91007 6.06443 5.14588 8.18278 4.15646ZM2.47863 13.2463L6.66905 17.1608C8.08566 18.5295 10.0012 19.3 12.0008 19.3C13.9943 19.3 15.9043 18.5342 17.3197 17.1733C18.0773 16.3586 18.6729 15.4145 19.0768 14.3891L20.3794 14.9022C19.9083 16.0981 19.2133 17.1968 18.3306 18.142L18.3183 18.1552L18.3054 18.1677C16.6243 19.7918 14.3586 20.7 12.0008 20.7C9.64502 20.7 7.3811 19.7934 5.70054 18.1719L1.52294 14.2693L2.47863 13.2463Z" fill="#001011"/>
</svg>
