<svg width="93" height="48" viewBox="0 0 93 48" fill="none" xmlns="http://www.w3.org/2000/svg">
<g id="Vector">
<path d="M0.272461 34.2857V13.1092H9.4691C10.8002 13.1092 11.9599 13.3412 12.9481 13.805C13.9363 14.2689 14.7027 14.9244 15.2473 15.7714C15.7918 16.6185 16.0641 17.6168 16.0641 18.7664V19.1294C16.0641 20.4 15.7615 21.4286 15.1565 22.2151C14.5515 23.0017 13.8052 23.5765 12.9178 23.9395V24.484C13.7246 24.5244 14.3498 24.8067 14.7935 25.3311C15.2372 25.8353 15.459 26.5109 15.459 27.358V34.2857H11.4657V27.9328C11.4657 27.4487 11.3346 27.0555 11.0725 26.7529C10.8304 26.4504 10.417 26.2992 9.83212 26.2992H4.26574V34.2857H0.272461ZM4.26574 22.6689H9.04557C9.99347 22.6689 10.7296 22.4168 11.254 21.9126C11.7985 21.3882 12.0708 20.7025 12.0708 19.8555V19.5529C12.0708 18.7059 11.8086 18.0303 11.2842 17.5261C10.7599 17.0017 10.0136 16.7395 9.04557 16.7395H4.26574V22.6689Z" fill="white"/>
<path d="M17.9347 34.2857L23.5011 13.1092H30.4591L36.0255 34.2857H31.9112L30.7616 29.6269H23.1986L22.049 34.2857H17.9347ZM24.1364 25.9361H29.8238L27.2524 15.6202H26.7078L24.1364 25.9361Z" fill="white"/>
<path d="M38.5603 34.2857V13.1092H47.2729C48.604 13.1092 49.7737 13.3815 50.7821 13.9261C51.8107 14.4504 52.6073 15.1966 53.172 16.1647C53.7569 17.1328 54.0494 18.2824 54.0494 19.6134V20.037C54.0494 21.3479 53.7468 22.4975 53.1418 23.4857C52.5569 24.4538 51.7502 25.2101 50.7216 25.7546C49.7132 26.279 48.5636 26.5412 47.2729 26.5412H42.5536V34.2857H38.5603ZM42.5536 22.9109H46.8796C47.8275 22.9109 48.5939 22.6487 49.1788 22.1244C49.7636 21.6 50.0561 20.884 50.0561 19.9765V19.674C50.0561 18.7664 49.7636 18.0504 49.1788 17.5261C48.5939 17.0017 47.8275 16.7395 46.8796 16.7395H42.5536V22.9109Z" fill="white"/>
<path d="M75.7884 48C72.4719 48 69.4915 47.3726 66.8472 46.1176C64.2478 44.8627 62.1862 43.0476 60.6624 40.6723C59.1834 38.2969 58.4439 35.4286 58.4439 32.0672V30.7899H63.8893V32C63.8893 35.451 64.9873 38.1625 67.1834 40.1345C69.3795 42.1064 72.2478 43.0924 75.7884 43.0924C79.3739 43.0924 82.1526 42.1737 84.1246 40.3361C86.1414 38.4538 87.1498 36.1008 87.1498 33.2773V32.7395C87.1498 30.6779 86.6568 29.0196 85.6708 27.7647C84.6848 26.465 83.3402 25.5238 81.6372 24.9412C79.9789 24.3137 78.1414 24 76.1246 24H68.4607V17.2101L86.4103 5.71429V4.90756H59.5867V0H92.1918V7.59664L74.6456 18.8908V19.6975H78.0069C80.6512 19.6975 83.0713 20.1905 85.2674 21.1765C87.5083 22.1176 89.2786 23.5518 90.5783 25.479C91.9229 27.3613 92.5951 29.7367 92.5951 32.605V33.3445C92.5951 36.3025 91.9005 38.8796 90.5111 41.0756C89.1217 43.2717 87.1722 44.9748 84.6624 46.1849C82.1526 47.395 79.1946 48 75.7884 48Z" fill="#A93AFF"/>
</g>
</svg>
