<svg width="43" height="42" viewBox="0 0 43 42" fill="none" xmlns="http://www.w3.org/2000/svg">
<path opacity="0.5" d="M1.5 21C1.5 11.572 1.5 6.858 4.428 3.928C7.36 1 12.072 1 21.5 1C30.928 1 35.642 1 38.57 3.928C41.5 6.86 41.5 11.572 41.5 21C41.5 30.428 41.5 35.142 38.57 38.07C35.644 41 30.928 41 21.5 41C12.072 41 7.358 41 4.428 38.07C1.5 35.144 1.5 30.428 1.5 21Z" stroke="#B6FFFA" stroke-width="2"/>
<path d="M21.8633 30V15.3281H21.8164L17.3398 18.5508V16.3242L21.8398 13.0898H23.9023V30H21.8633Z" fill="#B6FFFA"/>
</svg>
