<svg width="43" height="42" viewBox="0 0 43 42" fill="none" xmlns="http://www.w3.org/2000/svg">
<path opacity="0.5" d="M1.5 21C1.5 11.572 1.5 6.858 4.428 3.928C7.36 1 12.072 1 21.5 1C30.928 1 35.642 1 38.57 3.928C41.5 6.86 41.5 11.572 41.5 21C41.5 30.428 41.5 35.142 38.57 38.07C35.644 41 30.928 41 21.5 41C12.072 41 7.358 41 4.428 38.07C1.5 35.144 1.5 30.428 1.5 21Z" stroke="#B6FFFA" stroke-width="2"/>
<path d="M15.9688 17.9648C15.9688 15.0117 18.3594 12.8086 21.5469 12.8086C24.5703 12.8086 26.9492 14.8594 26.9492 17.4492C26.9492 19.3359 26.0938 20.7422 23.2695 23.6602L18.9922 28.0781V28.125H27.2305V30H16.0742V28.5469L22.0273 22.2773C24.3008 19.8867 24.8398 18.9844 24.8398 17.5781C24.8398 15.9492 23.3516 14.6484 21.4883 14.6484C19.5078 14.6484 18.0078 16.0781 18.0078 17.9648V17.9766H15.9688V17.9648Z" fill="#B6FFFA"/>
</svg>
