<svg width="43" height="42" viewBox="0 0 43 42" fill="none" xmlns="http://www.w3.org/2000/svg">
<path opacity="0.5" d="M1.5 21C1.5 11.572 1.5 6.858 4.428 3.928C7.36 1 12.072 1 21.5 1C30.928 1 35.642 1 38.57 3.928C41.5 6.86 41.5 11.572 41.5 21C41.5 30.428 41.5 35.142 38.57 38.07C35.644 41 30.928 41 21.5 41C12.072 41 7.358 41 4.428 38.07C1.5 35.144 1.5 30.428 1.5 21Z" stroke="#B6FFFA" stroke-width="2"/>
<path d="M19.2148 22.1953V20.4141H21.2422C23.1875 20.4141 24.5469 19.1602 24.5469 17.4492C24.5469 15.7734 23.4102 14.6367 21.2656 14.6367C19.3203 14.6367 18.0312 15.75 17.8438 17.5195H15.8164C16.0508 14.6484 18.1836 12.8086 21.3594 12.8086C24.3828 12.8086 26.668 14.625 26.668 17.168C26.668 19.2891 25.3086 20.8125 23.1992 21.1875V21.2344C25.7539 21.3867 27.3945 22.9688 27.3945 25.3477C27.3945 28.2539 24.7461 30.2812 21.4297 30.2812C17.8906 30.2812 15.6289 28.3242 15.4766 25.5234H17.5039C17.6914 27.2578 19.1328 28.4531 21.4062 28.4531C23.6445 28.4531 25.25 27.1875 25.25 25.418C25.25 23.4258 23.75 22.1953 21.3359 22.1953H19.2148Z" fill="#B6FFFA"/>
</svg>
