<svg width="43" height="42" viewBox="0 0 43 42" fill="none" xmlns="http://www.w3.org/2000/svg">
<path opacity="0.5" d="M1.5 21C1.5 11.572 1.5 6.858 4.428 3.928C7.36 1 12.072 1 21.5 1C30.928 1 35.642 1 38.57 3.928C41.5 6.86 41.5 11.572 41.5 21C41.5 30.428 41.5 35.142 38.57 38.07C35.644 41 30.928 41 21.5 41C12.072 41 7.358 41 4.428 38.07C1.5 35.144 1.5 30.428 1.5 21Z" stroke="#B6FFFA" stroke-width="2"/>
<path d="M23.6445 30V26.4844H15.1484V24.5742C16.5898 21.9023 18.5703 18.8203 22.5664 13.0898H25.6836V24.6328H28.0742V26.4844H25.6836V30H23.6445ZM17.2344 24.5859V24.6328H23.6445V14.8477H23.6094C20.4102 19.418 18.5703 22.2422 17.2344 24.5859Z" fill="#B6FFFA"/>
</svg>
