<svg width="43" height="42" viewBox="0 0 43 42" fill="none" xmlns="http://www.w3.org/2000/svg">
<path opacity="0.5" d="M1.5 21C1.5 11.572 1.5 6.858 4.428 3.928C7.36 1 12.072 1 21.5 1C30.928 1 35.642 1 38.57 3.928C41.5 6.86 41.5 11.572 41.5 21C41.5 30.428 41.5 35.142 38.57 38.07C35.644 41 30.928 41 21.5 41C12.072 41 7.358 41 4.428 38.07C1.5 35.144 1.5 30.428 1.5 21Z" stroke="#B6FFFA" stroke-width="2"/>
<path d="M21.6641 30.2812C18.4297 30.2812 16.0391 28.2656 15.8633 25.3828H17.9375C18.125 27.1875 19.6602 28.4297 21.6875 28.4297C23.9844 28.4297 25.5781 26.8359 25.5781 24.5625C25.5781 22.2891 23.9727 20.6602 21.7227 20.6602C20.1406 20.6602 18.793 21.375 18.1016 22.5586H16.1211L17.0469 13.0898H26.7266V14.9648H18.7812L18.2656 20.4727H18.3125C19.0742 19.4531 20.4805 18.8438 22.0977 18.8438C25.3438 18.8438 27.6875 21.2227 27.6875 24.5039C27.6875 27.9023 25.1914 30.2812 21.6641 30.2812Z" fill="#B6FFFA"/>
</svg>
