<svg width="43" height="42" viewBox="0 0 43 42" fill="none" xmlns="http://www.w3.org/2000/svg">
<path opacity="0.5" d="M1.5 21C1.5 11.572 1.5 6.858 4.428 3.928C7.36 1 12.072 1 21.5 1C30.928 1 35.642 1 38.57 3.928C41.5 6.86 41.5 11.572 41.5 21C41.5 30.428 41.5 35.142 38.57 38.07C35.644 41 30.928 41 21.5 41C12.072 41 7.358 41 4.428 38.07C1.5 35.144 1.5 30.428 1.5 21Z" stroke="#B6FFFA" stroke-width="2"/>
<path d="M21.8047 30.293C19.2734 30.293 17.2578 28.9219 16.2148 26.4844C15.6523 25.1836 15.3828 23.6602 15.3828 21.832C15.3828 16.1367 17.8086 12.7969 21.9453 12.7969C24.8164 12.7969 27.0195 14.5195 27.5586 17.1797H25.4141C24.957 15.6445 23.5977 14.6602 21.9219 14.6602C19.0977 14.6602 17.4922 17.168 17.4219 21.668H17.457C18.2188 20.0156 20.082 18.9258 22.1797 18.9258C25.4023 18.9258 27.793 21.3047 27.793 24.5156C27.793 27.8555 25.2734 30.293 21.8047 30.293ZM21.7812 28.418C23.9375 28.418 25.6484 26.7188 25.6484 24.5859C25.6484 22.3711 24.0547 20.7773 21.8164 20.7773C19.5781 20.7773 17.9258 22.3711 17.9258 24.5273C17.9258 26.6953 19.6133 28.418 21.7812 28.418Z" fill="#B6FFFA"/>
</svg>
