<svg width="43" height="42" viewBox="0 0 43 42" fill="none" xmlns="http://www.w3.org/2000/svg">
<path opacity="0.5" d="M1.5 21C1.5 11.572 1.5 6.858 4.428 3.928C7.36 1 12.072 1 21.5 1C30.928 1 35.642 1 38.57 3.928C41.5 6.86 41.5 11.572 41.5 21C41.5 30.428 41.5 35.142 38.57 38.07C35.644 41 30.928 41 21.5 41C12.072 41 7.358 41 4.428 38.07C1.5 35.144 1.5 30.428 1.5 21Z" stroke="#B6FFFA" stroke-width="2"/>
<path d="M17.2812 30L24.9336 15.0117V14.9648H15.8281V13.0898H27.0195V15.0469L19.4961 30H17.2812Z" fill="#B6FFFA"/>
</svg>
