<svg width="43" height="42" viewBox="0 0 43 42" fill="none" xmlns="http://www.w3.org/2000/svg">
<path opacity="0.5" d="M1.5 21C1.5 11.572 1.5 6.858 4.428 3.928C7.36 1 12.072 1 21.5 1C30.928 1 35.642 1 38.57 3.928C41.5 6.86 41.5 11.572 41.5 21C41.5 30.428 41.5 35.142 38.57 38.07C35.644 41 30.928 41 21.5 41C12.072 41 7.358 41 4.428 38.07C1.5 35.144 1.5 30.428 1.5 21Z" stroke="#B6FFFA" stroke-width="2"/>
<path d="M21.4883 30.2812C17.9141 30.2812 15.3594 28.2539 15.3594 25.4297C15.3594 23.3203 16.8125 21.5859 18.9922 21.082V21.0352C17.1641 20.4727 16.0273 19.0312 16.0273 17.25C16.0273 14.6953 18.3477 12.8086 21.4883 12.8086C24.6523 12.8086 26.9375 14.6836 26.9375 17.2617C26.9375 19.0195 25.8242 20.4492 23.9844 21.0352V21.082C26.1758 21.5977 27.6289 23.332 27.6289 25.4297C27.6289 28.2656 25.0742 30.2812 21.4883 30.2812ZM21.4883 28.4414C23.8203 28.4414 25.4727 27.1172 25.4727 25.2773C25.4727 23.4141 23.8203 22.1016 21.4883 22.1016C19.168 22.1016 17.5039 23.4258 17.5039 25.2773C17.5039 27.1172 19.168 28.4414 21.4883 28.4414ZM21.4883 20.25C23.457 20.25 24.8516 19.0898 24.8516 17.4492C24.8516 15.7852 23.4688 14.625 21.4883 14.625C19.5078 14.625 18.125 15.7969 18.125 17.4492C18.125 19.0898 19.5078 20.25 21.4883 20.25Z" fill="#B6FFFA"/>
</svg>
