<svg width="64" height="64" viewBox="0 0 64 64" fill="none" xmlns="http://www.w3.org/2000/svg">
<g id="solar:checklist-minimalistic-line-duotone">
<g id="Group">
<path id="Vector" opacity="0.5" d="M5.33203 32.0002C5.33203 19.4295 5.33203 13.1442 9.23603 9.2375C13.1454 5.3335 19.428 5.3335 31.9987 5.3335C44.5694 5.3335 50.8547 5.3335 54.7587 9.2375C58.6654 13.1468 58.6654 19.4295 58.6654 32.0002C58.6654 44.5708 58.6654 50.8562 54.7587 54.7602C50.8574 58.6668 44.5694 58.6668 31.9987 58.6668C19.428 58.6668 13.1427 58.6668 9.23603 54.7602C5.33203 50.8588 5.33203 44.5708 5.33203 32.0002Z" stroke="#B6FFFA" stroke-width="3"/>
<path id="Vector_2" d="M16 42.1337L19.048 45.3337L26.6667 37.3337M16 23.467L19.048 26.667L26.6667 18.667" stroke="#B6FFFA" stroke-width="3" stroke-linecap="round" stroke-linejoin="round"/>
<path id="Vector_3" d="M34.6641 24H47.9974M34.6641 42.6667H47.9974" stroke="#B6FFFA" stroke-width="3" stroke-linecap="round"/>
</g>
</g>
</svg>
