<svg width="64" height="64" viewBox="0 0 64 64" fill="none" xmlns="http://www.w3.org/2000/svg">
<g id="solar:chat-square-arrow-line-duotone">
<path id="Vector" opacity="0.5" d="M24.808 13.2612C25.0706 13.2604 25.3305 13.2078 25.5729 13.1064C25.8152 13.0051 26.0352 12.8571 26.2203 12.6707C26.4054 12.4844 26.5519 12.2634 26.6516 12.0204C26.7513 11.7775 26.8022 11.5172 26.8013 11.2546C26.8005 10.9919 26.7479 10.732 26.6465 10.4897C26.5452 10.2474 26.3972 10.0274 26.2108 9.84231C26.0245 9.65722 25.8035 9.51063 25.5605 9.41093C25.3176 9.31123 25.0573 9.26037 24.7947 9.26124L24.808 13.2612ZM57.9627 38.5706C57.9636 38.0488 57.7605 37.5473 57.3968 37.1731C57.0331 36.7989 56.5376 36.5817 56.016 36.5678C55.4944 36.5539 54.988 36.7444 54.6049 37.0986C54.2218 37.4529 53.9923 37.9428 53.9653 38.4639L57.9627 38.5706ZM36.3227 58.2426L37.624 56.0719L34.1947 54.0159L32.8933 56.1866L36.3227 58.2426ZM26.376 56.0719L27.6773 58.2426L31.1067 56.1866L29.8053 54.0159L26.376 56.0719ZM32.8933 56.1866C32.8001 56.3384 32.6684 56.4628 32.5114 56.5471C32.3545 56.6314 32.178 56.6726 32 56.6666C31.822 56.6726 31.6455 56.6314 31.4886 56.5471C31.3317 56.4628 31.1999 56.3384 31.1067 56.1866L27.6773 58.2426C29.6133 61.4746 34.3867 61.4746 36.3227 58.2426L32.8933 56.1866ZM10 33.7759V31.4052H6V33.7786L10 33.7759ZM6 33.7786C6 36.5119 6 38.6612 6.12 40.3999C6.24 42.1546 6.49333 43.6346 7.06933 45.0132L10.7573 43.4639C10.4213 42.6586 10.216 41.6719 10.1093 40.1226C10.0027 38.5546 10 36.5652 10 33.7759L6 33.7786ZM21.928 49.5359C18.9147 49.4826 17.368 49.2932 16.1653 48.7999L14.6507 52.5039C16.6187 53.3092 18.848 53.4826 21.8613 53.5332L21.928 49.5359ZM7.06933 45.0132C8.50283 48.4175 11.2299 51.1102 14.6507 52.5039L16.1653 48.7999C13.727 47.8092 11.7818 45.8882 10.7573 43.4639L7.06933 45.0132ZM42.1387 53.5332C45.152 53.4826 47.3813 53.3092 49.3493 52.5039L47.8347 48.7999C46.6347 49.2932 45.0853 49.4799 42.072 49.5332L42.1387 53.5332ZM53.2427 43.4639C52.7361 44.6654 51.9978 45.7553 51.0698 46.6713C50.1419 47.5873 49.0426 48.3116 47.8347 48.8026L49.3493 52.5039C52.7701 51.1102 55.4972 48.4148 56.9307 45.0106L53.2427 43.4639ZM10 31.4052C10 27.4852 10 24.6906 10.2133 22.5119C10.4187 20.3652 10.8133 19.0266 11.4667 17.9706L8.06933 15.8639C6.95467 17.6559 6.46667 19.6852 6.22933 22.1306C5.99733 24.5439 6 27.5652 6 31.4052H10ZM12.696 11.2932C10.8157 12.4307 9.2285 13.9969 8.06933 15.8639L11.4667 17.9706C12.2943 16.6412 13.4246 15.5264 14.7653 14.7172L12.696 11.2932ZM29.8053 54.0132C29.3227 53.2052 28.888 52.4772 28.464 51.9039C28.0159 51.2603 27.436 50.7194 26.7627 50.3172L24.7707 53.7839C24.8507 53.8319 24.9867 53.9279 25.2453 54.2772C25.528 54.6612 25.8507 55.1972 26.376 56.0719L29.8053 54.0132ZM21.8587 53.5332C22.9173 53.5519 23.576 53.5652 24.0747 53.6186C24.5387 53.6719 24.6933 53.7412 24.768 53.7866L26.7627 50.3199C26.0678 49.9376 25.2998 49.7067 24.5093 49.6426C23.7867 49.5626 22.912 49.5519 21.928 49.5359L21.8587 53.5332ZM37.624 56.0719C37.9752 55.4579 38.3524 54.8591 38.7547 54.2772C39.0133 53.9306 39.1467 53.8319 39.2293 53.7866L37.2373 50.3199C36.5632 50.7198 35.983 51.26 35.536 51.9039C35.112 52.4772 34.6773 53.2052 34.1947 54.0159L37.624 56.0719ZM42.072 49.5332C41.0853 49.5492 40.2133 49.5626 39.4907 49.6426C38.7006 49.707 37.9328 49.9369 37.2373 50.3172L39.2293 53.7866C39.3067 53.7439 39.4613 53.6692 39.9227 53.6186C40.6599 53.5612 41.3992 53.5327 42.1387 53.5332L42.072 49.5332ZM24.792 9.26124C18.832 9.27991 15.816 9.40524 12.696 11.2932L14.7653 14.7172C16.7867 13.4959 18.6587 13.2799 24.8053 13.2612L24.792 9.26124ZM53.9653 38.4639C53.896 41.0132 53.6933 42.3892 53.2427 43.4639L56.9307 45.0106C57.688 43.2052 57.8933 41.1866 57.9627 38.5706L53.9653 38.4639Z" fill="#B6FFFA"/>
<path id="Vector_2" d="M31.9996 11.2585L30.5943 9.8372C30.406 10.0232 30.2566 10.2448 30.1545 10.489C30.0525 10.7332 30 10.9952 30 11.2599C30 11.5245 30.0525 11.7866 30.1545 12.0308C30.2566 12.275 30.406 12.4965 30.5943 12.6825L31.9996 11.2585ZM53.9996 31.4079C53.9996 31.9383 54.2103 32.447 54.5854 32.8221C54.9605 33.1972 55.4692 33.4079 55.9996 33.4079C56.5301 33.4079 57.0388 33.1972 57.4138 32.8221C57.7889 32.447 57.9996 31.9383 57.9996 31.4079H53.9996ZM39.405 6.7572C39.7826 6.38449 39.9968 5.87701 40.0003 5.3464C40.0038 4.8158 39.7963 4.30554 39.4236 3.92787C39.0509 3.5502 38.5434 3.33606 38.0128 3.33256C37.4822 3.32906 36.972 3.53649 36.5943 3.9092L39.405 6.7572ZM36.5943 18.6079C36.78 18.7974 37.0016 18.9481 37.2462 19.0511C37.4908 19.1542 37.7534 19.2075 38.0188 19.2081C38.2841 19.2086 38.547 19.1563 38.7919 19.0542C39.0369 18.9522 39.2591 18.8024 39.4456 18.6136C39.6321 18.4248 39.7792 18.2008 39.8782 17.9545C39.9773 17.7083 40.0263 17.4449 40.0226 17.1795C40.0188 16.9142 39.9622 16.6522 39.8562 16.409C39.7502 16.1657 39.5968 15.9459 39.405 15.7625L36.5943 18.6079ZM31.9996 13.2585C35.9463 13.2585 39.7196 13.2585 42.8636 13.4719C44.4316 13.5785 45.797 13.7359 46.9116 13.9572C48.0583 14.1839 48.805 14.4559 49.2316 14.7172L51.3063 11.2932C50.293 10.6799 49.0156 10.2985 47.693 10.0345C46.1861 9.75485 44.663 9.57049 43.133 9.48254C39.8263 9.25854 35.9063 9.25854 31.9996 9.25854V13.2585ZM57.9996 31.4079C57.9996 27.5679 57.9996 24.5439 57.7703 22.1279C57.533 19.6852 57.0423 17.6585 55.9303 15.8639L52.533 17.9705C53.1863 19.0292 53.581 20.3652 53.7863 22.5145C53.9996 24.6905 53.9996 27.4879 53.9996 31.4079H57.9996ZM49.2343 14.7145C50.581 15.5305 51.709 16.6452 52.533 17.9705L55.9303 15.8639C54.7711 13.9969 53.1866 12.4306 51.3063 11.2932L49.2343 14.7145ZM33.405 12.6825L39.405 6.7572L36.5943 3.9092L30.5943 9.8372L33.405 12.6825ZM30.5943 12.6825L36.5943 18.6079L39.405 15.7625L33.405 9.8372L30.5943 12.6825Z" fill="#B6FFFA"/>
</g>
</svg>
