<svg width="64" height="64" viewBox="0 0 64 64" fill="none" xmlns="http://www.w3.org/2000/svg">
<g id="solar:refresh-circle-line-duotone">
<g id="Group">
<path id="Vector" d="M19.6749 33.4823L18.1762 34.8076C18.3548 35.009 18.5722 35.1722 18.8153 35.2876C19.0584 35.403 19.3224 35.4681 19.5913 35.4791C19.8602 35.49 20.1285 35.4466 20.3803 35.3514C20.632 35.2562 20.8619 35.1111 21.0562 34.9249L19.6749 33.4823ZM25.3842 30.7756C25.7494 30.4047 25.9556 29.906 25.959 29.3854C25.9624 28.8649 25.7627 28.3635 25.4023 27.9879C25.0419 27.6123 24.5493 27.3919 24.0291 27.3737C23.5089 27.3555 23.002 27.5408 22.6162 27.8903L25.3842 30.7756ZM17.4962 28.0076C17.3255 27.7999 17.1147 27.6287 16.8763 27.5044C16.6379 27.38 16.3769 27.305 16.1089 27.2838C15.8408 27.2626 15.5713 27.2957 15.3163 27.381C15.0613 27.4664 14.8262 27.6022 14.6249 27.7805C14.4237 27.9588 14.2604 28.1759 14.145 28.4187C14.0295 28.6615 13.9642 28.9251 13.9529 29.1938C13.9417 29.4624 13.9847 29.7305 14.0794 29.9822C14.1741 30.2338 14.3186 30.4638 14.5042 30.6583L17.4962 28.0076ZM39.8162 24.0236C39.9945 24.2166 40.209 24.3725 40.4475 24.4826C40.686 24.5926 40.9439 24.6546 41.2064 24.665C41.4689 24.6754 41.7308 24.634 41.9773 24.5432C42.2238 24.4524 42.45 24.3139 42.6429 24.1356C42.8359 23.9574 42.9918 23.7429 43.1019 23.5043C43.2119 23.2658 43.2739 23.008 43.2843 22.7455C43.2947 22.483 43.2533 22.221 43.1625 21.9746C43.0717 21.7281 42.9332 21.5019 42.7549 21.309L39.8162 24.0236ZM32.1202 16.6663C24.1576 16.6663 17.6776 23.0743 17.6776 31.0129H21.6776C21.6776 25.3143 26.3362 20.6663 32.1202 20.6663V16.6663ZM17.6776 31.0129V33.4823H21.6776V31.0129H17.6776ZM21.0616 34.9249L25.3869 30.7756L22.6189 27.8903L18.2936 32.0369L21.0616 34.9249ZM21.1736 32.1543L17.4962 28.0076L14.5042 30.6583L18.1762 34.8076L21.1736 32.1543ZM42.7549 21.309C41.3986 19.8417 39.7555 18.6715 37.9242 17.8724C36.0928 17.0733 34.1157 16.6626 32.1176 16.6663V20.6663C33.5643 20.6627 34.996 20.9595 36.3221 21.5379C37.6482 22.1163 38.8399 22.9636 39.8216 24.0263L42.7549 21.309ZM44.3176 30.517L45.8109 29.189C45.6322 28.9878 45.4147 28.8247 45.1714 28.7096C44.9282 28.5944 44.6642 28.5296 44.3953 28.5189C44.1264 28.5082 43.8581 28.5518 43.6065 28.6473C43.3549 28.7427 43.1251 28.8879 42.9309 29.0743L44.3176 30.517ZM38.6136 33.2209C38.231 33.5887 38.0101 34.0934 37.9996 34.624C37.9891 35.1546 38.1898 35.6677 38.5576 36.0503C38.9253 36.4329 39.43 36.6538 39.9606 36.6643C40.4912 36.6748 41.0043 36.474 41.3869 36.1063L38.6136 33.2209ZM46.5069 35.9943C46.8637 36.3742 47.3547 36.5999 47.8754 36.6232C48.3961 36.6465 48.9054 36.4657 49.2947 36.1191C49.684 35.7725 49.9226 35.2877 49.9598 34.7678C49.9969 34.2479 49.8297 33.734 49.4936 33.3356L46.5069 35.9943ZM24.1256 40.0129C23.7606 39.6351 23.2616 39.416 22.7365 39.403C22.2113 39.3901 21.7021 39.5842 21.3189 39.9436C20.9357 40.303 20.7093 40.7987 20.6886 41.3236C20.6679 41.8485 20.8546 42.3605 21.2082 42.7489L24.1256 40.0129ZM31.8269 47.3329C39.8082 47.3329 46.3176 40.9329 46.3176 32.9863H42.3176C42.3176 38.6796 37.6429 43.3329 31.8269 43.3329V47.3329ZM46.3176 32.9863V30.517H42.3176V32.9863H46.3176ZM42.9309 29.0743L38.6136 33.2209L41.3869 36.1063L45.7016 31.9596L42.9309 29.0743ZM42.8242 31.8476L46.5042 35.9916L49.4962 33.3356L45.8109 29.189L42.8242 31.8476ZM21.2056 42.7463C22.5672 44.1968 24.2124 45.3522 26.039 46.1407C27.8656 46.9293 29.8347 47.3342 31.8242 47.3303V43.3303C28.7762 43.3303 26.0376 42.0503 24.1229 40.0103L21.2056 42.7463Z" fill="#B6FFFA"/>
<path id="Vector_2" opacity="0.5" d="M32.0006 58.6663C46.7282 58.6663 58.6673 46.7273 58.6673 31.9997C58.6673 17.2721 46.7282 5.33301 32.0006 5.33301C17.2731 5.33301 5.33398 17.2721 5.33398 31.9997C5.33398 46.7273 17.2731 58.6663 32.0006 58.6663Z" stroke="#B6FFFA" stroke-width="3"/>
</g>
</g>
</svg>
