<svg width="64" height="64" viewBox="0 0 64 64" fill="none" xmlns="http://www.w3.org/2000/svg">
<g id="solar:emoji-funny-square-line-duotone">
<g id="Group">
<path id="Vector" d="M23.7695 42.4907C27.1242 43.3307 30.9295 43.3307 34.7615 42.304C38.5935 41.2773 41.8895 39.3733 44.3749 36.968" stroke="#B6FFFA" stroke-width="3" stroke-linecap="round"/>
<path id="Vector_2" d="M39.7264 29.9284C41.149 29.5472 41.8387 27.5084 41.267 25.3745C40.6952 23.2406 39.0785 21.8198 37.6559 22.201C36.2333 22.5822 35.5436 24.621 36.1154 26.7549C36.6871 28.8887 38.3039 30.3096 39.7264 29.9284Z" fill="#B6FFFA"/>
<path id="Vector_3" d="M24.2733 34.0717C25.6959 33.6905 26.3856 31.6517 25.8138 29.5178C25.2421 27.3839 23.6253 25.9631 22.2028 26.3443C20.7802 26.7255 20.0905 28.7643 20.6622 30.8982C21.234 33.032 22.8507 34.4529 24.2733 34.0717Z" fill="#B6FFFA"/>
<path id="Vector_4" opacity="0.5" d="M8.54476 38.2853C5.57943 27.2267 4.09943 21.6987 6.61409 17.344C9.12876 12.9867 14.6568 11.504 25.7154 8.544C36.7741 5.57867 42.3021 4.09867 46.6568 6.61333C51.0141 9.128 52.4968 14.656 55.4568 25.7147C58.4194 36.7733 59.9021 42.3013 57.3874 46.656C54.8728 51.0133 49.3448 52.496 38.2861 55.456C27.2274 58.4187 21.6994 59.9013 17.3448 57.3867C12.9874 54.872 11.5048 49.344 8.54476 38.2853Z" stroke="#B6FFFA" stroke-width="3"/>
<path id="Vector_5" d="M34.668 42.6667L35.9426 45.264C36.1732 45.737 36.4949 46.1598 36.8892 46.5083C37.2834 46.8568 37.7426 47.124 38.2404 47.2948C38.7381 47.4655 39.2646 47.5363 39.7898 47.5032C40.315 47.4701 40.8284 47.3337 41.3008 47.1018C41.7731 46.8699 42.1951 46.5471 42.5425 46.1519C42.8899 45.7567 43.1559 45.2968 43.3253 44.7986C43.4946 44.3004 43.564 43.7736 43.5295 43.2486C43.4949 42.7235 43.3571 42.2104 43.124 41.7387L41.8973 39.2453" stroke="#B6FFFA" stroke-width="3"/>
</g>
</g>
</svg>
