<svg width="64" height="64" viewBox="0 0 64 64" fill="none" xmlns="http://www.w3.org/2000/svg">
<g id="solar:settings-minimalistic-line-duotone">
<g id="Group">
<path id="Vector" opacity="0.5" d="M20.9147 10.1387C26.3253 6.936 29.0293 5.33333 32 5.33333C34.9707 5.33333 37.6747 6.93333 43.0853 10.1387L44.9147 11.2213C50.3253 14.4267 53.0293 16.0293 54.5147 18.6667C56 21.3067 56 24.5067 56 30.9173V33.0827C56 39.4907 56 42.696 54.5147 45.3333C53.0293 47.9733 50.3253 49.5733 44.9147 52.776L43.0853 53.8613C37.6747 57.064 34.9707 58.6667 32 58.6667C29.0293 58.6667 26.3253 57.0667 20.9147 53.8613L19.0853 52.776C13.6747 49.576 10.9707 47.9707 9.48533 45.3333C8 42.6933 8 39.4933 8 33.0827V30.9173C8 24.5067 8 21.304 9.48533 18.6667C10.9707 16.0267 13.6747 14.4267 19.0853 11.2213L20.9147 10.1387Z" stroke="#B6FFFA" stroke-width="3"/>
<path id="Vector_2" d="M32 40C36.4183 40 40 36.4183 40 32C40 27.5817 36.4183 24 32 24C27.5817 24 24 27.5817 24 32C24 36.4183 27.5817 40 32 40Z" stroke="#B6FFFA" stroke-width="3"/>
</g>
</g>
</svg>
