<svg width="64" height="64" viewBox="0 0 64 64" fill="none" xmlns="http://www.w3.org/2000/svg">
<g id="solar:shield-network-line-duotone">
<g id="Group">
<path id="Vector" opacity="0.5" d="M8 27.7787C8 19.2507 8 14.9867 9.008 13.552C10.0133 12.12 14.0213 10.7467 22.04 8.00268L23.568 7.48001C27.7467 6.04801 29.8347 5.33334 32 5.33334C34.1627 5.33334 36.2533 6.04801 40.432 7.48001L41.96 8.00268C49.9787 10.7467 53.9867 12.12 54.992 13.552C56 14.9867 56 19.2533 56 27.7787V31.976C56 47.0107 44.696 54.3093 37.6027 57.4053C35.68 58.2453 34.72 58.6667 32 58.6667C29.28 58.6667 28.32 58.2453 26.3973 57.4053C19.304 54.3067 8 47.0133 8 31.976V27.7787Z" stroke="#B6FFFA" stroke-width="3"/>
<path id="Vector_2" d="M45.3333 32C45.3583 33.7667 45.0319 35.5207 44.3731 37.1601C43.7143 38.7995 42.7363 40.2916 41.4958 41.5497C40.2554 42.8079 38.7772 43.8069 37.1473 44.4888C35.5173 45.1707 33.7681 45.5219 32.0013 45.5219C30.2345 45.5219 28.4853 45.1707 26.8553 44.4888C25.2254 43.8069 23.7473 42.8079 22.5068 41.5497C21.2663 40.2916 20.2883 38.7995 19.6295 37.1601C18.9707 35.5207 18.6443 33.7667 18.6693 32C18.7188 28.4968 20.1453 25.1538 22.6401 22.694C25.135 20.2342 28.4977 18.8552 32.0013 18.8552C35.5049 18.8552 38.8676 20.2342 41.3625 22.694C43.8573 25.1538 45.2838 28.4968 45.3333 32Z" stroke="#B6FFFA" stroke-width="3"/>
<path id="Vector_3" d="M36.9273 37.1014C37.194 35.4854 37.3327 33.752 37.3327 32C37.3327 30.248 37.194 28.5147 36.9273 26.8987C36.6965 25.419 36.3085 23.9681 35.77 22.5707C35.2767 21.3334 34.6874 20.352 34.0394 19.6827C33.394 19.0107 32.7007 18.6667 31.9993 18.6667C31.298 18.6667 30.6047 19.0134 29.9593 19.68C29.3113 20.352 28.7247 21.3334 28.226 22.5707C27.6884 23.9682 27.3013 25.4191 27.0714 26.8987C26.8047 28.5147 26.666 30.248 26.666 32C26.666 33.752 26.8047 35.4854 27.0714 37.1014C27.338 38.72 27.7327 40.1894 28.2287 41.4294C28.722 42.6667 29.3113 43.648 29.9593 44.3174C30.6047 44.9894 31.298 45.3334 31.9993 45.3334C32.7007 45.3334 33.394 44.9867 34.0394 44.32C34.6874 43.648 35.274 42.6667 35.7727 41.4267C36.3101 40.03 36.6972 38.58 36.9273 37.1014Z" stroke="#B6FFFA" stroke-width="3"/>
<path id="Vector_4" d="M18.666 32H45.3327" stroke="#B6FFFA" stroke-width="3" stroke-linecap="round"/>
</g>
</g>
</svg>
