<svg width="100" height="100" viewBox="0 0 100 100" fill="none" xmlns="http://www.w3.org/2000/svg">
<g id="carbon:running">
<path id="Vector" d="M67.8344 63.4156L52.2094 47.7907C51.92 47.4991 51.5759 47.2676 51.1967 47.1097C50.8175 46.9518 50.4108 46.8705 50 46.8705C49.5892 46.8705 49.1825 46.9518 48.8033 47.1097C48.4241 47.2676 48.08 47.4991 47.7906 47.7907L6.25 89.3313L10.6688 93.75L50 54.4188L61.2063 65.625L43.75 83.0813L48.1687 87.5L55.3312 80.3375L67.8344 67.8344C68.1256 67.5449 68.3567 67.2006 68.5144 66.8214C68.6721 66.4423 68.7532 66.0357 68.7532 65.625C68.7532 65.2144 68.6721 64.8078 68.5144 64.4286C68.3567 64.0494 68.1256 63.7052 67.8344 63.4156Z" fill="#B6FFFA"/>
<path id="Vector_2" d="M89.3313 28.125L71.875 45.5812L53.1219 26.825C52.5388 26.2419 51.8457 25.7803 51.0829 25.467C50.3201 25.1538 49.5027 24.995 48.6781 25C47.0287 25.0024 45.4476 25.6587 44.2812 26.825L25 46.125L29.4187 50.5437L48.7 31.2469L69.6688 52.2094C69.9582 52.5001 70.3023 52.7308 70.6812 52.8882C71.0601 53.0456 71.4663 53.1267 71.8766 53.1267C72.2868 53.1267 72.6931 53.0456 73.072 52.8882C73.4508 52.7308 73.7949 52.5001 74.0844 52.2094L93.75 32.5437L89.3313 28.125Z" fill="#B6FFFA"/>
<path id="Vector_3" d="M70.3125 28.125C64.2812 28.125 59.375 23.2188 59.375 17.1875C59.375 11.1562 64.2812 6.25 70.3125 6.25C76.3438 6.25 81.25 11.1562 81.25 17.1875C81.25 23.2188 76.3438 28.125 70.3125 28.125ZM70.3125 12.5C67.7281 12.5 65.625 14.6031 65.625 17.1875C65.625 19.7719 67.7281 21.875 70.3125 21.875C72.8969 21.875 75 19.7719 75 17.1875C75 14.6031 72.8969 12.5 70.3125 12.5Z" fill="#B6FFFA"/>
</g>
</svg>
