<svg width="64" height="64" viewBox="0 0 64 64" fill="none" xmlns="http://www.w3.org/2000/svg">
<g id="solar:window-frame-line-duotone">
<g id="Group">
<path id="Vector" d="M5.33398 32C5.33398 19.4294 5.33398 13.144 9.23798 9.23737C13.1473 5.33337 19.43 5.33337 32.0006 5.33337C44.5713 5.33337 50.8566 5.33337 54.7606 9.23737C58.6673 13.1467 58.6673 19.4294 58.6673 32C58.6673 44.5707 58.6673 50.856 54.7606 54.76C50.8593 58.6667 44.5713 58.6667 32.0006 58.6667C19.43 58.6667 13.1447 58.6667 9.23798 54.76C5.33398 50.8587 5.33398 44.5707 5.33398 32Z" stroke="#B6FFFA" stroke-width="3"/>
<path id="Vector_2" d="M18.6673 16C18.6673 16.7073 18.3864 17.3856 17.8863 17.8857C17.3862 18.3858 16.7079 18.6667 16.0007 18.6667C15.2934 18.6667 14.6151 18.3858 14.115 17.8857C13.6149 17.3856 13.334 16.7073 13.334 16C13.334 15.2928 13.6149 14.6145 14.115 14.1144C14.6151 13.6143 15.2934 13.3334 16.0007 13.3334C16.7079 13.3334 17.3862 13.6143 17.8863 14.1144C18.3864 14.6145 18.6673 15.2928 18.6673 16ZM26.6673 16C26.6673 16.7073 26.3864 17.3856 25.8863 17.8857C25.3862 18.3858 24.7079 18.6667 24.0007 18.6667C23.2934 18.6667 22.6151 18.3858 22.115 17.8857C21.6149 17.3856 21.334 16.7073 21.334 16C21.334 15.2928 21.6149 14.6145 22.115 14.1144C22.6151 13.6143 23.2934 13.3334 24.0007 13.3334C24.7079 13.3334 25.3862 13.6143 25.8863 14.1144C26.3864 14.6145 26.6673 15.2928 26.6673 16ZM34.6673 16C34.6673 16.7073 34.3864 17.3856 33.8863 17.8857C33.3862 18.3858 32.7079 18.6667 32.0007 18.6667C31.2934 18.6667 30.6151 18.3858 30.115 17.8857C29.6149 17.3856 29.334 16.7073 29.334 16C29.334 15.2928 29.6149 14.6145 30.115 14.1144C30.6151 13.6143 31.2934 13.3334 32.0007 13.3334C32.7079 13.3334 33.3862 13.6143 33.8863 14.1144C34.3864 14.6145 34.6673 15.2928 34.6673 16Z" fill="#B6FFFA"/>
<path id="Vector_3" opacity="0.5" d="M5.33398 23.3334C4.80355 23.3334 4.29484 23.5441 3.91977 23.9192C3.5447 24.2942 3.33398 24.8029 3.33398 25.3334C3.33398 25.8638 3.5447 26.3725 3.91977 26.7476C4.29484 27.1227 4.80355 27.3334 5.33398 27.3334V23.3334ZM58.6673 27.3334C59.1977 27.3334 59.7065 27.1227 60.0815 26.7476C60.4566 26.3725 60.6673 25.8638 60.6673 25.3334C60.6673 24.8029 60.4566 24.2942 60.0815 23.9192C59.7065 23.5441 59.1977 23.3334 58.6673 23.3334V27.3334ZM22.0007 56C22.0007 56.5305 22.2114 57.0392 22.5864 57.4143C22.9615 57.7893 23.4702 58 24.0007 58C24.5311 58 25.0398 57.7893 25.4149 57.4143C25.7899 57.0392 26.0007 56.5305 26.0007 56H22.0007ZM26.0007 26.6667C26.0007 26.1363 25.7899 25.6276 25.4149 25.2525C25.0398 24.8774 24.5311 24.6667 24.0007 24.6667C23.4702 24.6667 22.9615 24.8774 22.5864 25.2525C22.2114 25.6276 22.0007 26.1363 22.0007 26.6667H26.0007ZM5.33398 27.3334H58.6673V23.3334H5.33398V27.3334ZM26.0007 56V26.6667H22.0007V56H26.0007Z" fill="#B6FFFA"/>
</g>
</g>
</svg>
