<svg width="64" height="64" viewBox="0 0 64 64" fill="none" xmlns="http://www.w3.org/2000/svg">
<g id="solar:cpu-line-duotone">
<g id="Group">
<path id="Vector" opacity="0.5" d="M18.668 26.6667C18.668 22.8961 18.668 21.0107 19.8413 19.8401C21.0093 18.6667 22.8946 18.6667 26.668 18.6667H37.3346C41.1053 18.6667 42.9906 18.6667 44.1613 19.8401C45.3346 21.0107 45.3346 22.8961 45.3346 26.6667V37.3334C45.3346 41.1041 45.3346 42.9894 44.1613 44.1601C42.9906 45.3334 41.1053 45.3334 37.3346 45.3334H26.668C22.8973 45.3334 21.012 45.3334 19.8413 44.1601C18.668 42.9921 18.668 41.1067 18.668 37.3334V26.6667Z" stroke="#B6FFFA" stroke-width="3"/>
<path id="Vector_2" d="M10.668 32.0001C10.668 21.9441 10.668 16.9147 13.7933 13.7921C16.916 10.6667 21.9453 10.6667 32.0013 10.6667C42.0573 10.6667 47.0866 10.6667 50.2093 13.7921C53.3346 16.9147 53.3346 21.9441 53.3346 32.0001C53.3346 42.0561 53.3346 47.0854 50.2093 50.2081C47.0866 53.3334 42.0573 53.3334 32.0013 53.3334C21.9453 53.3334 16.916 53.3334 13.7933 50.2081C10.668 47.0854 10.668 42.0561 10.668 32.0001Z" stroke="#B6FFFA" stroke-width="3"/>
<path id="Vector_3" opacity="0.5" d="M10.6673 32H5.33398M58.6673 32H53.334M10.6673 24H5.33398M58.6673 24H53.334M10.6673 40H5.33398M58.6673 40H53.334M32.0006 53.3334V58.6667M32.0006 5.33337V10.6667M24.0006 53.3334V58.6667M24.0006 5.33337V10.6667M40.0006 53.3334V58.6667M40.0006 5.33337V10.6667" stroke="#B6FFFA" stroke-width="3" stroke-linecap="round"/>
</g>
</g>
</svg>
