<svg width="64" height="64" viewBox="0 0 64 64" fill="none" xmlns="http://www.w3.org/2000/svg">
<g id="solar:widget-6-line-duotone">
<g id="Group">
<path id="Vector" opacity="0.5" d="M6.66602 17.3333C6.66602 14.5043 7.78982 11.7912 9.79021 9.79082C11.7906 7.79043 14.5037 6.66663 17.3327 6.66663C20.1617 6.66663 22.8748 7.79043 24.8752 9.79082C26.8755 11.7912 27.9993 14.5043 27.9993 17.3333V24.4453C27.9993 25.272 27.9993 25.6853 27.9087 26.024C27.7875 26.476 27.5495 26.8882 27.2186 27.2192C26.8876 27.5501 26.4754 27.7881 26.0233 27.9093C25.6847 28 25.2713 28 24.4447 28H17.3327C14.5037 28 11.7906 26.8762 9.79021 24.8758C7.78982 22.8754 6.66602 20.1623 6.66602 17.3333ZM35.9993 39.5546C35.9993 38.728 35.9994 38.3146 36.09 37.976C36.2112 37.5239 36.4492 37.1117 36.7801 36.7807C37.1111 36.4498 37.5233 36.2118 37.9754 36.0906C38.314 36 38.7274 36 39.554 36H46.666C48.7757 36 50.838 36.6256 52.5921 37.7976C54.3462 38.9697 55.7134 40.6356 56.5207 42.5847C57.3281 44.5337 57.5393 46.6785 57.1277 48.7476C56.7162 50.8167 55.7002 52.7173 54.2085 54.2091C52.7167 55.7009 50.8161 56.7168 48.747 57.1283C46.6778 57.5399 44.5331 57.3287 42.5841 56.5213C40.635 55.714 38.9691 54.3468 37.797 52.5927C36.6249 50.8386 35.9993 48.7763 35.9993 46.6666V39.5546Z" stroke="#B6FFFA" stroke-width="3"/>
<path id="Vector_2" d="M6.66602 46.6666C6.66602 43.8377 7.78982 41.1245 9.79021 39.1242C11.7906 37.1238 14.5037 36 17.3327 36H23.7327C25.226 36 25.9727 36 26.5434 36.2906C27.0451 36.5463 27.453 36.9542 27.7087 37.456C27.9993 38.0266 27.9993 38.7733 27.9993 40.2666V46.6666C27.9993 49.4956 26.8755 52.2087 24.8752 54.2091C22.8748 56.2095 20.1617 57.3333 17.3327 57.3333C14.5037 57.3333 11.7906 56.2095 9.79021 54.2091C7.78982 52.2087 6.66602 49.4956 6.66602 46.6666ZM35.9993 17.3333C35.9993 15.2236 36.6249 13.1613 37.797 11.4072C38.9691 9.65309 40.635 8.28592 42.5841 7.47858C44.5331 6.67125 46.6778 6.46001 48.747 6.87159C50.8161 7.28316 52.7167 8.29906 54.2085 9.79082C55.7002 11.2826 56.7162 13.1832 57.1277 15.2523C57.5393 17.3215 57.3281 19.4662 56.5207 21.4153C55.7134 23.3643 54.3462 25.0302 52.5921 26.2023C50.838 27.3744 48.7757 28 46.666 28H39.0473C38.6927 28 38.514 28 38.3673 27.984C37.7668 27.9164 37.207 27.6469 36.7797 27.2196C36.3524 26.7923 36.0829 26.2325 36.0153 25.632C35.9993 25.4826 35.9993 25.3066 35.9993 24.952V17.3333Z" stroke="#B6FFFA" stroke-width="3"/>
</g>
</g>
</svg>
