<svg width="49" height="48" viewBox="0 0 49 48" fill="none" xmlns="http://www.w3.org/2000/svg">
<path d="M24.5 43.5C24.2255 43.4999 23.9562 43.4244 23.7216 43.2819C23.487 43.1393 23.2961 42.9351 23.1695 42.6915L20.0495 36.6915L22.7105 35.3085L24.5 38.748L30.9695 26.3085L33.6305 27.6915L25.8305 42.6915C25.7039 42.9351 25.513 43.1393 25.2784 43.2819C25.0438 43.4244 24.7745 43.4999 24.5 43.5ZM17 22.917V19.5C17 16.191 14.309 13.5 11 13.5C7.691 13.5 5 16.191 5 19.5V22.917C4.1075 23.4375 3.5 24.3945 3.5 25.5V33C3.5 34.6545 4.8455 36 6.5 36H15.5C17.1545 36 18.5 34.6545 18.5 33V25.5C18.5 24.3945 17.8925 23.4375 17 22.917ZM11 16.5C12.6545 16.5 14 17.847 14 19.5V22.5H8V19.5C8 17.847 9.3455 16.5 11 16.5ZM15.5 33H6.5V25.5H15.5V33ZM44 3H30.0845C29.564 2.1075 28.6085 1.5 27.5 1.5C26.7044 1.5 25.9413 1.81607 25.3787 2.37868C24.8161 2.94129 24.5 3.70435 24.5 4.5C24.5 5.29565 24.8161 6.05871 25.3787 6.62132C25.9413 7.18393 26.7044 7.5 27.5 7.5C28.6085 7.5 29.564 6.8925 30.0845 6H41.5295L35.2745 18.0285C35.1845 18.0195 35.0945 18 35 18C34.4067 18 33.8266 18.1759 33.3333 18.5056C32.8399 18.8352 32.4554 19.3038 32.2284 19.8519C32.0013 20.4001 31.9419 21.0033 32.0576 21.5853C32.1734 22.1672 32.4591 22.7018 32.8787 23.1213C33.2982 23.5409 33.8328 23.8266 34.4147 23.9424C34.9967 24.0581 35.5999 23.9987 36.1481 23.7716C36.6962 23.5446 37.1648 23.1601 37.4944 22.6667C37.8241 22.1734 38 21.5933 38 21C38 20.568 37.9055 20.16 37.7405 19.788L45.3305 5.193C45.3605 5.124 45.5 4.875 45.5 4.5C45.5 4.10218 45.342 3.72064 45.0607 3.43934C44.7794 3.15804 44.3978 3 44 3ZM5 3C4.60218 3 4.22064 3.15804 3.93934 3.43934C3.65804 3.72064 3.5 4.10218 3.5 4.5C3.5 4.875 3.6395 5.127 3.6695 5.1915L6.4295 10.5H9.8105L7.4705 6H21.5V3H5Z" fill="#6EC792"/>
</svg>
