<svg width="48" height="48" viewBox="0 0 48 48" fill="none" xmlns="http://www.w3.org/2000/svg">
<path d="M16.5 16.5V26.202C16.5038 27.6217 16.9086 29.0114 17.6679 30.2109C18.4272 31.4105 19.51 32.3711 20.7915 32.982L24 34.5L27.2085 32.9805C28.49 32.3696 29.5728 31.409 30.3321 30.2094C31.0914 29.0099 31.4962 27.6202 31.5 26.2005V16.5H16.5ZM28.5 26.202C28.4973 27.0534 28.2542 27.8867 27.7985 28.6059C27.3428 29.3251 26.6932 29.9009 25.9245 30.267L24 31.1805L22.0755 30.27C21.3063 29.9037 20.6564 29.3274 20.2007 28.6077C19.745 27.8879 19.5021 27.0539 19.5 26.202V19.5H28.5V26.202Z" fill="#6EC792"/>
<path d="M45.6209 26.1219C46.1833 25.5593 46.4992 24.7964 46.4992 24.0009C46.4992 23.2054 46.1833 22.4424 45.6209 21.8799L36.9404 13.1994L41.2904 8.90636C41.932 9.06608 42.6084 9.00958 43.2146 8.74562C43.8209 8.48166 44.3231 8.02499 44.6432 7.44647C44.9634 6.86796 45.0837 6.19994 44.9855 5.54608C44.8872 4.89221 44.5759 4.28904 44.0999 3.83017C43.6238 3.3713 43.0096 3.08238 42.3526 3.00824C41.6955 2.93409 41.0324 3.07887 40.466 3.4201C39.8997 3.76134 39.4618 4.27996 39.2203 4.89548C38.9788 5.51101 38.9472 6.18904 39.1304 6.82436L34.8194 11.0784L26.1209 2.37836C25.5583 1.81595 24.7954 1.5 23.9999 1.5C23.2044 1.5 22.4415 1.81595 21.8789 2.37836L13.1984 11.0619L8.90538 6.70886C9.06428 6.06708 9.00694 5.39081 8.74227 4.78495C8.47759 4.17909 8.02036 3.6775 7.44153 3.35802C6.86269 3.03853 6.1946 2.919 5.54089 3.01797C4.88719 3.11693 4.28442 3.42886 3.82609 3.90537C3.36776 4.38187 3.07949 4.99631 3.00601 5.65337C2.93252 6.31043 3.07793 6.97337 3.41968 7.53935C3.76142 8.10533 4.28039 8.54272 4.89608 8.78365C5.51178 9.02457 6.18977 9.05558 6.82488 8.87186L11.0774 13.1814L2.37738 21.8799C1.81497 22.4424 1.49902 23.2054 1.49902 24.0009C1.49902 24.7964 1.81497 25.5593 2.37738 26.1219L11.0774 34.8204L6.82488 39.1299C6.19111 38.9473 5.51482 38.9789 4.90085 39.2198C4.28687 39.4607 3.76949 39.8974 3.42891 40.4621C3.08833 41.0269 2.94357 41.6883 3.01706 42.3437C3.09055 42.9992 3.37819 43.612 3.8354 44.0874C4.29261 44.5627 4.89385 44.874 5.54593 44.9729C6.19801 45.0718 6.8645 44.9529 7.44211 44.6345C8.01971 44.3161 8.47617 43.8161 8.74072 43.2119C9.00527 42.6078 9.06315 41.9332 8.90538 41.2929L13.1984 36.9429L21.8789 45.6219C22.4415 46.1843 23.2044 46.5002 23.9999 46.5002C24.7954 46.5002 25.5583 46.1843 26.1209 45.6219L34.8209 36.9234L39.1289 41.1774C38.9463 41.8111 38.978 42.4874 39.2188 43.1014C39.4597 43.7154 39.8964 44.2327 40.4612 44.5733C41.026 44.9139 41.6873 45.0587 42.3428 44.9852C42.9982 44.9117 43.6111 44.624 44.0864 44.1668C44.5618 43.7096 44.873 43.1084 44.9719 42.4563C45.0708 41.8042 44.9519 41.1377 44.6335 40.5601C44.3151 39.9825 43.8151 39.5261 43.211 39.2615C42.6068 38.997 41.9323 38.9391 41.2919 39.0969L36.9419 34.8024L45.6209 26.1219ZM23.9999 43.5009L4.49988 24.0009L23.9999 4.50086L43.4999 24.0009L23.9999 43.5009Z" fill="#6EC792"/>
</svg>
