<svg width="100" height="100" viewBox="0 0 100 100" fill="none" xmlns="http://www.w3.org/2000/svg">
<g id="carbon:dashboard">
<path id="Vector" d="M75 65.625H81.25V81.25H75V65.625ZM62.5 50H68.75V81.25H62.5V50ZM34.375 81.25C30.2325 81.245 26.2611 79.5972 23.3319 76.6681C20.4028 73.7389 18.755 69.7675 18.75 65.625H25C25 67.4792 25.5498 69.2918 26.58 70.8335C27.6101 72.3752 29.0743 73.5768 30.7873 74.2864C32.5004 74.9959 34.3854 75.1816 36.204 74.8199C38.0225 74.4581 39.693 73.5652 41.0041 72.2541C42.3152 70.943 43.2081 69.2725 43.5699 67.454C43.9316 65.6354 43.7459 63.7504 43.0364 62.0373C42.3268 60.3243 41.1252 58.8601 39.5835 57.83C38.0418 56.7998 36.2292 56.25 34.375 56.25V50C38.519 50 42.4933 51.6462 45.4235 54.5765C48.3538 57.5067 50 61.481 50 65.625C50 69.769 48.3538 73.7433 45.4235 76.6735C42.4933 79.6038 38.519 81.25 34.375 81.25Z" fill="#B6FFFA"/>
<path id="Vector_2" d="M87.5 6.25H12.5C10.8429 6.25165 9.25415 6.91067 8.08241 8.08241C6.91067 9.25415 6.25165 10.8429 6.25 12.5V87.5C6.25165 89.1571 6.91067 90.7458 8.08241 91.9176C9.25415 93.0893 10.8429 93.7483 12.5 93.75H87.5C89.1568 93.7475 90.7451 93.0882 91.9167 91.9167C93.0882 90.7451 93.7475 89.1568 93.75 87.5V12.5C93.7483 10.8429 93.0893 9.25415 91.9176 8.08241C90.7458 6.91067 89.1571 6.25165 87.5 6.25ZM87.5 34.375H43.75V12.5H87.5V34.375ZM37.5 12.5V34.375H12.5V12.5H37.5ZM12.5 87.5V40.625H87.5L87.5063 87.5H12.5Z" fill="#B6FFFA"/>
</g>
</svg>
