<svg width="49" height="48" viewBox="0 0 49 48" fill="none" xmlns="http://www.w3.org/2000/svg">
<path d="M32.603 23.4645C33.3571 22.7677 33.9592 21.9227 34.3717 20.9824C34.7842 20.0421 34.9981 19.0268 35 18V16.5C34.9976 14.5116 34.2067 12.6053 32.8007 11.1993C31.3947 9.79332 29.4884 9.00238 27.5 9H26V4.5H23V9H15.5V39H23V43.5H26V39H29C30.9884 38.9976 32.8947 38.2067 34.3007 36.8007C35.7067 35.3947 36.4976 33.4884 36.5 31.5V30C36.4951 28.6615 36.1309 27.3489 35.4454 26.1992C34.7599 25.0496 33.7782 24.1051 32.603 23.4645ZM18.5 12H27.5C28.6931 12.0012 29.837 12.4757 30.6807 13.3193C31.5243 14.163 31.9988 15.3069 32 16.5V18C31.9988 19.1931 31.5243 20.337 30.6807 21.1807C29.837 22.0243 28.6931 22.4988 27.5 22.5H18.5V12ZM33.5 31.5C33.4988 32.6931 33.0243 33.837 32.1807 34.6807C31.337 35.5243 30.1931 35.9988 29 36H18.5V25.5H29C30.1931 25.5012 31.337 25.9757 32.1807 26.8193C33.0243 27.663 33.4988 28.8069 33.5 30V31.5Z" fill="#6EC792"/>
</svg>
