<svg width="49" height="48" viewBox="0 0 49 48" fill="none" xmlns="http://www.w3.org/2000/svg">
<path d="M21.5 6C23.5767 6 25.6068 6.61581 27.3335 7.76957C29.0602 8.92332 30.406 10.5632 31.2007 12.4818C31.9955 14.4004 32.2034 16.5116 31.7983 18.5484C31.3931 20.5852 30.3931 22.4562 28.9246 23.9246C27.4562 25.3931 25.5853 26.3931 23.5485 26.7982C21.5117 27.2034 19.4005 26.9955 17.4818 26.2007C15.5632 25.406 13.9233 24.0602 12.7696 22.3335C11.6158 20.6068 11 18.5767 11 16.5C11 13.7152 12.1063 11.0445 14.0754 9.07538C16.0445 7.10625 18.7152 6 21.5 6ZM21.5 3C18.83 3 16.2199 3.79176 13.9998 5.27516C11.7797 6.75856 10.0494 8.86697 9.02763 11.3338C8.00585 13.8006 7.7385 16.515 8.2594 19.1337C8.78031 21.7525 10.0661 24.1579 11.9541 26.0459C13.8421 27.9339 16.2475 29.2197 18.8663 29.7406C21.485 30.2615 24.1994 29.9942 26.6662 28.9724C29.133 27.9506 31.2414 26.2203 32.7248 24.0002C34.2082 21.7801 35 19.17 35 16.5C35 12.9196 33.5777 9.4858 31.0459 6.95406C28.5142 4.42232 25.0804 3 21.5 3Z" fill="#6EC792"/>
<path d="M42.5003 16.5007C42.5021 13.7431 41.959 11.0123 40.9024 8.46511C39.8457 5.91797 38.2961 3.60471 36.3428 1.6582L34.2202 3.7807C37.5905 7.14949 39.4865 11.7177 39.4924 16.4829C39.4982 21.2481 37.6133 25.8209 34.2514 29.198C30.8895 32.575 26.3251 34.4804 21.5599 34.4959C16.7948 34.5114 12.2181 32.6358 8.83425 29.2807L8.77725 29.2237L6.65625 31.3447C8.60306 33.298 10.9166 34.8473 13.464 35.9038C16.0114 36.9602 18.7425 37.5029 21.5002 37.5007V42.0007H15.5002V45.0007H30.5002V42.0007H24.5002V37.2607C29.4927 36.537 34.0583 34.0414 37.3631 30.23C40.6678 26.4185 42.4912 21.5454 42.5003 16.5007Z" fill="#6EC792"/>
</svg>
