<svg width="215" height="320" viewBox="0 0 215 320" fill="none" xmlns="http://www.w3.org/2000/svg">
<g opacity="0.2">
<path opacity="0.1" d="M34.3165 282.456H20.5349L108.096 39.1394H123.54L211.101 282.456H197.319L116.412 55.8912H115.224L34.3165 282.456ZM57.8403 191.331H173.796V203.568H57.8403V191.331ZM270.534 39.1394V282.456H257.465V39.1394H270.534Z" fill="white"/>
<path fill-rule="evenodd" clip-rule="evenodd" d="M27.5345 1.00635C15.4069 3.93977 5.32332 14.6387 1.8362 28.2737C0.627529 33.0006 0.558075 35.5381 0.587285 73.9081C0.621689 118.465 0.519774 117.26 4.49568 120.199C7.83285 122.665 13.7126 121.529 16.4013 117.898C17.7366 116.096 17.7632 115.395 18.0826 74.082C18.4013 32.8422 18.4318 32.0445 19.8021 29.0799C22.0176 24.288 25.7358 21.0326 30.7711 19.4773C34.9995 18.1713 36.3925 18.1414 92.6382 18.1388C147.791 18.1369 150.263 18.0862 152.179 16.9172C156.277 14.4187 157.545 7.6028 154.65 3.63467C151.852 -0.201027 154.732 -0.0393946 90.3623 0.0196762C41.4603 0.064466 30.7315 0.233242 27.5345 1.00635ZM179.728 1.09334C176.976 2.48767 174.522 5.98841 174.522 8.52132C174.522 11.3243 176.039 14.4187 178.379 16.3868L180.464 18.1414H223.232C264.645 18.1414 266.112 18.183 269.529 19.4611C274.004 21.1358 278.491 25.0676 280.438 29.0214L281.953 32.0977L282.278 73.9665C282.592 114.56 282.642 115.888 283.9 117.566C285.797 120.093 288.28 121.353 291.365 121.353C294.841 121.353 297.37 119.846 299.122 116.729C300.507 114.265 300.509 114.179 300.268 72.2054C300.005 26.4535 300.176 28.6391 296.205 20.5296C293.402 14.8049 288.65 9.47619 283.09 5.82484C274.199 -0.0160206 277.56 0.324119 226.777 0.124837C185.077 -0.0387438 181.832 0.0281193 179.728 1.09334ZM40.6326 38.3942C39.5609 39.1855 39.4999 41.536 39.6589 75.9139L39.8284 112.59L75.8549 112.914C115.859 113.274 113.796 113.038 117.916 117.732C119.804 119.881 121.282 123.52 121.29 126.034C121.298 128.465 118.533 134.358 116.636 135.955C111.707 140.102 115.406 139.821 60.925 140.178L11.2667 140.502L11.085 149.176C10.9629 155.017 11.1479 158.144 11.6517 158.75C12.7915 160.124 107.911 160.058 114.421 158.678C124.178 156.612 132.57 150.546 137.372 142.089C144.407 129.703 142.197 113.975 132.047 104.181L128.042 100.318L132.04 96.3919C142.133 86.483 144.085 72.1262 137.261 57.9966C134.45 52.1765 130.563 47.8683 124.625 43.9917C115.271 37.8853 116.213 38.0073 76.5041 37.7633C48.7617 37.5932 41.546 37.7198 40.6326 38.3942ZM164.452 38.3812C164.273 38.8525 164.201 66.2581 164.293 99.2825L164.461 159.327H173.873H183.286L183.377 108.695L183.469 58.0628H204.149C223.904 58.0628 224.964 58.1251 227.83 59.45C232.27 61.5032 235.698 64.9423 238.182 69.8361C240.152 73.7179 240.392 74.7571 240.395 79.4334C240.397 82.8414 239.982 85.8747 239.211 88.098C237.011 94.4368 231.457 99.8894 225.047 102.002C223.856 102.395 218.501 102.893 213.146 103.109L203.409 103.502L203.22 108.489L203.031 113.476L211.046 121.796C219.423 130.493 238.235 150.386 243.62 156.244L246.753 159.651H267.631C283.004 159.651 288.714 159.446 289.288 158.873C290.107 158.053 290.431 143.18 289.673 141.205C289.328 140.305 287.223 140.178 272.746 140.178H256.213L254.477 138.352C253.523 137.347 248.872 132.567 244.141 127.727C239.411 122.889 235.542 118.671 235.543 118.356C235.544 118.041 236.856 117.243 238.459 116.584C242.369 114.976 249.144 109.666 252.059 105.924C262.047 93.1041 263.589 75.9989 256.157 60.4549C253.223 54.3161 244.698 45.7742 238.299 42.5597C229.274 38.0262 229.488 38.0495 195.454 37.7737C170.474 37.5711 164.719 37.6841 164.452 38.3812ZM109.859 58.5367C113.21 59.5383 117.7 63.9368 119.515 67.9971C123.739 77.449 118.6 89.2307 108.883 92.3686C106.052 93.2833 102.149 93.4403 82.2716 93.4403H58.9776V75.5893V57.7383H83.0823C100.274 57.7383 107.953 57.9674 109.859 58.5367ZM271.435 177.797C265.293 177.992 259.999 178.444 259.67 178.801C259.34 179.158 255.19 183.832 250.448 189.187C245.704 194.542 241.647 199.07 241.431 199.248C241.215 199.427 238.436 202.494 235.256 206.064C232.076 209.634 226.358 215.915 222.55 220.02C218.742 224.126 209.827 233.912 202.739 241.766C195.651 249.621 188.637 257.362 187.152 258.968C169.773 277.77 167.852 280.14 168.702 281.729C169.365 282.968 170.359 282.991 215.93 282.828L262.479 282.661V272.924V263.188L236.352 263.018C221.981 262.925 210.224 262.669 210.224 262.45C210.224 262.013 219.129 251.996 225.437 245.336C227.635 243.016 231.318 239.063 233.623 236.552C242.656 226.71 252.999 215.567 258.288 209.977C261.339 206.754 265.627 202.218 267.818 199.897C278.073 189.034 282.929 184.158 282.949 184.701C282.961 185.026 282.951 192.092 282.927 200.404C282.88 216.962 283.209 218.746 286.779 221.288C289.622 223.313 291.605 223.508 294.832 222.081C299.673 219.939 299.804 219.362 299.804 200.192C299.804 181.33 299.679 180.772 294.907 178.463C292.057 177.083 293.045 177.11 271.435 177.797ZM39.9368 178.26C39.6985 178.498 39.5038 188.418 39.5038 200.305C39.5038 226.54 38.6171 224.391 49.2407 223.915C58.2357 223.513 58.3285 223.424 58.3285 215.353C58.3285 212.208 58.5765 209.634 58.879 209.634C59.1814 209.634 61.1347 211.46 63.219 213.691C65.3034 215.923 68.9424 219.793 71.3059 222.292C76.2386 227.509 94.8348 247.362 99.2054 252.078C100.822 253.823 105.519 258.788 109.645 263.113C113.769 267.439 119.139 273.168 121.578 275.846C128.415 283.352 127.753 282.987 134.511 282.976C137.773 282.97 140.81 282.733 141.258 282.448C141.904 282.039 142.039 271.124 141.908 230.041L141.741 178.152L133.03 177.97C128.239 177.87 124.059 178.048 123.74 178.367C123.414 178.693 123.187 193.894 123.22 213.175C123.256 234.716 123.048 247.322 122.657 247.182C122.316 247.059 119.021 243.683 115.336 239.678C107.588 231.259 96.8283 219.761 82.0554 204.119C66.8619 188.03 64.0369 185.018 60.5901 181.235L57.4859 177.827H48.9278C44.2204 177.827 40.1743 178.022 39.9368 178.26ZM164.421 178.671C164.243 179.136 164.179 183.444 164.279 188.246L164.461 196.976L190.477 197.146L216.492 197.315L221.38 191.953C224.068 189.004 227.765 184.984 229.594 183.02C231.424 181.057 232.926 179.085 232.932 178.638C232.95 177.421 164.888 177.454 164.421 178.671ZM48.5319 249.718C45.838 252.485 42.7046 255.854 41.5687 257.206L39.5038 259.663V270.545C39.5038 278.144 39.7388 281.663 40.2828 282.207C40.8047 282.729 43.7088 282.986 49.0791 282.986H57.0965L58.037 280.735C58.7712 278.978 58.9776 275.004 58.9776 262.612C58.9776 253.883 58.8004 246.279 58.5836 245.714C58.3233 245.036 57.3808 244.687 55.8099 244.687C53.695 244.687 52.883 245.248 48.5319 249.718Z" fill="#B6FFFA" fill-opacity="0.4"/>
<path fill-rule="evenodd" clip-rule="evenodd" d="M6.69835 177.862C5.6143 178.181 3.86166 179.346 2.80358 180.45L0.880859 182.458V217.305C0.880859 236.471 1.04379 261.062 1.24307 271.951C1.65072 294.243 1.73187 294.695 6.78922 302.883C11.7849 310.971 20.2781 317.396 28.4688 319.282C30.3279 319.71 47.4363 319.96 75.5306 319.97C116.291 319.983 119.842 319.898 121.897 318.849C128.532 315.467 128.486 307.493 121.813 304.021C120.359 303.264 112.701 303.109 76.8853 303.109C35.3827 303.109 33.5768 303.059 30.2604 301.818C25.7269 300.122 21.8107 296.489 19.7562 292.074L18.0957 288.504L18.0879 236.249C18.0814 187.808 17.9977 183.829 16.9455 181.723C15.2883 178.406 10.7119 176.682 6.69835 177.862ZM289.121 249.705C286.796 250.295 284.707 252.069 283.812 254.212C283.15 255.797 282.927 260.171 282.927 271.581C282.927 285.564 282.812 287.14 281.541 290.536C279.861 295.026 276.303 299.038 272.098 301.187L268.971 302.785L209.76 302.97L150.549 303.155L148.255 305.318C146.125 307.327 145.961 307.76 145.961 311.374C145.961 314.753 146.196 315.501 147.746 317.053C148.728 318.037 150.208 319.098 151.034 319.414C153.299 320.277 266.494 320.149 270.724 319.278C275.563 318.282 282.685 314.659 286.686 311.16C291.338 307.09 295.721 300.742 297.75 295.135C299.389 290.607 299.453 289.876 299.679 273.16C299.911 255.957 299.905 255.858 298.398 253.538C297.511 252.172 295.869 250.796 294.436 250.218C291.924 249.206 291.318 249.147 289.121 249.705Z" fill="#B6FFFA" fill-opacity="0.4"/>
<path fill-rule="evenodd" clip-rule="evenodd" d="M40.6352 38.3946C39.5635 39.1859 39.5025 41.5364 39.6615 75.9142L39.8309 112.59L75.8575 112.915C115.861 113.275 113.798 113.039 117.919 117.732C119.806 119.881 121.285 123.52 121.293 126.035C121.301 128.465 118.536 134.359 116.638 135.955C111.71 140.102 115.409 139.822 60.9276 140.178L11.2693 140.503L11.0876 149.176C10.9655 155.018 11.1505 158.144 11.6542 158.751C12.7941 160.124 107.913 160.058 114.423 158.679C124.181 156.612 132.572 150.547 137.375 142.09C144.409 129.703 142.2 113.975 132.05 104.182L128.045 100.318L132.043 96.3923C142.135 86.4834 144.087 72.1266 137.264 57.997C134.452 52.1769 130.565 47.8686 124.628 43.992C115.274 37.8857 116.216 38.0077 76.5067 37.7636C48.7642 37.5936 41.5485 37.7202 40.6352 38.3946ZM164.455 38.3816C164.276 38.8529 164.204 66.2585 164.296 99.2829L164.463 159.327H173.876H183.288L183.38 108.695L183.471 58.0632H204.152C223.907 58.0632 224.967 58.1255 227.833 59.4504C232.273 61.5036 235.701 64.9427 238.184 69.8364C240.155 73.7182 240.395 74.7575 240.397 79.4338C240.4 82.8417 239.985 85.8751 239.213 88.0984C237.014 94.4371 231.459 99.8898 225.049 102.003C223.859 102.395 218.503 102.893 213.148 103.109L203.411 103.502L203.222 108.489L203.033 113.477L211.048 121.797C219.426 130.494 238.238 150.387 243.623 156.244L246.756 159.652H267.634C283.007 159.652 288.717 159.447 289.291 158.873C290.11 158.054 290.434 143.181 289.676 141.205C289.331 140.306 287.226 140.178 272.748 140.178H256.215L254.48 138.352C253.526 137.348 248.875 132.567 244.144 127.728C239.413 122.889 235.544 118.672 235.546 118.356C235.547 118.041 236.859 117.244 238.461 116.585C242.372 114.977 249.146 109.666 252.062 105.924C262.049 93.1045 263.591 75.9993 256.16 60.4552C253.225 54.3164 244.701 45.7745 238.301 42.5601C229.277 38.0265 229.49 38.0499 195.456 37.774C170.476 37.5715 164.721 37.6845 164.455 38.3816ZM109.861 58.5371C113.213 59.5387 117.702 63.9372 119.517 67.9975C123.742 77.4494 118.603 89.2311 108.886 92.369C106.055 93.2836 102.152 93.4407 82.2742 93.4407H58.9802V75.5897V57.7386H83.0849C100.277 57.7386 107.956 57.9678 109.861 58.5371ZM271.438 177.798C265.296 177.992 260.001 178.444 259.672 178.801C259.343 179.158 255.193 183.832 250.45 189.187C245.707 194.543 241.65 199.07 241.434 199.249C241.218 199.427 238.439 202.494 235.259 206.065C232.079 209.635 226.361 215.915 222.553 220.021C218.744 224.127 209.829 233.912 202.741 241.767C195.653 249.621 188.64 257.362 187.154 258.969C169.775 277.771 167.855 280.14 168.705 281.73C169.368 282.968 170.361 282.992 215.932 282.829L262.482 282.662V272.925V263.188L236.354 263.018C221.984 262.925 210.227 262.669 210.227 262.45C210.227 262.014 219.132 251.996 225.439 245.337C227.638 243.016 231.321 239.064 233.625 236.553C242.659 226.71 253.001 215.567 258.291 209.978C261.342 206.755 265.63 202.218 267.821 199.898C278.076 189.035 282.931 184.158 282.951 184.701C282.963 185.026 282.954 192.093 282.93 200.404C282.883 216.963 283.212 218.747 286.781 221.289C289.625 223.313 291.608 223.509 294.834 222.081C299.676 219.94 299.807 219.363 299.807 200.193C299.807 181.33 299.681 180.773 294.91 178.463C292.059 177.083 293.048 177.111 271.438 177.798ZM39.9393 178.26C39.7011 178.498 39.5064 188.419 39.5064 200.305C39.5064 226.541 38.6197 224.391 49.2433 223.916C58.2383 223.513 58.3311 223.425 58.3311 215.353C58.3311 212.208 58.579 209.635 58.8815 209.635C59.184 209.635 61.1373 211.461 63.2216 213.692C65.306 215.924 68.945 219.794 71.3084 222.293C76.2412 227.509 94.8374 247.363 99.2079 252.079C100.824 253.823 105.522 258.789 109.647 263.114C113.772 267.439 119.142 273.168 121.581 275.846C128.417 283.352 127.756 282.988 134.513 282.977C137.776 282.971 140.812 282.734 141.261 282.449C141.906 282.039 142.042 271.124 141.91 230.041L141.744 178.152L133.033 177.97C128.241 177.87 124.061 178.049 123.742 178.368C123.417 178.693 123.189 193.894 123.222 213.176C123.259 234.716 123.05 247.323 122.66 247.182C122.318 247.06 119.023 243.683 115.338 239.678C107.591 231.259 96.8308 219.762 82.058 204.119C66.8645 188.03 64.0395 185.019 60.5926 181.235L57.4885 177.827H48.9304C44.2229 177.827 40.1769 178.022 39.9393 178.26ZM164.423 178.671C164.245 179.136 164.181 183.444 164.282 188.246L164.463 196.977L190.479 197.146L216.494 197.316L221.382 191.953C224.07 189.004 227.767 184.984 229.597 183.02C231.427 181.057 232.929 179.085 232.935 178.639C232.952 177.422 164.891 177.455 164.423 178.671ZM48.5344 249.718C45.8406 252.486 42.7072 255.855 41.5712 257.206L39.5064 259.663V270.546C39.5064 278.144 39.7414 281.663 40.2853 282.207C40.8072 282.729 43.7114 282.986 49.0817 282.986H57.099L58.0396 280.735C58.7738 278.978 58.9802 275.004 58.9802 262.613C58.9802 253.883 58.803 246.279 58.5862 245.715C58.3259 245.036 57.3833 244.688 55.8125 244.688C53.6976 244.688 52.8855 245.249 48.5344 249.718Z" fill="white"/>
</g>
</svg>
