<svg width="108" height="108" viewBox="0 0 108 108" fill="none" xmlns="http://www.w3.org/2000/svg">
<g id="solar:code-square-line-duotone">
<g id="Group">
<path id="Vector" d="M69.7501 40.5L70.5241 41.274C76.5226 47.2725 79.5241 50.274 79.5241 54C79.5241 57.726 76.5226 60.7275 70.5241 66.726L69.7501 67.5M59.8231 32.265L54.0001 54L48.1771 75.735M38.2501 40.5L37.4761 41.274C31.4776 47.2725 28.4761 50.274 28.4761 54C28.4761 57.726 31.4776 60.7275 37.4761 66.726L38.2501 67.5" stroke="#B6FFFA" stroke-width="5" stroke-linecap="round"/>
<path id="Vector_2" opacity="0.5" d="M9 54C9 32.787 9 22.1805 15.588 15.588C22.185 9 32.787 9 54 9C75.213 9 85.8195 9 92.4075 15.588C99 22.185 99 32.787 99 54C99 75.213 99 85.8195 92.4075 92.4075C85.824 99 75.213 99 54 99C32.787 99 22.1805 99 15.588 92.4075C9 85.824 9 75.213 9 54Z" stroke="#B6FFFA" stroke-width="5"/>
</g>
</g>
</svg>
