<svg width="108" height="108" viewBox="0 0 108 108" fill="none" xmlns="http://www.w3.org/2000/svg">
<g id="solar:window-frame-line-duotone">
<g id="Group">
<path id="Vector" d="M9 54C9 32.787 9 22.1805 15.588 15.588C22.185 9 32.787 9 54 9C75.213 9 85.8195 9 92.4075 15.588C99 22.185 99 32.787 99 54C99 75.213 99 85.8195 92.4075 92.4075C85.824 99 75.213 99 54 99C32.787 99 22.1805 99 15.588 92.4075C9 85.824 9 75.213 9 54Z" stroke="#B6FFFA" stroke-width="5"/>
<path id="Vector_2" d="M31.5 27C31.5 28.1935 31.0259 29.3381 30.182 30.182C29.3381 31.0259 28.1935 31.5 27 31.5C25.8065 31.5 24.6619 31.0259 23.818 30.182C22.9741 29.3381 22.5 28.1935 22.5 27C22.5 25.8065 22.9741 24.6619 23.818 23.818C24.6619 22.9741 25.8065 22.5 27 22.5C28.1935 22.5 29.3381 22.9741 30.182 23.818C31.0259 24.6619 31.5 25.8065 31.5 27ZM45 27C45 28.1935 44.5259 29.3381 43.682 30.182C42.8381 31.0259 41.6935 31.5 40.5 31.5C39.3065 31.5 38.1619 31.0259 37.318 30.182C36.4741 29.3381 36 28.1935 36 27C36 25.8065 36.4741 24.6619 37.318 23.818C38.1619 22.9741 39.3065 22.5 40.5 22.5C41.6935 22.5 42.8381 22.9741 43.682 23.818C44.5259 24.6619 45 25.8065 45 27ZM58.5 27C58.5 28.1935 58.0259 29.3381 57.182 30.182C56.3381 31.0259 55.1935 31.5 54 31.5C52.8065 31.5 51.6619 31.0259 50.818 30.182C49.9741 29.3381 49.5 28.1935 49.5 27C49.5 25.8065 49.9741 24.6619 50.818 23.818C51.6619 22.9741 52.8065 22.5 54 22.5C55.1935 22.5 56.3381 22.9741 57.182 23.818C58.0259 24.6619 58.5 25.8065 58.5 27Z" fill="#B6FFFA"/>
<path id="Vector_3" opacity="0.5" d="M9 39.375C8.10489 39.375 7.24645 39.7306 6.61351 40.3635C5.98058 40.9965 5.625 41.8549 5.625 42.75C5.625 43.6451 5.98058 44.5035 6.61351 45.1365C7.24645 45.7694 8.10489 46.125 9 46.125V39.375ZM99 46.125C99.8951 46.125 100.754 45.7694 101.386 45.1365C102.019 44.5035 102.375 43.6451 102.375 42.75C102.375 41.8549 102.019 40.9965 101.386 40.3635C100.754 39.7306 99.8951 39.375 99 39.375V46.125ZM37.125 94.5C37.125 95.3951 37.4806 96.2536 38.1135 96.8865C38.7465 97.5194 39.6049 97.875 40.5 97.875C41.3951 97.875 42.2535 97.5194 42.8865 96.8865C43.5194 96.2536 43.875 95.3951 43.875 94.5H37.125ZM43.875 45C43.875 44.1049 43.5194 43.2465 42.8865 42.6135C42.2535 41.9806 41.3951 41.625 40.5 41.625C39.6049 41.625 38.7465 41.9806 38.1135 42.6135C37.4806 43.2465 37.125 44.1049 37.125 45H43.875ZM9 46.125H99V39.375H9V46.125ZM43.875 94.5V45H37.125V94.5H43.875Z" fill="#B6FFFA"/>
</g>
</g>
</svg>
