<svg width="274" height="259" viewBox="0 0 274 259" fill="none" xmlns="http://www.w3.org/2000/svg">
<path fill-rule="evenodd" clip-rule="evenodd" d="M24.5937 0.918299C13.5272 3.59504 4.32598 13.3578 1.14399 25.7997C0.0410709 30.1131 -0.0223059 32.4285 0.0043489 67.4411C0.0357423 108.099 -0.0572557 107 3.57076 109.681C6.61592 111.932 11.9812 110.895 14.4347 107.582C15.6531 105.937 15.6774 105.298 15.9688 67.5999C16.2596 29.9685 16.2875 29.2406 17.5379 26.5354C19.5595 22.1628 22.9524 19.1923 27.5471 17.773C31.4055 16.5813 32.6766 16.554 84.0008 16.5517C134.328 16.5499 136.584 16.5037 138.332 15.4369C142.072 13.157 143.228 6.93755 140.587 3.31664C138.034 -0.183438 140.661 -0.0359475 81.924 0.0179545C37.3009 0.0588253 27.5109 0.212834 24.5937 0.918299ZM163.471 0.997672C160.959 2.27 158.72 5.46443 158.72 7.7757C158.72 10.3334 160.104 13.157 162.239 14.953L164.142 16.554H203.168C240.957 16.554 242.296 16.5919 245.413 17.7582C249.497 19.2865 253.592 22.8742 255.368 26.4821L256.751 29.2891L257.047 67.4944C257.334 104.536 257.379 105.748 258.528 107.279C260.258 109.585 262.524 110.735 265.339 110.735C268.511 110.735 270.819 109.359 272.417 106.515C273.681 104.267 273.683 104.189 273.463 65.8874C273.223 24.1388 273.379 26.1332 269.756 18.7332C267.198 13.5095 262.862 8.64702 257.788 5.31517C249.675 -0.0146188 252.742 0.295759 206.403 0.113913C168.351 -0.0353537 165.39 0.0256589 163.471 0.997672ZM36.5457 35.0347C35.5678 35.7568 35.5121 37.9016 35.6572 69.2714L35.8118 102.738L68.6861 103.034C105.19 103.363 103.307 103.147 107.067 107.43C108.789 109.391 110.138 112.712 110.146 115.006C110.153 117.224 107.63 122.602 105.899 124.059C101.401 127.843 104.777 127.587 55.0625 127.912L9.74934 128.208L9.58349 136.123C9.47213 141.453 9.64095 144.306 10.1006 144.86C11.1407 146.113 97.9371 146.053 103.878 144.794C112.781 142.908 120.438 137.373 124.821 129.656C131.24 118.354 129.223 104.002 119.962 95.0656L116.307 91.5401L119.955 87.9576C129.165 78.9157 130.946 65.8152 124.719 52.9219C122.154 47.6111 118.607 43.6798 113.189 40.1424C104.653 34.5703 105.513 34.6817 69.2784 34.459C43.9635 34.3038 37.3791 34.4193 36.5457 35.0347ZM149.531 35.0229C149.368 35.4529 149.302 60.4605 149.386 90.5953L149.539 145.386H158.128H166.717L166.8 99.1841L166.884 52.9823H185.755C203.781 52.9823 204.748 53.0392 207.363 54.2481C211.415 56.1217 214.543 59.2598 216.809 63.7254C218.608 67.2675 218.826 68.2159 218.829 72.483C218.831 75.5928 218.452 78.3607 217.748 80.3894C215.741 86.1735 210.673 91.1491 204.823 93.0771C203.737 93.4355 198.85 93.8898 193.964 94.0871L185.079 94.4454L184.906 98.9963L184.734 103.547L192.048 111.139C199.692 119.075 216.858 137.228 221.772 142.572L224.631 145.682H243.682C257.71 145.682 262.92 145.495 263.444 144.971C264.191 144.224 264.487 130.652 263.795 128.849C263.481 128.029 261.56 127.912 248.349 127.912H233.262L231.679 126.246C230.808 125.33 226.564 120.967 222.247 116.551C217.931 112.136 214.4 108.288 214.401 108C214.403 107.712 215.6 106.984 217.062 106.383C220.63 104.916 226.812 100.07 229.473 96.6554C238.586 84.9575 239.993 69.349 233.212 55.1651C230.534 49.5634 222.756 41.7689 216.916 38.8357C208.681 34.6989 208.876 34.7202 177.82 34.4685C155.026 34.2836 149.774 34.3867 149.531 35.0229ZM99.7147 53.4147C102.773 54.3287 106.869 58.3423 108.526 62.0473C112.38 70.6723 107.691 81.4231 98.8244 84.2864C96.2412 85.121 92.6796 85.2643 74.5413 85.2643H53.2855V68.9752V52.6862H75.2811C90.9689 52.6862 97.9756 52.8953 99.7147 53.4147ZM247.153 162.24C241.548 162.418 236.717 162.83 236.417 163.156C236.116 163.481 232.329 167.746 228.002 172.633C223.674 177.52 219.972 181.651 219.774 181.814C219.577 181.977 217.041 184.776 214.14 188.034C211.238 191.291 206.021 197.022 202.545 200.769C199.07 204.515 190.935 213.445 184.467 220.612C178 227.779 171.6 234.842 170.244 236.308C154.386 253.465 152.633 255.627 153.409 257.078C154.014 258.208 154.921 258.229 196.504 258.081L238.981 257.928V249.044V240.159L215.139 240.004C202.026 239.919 191.298 239.685 191.298 239.486C191.298 239.087 199.424 229.946 205.179 223.87C207.186 221.752 210.547 218.145 212.649 215.854C220.892 206.873 230.33 196.705 235.157 191.604C237.941 188.663 241.853 184.524 243.853 182.406C253.21 172.494 257.641 168.044 257.659 168.539C257.67 168.836 257.662 175.284 257.64 182.868C257.596 197.978 257.897 199.606 261.154 201.925C263.749 203.773 265.558 203.951 268.502 202.649C272.92 200.695 273.04 200.168 273.04 182.675C273.04 165.463 272.925 164.955 268.571 162.847C265.97 161.588 266.872 161.613 247.153 162.24ZM35.9107 162.662C35.6934 162.879 35.5157 171.932 35.5157 182.778C35.5157 206.718 34.7065 204.757 44.4006 204.323C52.6085 203.955 52.6932 203.875 52.6932 196.509C52.6932 193.639 52.9195 191.291 53.1955 191.291C53.4715 191.291 55.2538 192.958 57.1558 194.993C59.0578 197.03 62.3784 200.561 64.535 202.842C69.0362 207.602 86.0052 225.718 89.9933 230.021C91.4682 231.613 95.7549 236.144 99.5192 240.091C103.283 244.038 108.183 249.266 110.409 251.709C116.647 258.559 116.043 258.226 122.21 258.216C125.187 258.21 127.958 257.994 128.367 257.734C128.956 257.36 129.079 247.4 128.959 209.912L128.807 162.563L120.858 162.398C116.486 162.306 112.672 162.469 112.381 162.76C112.084 163.057 111.876 176.928 111.907 194.523C111.94 214.178 111.75 225.681 111.393 225.554C111.081 225.442 108.075 222.36 104.712 218.706C97.6427 211.024 87.8242 200.532 74.344 186.258C60.48 171.577 57.9021 168.829 54.7569 165.377L51.9244 162.267H44.1151C39.8195 162.267 36.1275 162.445 35.9107 162.662ZM149.502 163.037C149.34 163.461 149.281 167.393 149.373 171.774L149.539 179.741L173.278 179.896L197.017 180.05L201.477 175.157C203.93 172.466 207.304 168.798 208.973 167.006C210.643 165.214 212.014 163.415 212.019 163.008C212.035 161.897 149.929 161.927 149.502 163.037ZM43.7538 227.868C41.2956 230.393 38.4364 233.467 37.3999 234.7L35.5157 236.942V246.873C35.5157 253.806 35.7301 257.017 36.2265 257.514C36.7027 257.99 39.3528 258.225 44.2531 258.225H51.569L52.4272 256.17C53.0972 254.567 53.2855 250.941 53.2855 239.634C53.2855 231.668 53.1238 224.73 52.926 224.214C52.6885 223.595 51.8284 223.277 50.395 223.277C48.4652 223.277 47.7241 223.789 43.7538 227.868Z" fill="#B6FFFA" fill-opacity="0.4"/>
</svg>
