<svg width="274" height="131" viewBox="0 0 274 131" fill="none" xmlns="http://www.w3.org/2000/svg">
<path fill-rule="evenodd" clip-rule="evenodd" d="M5.58043 1.29938C4.59124 1.59021 2.99195 2.65287 2.02645 3.66042L0.271973 5.49249V37.2905C0.271973 54.7797 0.420646 77.2189 0.602491 87.1552C0.974474 107.497 1.04852 107.909 5.66336 115.38C10.2219 122.761 17.972 128.624 25.446 130.345C27.1424 130.735 42.7538 130.963 68.3898 130.972C105.583 130.985 108.824 130.907 110.699 129.95C116.753 126.863 116.712 119.588 110.623 116.419C109.296 115.729 102.308 115.587 69.626 115.587C31.7549 115.587 30.107 115.541 27.0808 114.409C22.944 112.861 19.3704 109.547 17.4957 105.517L15.9805 102.26L15.9734 54.5771C15.9675 10.3745 15.8911 6.7435 14.9309 4.82198C13.4187 1.79517 9.2428 0.221933 5.58043 1.29938ZM263.291 66.8555C261.17 67.3945 259.264 69.0128 258.447 70.968C257.842 72.4145 257.639 76.4062 257.639 86.8176C257.639 99.5776 257.534 101.015 256.374 104.114C254.841 108.211 251.595 111.873 247.757 113.833L244.904 115.291L190.874 115.46L136.844 115.629L134.751 117.603C132.807 119.436 132.658 119.831 132.658 123.129C132.658 126.212 132.872 126.895 134.286 128.311C135.182 129.208 136.533 130.177 137.287 130.465C139.354 131.253 242.644 131.136 246.504 130.341C250.919 129.432 257.418 126.126 261.069 122.933C265.314 119.219 269.314 113.427 271.165 108.311C272.66 104.179 272.719 103.512 272.925 88.2587C273.137 72.5608 273.131 72.4708 271.757 70.3532C270.947 69.1069 269.448 67.8512 268.141 67.324C265.849 66.4 265.295 66.3467 263.291 66.8555Z" fill="#B6FFFA" fill-opacity="0.4"/>
</svg>
