<svg width="64" height="64" viewBox="0 0 64 64" fill="none" xmlns="http://www.w3.org/2000/svg">
<g id="solar:users-group-two-rounded-line-duotone">
<g id="Group">
<path id="Vector" d="M32.0026 26.6666C37.8936 26.6666 42.6693 21.891 42.6693 15.9999C42.6693 10.1089 37.8936 5.33325 32.0026 5.33325C26.1116 5.33325 21.3359 10.1089 21.3359 15.9999C21.3359 21.891 26.1116 26.6666 32.0026 26.6666Z" stroke="#B6FFFA" stroke-width="3"/>
<path id="Vector_2" opacity="0.5" d="M48 23.9998C52.4187 23.9998 56 21.0132 56 17.3332C56 13.6532 52.4187 10.6665 48 10.6665M16 23.9998C11.5813 23.9998 8 21.0132 8 17.3332C8 13.6532 11.5813 10.6665 16 10.6665" stroke="#B6FFFA" stroke-width="3" stroke-linecap="round"/>
<path id="Vector_3" d="M32 55.9998C40.8366 55.9998 48 51.2242 48 45.3332C48 39.4421 40.8366 34.6665 32 34.6665C23.1634 34.6665 16 39.4421 16 45.3332C16 51.2242 23.1634 55.9998 32 55.9998Z" stroke="#B6FFFA" stroke-width="3"/>
<path id="Vector_4" opacity="0.5" d="M53.3346 50.6666C58.012 49.6399 61.3346 47.0426 61.3346 43.9999C61.3346 40.9573 58.012 38.3599 53.3346 37.3333M10.668 50.6666C5.99064 49.6399 2.66797 47.0426 2.66797 43.9999C2.66797 40.9573 5.99064 38.3599 10.668 37.3333" stroke="#B6FFFA" stroke-width="3" stroke-linecap="round"/>
</g>
</g>
</svg>
