<svg width="64" height="65" viewBox="0 0 64 65" fill="none" xmlns="http://www.w3.org/2000/svg">
<g id="solar:stars-line-duotone">
<g id="Group">
<path id="Vector" opacity="0.5" d="M26.6402 44.5L24.0402 45.764C18.7602 47.2253 16.1175 47.956 14.6935 46.4173C13.2695 44.8813 14.0055 42.0973 15.4802 36.524L15.8588 35.084C16.2775 33.4973 16.4882 32.708 16.3842 31.9213C16.2775 31.1373 15.8695 30.4467 15.0535 29.068L14.3122 27.8147C11.4402 22.9587 10.0055 20.532 10.9602 18.5987C11.9202 16.668 14.6375 16.5107 20.0748 16.1987L21.4802 16.1187C23.0268 16.028 23.7975 15.9853 24.4722 15.6253C25.1442 15.2653 25.6428 14.6333 26.6402 13.364L27.5468 12.212C31.0562 7.75067 32.8108 5.52134 34.8268 5.86534C36.8428 6.20934 37.7868 8.89734 39.6722 14.276L40.1602 15.668C40.6962 17.196 40.9655 17.9613 41.4855 18.5213C42.0082 19.0867 42.7228 19.3853 44.1548 19.98L45.4588 20.524C50.4988 22.62 53.0188 23.6707 53.3042 25.812C53.5495 27.6413 52.0322 29.2333 48.9308 31.9187" stroke="#B6FFFA" stroke-width="3"/>
<path id="Vector_2" d="M40.6728 29.004C38.0408 25.8574 36.7262 24.284 35.2115 24.524C33.6995 24.7667 32.9929 26.6653 31.5795 30.4627L31.2115 31.444C30.8115 32.524 30.6089 33.0627 30.2169 33.46C29.8275 33.8573 29.2889 34.068 28.2169 34.4894L27.2382 34.8707C23.4595 36.3507 21.5689 37.092 21.3529 38.604C21.1395 40.116 22.7395 41.4013 25.9422 43.9667L26.7689 44.6333C27.6809 45.3613 28.1369 45.7267 28.3982 46.2253C28.6649 46.724 28.7049 47.3027 28.7875 48.4573L28.8649 49.508C29.1582 53.5694 29.3075 55.6014 30.6862 56.2947C32.0649 56.988 33.7635 55.8814 37.1582 53.6734L38.0355 53.1C39.0008 52.4734 39.4835 52.1587 40.0355 52.068C40.5902 51.98 41.1555 52.1267 42.2782 52.42L43.3049 52.6867C47.2649 53.716 49.2462 54.2333 50.3155 53.148C51.3822 52.0627 50.8302 50.0973 49.7262 46.1613L49.4382 45.148C49.1262 44.028 48.9689 43.468 49.0462 42.916C49.1262 42.3614 49.4329 41.876 50.0435 40.9L50.6035 40.0147C52.7555 36.588 53.8302 34.876 53.1102 33.5133C52.3929 32.1507 50.3555 32.0387 46.2782 31.82L45.2222 31.7613C44.0649 31.7 43.4835 31.668 42.9795 31.4147C42.4729 31.1614 42.0995 30.7134 41.3528 29.8174L40.6728 29.004Z" stroke="#B6FFFA" stroke-width="3"/>
</g>
</g>
</svg>
