<svg width="80" height="80" viewBox="0 0 80 80" fill="none" xmlns="http://www.w3.org/2000/svg">
<g id="carbon:carousel-horizontal">
<path id="Vector" d="M55 65H25C23.6739 65 22.4021 64.4732 21.4645 63.5355C20.5268 62.5979 20 61.3261 20 60V20C20 18.6739 20.5268 17.4021 21.4645 16.4645C22.4021 15.5268 23.6739 15 25 15H55C56.3261 15 57.5979 15.5268 58.5355 16.4645C59.4732 17.4021 60 18.6739 60 20V60C60 61.3261 59.4732 62.5979 58.5355 63.5355C57.5979 64.4732 56.3261 65 55 65ZM25 20V60H55V20H25ZM10 60H0V55H10V25H0V20H10C11.3261 20 12.5979 20.5268 13.5355 21.4645C14.4732 22.4021 15 23.6739 15 25V55C15 56.3261 14.4732 57.5979 13.5355 58.5355C12.5979 59.4732 11.3261 60 10 60ZM80 60H70C68.6739 60 67.4021 59.4732 66.4645 58.5355C65.5268 57.5979 65 56.3261 65 55V25C65 23.6739 65.5268 22.4021 66.4645 21.4645C67.4021 20.5268 68.6739 20 70 20H80V25H70V55H80V60Z" fill="#B6FFFA"/>
</g>
</svg>
