<svg width="80" height="80" viewBox="0 0 80 80" fill="none" xmlns="http://www.w3.org/2000/svg">
<g id="carbon:user-certification">
<path id="Vector" d="M62.5 25L66.4825 32.5L75 33.535L68.75 39.1675L70 47.5L62.5 42.8125L55 47.5L56.25 39.1675L50 33.535L58.75 32.5L62.5 25ZM55 75H50V62.5C49.996 59.186 48.6778 56.0089 46.3345 53.6655C43.9911 51.3222 40.814 50.004 37.5 50H22.5C19.186 50.004 16.0089 51.3222 13.6656 53.6655C11.3222 56.0089 10.004 59.186 10 62.5V75H5V62.5C5.00529 57.8603 6.85074 53.4122 10.1315 50.1315C13.4122 46.8507 17.8603 45.0053 22.5 45H37.5C42.1397 45.0053 46.5878 46.8507 49.8685 50.1315C53.1493 53.4122 54.9947 57.8603 55 62.5V75ZM30 10C32.4723 10 34.889 10.7331 36.9446 12.1066C39.0002 13.4801 40.6024 15.4324 41.5485 17.7165C42.4946 20.0005 42.7421 22.5139 42.2598 24.9386C41.7775 27.3634 40.587 29.5907 38.8388 31.3388C37.0907 33.087 34.8634 34.2775 32.4386 34.7598C30.0139 35.2421 27.5005 34.9946 25.2165 34.0485C22.9324 33.1024 20.9801 31.5002 19.6066 29.4446C18.2331 27.389 17.5 24.9723 17.5 22.5C17.5 19.1848 18.817 16.0054 21.1612 13.6612C23.5054 11.317 26.6848 10 30 10ZM30 5C26.5388 5 23.1554 6.02636 20.2775 7.94928C17.3997 9.87221 15.1566 12.6053 13.8321 15.803C12.5076 19.0007 12.161 22.5194 12.8363 25.9141C13.5115 29.3087 15.1782 32.4269 17.6256 34.8744C20.073 37.3218 23.1913 38.9885 26.5859 39.6637C29.9806 40.339 33.4993 39.9924 36.697 38.6679C39.8947 37.3434 42.6278 35.1003 44.5507 32.2225C46.4736 29.3446 47.5 25.9612 47.5 22.5C47.5 17.8587 45.6563 13.4075 42.3744 10.1256C39.0925 6.84374 34.6413 5 30 5Z" fill="#B6FFFA"/>
</g>
</svg>
