<svg width="64" height="64" viewBox="0 0 64 64" fill="none" xmlns="http://www.w3.org/2000/svg">
<g id="browser 1" clip-path="url(#clip0_326_1009)">
<g id="Group">
<path id="Vector" d="M64 16.875V57.125C64 60.9159 60.9159 64 57.125 64H6.875C3.08413 64 0 60.9159 0 57.125V16.875L4.5 5.375L27.5 0H31.25L64 16.875Z" fill="url(#paint0_linear_326_1009)"/>
<path id="Vector_2" d="M64 6.875V16.875H31.25V0H57.125C60.9159 0 64 3.08413 64 6.875ZM27.5 0V16.875H0V6.875C0 3.08413 3.08413 0 6.875 0H27.5ZM11.7917 8.4375C11.7917 7.402 10.9522 6.5625 9.91675 6.5625H7.5C6.4645 6.5625 5.625 7.402 5.625 8.4375C5.625 9.473 6.4645 10.3125 7.5 10.3125H9.91663C10.9522 10.3125 11.7917 9.473 11.7917 8.4375ZM21.7917 8.4375C21.7917 7.402 20.9522 6.5625 19.9167 6.5625H17.5C16.4645 6.5625 15.625 7.402 15.625 8.4375C15.625 9.473 16.4645 10.3125 17.5 10.3125H19.9166C20.9522 10.3125 21.7917 9.473 21.7917 8.4375ZM55.75 57.3125H37C35.9645 57.3125 35.125 56.473 35.125 55.4375V47.9375C35.125 46.902 35.9645 46.0625 37 46.0625H55.75C56.7855 46.0625 57.625 46.902 57.625 47.9375V55.4375C57.625 56.473 56.7855 57.3125 55.75 57.3125ZM29.5 57.3125H9.5C8.4645 57.3125 7.625 56.473 7.625 55.4375C7.625 54.402 8.4645 53.5625 9.5 53.5625H29.5C30.5355 53.5625 31.375 54.402 31.375 55.4375C31.375 56.473 30.5355 57.3125 29.5 57.3125ZM29.5 49.8125H9.5C8.4645 49.8125 7.625 48.973 7.625 47.9375C7.625 46.902 8.4645 46.0625 9.5 46.0625H29.5C30.5355 46.0625 31.375 46.902 31.375 47.9375C31.375 48.973 30.5355 49.8125 29.5 49.8125ZM54.5 42.3125H35.75C34.7145 42.3125 33.875 41.473 33.875 40.4375C33.875 39.402 34.7145 38.5625 35.75 38.5625H54.5C55.5355 38.5625 56.375 39.402 56.375 40.4375C56.375 41.473 55.5355 42.3125 54.5 42.3125ZM28.25 42.3125H9.5C8.4645 42.3125 7.625 41.473 7.625 40.4375V25.4375C7.625 24.402 8.4645 23.5625 9.5 23.5625H28.25C29.2855 23.5625 30.125 24.402 30.125 25.4375V40.4375C30.125 41.473 29.2855 42.3125 28.25 42.3125ZM54.5 34.8125H35.75C34.7145 34.8125 33.875 33.973 33.875 32.9375C33.875 31.902 34.7145 31.0625 35.75 31.0625H54.5C55.5355 31.0625 56.375 31.902 56.375 32.9375C56.375 33.973 55.5355 34.8125 54.5 34.8125ZM54.5 27.3125H35.75C34.7145 27.3125 33.875 26.473 33.875 25.4375C33.875 24.402 34.7145 23.5625 35.75 23.5625H54.5C55.5355 23.5625 56.375 24.402 56.375 25.4375C56.375 26.473 55.5355 27.3125 54.5 27.3125Z" fill="url(#paint1_linear_326_1009)"/>
</g>
</g>
<defs>
<linearGradient id="paint0_linear_326_1009" x1="32" y1="64" x2="32" y2="0" gradientUnits="userSpaceOnUse">
<stop stop-color="#FFBEF9"/>
<stop offset="1" stop-color="#FFF1FF"/>
</linearGradient>
<linearGradient id="paint1_linear_326_1009" x1="32" y1="57.3125" x2="32" y2="0" gradientUnits="userSpaceOnUse">
<stop stop-color="#A93AFF"/>
<stop offset="1" stop-color="#FF81FF"/>
</linearGradient>
<clipPath id="clip0_326_1009">
<rect width="64" height="64" fill="white"/>
</clipPath>
</defs>
</svg>
