<svg width="86" height="64" viewBox="0 0 86 64" fill="none" xmlns="http://www.w3.org/2000/svg">
<g id="GxAynUiAb0 1" clip-path="url(#clip0_326_1017)">
<path id="Forma 1" fill-rule="evenodd" clip-rule="evenodd" d="M85.551 15.9971C84.6804 14.6881 82.8832 14.3151 81.546 15.1703L72.766 20.7559L59.6362 13.3482C59.1964 13.0998 58.6974 12.969 58.1894 12.969C57.6815 12.969 57.1825 13.0998 56.7427 13.3482L43.5226 20.8076L31.7496 14.1644V2.82859C31.7496 2.07853 31.4447 1.35919 30.902 0.82882C30.3593 0.298448 29.6232 0.000488281 28.8557 0.000488281C28.0882 0.000488281 27.3521 0.298448 26.8094 0.82882C26.2667 1.35919 25.9618 2.07853 25.9618 2.82859V14.1642L14.3303 20.7271L4.5158 14.0811C3.2043 13.1932 1.39866 13.5138 0.488266 14.7967C0.0515293 15.4138 -0.116692 16.1751 0.0205521 16.9134C0.157797 17.6517 0.589284 18.3065 1.22023 18.7341L11.2953 25.5564V40.6317C11.2951 41.1283 11.4287 41.6162 11.6827 42.0463C11.9367 42.4764 12.302 42.8336 12.742 43.082L25.9616 50.5429V61.1709C25.9616 61.921 26.2665 62.6403 26.8092 63.1707C27.3519 63.7011 28.088 63.999 28.8555 63.999C29.623 63.999 30.3591 63.7011 30.9018 63.1707C31.4445 62.6403 31.7494 61.921 31.7494 61.1709V50.5428L43.5223 43.8983L55.296 50.5428V61.1709C55.2927 61.5443 55.3651 61.9147 55.509 62.2606C55.653 62.6066 55.8656 62.9212 56.1347 63.1864C56.4037 63.4516 56.7238 63.6621 57.0765 63.8058C57.4293 63.9494 57.8076 64.0234 58.1897 64.0234C58.5719 64.0234 58.9502 63.9494 59.303 63.8058C59.6557 63.6621 59.9758 63.4516 60.2448 63.1864C60.5139 62.9212 60.7265 62.6066 60.8705 62.2606C61.0144 61.9147 61.0868 61.5443 61.0835 61.1709V50.5428L74.3032 43.082C74.7432 42.8336 75.1086 42.4764 75.3625 42.0462C75.6165 41.6161 75.7501 41.1282 75.75 40.6317V25.6074L84.7028 19.9109C85.3461 19.5016 85.7968 18.8595 85.9559 18.1256C86.1149 17.3917 85.9693 16.6261 85.551 15.9971ZM17.0832 25.7087L28.8561 19.0654L40.6291 25.7087V38.9972L28.8561 45.6417L17.0832 38.9972V25.7087ZM69.9626 38.9972L58.1896 45.6418L46.4167 38.9972V25.7087L58.1896 19.0654L69.9626 25.7087V38.9972Z" fill="#FF81FF"/>
</g>
<defs>
<clipPath id="clip0_326_1017">
<rect width="86" height="64" fill="white"/>
</clipPath>
</defs>
</svg>
