<svg width="64" height="64" viewBox="0 0 64 64" fill="none" xmlns="http://www.w3.org/2000/svg">
<g id="shopping-cart 1" clip-path="url(#clip0_326_1134)">
<g id="Group">
<path id="Vector" d="M63.9692 17.3353L58.9692 44.8353C58.9685 44.8391 58.9674 44.8424 58.9667 44.8462C58.9877 44.7338 58.9999 44.6184 58.9999 44.4999C58.9999 43.4644 58.1604 42.6249 57.1249 42.6249H22.3995L16.6704 15.1249H31.3555C31.3783 15.0996 31.3997 15.0734 31.424 15.0492C32.1563 14.3169 33.3434 14.3169 34.0757 15.0492L34.1515 15.1249H38.8483L42.6742 11.2992C43.4064 10.5669 44.5935 10.5669 45.3258 11.2992C46.058 12.0314 46.058 13.2186 45.3258 13.9508L44.1515 15.1249H62.1243C63.2942 15.1249 64.1784 16.1844 63.9692 17.3353ZM54.6249 57.6249C54.6249 55.5572 52.9427 53.8749 50.8749 53.8749C48.8072 53.8749 47.1249 55.5572 47.1249 57.6249C47.1249 59.6927 48.8072 61.3749 50.8749 61.3749C52.9427 61.3749 54.6249 59.6927 54.6249 57.6249ZM27.1249 57.6249C27.1249 55.5572 25.4427 53.8749 23.3749 53.8749C21.3072 53.8749 19.6249 55.5572 19.6249 57.6249C19.6249 59.6927 21.3072 61.3749 23.3749 61.3749C25.4427 61.3749 27.1249 59.6927 27.1249 57.6249Z" fill="url(#paint0_linear_326_1134)"/>
<path id="Vector_2" d="M59 52C59 53.0355 58.1605 53.875 57.125 53.875H18.375C15.2734 53.875 12.75 51.3516 12.75 48.25C12.75 45.1484 15.2734 42.625 18.375 42.625H18.5691L11.017 6.375H1.875C0.8395 6.375 0 5.5355 0 4.5C0 3.4645 0.8395 2.625 1.875 2.625H12.5416C13.4298 2.625 14.196 3.24812 14.3772 4.1175L22.3996 42.625H57.125C58.1605 42.625 59 43.4645 59 44.5C59 45.5355 58.1605 46.375 57.125 46.375H18.375C17.3411 46.375 16.5 47.2161 16.5 48.25C16.5 49.2839 17.3411 50.125 18.375 50.125H57.125C58.1605 50.125 59 50.9645 59 52ZM51.5 15.75C51.5 22.9871 45.6121 28.875 38.375 28.875C31.1379 28.875 25.25 22.9871 25.25 15.75C25.25 8.51288 31.1379 2.625 38.375 2.625C45.6121 2.625 51.5 8.51288 51.5 15.75ZM45.3259 11.2992C44.5936 10.567 43.4065 10.567 42.6743 11.2992L36.5 17.4734L34.0757 15.0491C33.3435 14.3169 32.1564 14.3169 31.4241 15.0491C30.6919 15.7814 30.6919 16.9685 31.4241 17.7008L35.1741 21.4508C35.9064 22.183 37.0935 22.183 37.8257 21.4508L45.3257 13.9508C46.0581 13.2186 46.0581 12.0314 45.3259 11.2992Z" fill="url(#paint1_linear_326_1134)"/>
</g>
</g>
<defs>
<linearGradient id="paint0_linear_326_1134" x1="40.3352" y1="61.3749" x2="40.3352" y2="10.7499" gradientUnits="userSpaceOnUse">
<stop stop-color="#A93AFF"/>
<stop offset="1" stop-color="#FF81FF"/>
</linearGradient>
<linearGradient id="paint1_linear_326_1134" x1="29.5" y1="53.875" x2="29.5" y2="2.625" gradientUnits="userSpaceOnUse">
<stop stop-color="#FFBEF9"/>
<stop offset="1" stop-color="#FFF1FF"/>
</linearGradient>
<clipPath id="clip0_326_1134">
<rect width="64" height="64" fill="white"/>
</clipPath>
</defs>
</svg>
