<svg width="64" height="64" viewBox="0 0 64 64" fill="none" xmlns="http://www.w3.org/2000/svg">
<g id="add">
<g id="Group">
<path id="Vector" d="M24.5 41.25C35.8909 41.25 45.125 32.0159 45.125 20.625C45.125 9.23413 35.8909 0 24.5 0C13.1091 0 3.875 9.23413 3.875 20.625C3.875 32.0159 13.1091 41.25 24.5 41.25Z" fill="url(#paint0_linear_326_1138)"/>
<path id="Vector_2" d="M33.875 20.625C33.875 21.6605 33.0355 22.5 32 22.5H26.375V28.125C26.375 29.1605 25.5355 30 24.5 30C23.4645 30 22.625 29.1605 22.625 28.125V22.5H17C15.9645 22.5 15.125 21.6605 15.125 20.625C15.125 19.5895 15.9645 18.75 17 18.75H22.625V13.125C22.625 12.0895 23.4645 11.25 24.5 11.25C25.5355 11.25 26.375 12.0895 26.375 13.125V18.75H32C33.0355 18.75 33.875 19.5895 33.875 20.625ZM60.125 55.875V49.625C60.125 45.1377 56.4873 41.5 52 41.5H44.5V29.0625C44.5 26.8189 42.6811 25 40.4375 25C38.1939 25 36.375 26.8189 36.375 29.0625V50.3366L32.2463 46.724C29.47 44.2948 25.125 46.2664 25.125 49.9554C25.125 51.007 25.5109 52.022 26.2096 52.808L33.3611 60.8534C35.1385 62.8531 37.6925 64 40.368 64H52C56.4873 64 60.125 60.3623 60.125 55.875Z" fill="url(#paint1_linear_326_1138)"/>
</g>
</g>
<defs>
<linearGradient id="paint0_linear_326_1138" x1="24.5" y1="41.25" x2="24.5" y2="0" gradientUnits="userSpaceOnUse">
<stop stop-color="#A93AFF"/>
<stop offset="1" stop-color="#FF81FF"/>
</linearGradient>
<linearGradient id="paint1_linear_326_1138" x1="37.625" y1="64" x2="37.625" y2="11.25" gradientUnits="userSpaceOnUse">
<stop stop-color="#FFBEF9"/>
<stop offset="1" stop-color="#FFF1FF"/>
</linearGradient>
</defs>
</svg>
