<svg width="64" height="64" viewBox="0 0 64 64" fill="none" xmlns="http://www.w3.org/2000/svg">
<g id="user" clip-path="url(#clip0_326_1158)">
<g id="Group">
<g id="Group_2">
<g id="Group_3">
<path id="Vector" d="M33.8487 15.2497L34.9432 13.7769L32.9966 11.4194C30.6883 4.77733 24.4047 0 17.0333 0C7.68739 0 0 7.68513 0 17.0333C0 24.4045 4.77708 30.6881 11.4191 32.9964L13.5264 35.1937L15.2474 33.8485C15.8344 33.9095 16.4302 33.9413 17.0333 33.9413C26.3564 33.9413 33.9413 26.3564 33.9413 17.0333C33.9413 16.431 33.9096 15.8359 33.8487 15.2497ZM52.6948 31.0212L50.7241 28.4305L48.8493 30.1504C48.2715 30.09 47.6853 30.0587 47.092 30.0587C37.7461 30.0587 30.0587 37.7438 30.0587 47.092C30.0587 47.733 30.0962 48.3655 30.1664 48.9882L29.3072 50.9746L31.0688 52.8287C33.4407 59.3366 39.7277 64 47.092 64C56.4151 64 64 56.4151 64 47.092C64 39.6774 59.2724 33.3553 52.6948 31.0212Z" fill="url(#paint0_linear_326_1158)"/>
</g>
</g>
<g id="Group_4">
<g id="Group_5">
<path id="Vector_2" d="M24.5479 15.1548C24.5479 11.0112 21.1768 7.64014 17.0333 7.64014C12.8897 7.64014 9.51858 11.0112 9.51858 15.1548C9.51858 19.2984 12.8897 22.6695 17.0333 22.6695C21.1768 22.6695 24.5479 19.2984 24.5479 15.1548ZM17.0333 30.1842C20.6107 30.1842 23.8585 28.7476 26.2317 26.4219C23.8423 24.0836 20.5819 22.6695 17.0333 22.6695C13.4644 22.6695 10.1377 24.0949 7.7356 26.4108C10.1325 28.7431 13.4159 30.1842 17.0333 30.1842ZM48.8493 30.1506C50.183 30.29 51.4708 30.5871 52.6949 31.0214C52.1085 20.4089 43.5747 11.8956 32.9967 11.4198C33.4206 12.6397 33.7111 13.9222 33.8488 15.25C41.6692 16.0809 47.9166 22.3045 48.8493 30.1506ZM15.2474 33.8487C13.9203 33.7108 12.6384 33.4205 11.4192 32.9967C11.8918 43.6972 20.4413 52.3201 31.0688 52.8289C30.6237 51.6075 30.3169 50.3211 30.1664 48.9883C22.3142 48.1015 16.071 41.7761 15.2474 33.8487ZM54.6066 45.2135C54.6066 41.0699 51.2356 37.6988 47.092 37.6988C42.9484 37.6988 39.5773 41.0699 39.5773 45.2135C39.5773 49.3571 42.9484 52.7282 47.092 52.7282C51.2356 52.7282 54.6066 49.3571 54.6066 45.2135ZM47.092 52.7282C43.5231 52.7282 40.1964 54.1536 37.7943 56.4695C40.1912 58.8018 43.4746 60.2429 47.092 60.2429C50.6694 60.2429 53.9172 58.8063 56.2904 56.4807C53.901 54.1423 50.6406 52.7282 47.092 52.7282Z" fill="url(#paint1_linear_326_1158)"/>
</g>
</g>
</g>
</g>
<defs>
<linearGradient id="paint0_linear_326_1158" x1="32" y1="64" x2="32" y2="0" gradientUnits="userSpaceOnUse">
<stop stop-color="#A93AFF"/>
<stop offset="1" stop-color="#FF81FF"/>
</linearGradient>
<linearGradient id="paint1_linear_326_1158" x1="32.013" y1="60.2429" x2="32.013" y2="7.64014" gradientUnits="userSpaceOnUse">
<stop stop-color="#FFBEF9"/>
<stop offset="1" stop-color="#FFF1FF"/>
</linearGradient>
<clipPath id="clip0_326_1158">
<rect width="64" height="64" fill="white"/>
</clipPath>
</defs>
</svg>
