<svg width="36" height="36" viewBox="0 0 36 36" fill="none" xmlns="http://www.w3.org/2000/svg">
<g id="solar:backspace-linear">
<g id="Group">
<path id="Vector" d="M16.713 30C13.3725 30 11.7015 30 10.308 29.2485C8.913 28.4955 8.028 27.1185 6.2565 24.36L5.235 22.77C3.7455 20.451 3 19.29 3 18C3 16.71 3.7455 15.549 5.235 13.23L6.255 11.64C8.0265 8.883 8.9115 7.5045 10.3065 6.7515C11.7015 6 13.3725 6 16.713 6H20.6685C26.481 6 29.388 6 31.194 7.758C33 9.5145 33 12.3435 33 18C33 23.6565 33 26.4855 31.194 28.242C29.388 30 26.481 30 20.67 30H16.713Z" stroke="#B6FFFA" stroke-width="1.5"/>
<path id="Vector_2" d="M23.25 14.25L15.75 21.75M15.75 14.25L23.25 21.75" stroke="#B6FFFA" stroke-width="1.5" stroke-linecap="round"/>
</g>
</g>
</svg>
