<svg width="416" height="444" viewBox="0 0 416 444" fill="none" xmlns="http://www.w3.org/2000/svg">
<path opacity="0.1" d="M47.1337 391.59H28.0277L149.417 54.2708H170.828L292.217 391.59H273.111L160.946 77.4945H159.299L47.1337 391.59ZM79.7456 265.26H240.499V282.225H79.7456V265.26ZM374.612 54.2708V391.59H356.494V54.2708H374.612Z" fill="white"/>
<path opacity="0.4" fill-rule="evenodd" clip-rule="evenodd" d="M37.7314 1.57947C20.9183 5.64618 6.93906 20.4785 2.10473 39.3812C0.429097 45.9344 0.33281 49.4521 0.373306 102.646C0.421002 164.417 0.279712 162.747 5.79168 166.821C10.4181 170.239 18.5695 168.664 22.297 163.631C24.1481 161.132 24.185 160.16 24.6277 102.887C25.0696 45.7148 25.1119 44.6088 27.0116 40.4989C30.083 33.8558 35.2377 29.3427 42.2183 27.1865C48.0804 25.3759 50.0116 25.3345 127.987 25.3309C204.448 25.3282 207.875 25.258 210.532 23.6372C216.213 20.1735 217.97 10.7244 213.957 5.22322C210.078 -0.094366 214.07 0.129712 124.832 0.211604C57.0372 0.273698 42.1634 0.507679 37.7314 1.57947ZM248.724 1.70007C244.908 3.63308 241.507 8.4863 241.507 11.9978C241.507 15.8836 243.61 20.1735 246.853 22.902L249.744 25.3345H309.035C366.448 25.3345 368.482 25.3921 373.218 27.164C379.422 29.4858 385.643 34.9365 388.342 40.4179L390.442 44.6826L390.892 102.727C391.329 159.004 391.397 160.844 393.142 163.17C395.771 166.674 399.214 168.421 403.491 168.421C408.31 168.421 411.816 166.331 414.244 162.01C416.164 158.594 416.167 158.476 415.832 100.285C415.468 36.8578 415.705 39.8879 410.201 28.6452C406.315 20.7089 399.727 13.3215 392.019 8.25953C379.692 0.162116 384.353 0.633665 313.95 0.357392C256.138 0.130614 251.64 0.223309 248.724 1.70007ZM55.8898 53.4118C54.4041 54.5087 54.3195 57.7673 54.54 105.427L54.7748 156.272L104.72 156.722C160.179 157.221 157.319 156.894 163.032 163.401C165.648 166.38 167.698 171.424 167.708 174.911C167.72 178.28 163.887 186.45 161.256 188.664C154.423 194.413 159.552 194.024 84.022 194.518L15.1787 194.968L14.9267 206.993C14.7575 215.091 15.014 219.425 15.7123 220.266C17.2926 222.171 149.16 222.079 158.186 220.166C171.712 217.301 183.346 208.892 190.004 197.168C199.756 179.996 196.693 158.192 182.622 144.615L177.069 139.259L182.612 133.816C196.604 120.079 199.31 100.176 189.85 80.5873C185.952 72.5187 180.564 66.546 172.332 61.1717C159.364 52.7062 160.67 52.8754 105.62 52.537C67.1594 52.3012 57.156 52.4767 55.8898 53.4118ZM227.546 53.3937C227.298 54.0471 227.198 92.0405 227.326 137.824L227.558 221.065H240.607H253.656L253.782 150.872L253.909 80.6791H282.58C309.967 80.6791 311.436 80.7655 315.409 82.6022C321.565 85.4486 326.317 90.2164 329.76 97.0008C332.492 102.382 332.824 103.823 332.828 110.306C332.832 115.031 332.257 119.236 331.187 122.318C328.138 131.106 320.437 138.665 311.55 141.594C309.9 142.139 302.476 142.829 295.051 143.129L281.553 143.673L281.291 150.587L281.029 157.501L292.14 169.035C303.755 181.092 329.834 208.671 337.3 216.791L341.644 221.515H370.587C391.899 221.515 399.816 221.231 400.611 220.436C401.747 219.3 402.196 198.681 401.145 195.942C400.667 194.695 397.749 194.518 377.678 194.518H354.757L352.352 191.987C351.029 190.594 344.581 183.967 338.022 177.258C331.464 170.55 326.1 164.703 326.102 164.266C326.104 163.829 327.923 162.723 330.144 161.81C335.566 159.581 344.957 152.219 348.999 147.031C362.845 129.258 364.983 105.545 354.681 83.9953C350.612 75.4848 338.794 63.6428 329.922 59.1865C317.412 52.9015 317.708 52.9339 270.524 52.5514C235.894 52.2706 227.915 52.4272 227.546 53.3937ZM151.861 81.336C156.507 82.7246 162.731 88.8224 165.247 94.4513C171.104 107.555 163.979 123.888 150.508 128.239C146.584 129.507 141.173 129.724 113.616 129.724H81.3222V104.977V80.2291H114.74C138.574 80.2291 149.219 80.5468 151.861 81.336ZM375.861 246.672C367.346 246.942 360.006 247.568 359.55 248.063C359.093 248.558 353.34 255.037 346.765 262.461C340.189 269.886 334.565 276.163 334.265 276.41C333.966 276.658 330.113 280.91 325.704 285.859C321.296 290.809 313.369 299.515 308.089 305.207C302.81 310.899 290.45 324.465 280.624 335.354C270.798 346.243 261.074 356.975 259.015 359.202C234.922 385.268 232.259 388.553 233.438 390.757C234.357 392.474 235.735 392.506 298.911 392.28L363.445 392.049V378.55V365.051L327.223 364.817C307.301 364.687 291.002 364.332 291.002 364.029C291.002 363.424 303.347 349.536 312.091 340.304C315.139 337.087 320.245 331.607 323.44 328.126C335.963 314.481 350.302 299.033 357.635 291.284C361.865 286.816 367.809 280.527 370.847 277.31C385.063 262.25 391.795 255.49 391.823 256.242C391.839 256.693 391.826 266.489 391.793 278.012C391.727 300.968 392.184 303.441 397.132 306.965C401.075 309.772 403.823 310.043 408.296 308.064C415.008 305.095 415.19 304.295 415.19 277.719C415.19 251.569 415.016 250.796 408.401 247.594C404.449 245.681 405.82 245.719 375.861 246.672ZM54.9251 247.313C54.5948 247.643 54.3249 261.396 54.3249 277.875C54.3249 314.246 53.0956 311.266 67.8235 310.607C80.2936 310.049 80.4223 309.926 80.4223 298.736C80.4223 294.376 80.7661 290.809 81.1854 290.809C81.6048 290.809 84.3126 293.34 87.2023 296.433C90.0919 299.527 95.1368 304.892 98.4134 308.357C105.252 315.589 131.032 343.112 137.092 349.65C139.332 352.068 145.845 358.953 151.564 364.949C157.282 370.945 164.727 378.888 168.108 382.6C177.586 393.006 176.669 392.501 186.037 392.485C190.56 392.477 194.77 392.149 195.392 391.754C196.286 391.186 196.474 376.054 196.291 319.099L196.061 247.163L183.984 246.911C177.342 246.772 171.547 247.02 171.105 247.462C170.653 247.913 170.338 268.987 170.384 295.718C170.434 325.58 170.145 343.057 169.604 342.862C169.13 342.692 164.562 338.011 159.454 332.459C148.713 320.787 133.796 304.848 113.316 283.162C92.2526 260.858 88.3362 256.682 83.5576 251.438L79.2542 246.713H67.3898C60.8636 246.713 55.2545 246.983 54.9251 247.313ZM227.502 247.883C227.256 248.527 227.167 254.5 227.306 261.157L227.558 273.26L263.625 273.495L299.691 273.73L306.467 266.296C310.193 262.208 315.318 256.634 317.855 253.912C320.392 251.19 322.475 248.457 322.483 247.838C322.507 246.151 228.15 246.196 227.502 247.883ZM66.8408 346.378C63.1062 350.215 58.7623 354.885 57.1875 356.759L54.3249 360.165V375.252C54.3249 385.786 54.6506 390.665 55.4048 391.419C56.1283 392.142 60.1545 392.499 67.5995 392.499H78.7143L80.0183 389.378C81.0361 386.942 81.3222 381.433 81.3222 364.254C81.3222 352.152 81.0766 341.611 80.776 340.828C80.4151 339.887 79.1084 339.404 76.9307 339.404C73.9987 339.404 72.8729 340.181 66.8408 346.378Z" fill="black" fill-opacity="0.4"/>
<path opacity="0.4" fill-rule="evenodd" clip-rule="evenodd" d="M8.84505 246.762C7.3422 247.204 4.91243 248.818 3.44558 250.349L0.780029 253.133V301.443C0.780029 328.013 1.00591 362.105 1.28218 377.201C1.84732 408.106 1.95982 408.732 8.97104 420.083C15.8968 431.295 27.6712 440.203 39.0263 442.818C41.6037 443.411 65.3218 443.757 104.27 443.771C160.777 443.79 165.701 443.671 168.55 442.218C177.748 437.528 177.685 426.475 168.434 421.661C166.418 420.612 155.801 420.397 106.148 420.397C48.6113 420.397 46.1077 420.327 41.5101 418.607C35.2251 416.255 29.7959 411.219 26.9477 405.098L24.6457 400.149L24.6349 327.706C24.6259 260.55 24.5098 255.033 23.0511 252.114C20.7536 247.515 14.4092 245.125 8.84505 246.762ZM400.379 346.36C397.156 347.179 394.26 349.637 393.02 352.608C392.101 354.806 391.792 360.87 391.792 376.688C391.792 396.074 391.633 398.258 389.871 402.966C387.542 409.191 382.609 414.753 376.779 417.732L372.444 419.947L290.357 420.203L208.271 420.46L205.091 423.459C202.137 426.244 201.91 426.844 201.91 431.854C201.91 436.539 202.236 437.576 204.385 439.728C205.746 441.091 207.798 442.563 208.943 443.001C212.084 444.197 369.01 444.02 374.875 442.812C381.583 441.431 391.456 436.409 397.003 431.557C403.453 425.915 409.529 417.115 412.342 409.342C414.614 403.064 414.703 402.051 415.016 378.877C415.338 355.028 415.329 354.891 413.241 351.674C412.01 349.78 409.734 347.873 407.747 347.072C404.266 345.668 403.424 345.587 400.379 346.36Z" fill="black" fill-opacity="0.4"/>
<path fill-rule="evenodd" clip-rule="evenodd" d="M55.8901 53.4122C54.4044 54.5092 54.3198 57.7678 54.5403 105.427L54.7751 156.272L104.72 156.722C160.179 157.222 157.319 156.894 163.032 163.401C165.648 166.38 167.698 171.425 167.709 174.911C167.72 178.28 163.887 186.451 161.256 188.665C154.423 194.413 159.552 194.024 84.0223 194.518L15.179 194.968L14.927 206.993C14.7578 215.091 15.0143 219.425 15.7126 220.267C17.2929 222.171 149.161 222.079 158.186 220.167C171.712 217.302 183.347 208.893 190.004 197.169C199.756 179.997 196.693 158.193 182.622 144.616L177.07 139.259L182.612 133.817C196.604 120.08 199.31 100.176 189.85 80.5878C185.953 72.5191 180.564 66.5464 172.332 61.1721C159.365 52.7067 160.671 52.8758 105.62 52.5375C67.1597 52.3017 57.1563 52.4772 55.8901 53.4122ZM227.547 53.3942C227.298 54.0475 227.198 92.0409 227.326 137.824L227.558 221.066H240.607H253.656L253.783 150.873L253.91 80.6795H282.58C309.967 80.6795 311.436 80.7659 315.41 82.6026C321.565 85.4491 326.317 90.2168 329.76 97.0012C332.493 102.383 332.825 103.823 332.828 110.306C332.832 115.031 332.257 119.236 331.187 122.318C328.138 131.106 320.437 138.665 311.551 141.595C309.9 142.139 302.476 142.829 295.052 143.129L281.553 143.673L281.291 150.587L281.029 157.501L292.141 169.036C303.755 181.093 329.834 208.671 337.3 216.791L341.644 221.516H370.588C391.899 221.516 399.816 221.231 400.612 220.436C401.747 219.3 402.196 198.681 401.145 195.942C400.667 194.696 397.749 194.518 377.678 194.518H354.757L352.352 191.987C351.029 190.595 344.581 183.967 338.023 177.258C331.464 170.55 326.101 164.703 326.102 164.266C326.104 163.83 327.923 162.724 330.145 161.81C335.566 159.581 344.957 152.219 349 147.031C362.846 129.259 364.983 105.545 354.681 83.9957C350.612 75.4852 338.795 63.6433 329.923 59.1869C317.412 52.9019 317.708 52.9343 270.525 52.5519C235.894 52.2711 227.916 52.4277 227.547 53.3942ZM151.861 81.3365C156.508 82.7251 162.731 88.8228 165.247 94.4518C171.104 107.555 163.98 123.889 150.509 128.239C146.584 129.507 141.173 129.725 113.616 129.725H81.3226V104.977V80.2296H114.74C138.574 80.2296 149.219 80.5473 151.861 81.3365ZM375.861 246.672C367.346 246.942 360.007 247.568 359.55 248.063C359.093 248.558 353.34 255.038 346.765 262.462C340.19 269.886 334.565 276.163 334.265 276.411C333.966 276.658 330.113 280.91 325.705 285.86C321.296 290.809 313.369 299.516 308.09 305.208C302.81 310.9 290.451 324.466 280.624 335.355C270.798 346.244 261.075 356.975 259.016 359.202C234.922 385.268 232.259 388.553 233.438 390.757C234.357 392.474 235.735 392.506 298.911 392.281L363.445 392.049V378.551V365.052L327.224 364.817C307.301 364.687 291.002 364.333 291.002 364.03C291.002 363.424 303.347 349.537 312.092 340.304C315.14 337.087 320.246 331.608 323.44 328.127C335.964 314.481 350.302 299.033 357.635 291.284C361.865 286.816 367.81 280.528 370.847 277.31C385.064 262.25 391.795 255.49 391.823 256.243C391.839 256.693 391.827 266.49 391.793 278.012C391.728 300.968 392.184 303.441 397.132 306.965C401.075 309.772 403.823 310.043 408.297 308.064C415.008 305.095 415.19 304.295 415.19 277.719C415.19 251.569 415.016 250.796 408.401 247.594C404.45 245.681 405.82 245.72 375.861 246.672ZM54.9254 247.314C54.5951 247.643 54.3252 261.396 54.3252 277.876C54.3252 314.246 53.0959 311.267 67.8239 310.607C80.294 310.049 80.4226 309.927 80.4226 298.736C80.4226 294.376 80.7664 290.809 81.1858 290.809C81.6051 290.809 84.313 293.341 87.2026 296.434C90.0922 299.527 95.1371 304.893 98.4137 308.357C105.252 315.589 131.033 343.113 137.092 349.651C139.333 352.069 145.845 358.953 151.564 364.949C157.282 370.945 164.727 378.888 168.108 382.6C177.586 393.007 176.669 392.501 186.037 392.486C190.56 392.478 194.77 392.149 195.392 391.754C196.286 391.186 196.474 376.054 196.292 319.1L196.061 247.163L183.985 246.911C177.342 246.773 171.547 247.02 171.105 247.462C170.653 247.914 170.338 268.987 170.384 295.718C170.435 325.581 170.146 343.057 169.604 342.863C169.131 342.693 164.563 338.011 159.454 332.46C148.713 320.788 133.796 304.849 113.316 283.163C92.2529 260.858 88.3365 256.683 83.5579 251.438L79.2546 246.713H67.3901C60.864 246.713 55.2548 246.983 54.9254 247.314ZM227.503 247.883C227.256 248.528 227.167 254.5 227.306 261.157L227.558 273.261L263.625 273.496L299.691 273.731L306.467 266.296C310.194 262.208 315.319 256.635 317.856 253.913C320.392 251.19 322.475 248.457 322.483 247.838C322.507 246.151 228.15 246.197 227.503 247.883ZM66.8412 346.379C63.1065 350.215 58.7627 354.886 57.1878 356.759L54.3252 360.165V375.252C54.3252 385.787 54.651 390.665 55.4051 391.419C56.1286 392.143 60.1548 392.499 67.5998 392.499H78.7146L80.0186 389.378C81.0364 386.942 81.3226 381.433 81.3226 364.255C81.3226 352.153 81.0769 341.611 80.7763 340.828C80.4155 339.888 79.1088 339.404 76.931 339.404C73.9991 339.404 72.8733 340.182 66.8412 346.379Z" fill="black"/>
<rect x="391.829" y="245.861" width="23.3977" height="64.7937" rx="11.6989" fill="#B3B3B3"/>
</svg>
