<svg width="80" height="80" viewBox="0 0 80 80" fill="none" xmlns="http://www.w3.org/2000/svg">
<g id="solar:card-transfer-line-duotone">
<g id="Group">
<path id="Vector" d="M73.3337 36.6667C73.3003 26.2867 72.9737 20.7834 69.427 17.24C65.5237 13.3334 59.237 13.3334 46.667 13.3334H33.3337C20.7637 13.3334 14.477 13.3334 10.5737 17.24C6.66699 21.1434 6.66699 27.43 6.66699 40C6.66699 52.57 6.66699 58.8567 10.5737 62.76C14.477 66.6667 20.7637 66.6667 33.3337 66.6667H38.3337" stroke="#B6FFFA" stroke-width="4" stroke-linecap="round"/>
<path id="Vector_2" opacity="0.5" d="M66.6667 66.6667V46.6667M66.6667 46.6667L73.3333 53.3334M66.6667 46.6667L60 53.3334" stroke="#B6FFFA" stroke-width="4" stroke-linecap="round" stroke-linejoin="round"/>
<path id="Vector_3" d="M51.6667 46.6667V66.6667M51.6667 66.6667L58.3333 60.0001M51.6667 66.6667L45 60.0001" stroke="#B6FFFA" stroke-width="4" stroke-linecap="round" stroke-linejoin="round"/>
<path id="Vector_4" opacity="0.5" d="M33.3333 53.3334H20" stroke="#B6FFFA" stroke-width="4" stroke-linecap="round"/>
<path id="Vector_5" opacity="0.4" d="M6.66699 33.3334H73.3337" stroke="#B6FFFA" stroke-width="4" stroke-linecap="round"/>
</g>
</g>
</svg>
