<svg width="80" height="80" viewBox="0 0 80 80" fill="none" xmlns="http://www.w3.org/2000/svg">
<g id="solar:maximize-square-3-line-duotone">
<g id="Group">
<path id="Vector" opacity="0.5" d="M43.3337 73.3334C56.8503 73.3067 63.927 72.9767 68.4503 68.4501C73.3337 63.5734 73.3337 55.7134 73.3337 40.0001C73.3337 24.2867 73.3337 16.4301 68.4503 11.5467C63.5703 6.66675 55.7137 6.66675 40.0003 6.66675C24.287 6.66675 16.4303 6.66675 11.547 11.5467C7.02366 16.0734 6.69366 23.1467 6.66699 36.6667" stroke="#B6FFFA" stroke-width="4" stroke-linecap="round"/>
<path id="Vector_2" d="M40 40.0002L56.6667 23.3335M56.6667 23.3335H44.1667M56.6667 23.3335V35.8335" stroke="#B6FFFA" stroke-width="4" stroke-linecap="round" stroke-linejoin="round"/>
<path id="Vector_3" d="M6.66699 60.0001C6.66699 53.7134 6.66699 50.5734 8.62033 48.6201C10.5737 46.6667 13.7137 46.6667 20.0003 46.6667C26.287 46.6667 29.427 46.6667 31.3803 48.6201C33.3337 50.5734 33.3337 53.7134 33.3337 60.0001C33.3337 66.2867 33.3337 69.4267 31.3803 71.3801C29.427 73.3334 26.287 73.3334 20.0003 73.3334C13.7137 73.3334 10.5737 73.3334 8.62033 71.3801C6.66699 69.4267 6.66699 66.2867 6.66699 60.0001Z" stroke="#B6FFFA" stroke-width="4"/>
</g>
</g>
</svg>
