<svg width="81" height="80" viewBox="0 0 81 80" fill="none" xmlns="http://www.w3.org/2000/svg">
<g id="solar:code-square-line-duotone">
<g id="Group">
<path id="Vector" d="M52.3341 30.0001L52.9074 30.5735C57.3507 35.0168 59.5741 37.2401 59.5741 40.0001C59.5741 42.7601 57.3507 44.9835 52.9074 49.4268L52.3341 50.0001M44.9807 23.9001L40.6674 40.0001L36.3541 56.1001M29.0007 30.0001L28.4274 30.5735C23.9841 35.0168 21.7607 37.2401 21.7607 40.0001C21.7607 42.7601 23.9841 44.9835 28.4274 49.4268L29.0007 50.0001" stroke="#B6FFFA" stroke-width="4" stroke-linecap="round"/>
<path id="Vector_2" opacity="0.5" d="M7.33398 40.0001C7.33398 24.2867 7.33398 16.4301 12.214 11.5467C17.1007 6.66675 24.954 6.66675 40.6673 6.66675C56.3807 6.66675 64.2373 6.66675 69.1173 11.5467C74.0006 16.4334 74.0006 24.2867 74.0006 40.0001C74.0006 55.7134 74.0006 63.5701 69.1173 68.4501C64.2406 73.3334 56.3807 73.3334 40.6673 73.3334C24.954 73.3334 17.0973 73.3334 12.214 68.4501C7.33398 63.5734 7.33398 55.7134 7.33398 40.0001Z" stroke="#B6FFFA" stroke-width="4"/>
</g>
</g>
</svg>
