<svg width="81" height="80" viewBox="0 0 81 80" fill="none" xmlns="http://www.w3.org/2000/svg">
<g id="solar:turntable-music-note-line-duotone">
<g id="Group">
<path id="Vector" d="M40.6673 73.3333C24.954 73.3333 17.0973 73.3333 12.214 68.45C7.33398 63.5733 7.33398 55.7133 7.33398 40C7.33398 24.2866 7.33398 16.43 12.214 11.5466C17.1007 6.66663 24.954 6.66663 40.6673 6.66663C56.3807 6.66663 64.2373 6.66663 69.1173 11.5466C73.254 15.6833 73.884 21.9566 73.984 33.3333M64.0006 66.6666V40" stroke="#B6FFFA" stroke-width="4" stroke-linecap="round"/>
<path id="Vector_2" d="M57.3337 73.3333C61.0156 73.3333 64.0003 70.3486 64.0003 66.6667C64.0003 62.9848 61.0156 60 57.3337 60C53.6518 60 50.667 62.9848 50.667 66.6667C50.667 70.3486 53.6518 73.3333 57.3337 73.3333Z" stroke="#B6FFFA" stroke-width="4"/>
<path id="Vector_3" d="M74.001 50C71.3488 50 68.8053 48.9464 66.9299 47.0711C65.0545 45.1957 64.001 42.6522 64.001 40" stroke="#B6FFFA" stroke-width="4" stroke-linecap="round"/>
<path id="Vector_4" opacity="0.5" d="M30.667 40C30.667 37.3478 31.7206 34.8043 33.5959 32.9289C35.4713 31.0536 38.0148 30 40.667 30C43.3192 30 45.8627 31.0536 47.7381 32.9289C49.6134 34.8043 50.667 37.3478 50.667 40C50.667 42.6522 49.6134 45.1957 47.7381 47.0711C45.8627 48.9464 43.3192 50 40.667 50C38.0148 50 35.4713 48.9464 33.5959 47.0711C31.7206 45.1957 30.667 42.6522 30.667 40Z" stroke="#B6FFFA" stroke-width="4"/>
</g>
</g>
</svg>
