<svg width="81" height="80" viewBox="0 0 81 80" fill="none" xmlns="http://www.w3.org/2000/svg">
<g id="solar:chart-square-line-duotone">
<g id="Group">
<path id="Vector" opacity="0.5" d="M7 40C7 24.2866 7 16.43 11.88 11.5466C16.7667 6.66663 24.62 6.66663 40.3333 6.66663C56.0467 6.66663 63.9033 6.66663 68.7833 11.5466C73.6667 16.4333 73.6667 24.2866 73.6667 40C73.6667 55.7133 73.6667 63.57 68.7833 68.45C63.9067 73.3333 56.0467 73.3333 40.3333 73.3333C24.62 73.3333 16.7633 73.3333 11.88 68.45C7 63.5733 7 55.7133 7 40Z" stroke="#B6FFFA" stroke-width="4"/>
<path id="Vector_2" d="M23.667 60V30M40.3337 60V20M57.0003 60V43.3333" stroke="#B6FFFA" stroke-width="4" stroke-linecap="round"/>
</g>
</g>
</svg>
