<svg width="80" height="80" viewBox="0 0 80 80" fill="none" xmlns="http://www.w3.org/2000/svg">
<g id="solar:clapperboard-play-line-duotone">
<g id="Group">
<path id="Vector" d="M6.66699 40C6.66699 24.2866 6.66699 16.43 11.547 11.5466C16.4337 6.66663 24.287 6.66663 40.0003 6.66663C55.7137 6.66663 63.5703 6.66663 68.4503 11.5466C73.3337 16.4333 73.3337 24.2866 73.3337 40C73.3337 55.7133 73.3337 63.57 68.4503 68.45C63.5737 73.3333 55.7137 73.3333 40.0003 73.3333C24.287 73.3333 16.4303 73.3333 11.547 68.45C6.66699 63.5733 6.66699 55.7133 6.66699 40Z" stroke="#B6FFFA" stroke-width="4"/>
<path id="Vector_2" opacity="0.5" d="M71.6673 26.6666H8.33398M23.334 26.6666L35.0007 8.33325M45.0007 26.6666L56.6673 8.33325M50.0007 48.3333C50.0007 46.2233 47.794 44.7999 43.3807 41.9499C38.9073 39.0633 36.6707 37.6199 35.0007 38.6833C33.334 39.7399 33.334 42.6033 33.334 48.3333C33.334 54.0633 33.334 56.9266 35.0007 57.9866C36.6673 59.0466 38.9073 57.6033 43.3807 54.7166C47.794 51.8666 50.0007 50.4433 50.0007 48.3333Z" stroke="#B6FFFA" stroke-width="4" stroke-linecap="round"/>
</g>
</g>
</svg>
