<svg width="81" height="80" viewBox="0 0 81 80" fill="none" xmlns="http://www.w3.org/2000/svg">
<g id="solar:chat-square-like-line-duotone">
<path id="Vector" d="M46.4407 72.5666L48.2473 69.5133L43.9473 66.9666L42.1373 70.02L46.4407 72.5666ZM33.0873 69.5133L34.894 72.5666L39.194 70.02L37.3907 66.9666L33.0873 69.5133ZM42.1373 70.02C41.9815 70.2693 41.7649 70.4749 41.5077 70.6175C41.2505 70.76 40.9613 70.8348 40.6673 70.8348C40.3733 70.8348 40.0841 70.76 39.8269 70.6175C39.5698 70.4749 39.3531 70.2693 39.1973 70.02L34.894 72.5666C37.4706 76.9233 43.8607 76.9233 46.4407 72.5666L42.1407 70.02H42.1373ZM35.6673 9.16663H45.6673V4.16663H35.6673V9.16663ZM71.5006 35V38.3333H76.5006V35H71.5006ZM9.83398 38.3333V35H4.83398V38.3333H9.83398ZM4.83398 38.3333C4.83398 42.1833 4.83398 45.1933 5.00065 47.6233C5.16732 50.0733 5.51065 52.1133 6.29398 54L10.914 52.0866C10.424 50.9133 10.1373 49.48 9.98732 47.2833C9.83398 45.0633 9.83398 42.25 9.83398 38.3333H4.83398ZM26.6773 60.8066C22.4907 60.7333 20.2973 60.4666 18.5773 59.7533L16.6673 64.3733C19.3507 65.4866 22.404 65.7366 26.5907 65.81L26.6773 60.8066ZM6.29398 54C7.2572 56.3255 8.66905 58.4385 10.4489 60.2184C12.2288 61.9982 14.3418 63.4101 16.6673 64.3733L18.5773 59.7533C15.1062 58.3155 12.3518 55.5577 10.914 52.0866L6.29398 54ZM71.5006 38.3333C71.5006 42.25 71.5006 45.0633 71.3473 47.2833C71.1973 49.48 70.9107 50.9133 70.424 52.0866L75.0406 54C75.824 52.1133 76.1673 50.0733 76.3373 47.6233C76.504 45.1933 76.5006 42.1833 76.5006 38.3333H71.5006ZM54.744 65.8033C58.9306 65.7333 61.984 65.4866 64.6673 64.3733L62.754 59.7533C61.0373 60.4666 58.844 60.7333 54.6606 60.8066L54.744 65.8066V65.8033ZM70.424 52.0866C68.9862 55.5577 66.2284 58.3155 62.7573 59.7533L64.6673 64.3733C66.9928 63.4101 69.1059 61.9982 70.8857 60.2184C72.6656 58.4385 74.0774 56.3255 75.0406 54L70.424 52.0866ZM45.6673 9.16663C51.1707 9.16663 55.124 9.16663 58.2073 9.46329C61.254 9.75329 63.1907 10.3066 64.7373 11.2533L67.3473 6.98996C64.884 5.48329 62.0906 4.80996 58.6806 4.48329C55.3073 4.16329 51.074 4.16663 45.6673 4.16663V9.16663ZM76.5006 35C76.5006 29.5933 76.5006 25.3633 76.1806 21.9866C75.8573 18.5766 75.184 15.78 73.6773 13.32L69.4106 15.93C70.3606 17.4766 70.914 19.4133 71.204 22.4633C71.4973 25.5433 71.5006 29.4966 71.5006 35H76.5006ZM64.734 11.2533C66.6412 12.4209 68.245 14.0235 69.414 15.93L73.6773 13.32C72.0965 10.7399 69.9274 8.57072 67.3473 6.98996L64.7373 11.2566L64.734 11.2533ZM35.6673 4.16663C30.2607 4.16663 26.0307 4.16663 22.654 4.48329C19.244 4.80996 16.4473 5.48329 13.9873 6.98996L16.5973 11.2566C18.144 10.3066 20.0807 9.75329 23.1306 9.46329C26.2106 9.16996 30.164 9.16663 35.6673 9.16663V4.16663ZM9.83398 35C9.83398 29.4966 9.83398 25.5433 10.1307 22.46C10.4207 19.4133 10.974 17.4766 11.9207 15.93L7.65732 13.3233C6.15065 15.7833 5.47732 18.5766 5.15065 21.9866C4.83398 25.3666 4.83398 29.5933 4.83398 35H9.83398ZM13.9873 6.98996C11.4072 8.57072 9.23808 10.7432 7.65732 13.3233L11.924 15.93C13.0911 14.0243 14.6925 12.4218 16.5973 11.2533L13.9873 6.98996ZM37.3873 66.9666C36.714 65.8233 36.1206 64.8133 35.5406 64.02C34.9441 63.15 34.1691 62.4171 33.2673 61.87L30.754 66.1933C30.9107 66.2866 31.1273 66.4533 31.5007 66.9666C31.904 67.52 32.3606 68.2866 33.0873 69.5133L37.3873 66.9666ZM26.5907 65.8033C28.0573 65.83 28.9807 65.85 29.6873 65.9266C30.3473 66 30.604 66.1066 30.754 66.1933L33.2673 61.87C32.334 61.3529 31.3009 61.0415 30.2373 60.9566C29.244 60.8466 28.0506 60.83 26.6773 60.8066L26.5907 65.81V65.8033ZM48.2473 69.5133C48.974 68.29 49.4306 67.52 49.834 66.9666C50.2073 66.4533 50.424 66.2866 50.5807 66.1933L48.0673 61.87C47.1007 62.4366 46.4007 63.1866 45.794 64.02C45.2173 64.8133 44.6207 65.82 43.944 66.9666L48.2473 69.5133ZM54.6606 60.8066C53.2873 60.83 52.0906 60.8466 51.0973 60.9566C50.0606 61.0733 49.044 61.3033 48.0673 61.87L50.5807 66.1933C50.7306 66.1066 50.9873 66 51.6473 65.9266C52.354 65.85 53.2807 65.8266 54.7473 65.8033L54.6606 60.8033V60.8066Z" fill="#B6FFFA"/>
<path id="Vector_2" opacity="0.5" d="M40.667 27.02L38.8803 28.77C39.1131 29.0079 39.3911 29.1968 39.6979 29.3259C40.0047 29.4549 40.3342 29.5213 40.667 29.5213C40.9998 29.5213 41.3293 29.4549 41.6361 29.3259C41.9429 29.1968 42.2209 29.0079 42.4537 28.77L40.667 27.02ZM38.7837 45.68C36.637 44.1 33.8903 41.8567 31.707 39.36C29.4403 36.7767 28.167 34.3533 28.167 32.3833H23.167C23.167 36.25 25.497 39.8567 27.9437 42.6533C30.4703 45.5367 33.5403 48.03 35.817 49.7067L38.7837 45.68ZM28.167 32.3833C28.167 28.6933 29.817 26.75 31.5103 26.1167C33.237 25.47 35.9837 25.8167 38.8803 28.7733L42.4537 25.2733C38.6003 21.3367 33.8503 19.9 29.7603 21.4267C25.6437 22.9667 23.167 27.15 23.167 32.3833H28.167ZM45.517 49.71C47.7937 48.03 50.8637 45.5433 53.3903 42.6567C55.837 39.86 58.167 36.2567 58.167 32.3867H53.167C53.167 34.3567 51.8903 36.78 49.627 39.3633C47.4437 41.86 44.6937 44.1 42.5503 45.68L45.517 49.71ZM58.167 32.3867C58.167 27.1533 55.6903 22.97 51.5737 21.43C47.4837 19.9033 42.7337 21.34 38.8803 25.2733L42.4537 28.7733C45.3503 25.8133 48.1003 25.4733 49.8203 26.1133C51.5203 26.7467 53.167 28.6933 53.167 32.3867H58.167ZM35.817 49.71C37.1237 50.6733 38.5837 51.87 40.667 51.87V46.8667C40.617 46.8667 40.5603 46.88 40.3303 46.7533C39.7938 46.4292 39.2773 46.073 38.7837 45.6867L35.817 49.71ZM42.5503 45.68C41.7403 46.28 41.3303 46.5767 41.0037 46.7533C40.7703 46.88 40.717 46.8667 40.667 46.8667V51.87C42.7503 51.87 44.2103 50.67 45.517 49.71L42.5503 45.68Z" fill="#B6FFFA"/>
</g>
</svg>
