<svg width="81" height="80" viewBox="0 0 81 80" fill="none" xmlns="http://www.w3.org/2000/svg">
<g id="solar:question-square-line-duotone">
<g id="Group">
<path id="Vector" opacity="0.5" d="M7 40C7 24.2866 7 16.43 11.88 11.5466C16.7667 6.66663 24.62 6.66663 40.3333 6.66663C56.0467 6.66663 63.9033 6.66663 68.7833 11.5466C73.6667 16.4333 73.6667 24.2866 73.6667 40C73.6667 55.7133 73.6667 63.57 68.7833 68.45C63.9067 73.3333 56.0467 73.3333 40.3333 73.3333C24.62 73.3333 16.7633 73.3333 11.88 68.45C7 63.5733 7 55.7133 7 40Z" stroke="#B6FFFA" stroke-width="4"/>
<path id="Vector_2" d="M34.083 29.5833C34.0832 28.4887 34.3707 27.4134 34.917 26.465C35.4632 25.5165 36.249 24.7281 37.1956 24.1786C38.1422 23.6292 39.2166 23.338 40.3111 23.3341C41.4056 23.3303 42.482 23.614 43.4324 24.1568C44.3829 24.6995 45.1742 25.4824 45.727 26.4271C46.2799 27.3717 46.575 28.4449 46.5828 29.5394C46.5907 30.634 46.3109 31.7113 45.7716 32.6638C45.2323 33.6162 44.4523 34.4103 43.5097 34.9666C41.9263 35.9033 40.333 37.3266 40.333 39.1666V43.3333" stroke="#B6FFFA" stroke-width="4" stroke-linecap="round"/>
<path id="Vector_3" d="M40.3333 56.6667C42.1743 56.6667 43.6667 55.1743 43.6667 53.3333C43.6667 51.4924 42.1743 50 40.3333 50C38.4924 50 37 51.4924 37 53.3333C37 55.1743 38.4924 56.6667 40.3333 56.6667Z" fill="#B6FFFA"/>
</g>
</g>
</svg>
