<svg width="80" height="80" viewBox="0 0 80 80" fill="none" xmlns="http://www.w3.org/2000/svg">
<g id="solar:cpu-bolt-line-duotone">
<g id="Group">
<path id="Vector" opacity="0.5" d="M23.334 33.3333C23.334 28.6199 23.334 26.2633 24.8007 24.7999C26.2607 23.3333 28.6173 23.3333 33.334 23.3333H46.6673C51.3807 23.3333 53.7373 23.3333 55.2006 24.7999C56.6673 26.2633 56.6673 28.6199 56.6673 33.3333V46.6666C56.6673 51.3799 56.6673 53.7366 55.2006 55.1999C53.7373 56.6666 51.3807 56.6666 46.6673 56.6666H33.334C28.6207 56.6666 26.264 56.6666 24.8007 55.1999C23.334 53.7399 23.334 51.3833 23.334 46.6666V33.3333Z" stroke="#B6FFFA" stroke-width="4"/>
<path id="Vector_2" d="M13.334 39.9999C13.334 27.4299 13.334 21.1433 17.2407 17.2399C21.144 13.3333 27.4307 13.3333 40.0007 13.3333C52.5706 13.3333 58.8573 13.3333 62.7606 17.2399C66.6673 21.1433 66.6673 27.4299 66.6673 39.9999C66.6673 52.5699 66.6673 58.8566 62.7606 62.7599C58.8573 66.6666 52.5706 66.6666 40.0007 66.6666C27.4307 66.6666 21.144 66.6666 17.2407 62.7599C13.334 58.8566 13.334 52.5699 13.334 39.9999Z" stroke="#B6FFFA" stroke-width="4"/>
<path id="Vector_3" opacity="0.5" d="M13.3337 40H6.66699M73.3337 40H66.667M13.3337 30H6.66699M73.3337 30H66.667M13.3337 50H6.66699M73.3337 50H66.667M40.0003 66.6666V73.3333M40.0003 6.66663V13.3333M30.0003 66.6666V73.3333M30.0003 6.66663V13.3333M50.0003 66.6666V73.3333M50.0003 6.66663V13.3333" stroke="#B6FFFA" stroke-width="4" stroke-linecap="round"/>
</g>
</g>
</svg>
