<svg width="81" height="80" viewBox="0 0 81 80" fill="none" xmlns="http://www.w3.org/2000/svg">
<g id="solar:shop-line-duotone">
<g id="Group">
<path id="Vector" d="M32.3341 6.66663H49.0008L51.1741 28.39C51.3223 29.8587 51.1609 31.3421 50.7003 32.7446C50.2398 34.1471 49.4903 35.4374 48.5003 36.5323C47.5102 37.6273 46.3017 38.5025 44.9525 39.1015C43.6033 39.7005 42.1436 40.0099 40.6674 40.0099C39.1913 40.0099 37.7315 39.7005 36.3824 39.1015C35.0332 38.5025 33.8246 37.6273 32.8346 36.5323C31.8445 35.4374 31.0951 34.1471 30.6345 32.7446C30.174 31.3421 30.0126 29.8587 30.1608 28.39L32.3341 6.66663Z" stroke="#B6FFFA" stroke-width="4"/>
<path id="Vector_2" d="M11.7674 17.8366C12.3607 14.87 12.6574 13.3866 13.2607 12.1833C13.8894 10.9301 14.7745 9.82308 15.8587 8.93413C16.9429 8.04518 18.202 7.39414 19.5541 7.02329C20.8541 6.66663 22.3674 6.66663 25.3941 6.66663H32.3341L29.9174 30.8166C29.7899 32.1987 29.3816 33.5403 28.7176 34.7591C28.0536 35.9779 27.1478 37.0484 26.0557 37.905C24.9636 38.7616 23.7082 39.3864 22.3663 39.7409C21.0243 40.0955 19.6242 40.1725 18.2515 39.9671C16.8788 39.7618 15.5624 39.2784 14.383 38.5467C13.2036 37.8149 12.186 36.8502 11.3924 35.7115C10.5987 34.5728 10.0459 33.2841 9.76763 31.9243C9.48937 30.5645 9.49156 29.1622 9.77406 27.8033L11.7674 17.8366ZM69.5674 17.8366C68.9741 14.87 68.6774 13.3866 68.0741 12.1833C67.4454 10.9301 66.5603 9.82308 65.4761 8.93413C64.3919 8.04518 63.1328 7.39414 61.7807 7.02329C60.4807 6.66663 58.9674 6.66663 55.9407 6.66663H49.0007L51.4174 30.8166C51.5449 32.1987 51.9532 33.5403 52.6172 34.7591C53.2812 35.9779 54.187 37.0484 55.2791 37.905C56.3712 38.7616 57.6266 39.3864 58.9685 39.7409C60.3105 40.0955 61.7106 40.1725 63.0833 39.9671C64.456 39.7618 65.7724 39.2784 66.9518 38.5467C68.1312 37.8149 69.1488 36.8502 69.9424 35.7115C70.736 34.5728 71.2889 33.2841 71.5672 31.9243C71.8454 30.5645 71.8432 29.1622 71.5607 27.8033L69.5674 17.8366Z" stroke="#B6FFFA" stroke-width="4"/>
<path id="Vector_3" opacity="0.5" d="M29.834 71.6666C29.834 72.3297 30.0974 72.9656 30.5662 73.4344C31.0351 73.9032 31.6709 74.1666 32.334 74.1666C32.997 74.1666 33.6329 73.9032 34.1018 73.4344C34.5706 72.9656 34.834 72.3297 34.834 71.6666H29.834ZM46.5007 71.6666C46.5007 72.3297 46.764 72.9656 47.2329 73.4344C47.7017 73.9032 48.3376 74.1666 49.0007 74.1666C49.6637 74.1666 50.2996 73.9032 50.7684 73.4344C51.2373 72.9656 51.5007 72.3297 51.5007 71.6666H46.5007ZM42.334 70.8333H39.0007V75.8333H42.334V70.8333ZM14.834 46.6666V36.6666H9.83399V46.6666H14.834ZM66.5007 36.6666V46.6666H71.5007V36.6666H66.5007ZM39.0007 70.8333C32.644 70.8333 28.1307 70.8266 24.7007 70.3666C21.3507 69.9166 19.4173 69.07 18.0073 67.66L14.474 71.1933C16.9673 73.6933 20.1307 74.7966 24.0373 75.3233C27.8707 75.84 32.7873 75.8333 39.0007 75.8333V70.8333ZM9.83399 46.6666C9.83399 52.88 9.82732 57.7933 10.344 61.63C10.8707 65.5366 11.9773 68.7 14.4707 71.1966L18.004 67.6633C16.5973 66.25 15.7507 64.3166 15.3007 60.9633C14.8407 57.54 14.834 53.0233 14.834 46.6666H9.83399ZM42.334 75.8333C48.5473 75.8333 53.4607 75.84 57.2973 75.3233C61.204 74.7966 64.3673 73.69 66.864 71.1966L63.3307 67.6633C61.9173 69.07 59.984 69.9166 56.6307 70.3666C53.204 70.8266 48.6907 70.8333 42.334 70.8333V75.8333ZM66.5007 46.6666C66.5007 53.0233 66.494 57.54 66.034 60.9666C65.584 64.3166 64.7373 66.25 63.3273 67.66L66.8607 71.1933C69.3607 68.7 70.464 65.5366 70.9907 61.63C71.5073 57.7966 71.5007 52.88 71.5007 46.6666H66.5007ZM34.834 71.6666V61.6666H29.834V71.6666H34.834ZM46.5007 61.6666V71.6666H51.5007V61.6666H46.5007ZM40.6673 55.8333C42.2707 55.8333 43.3073 55.8333 44.0907 55.9066C44.8407 55.9733 45.114 56.09 45.2507 56.17L47.7507 51.8366C46.7273 51.2466 45.6407 51.0266 44.544 50.9266C43.4773 50.83 42.1773 50.8333 40.6673 50.8333V55.8333ZM51.5007 61.6666C51.5007 60.1566 51.5007 58.8533 51.4073 57.79C51.3073 56.6933 51.0873 55.6066 50.4973 54.5833L46.164 57.0833C46.244 57.2166 46.3607 57.4933 46.4273 58.2433C46.4973 59.0266 46.5007 60.0633 46.5007 61.6666H51.5007ZM45.2507 56.17C45.6303 56.3901 45.9453 56.7029 46.164 57.0833L50.4973 54.5833C49.8387 53.4425 48.8914 52.4952 47.7507 51.8366L45.2507 56.17ZM34.834 61.6666C34.834 60.0633 34.834 59.0266 34.9073 58.2433C34.974 57.4933 35.0907 57.22 35.1707 57.0833L30.8373 54.5833C30.2473 55.6066 30.0273 56.6933 29.9273 57.79C29.8307 58.8566 29.834 60.1566 29.834 61.6666H34.834ZM40.6673 50.8333C39.154 50.8333 37.854 50.8333 36.7907 50.9266C35.694 51.0266 34.6073 51.2466 33.584 51.8366L36.084 56.17C36.2173 56.09 36.494 55.9766 37.244 55.9066C38.0273 55.8366 39.064 55.8333 40.6673 55.8333V50.8333ZM35.1707 57.0833C35.3908 56.7037 35.7036 56.3887 36.084 56.17L33.584 51.8366C32.4431 52.4951 31.4958 53.4424 30.8373 54.5833L35.1707 57.0833Z" fill="#B6FFFA"/>
</g>
</g>
</svg>
