<svg width="64" height="65" viewBox="0 0 64 65" fill="none" xmlns="http://www.w3.org/2000/svg">
<g id="solar:code-scan-line-duotone">
<g id="Group">
<path id="Vector" d="M14.6641 41.8337C14.6641 39.319 14.6641 38.063 15.4454 37.2817C16.2267 36.5003 17.4827 36.5003 19.9974 36.5003H22.6641C25.1787 36.5003 26.4347 36.5003 27.2161 37.2817C27.9974 38.063 27.9974 39.319 27.9974 41.8337V44.5003C27.9974 47.015 27.9974 48.271 27.2161 49.0523C26.4347 49.8337 25.1787 49.8337 22.6641 49.8337C18.8934 49.8337 17.0081 49.8337 15.8374 48.6603C14.6641 47.4897 14.6641 45.6043 14.6641 41.8337ZM14.6641 23.167C14.6641 19.3963 14.6641 17.511 15.8374 16.3403C17.0081 15.167 18.8934 15.167 22.6641 15.167C25.1787 15.167 26.4347 15.167 27.2161 15.9483C27.9974 16.7297 27.9974 17.9857 27.9974 20.5003V23.167C27.9974 25.6817 27.9974 26.9377 27.2161 27.719C26.4347 28.5003 25.1787 28.5003 22.6641 28.5003H19.9974C17.4827 28.5003 16.2267 28.5003 15.4454 27.719C14.6641 26.9377 14.6641 25.6817 14.6641 23.167ZM35.9974 41.8337C35.9974 39.319 35.9974 38.063 36.7787 37.2817C37.5601 36.5003 38.8161 36.5003 41.3307 36.5003H43.9974C46.5121 36.5003 47.7681 36.5003 48.5494 37.2817C49.3307 38.063 49.3307 39.319 49.3307 41.8337C49.3307 45.6043 49.3307 47.4897 48.1574 48.6603C46.9867 49.8337 45.1014 49.8337 41.3307 49.8337C38.8161 49.8337 37.5601 49.8337 36.7787 49.0523C35.9974 48.271 35.9974 47.015 35.9974 44.5003V41.8337ZM35.9974 20.5003C35.9974 17.9857 35.9974 16.7297 36.7787 15.9483C37.5601 15.167 38.8161 15.167 41.3307 15.167C45.1014 15.167 46.9867 15.167 48.1574 16.3403C49.3307 17.511 49.3307 19.3963 49.3307 23.167C49.3307 25.6817 49.3307 26.9377 48.5494 27.719C47.7681 28.5003 46.5121 28.5003 43.9974 28.5003H41.3307C38.8161 28.5003 37.5601 28.5003 36.7787 27.719C35.9974 26.9377 35.9974 25.6817 35.9974 23.167V20.5003Z" stroke="#B6FFFA" stroke-width="3"/>
<path id="Vector_2" opacity="0.5" d="M58.6654 37.8335C58.6654 47.8895 58.6654 52.9188 55.54 56.0415C52.4174 59.1668 47.388 59.1668 37.332 59.1668M26.6654 59.1668C16.6094 59.1668 11.58 59.1668 8.45736 56.0415C5.33203 52.9188 5.33203 47.8895 5.33203 37.8335M26.6654 5.8335C16.6094 5.8335 11.58 5.8335 8.45736 8.95883C5.33203 12.0815 5.33203 17.1108 5.33203 27.1668M37.332 5.8335C47.388 5.8335 52.4174 5.8335 55.54 8.95883C58.6654 12.0815 58.6654 17.1108 58.6654 27.1668" stroke="#B6FFFA" stroke-width="3" stroke-linecap="round"/>
</g>
</g>
</svg>
