<svg width="64" height="64" viewBox="0 0 64 64" fill="none" xmlns="http://www.w3.org/2000/svg">
<g id="solar:crown-star-line-duotone">
<g id="Group">
<path id="Vector" d="M57.6242 36.1653L58.2375 29.6693C58.7175 24.5706 58.9575 22.0186 58.0829 20.9653C57.863 20.6906 57.5905 20.4626 57.2814 20.2946C56.9724 20.1265 56.6329 20.0218 56.2829 19.9866C55.0135 19.8746 53.4215 21.6879 50.2348 25.3146C48.5868 27.1919 47.7628 28.1279 46.8455 28.2746C46.3332 28.3544 45.8087 28.2705 45.3468 28.0346C44.4962 27.6079 43.9335 26.4479 42.8002 24.1306L36.8348 11.9066C34.6962 7.52525 33.6269 5.33325 32.0002 5.33325C30.3735 5.33325 29.3042 7.52525 27.1655 11.9066L21.2002 24.1306C20.0695 26.4506 19.5042 27.6079 18.6535 28.0346C18.1916 28.2701 17.6672 28.3541 17.1549 28.2746C16.2375 28.1279 15.4135 27.1919 13.7655 25.3146C10.5789 21.6879 8.98685 19.8746 7.71752 19.9866C7.36748 20.0218 7.028 20.1265 6.71892 20.2946C6.40985 20.4626 6.1374 20.6906 5.91752 20.9653C5.04552 22.0186 5.28552 24.5706 5.76552 29.6693L6.37618 36.1653C7.38418 46.8639 7.88552 52.2159 11.0429 55.4399C14.1922 58.6666 18.9175 58.6666 28.3735 58.6666H35.6242C45.0775 58.6666 49.8028 58.6666 52.9575 55.4399C56.1122 52.2133 56.6162 46.8639 57.6242 36.1653Z" stroke="#B6FFFA" stroke-width="3"/>
<path id="Vector_2" opacity="0.5" d="M29.7234 33.3947C30.7367 31.5761 31.2434 30.6667 32.0007 30.6667C32.7581 30.6667 33.2647 31.5734 34.2781 33.3947L34.5394 33.8641C34.8274 34.3814 34.9714 34.6374 35.1954 34.8081C35.4221 34.9787 35.7021 35.0427 36.2621 35.1681L36.7687 35.2854C38.7367 35.7307 39.7207 35.9521 39.9554 36.7041C40.1901 37.4587 39.5181 38.2427 38.1767 39.8107L37.8301 40.2161C37.4487 40.6614 37.2567 40.8827 37.1714 41.1601C37.0861 41.4374 37.1154 41.7334 37.1714 42.3281L37.2247 42.8694C37.4274 44.9627 37.5287 46.0107 36.9181 46.4747C36.3047 46.9387 35.3821 46.5147 33.5394 45.6667L33.0647 45.4481C32.5394 45.2081 32.2781 45.0854 32.0007 45.0854C31.7234 45.0854 31.4621 45.2081 30.9367 45.4481L30.4621 45.6667C28.6194 46.5174 27.6967 46.9387 27.0834 46.4747C26.4701 46.0107 26.5741 44.9627 26.7767 42.8694L26.8301 42.3281C26.8861 41.7334 26.9154 41.4374 26.8301 41.1601C26.7447 40.8854 26.5527 40.6614 26.1714 40.2161L25.8247 39.8107C24.4834 38.2427 23.8114 37.4587 24.0461 36.7041C24.2807 35.9521 25.2647 35.7307 27.2327 35.2854L27.7394 35.1681C28.2994 35.0427 28.5794 34.9814 28.8061 34.8081C29.0301 34.6374 29.1741 34.3814 29.4621 33.8641L29.7234 33.3947Z" stroke="#B6FFFA" stroke-width="3"/>
</g>
</g>
</svg>
