<svg width="64" height="64" viewBox="0 0 64 64" fill="none" xmlns="http://www.w3.org/2000/svg">
<g id="solar:chat-square-arrow-line-duotone">
<path id="Vector" opacity="0.5" d="M24.808 13.2614C25.0706 13.2605 25.3305 13.2079 25.5729 13.1066C25.8152 13.0053 26.0352 12.8572 26.2203 12.6709C26.4054 12.4845 26.5519 12.2636 26.6516 12.0206C26.7513 11.7776 26.8022 11.5173 26.8013 11.2547C26.8005 10.9921 26.7479 10.7322 26.6465 10.4898C26.5452 10.2475 26.3972 10.0275 26.2108 9.84244C26.0245 9.65734 25.8035 9.51075 25.5605 9.41105C25.3176 9.31135 25.0573 9.26049 24.7947 9.26136L24.808 13.2614ZM57.9627 38.5707C57.9636 38.0489 57.7605 37.5474 57.3968 37.1732C57.0331 36.7991 56.5376 36.5819 56.016 36.5679C55.4944 36.554 54.988 36.7445 54.6049 37.0987C54.2218 37.453 53.9923 37.9429 53.9653 38.464L57.9627 38.5707ZM36.3227 58.2427L37.624 56.072L34.1947 54.016L32.8933 56.1867L36.3227 58.2427ZM26.376 56.072L27.6773 58.2427L31.1067 56.1867L29.8053 54.016L26.376 56.072ZM32.8933 56.1867C32.8001 56.3385 32.6684 56.4629 32.5114 56.5472C32.3545 56.6315 32.178 56.6728 32 56.6667C31.822 56.6728 31.6455 56.6315 31.4886 56.5472C31.3317 56.4629 31.1999 56.3385 31.1067 56.1867L27.6773 58.2427C29.6133 61.4747 34.3867 61.4747 36.3227 58.2427L32.8933 56.1867ZM10 33.776V31.4054H6V33.7787L10 33.776ZM6 33.7787C6 36.512 6 38.6614 6.12 40.4C6.24 42.1547 6.49333 43.6347 7.06933 45.0134L10.7573 43.464C10.4213 42.6587 10.216 41.672 10.1093 40.1227C10.0027 38.5547 10 36.5654 10 33.776L6 33.7787ZM21.928 49.536C18.9147 49.4827 17.368 49.2934 16.1653 48.8L14.6507 52.504C16.6187 53.3094 18.848 53.4827 21.8613 53.5334L21.928 49.536ZM7.06933 45.0134C8.50283 48.4176 11.2299 51.1104 14.6507 52.504L16.1653 48.8C13.727 47.8094 11.7818 45.8884 10.7573 43.464L7.06933 45.0134ZM42.1387 53.5334C45.152 53.4827 47.3813 53.3094 49.3493 52.504L47.8347 48.8C46.6347 49.2934 45.0853 49.48 42.072 49.5334L42.1387 53.5334ZM53.2427 43.464C52.7361 44.6655 51.9978 45.7554 51.0698 46.6714C50.1419 47.5875 49.0426 48.3117 47.8347 48.8027L49.3493 52.504C52.7701 51.1104 55.4972 48.415 56.9307 45.0107L53.2427 43.464ZM10 31.4054C10 27.4854 10 24.6907 10.2133 22.512C10.4187 20.3654 10.8133 19.0267 11.4667 17.9707L8.06933 15.864C6.95467 17.656 6.46667 19.6854 6.22933 22.1307C5.99733 24.544 6 27.5654 6 31.4054H10ZM12.696 11.2934C10.8157 12.4308 9.2285 13.997 8.06933 15.864L11.4667 17.9707C12.2943 16.6413 13.4246 15.5265 14.7653 14.7174L12.696 11.2934ZM29.8053 54.0134C29.3227 53.2054 28.888 52.4774 28.464 51.904C28.0159 51.2604 27.436 50.7195 26.7627 50.3174L24.7707 53.784C24.8507 53.832 24.9867 53.928 25.2453 54.2774C25.528 54.6614 25.8507 55.1974 26.376 56.072L29.8053 54.0134ZM21.8587 53.5334C22.9173 53.552 23.576 53.5654 24.0747 53.6187C24.5387 53.672 24.6933 53.7414 24.768 53.7867L26.7627 50.32C26.0678 49.9377 25.2998 49.7068 24.5093 49.6427C23.7867 49.5627 22.912 49.552 21.928 49.536L21.8587 53.5334ZM37.624 56.072C37.9752 55.458 38.3524 54.8592 38.7547 54.2774C39.0133 53.9307 39.1467 53.832 39.2293 53.7867L37.2373 50.32C36.5632 50.72 35.983 51.2602 35.536 51.904C35.112 52.4774 34.6773 53.2054 34.1947 54.016L37.624 56.072ZM42.072 49.5334C41.0853 49.5494 40.2133 49.5627 39.4907 49.6427C38.7006 49.7071 37.9328 49.937 37.2373 50.3174L39.2293 53.7867C39.3067 53.744 39.4613 53.6694 39.9227 53.6187C40.6599 53.5613 41.3992 53.5328 42.1387 53.5334L42.072 49.5334ZM24.792 9.26136C18.832 9.28003 15.816 9.40536 12.696 11.2934L14.7653 14.7174C16.7867 13.496 18.6587 13.28 24.8053 13.2614L24.792 9.26136ZM53.9653 38.464C53.896 41.0134 53.6933 42.3894 53.2427 43.464L56.9307 45.0107C57.688 43.2054 57.8933 41.1867 57.9627 38.5707L53.9653 38.464Z" fill="#B6FFFA"/>
<path id="Vector_2" d="M31.9996 11.2585L30.5943 9.8372C30.406 10.0232 30.2566 10.2448 30.1545 10.489C30.0525 10.7332 30 10.9952 30 11.2599C30 11.5245 30.0525 11.7866 30.1545 12.0308C30.2566 12.275 30.406 12.4965 30.5943 12.6825L31.9996 11.2585ZM53.9996 31.4079C53.9996 31.9383 54.2103 32.447 54.5854 32.8221C54.9605 33.1972 55.4692 33.4079 55.9996 33.4079C56.5301 33.4079 57.0388 33.1972 57.4138 32.8221C57.7889 32.447 57.9996 31.9383 57.9996 31.4079H53.9996ZM39.405 6.7572C39.7826 6.38449 39.9968 5.87701 40.0003 5.3464C40.0038 4.8158 39.7963 4.30554 39.4236 3.92787C39.0509 3.5502 38.5434 3.33606 38.0128 3.33256C37.4822 3.32906 36.972 3.53649 36.5943 3.9092L39.405 6.7572ZM36.5943 18.6079C36.78 18.7974 37.0016 18.9481 37.2462 19.0511C37.4908 19.1542 37.7534 19.2075 38.0188 19.2081C38.2841 19.2086 38.547 19.1563 38.7919 19.0542C39.0369 18.9522 39.2591 18.8024 39.4456 18.6136C39.6321 18.4248 39.7792 18.2008 39.8782 17.9545C39.9773 17.7083 40.0263 17.4449 40.0226 17.1795C40.0188 16.9142 39.9622 16.6522 39.8562 16.409C39.7502 16.1657 39.5968 15.9459 39.405 15.7625L36.5943 18.6079ZM31.9996 13.2585C35.9463 13.2585 39.7196 13.2585 42.8636 13.4719C44.4316 13.5785 45.797 13.7359 46.9116 13.9572C48.0583 14.1839 48.805 14.4559 49.2316 14.7172L51.3063 11.2932C50.293 10.6799 49.0156 10.2985 47.693 10.0345C46.1861 9.75485 44.663 9.57049 43.133 9.48254C39.8263 9.25854 35.9063 9.25854 31.9996 9.25854V13.2585ZM57.9996 31.4079C57.9996 27.5679 57.9996 24.5439 57.7703 22.1279C57.533 19.6852 57.0423 17.6585 55.9303 15.8639L52.533 17.9705C53.1863 19.0292 53.581 20.3652 53.7863 22.5145C53.9996 24.6905 53.9996 27.4879 53.9996 31.4079H57.9996ZM49.2343 14.7145C50.581 15.5305 51.709 16.6452 52.533 17.9705L55.9303 15.8639C54.7711 13.9969 53.1866 12.4306 51.3063 11.2932L49.2343 14.7145ZM33.405 12.6825L39.405 6.7572L36.5943 3.9092L30.5943 9.8372L33.405 12.6825ZM30.5943 12.6825L36.5943 18.6079L39.405 15.7625L33.405 9.8372L30.5943 12.6825Z" fill="#B6FFFA"/>
</g>
</svg>
