<svg width="64" height="64" viewBox="0 0 64 64" fill="none" xmlns="http://www.w3.org/2000/svg">
<g id="solar:suitcase-line-duotone">
<g id="Group">
<path id="Vector" d="M5.33203 37.3336C5.33203 27.2776 5.33203 22.2482 8.45736 19.1256C11.58 16.0002 16.6094 16.0002 26.6654 16.0002H37.332C47.388 16.0002 52.4174 16.0002 55.54 19.1256C58.6654 22.2482 58.6654 27.2776 58.6654 37.3336C58.6654 47.3896 58.6654 52.4189 55.54 55.5416C52.4174 58.6669 47.388 58.6669 37.332 58.6669H26.6654C16.6094 58.6669 11.58 58.6669 8.45736 55.5416C5.33203 52.4189 5.33203 47.3896 5.33203 37.3336Z" stroke="#B6FFFA" stroke-width="3"/>
<path id="Vector_2" opacity="0.5" d="M42.6654 16.0002C42.6654 10.9708 42.6654 8.45883 41.1027 6.89616C39.54 5.3335 37.028 5.3335 31.9987 5.3335C26.9694 5.3335 24.4574 5.3335 22.8947 6.89616C21.332 8.45883 21.332 10.9708 21.332 16.0002" stroke="#B6FFFA" stroke-width="3"/>
<path id="Vector_3" opacity="0.5" d="M45.3307 24.0002C45.3307 24.7074 45.0498 25.3857 44.5497 25.8858C44.0496 26.3859 43.3713 26.6668 42.6641 26.6668C41.9568 26.6668 41.2785 26.3859 40.7784 25.8858C40.2783 25.3857 39.9974 24.7074 39.9974 24.0002C39.9974 23.2929 40.2783 22.6146 40.7784 22.1145C41.2785 21.6144 41.9568 21.3335 42.6641 21.3335C43.3713 21.3335 44.0496 21.6144 44.5497 22.1145C45.0498 22.6146 45.3307 23.2929 45.3307 24.0002ZM23.9974 24.0002C23.9974 24.7074 23.7164 25.3857 23.2163 25.8858C22.7162 26.3859 22.038 26.6668 21.3307 26.6668C20.6235 26.6668 19.9452 26.3859 19.4451 25.8858C18.945 25.3857 18.6641 24.7074 18.6641 24.0002C18.6641 23.2929 18.945 22.6146 19.4451 22.1145C19.9452 21.6144 20.6235 21.3335 21.3307 21.3335C22.038 21.3335 22.7162 21.6144 23.2163 22.1145C23.7164 22.6146 23.9974 23.2929 23.9974 24.0002Z" fill="#B6FFFA"/>
</g>
</g>
</svg>
