<svg width="36" height="36" viewBox="0 0 36 36" fill="none" xmlns="http://www.w3.org/2000/svg">
<g id="solar:stop-circle-linear">
<g id="Group">
<path id="Vector" d="M18 33C26.2843 33 33 26.2843 33 18C33 9.71573 26.2843 3 18 3C9.71573 3 3 9.71573 3 18C3 26.2843 9.71573 33 18 33Z" stroke="#B6FFFA" stroke-width="1.5"/>
<path id="Vector_2" d="M12 18C12 15.171 12 13.758 12.879 12.879C13.758 12 15.171 12 18 12C20.829 12 22.242 12 23.121 12.879C24 13.758 24 15.171 24 18C24 20.829 24 22.242 23.121 23.121C22.242 24 20.829 24 18 24C15.171 24 13.758 24 12.879 23.121C12 22.242 12 20.829 12 18Z" stroke="#B6FFFA" stroke-width="1.5"/>
</g>
</g>
</svg>
