<svg width="17" height="17" viewBox="0 0 17 17" fill="none" xmlns="http://www.w3.org/2000/svg">
<g opacity="0.5">
<path d="M7.16597 0.0204742C3.21445 0.0204742 0 3.23492 0 7.18644C0 11.138 3.21445 14.3524 7.16597 14.3524C8.37395 14.3524 9.56145 14.0658 10.5647 13.513C10.645 13.6097 10.7341 13.6988 10.8309 13.7791L12.8783 15.8266C13.0673 16.0393 13.2979 16.2111 13.5557 16.3315C13.8136 16.4519 14.0934 16.5184 14.3778 16.5267C14.6623 16.5351 14.9455 16.4853 15.21 16.3802C15.4745 16.2752 15.7147 16.1172 15.916 15.916C16.1172 15.7147 16.2752 15.4745 16.3802 15.21C16.4853 14.9455 16.5351 14.6623 16.5267 14.3778C16.5184 14.0934 16.4519 13.8136 16.3315 13.5557C16.2111 13.2979 16.0393 13.0673 15.8266 12.8783L13.7791 10.8309C13.6794 10.7311 13.5696 10.6419 13.4515 10.5647C14.0044 9.56145 14.3524 8.39442 14.3524 7.16597C14.3524 3.21445 11.138 0 7.18644 0L7.16597 0.0204742ZM7.16597 2.06789C10.0119 2.06789 12.2845 4.34053 12.2845 7.18644C12.2845 8.53774 11.7931 9.78667 10.9332 10.708C10.9127 10.7285 10.8923 10.749 10.8718 10.7694C10.7751 10.8498 10.686 10.9389 10.6056 11.0356C9.70477 11.8546 8.47632 12.3255 7.1455 12.3255C4.29958 12.3255 2.02695 10.0528 2.02695 7.20692C2.02695 4.361 4.29958 2.08837 7.1455 2.08837L7.16597 2.06789Z" fill="black"/>
</g>
</svg>
