<svg width="32" height="32" viewBox="0 0 32 32" fill="none" xmlns="http://www.w3.org/2000/svg">
<g id="Ethereum ETH">
<g id="Group">
<path id="Vector" d="M16.0004 29.6C23.5115 29.6 29.6004 23.5111 29.6004 16C29.6004 8.48895 23.5115 2.40002 16.0004 2.40002C8.48932 2.40002 2.40039 8.48895 2.40039 16C2.40039 23.5111 8.48932 29.6 16.0004 29.6Z" fill="#627EEA"/>
<g id="Group_2">
<path id="Vector_2" d="M16.4238 5.80005V13.3396L22.7962 16.1871L16.4238 5.80005Z" fill="white" fill-opacity="0.602"/>
<path id="Vector_3" d="M16.4241 5.80005L10.0508 16.1871L16.4241 13.3396V5.80005Z" fill="white"/>
<path id="Vector_4" d="M16.4238 21.0729V26.1958L22.8005 17.3737L16.4238 21.0729Z" fill="white" fill-opacity="0.602"/>
<path id="Vector_5" d="M16.4241 26.1958V21.072L10.0508 17.3737L16.4241 26.1958Z" fill="white"/>
<path id="Vector_6" d="M16.4238 19.8872L22.7962 16.1871L16.4238 13.3413V19.8872Z" fill="white" fill-opacity="0.2"/>
<path id="Vector_7" d="M10.0508 16.1871L16.4241 19.8872V13.3413L10.0508 16.1871Z" fill="white" fill-opacity="0.602"/>
</g>
</g>
</g>
</svg>
