<svg width="32" height="32" viewBox="0 0 32 32" fill="none" xmlns="http://www.w3.org/2000/svg">
<g id="Polygon MATIC Icon">
<path id="Vector" d="M15.99 2.42139C23.478 2.42139 29.5474 8.49072 29.5474 15.9787C29.5474 23.4667 23.478 29.5307 15.9954 29.5307C8.50736 29.5307 2.44336 23.4614 2.44336 15.9787C2.43803 8.49072 8.50736 2.42139 15.99 2.42139Z" fill="#8247E5"/>
<g id="Group">
<g id="Clip path group">
<mask id="mask0_2049_5115" style="mask-type:luminance" maskUnits="userSpaceOnUse" x="7" y="8" width="18" height="16">
<g id="SVGID_00000119824040907289936360000005545950198423505064_">
<path id="Vector_2" d="M24.779 8.28271H7.01367V23.8507H24.779V8.28271Z" fill="white"/>
</g>
</mask>
<g mask="url(#mask0_2049_5115)">
<g id="Group_2">
<path id="Vector_3" d="M20.4329 13.0241C20.1075 12.8374 19.6915 12.8374 19.3235 13.0241L16.7315 14.5601L14.9715 15.5361L12.4275 17.0667C12.1022 17.2534 11.6862 17.2534 11.3182 17.0667L9.32886 15.8561C9.00353 15.6694 8.7742 15.2961 8.7742 14.8801V12.5547C8.7742 12.1814 8.96086 11.8134 9.32886 11.5787L11.3182 10.4161C11.6435 10.2294 12.0595 10.2294 12.4275 10.4161L14.4169 11.6267C14.7422 11.8134 14.9715 12.1867 14.9715 12.6027V14.1387L16.7315 13.1147V11.5361C16.7315 11.1627 16.5449 10.7947 16.1769 10.5601L12.4755 8.3734C12.1502 8.18673 11.7342 8.18673 11.3662 8.3734L7.5742 10.6081C7.2062 10.7947 7.01953 11.1681 7.01953 11.5361V15.9041C7.01953 16.2774 7.2062 16.6454 7.5742 16.8801L11.3235 19.0667C11.6489 19.2534 12.0649 19.2534 12.4329 19.0667L14.9769 17.5787L16.7369 16.5547L19.2809 15.0667C19.6062 14.8801 20.0222 14.8801 20.3902 15.0667L22.3795 16.2294C22.7049 16.4161 22.9342 16.7894 22.9342 17.2054V19.5307C22.9342 19.9041 22.7475 20.2721 22.3795 20.5067L20.4382 21.6694C20.1129 21.8561 19.6969 21.8561 19.3289 21.6694L17.3342 20.5067C17.0089 20.3201 16.7795 19.9467 16.7795 19.5307V18.0427L15.0195 19.0667V20.6027C15.0195 20.9761 15.2062 21.3441 15.5742 21.5787L19.3235 23.7654C19.6489 23.9521 20.0649 23.9521 20.4329 23.7654L24.1822 21.5787C24.5075 21.3921 24.7369 21.0187 24.7369 20.6027V16.1867C24.7369 15.8134 24.5502 15.4454 24.1822 15.2107L20.4329 13.0241Z" fill="white"/>
</g>
</g>
</g>
</g>
</g>
</svg>
