<svg width="32" height="32" viewBox="0 0 32 32" fill="none" xmlns="http://www.w3.org/2000/svg">
<g id="Near NEAR Icon">
<path id="Vector" d="M15.9898 28.32C22.8058 28.32 28.3311 22.7947 28.3311 15.9787C28.3311 9.16266 22.8058 3.63733 15.9898 3.63733C9.17377 3.63733 3.64844 9.16266 3.64844 15.9787C3.64844 22.7947 9.17377 28.32 15.9898 28.32Z" fill="#EDEDED"/>
<path id="Vector_2" d="M19.9726 10.0534L17.1886 14.1867C16.9966 14.4694 17.3646 14.8107 17.6313 14.5707L20.3726 12.1867C20.4473 12.1281 20.5486 12.1707 20.5486 12.2774V19.7334C20.5486 19.8347 20.4153 19.8827 20.3566 19.8081L12.0686 9.87739C11.802 9.55206 11.418 9.37606 10.986 9.37606H10.6873C9.9193 9.37606 9.2793 10.0161 9.2793 10.8001V21.2961C9.2793 22.0801 9.91396 22.7201 10.7033 22.7201C11.194 22.7201 11.6526 22.4694 11.9193 22.0374L14.7033 17.9041C14.8953 17.6214 14.5273 17.2801 14.2606 17.5201L11.5193 19.8827C11.4446 19.9414 11.3433 19.8987 11.3433 19.7921V12.3521C11.3433 12.2507 11.4766 12.2027 11.5353 12.2774L19.8286 22.2081C20.0953 22.5334 20.4953 22.7147 20.9113 22.7147H21.21C21.994 22.7147 22.634 22.0747 22.634 21.2907V10.7947C22.634 10.0107 21.9993 9.37073 21.21 9.37073C20.698 9.37073 20.2393 9.62673 19.9726 10.0534Z" fill="black"/>
</g>
</svg>
