<svg width="32" height="32" viewBox="0 0 32 32" fill="none" xmlns="http://www.w3.org/2000/svg">
<g id="Solana">
<path id="Vector" d="M15.9786 2.58667H15.9999C23.1946 2.58667 29.0292 8.42134 29.0292 15.616V16.3413C29.0292 23.536 23.1946 29.3707 15.9999 29.3707H15.9786C8.78389 29.3707 2.94922 23.536 2.94922 16.3413V15.616C2.94922 8.42134 8.78389 2.58667 15.9786 2.58667Z" fill="white"/>
<path id="Vector_2" d="M21.5622 12.6666C21.5195 12.7146 21.4662 12.752 21.4075 12.7733C21.3488 12.8 21.2848 12.8106 21.2208 12.8106H9.14085C8.71418 12.8106 8.49552 12.2773 8.79418 11.9573L10.7782 9.85063C10.8208 9.80263 10.8742 9.76529 10.9382 9.73863C10.9968 9.71196 11.0608 9.70129 11.1248 9.70129H23.2528C23.6848 9.70129 23.8982 10.24 23.5942 10.56L21.5622 12.6666ZM21.5622 22.0853C21.4715 22.176 21.3488 22.2293 21.2208 22.2293H9.14085C8.71418 22.2293 8.49552 21.7066 8.79418 21.3973L10.7782 19.3386C10.8208 19.2906 10.8795 19.2533 10.9382 19.232C10.9968 19.2053 11.0608 19.1946 11.1248 19.1946H23.2528C23.6848 19.1946 23.8982 19.7226 23.5942 20.032L21.5622 22.0853ZM21.5622 14.592C21.4715 14.5013 21.3488 14.448 21.2208 14.448H9.14085C8.71418 14.448 8.49552 14.9706 8.79418 15.28L10.7782 17.3386C10.8208 17.3866 10.8795 17.424 10.9382 17.4453C10.9968 17.472 11.0608 17.4826 11.1248 17.4826H23.2528C23.6848 17.4826 23.8982 16.9546 23.5942 16.6453L21.5622 14.592Z" fill="url(#paint0_linear_2049_5132)"/>
</g>
<defs>
<linearGradient id="paint0_linear_2049_5132" x1="9.5784" y1="22.3856" x2="22.7749" y2="9.53775" gradientUnits="userSpaceOnUse">
<stop stop-color="#CF41E8"/>
<stop offset="1" stop-color="#10F2B0"/>
</linearGradient>
</defs>
</svg>
