<svg width="32" height="32" viewBox="0 0 32 32" fill="none" xmlns="http://www.w3.org/2000/svg">
<g id="Binance Smart Chain">
<g id="Light">
<g id="OneArt-_x2022_-Desktop-_x2022_-Light">
<g id="Block">
<g id="TVL">
<g id="Icons_x2F_Icon-24_x2F_cake">
<path id="Oval" d="M15.9895 28.2827C22.7849 28.2827 28.2936 22.774 28.2936 15.9787C28.2936 9.18337 22.7849 3.67468 15.9895 3.67468C9.19424 3.67468 3.68555 9.18337 3.68555 15.9787C3.68555 22.774 9.19424 28.2827 15.9895 28.2827Z" fill="#F3BA2F"/>
<g id="Icons_x2F_icon-24_x2F_networks_x2F_binance_x5F_smart_x5F_chain">
<path id="Combined-Shape" fill-rule="evenodd" clip-rule="evenodd" d="M19.1811 17.2872L21.0371 19.1378L15.9917 24.1778L10.9517 19.1378L12.8077 17.2872L15.9917 20.4712L19.1811 17.2872ZM15.9917 14.0978L17.8744 15.9805L15.9917 17.8632L14.1144 15.9858V15.9805L14.4451 15.6498L14.6051 15.4898L15.9917 14.0978ZM9.64506 14.1245L11.5011 15.9805L9.64506 17.8312L7.78906 15.9752L9.64506 14.1245ZM22.3384 14.1245L24.1944 15.9805L22.3384 17.8312L20.4824 15.9752L22.3384 14.1245ZM15.9917 7.77783L21.0317 12.8178L19.1757 14.6738L15.9917 11.4845L12.8077 14.6685L10.9517 12.8178L15.9917 7.77783Z" fill="#131415"/>
</g>
</g>
</g>
</g>
</g>
</g>
</g>
</svg>
