<svg width="32" height="32" viewBox="0 0 32 32" fill="none" xmlns="http://www.w3.org/2000/svg">
<g id="Frame">
<g id="Group 274">
<path id="Vector" d="M15.8072 2.40002C23.3366 2.40002 29.4385 8.49414 29.4385 16C29.4385 23.5137 23.3287 29.6 15.8072 29.6C8.27774 29.6 2.17578 23.5059 2.17578 16C2.17578 8.4863 8.28559 2.40002 15.8072 2.40002Z" fill="url(#paint0_radial_2049_5150)"/>
<path id="Vector_2" d="M15.8072 29.6C8.26213 29.6 2.15232 23.4902 2.16016 15.9608V15.3804C2.16801 11.4902 5.32879 8.34509 9.22683 8.34509H22.3798C26.2778 8.34509 29.4386 11.498 29.4464 15.3882V15.9686C29.4543 23.498 23.3523 29.6 15.8072 29.6Z" fill="url(#paint1_radial_2049_5150)"/>
<path id="Vector_3" d="M2.17585 16.3373C2.15232 8.651 8.4033 2.40002 16.1053 2.40002H16.5994C20.5837 2.40002 20.0582 5.61571 20.0582 9.59218V11.3569C20.0582 15.3334 16.8347 18.549 12.8504 18.549H9.37585C5.39938 18.549 2.17585 20.3059 2.17585 16.3373Z" fill="url(#paint2_radial_2049_5150)"/>
<path id="Vector_4" d="M9.41556 18.549C12.945 18.549 15.7999 15.6941 15.7999 12.1804C15.7999 8.65883 12.9371 5.81177 9.41556 5.81177C5.88615 5.81177 3.03125 8.66667 3.03125 12.1804C3.03125 15.6941 5.89399 18.549 9.41556 18.549Z" fill="url(#paint3_radial_2049_5150)" fill-opacity="0.56"/>
<path id="Vector_5" d="M20.2472 14.2981C23.1727 14.2981 25.5414 11.9373 25.5414 9.01964C25.5414 6.10199 23.1727 3.74121 20.2472 3.74121C17.3218 3.74121 14.9531 6.10199 14.9531 9.01964C14.9531 11.9373 17.3296 14.2981 20.2472 14.2981Z" fill="url(#paint4_radial_2049_5150)" fill-opacity="0.56"/>
<path id="Vector_6" d="M15.8072 16.7608C15.8072 20.7451 11.0386 23.9843 5.1562 23.9843C4.73267 23.9843 2.16797 20.7529 2.16797 16.7608C2.16797 12.7764 3.01503 9.53723 5.1562 9.53723C11.0386 9.53723 15.8072 12.7686 15.8072 16.7608Z" fill="url(#paint5_radial_2049_5150)" fill-opacity="0.96"/>
<path id="Vector_7" d="M24.3336 25.9059C24.3336 27.1059 20.9846 29.5922 15.212 29.5922C11.2983 29.5922 6.43555 26.6039 6.43555 25.4039C6.43555 16.604 11.2983 15.9922 15.212 15.9922C19.1336 16 24.3336 19.1059 24.3336 25.9059Z" fill="url(#paint6_radial_2049_5150)" fill-opacity="0.46"/>
<path id="Vector_8" d="M2.17578 16C2.17578 8.4863 8.28559 2.40002 15.8072 2.40002C23.3366 2.40002 29.4385 8.49414 29.4385 16V17.702H2.17578V16Z" fill="url(#paint7_linear_2049_5150)" fill-opacity="0.8"/>
<path id="Vector_9" d="M17.4774 16.4549C17.4774 19.953 14.6303 22.7922 11.1244 22.7922C7.61854 22.7922 4.77148 19.953 4.77148 16.4549C4.77148 12.9569 7.61854 10.1177 11.1244 10.1177C14.6303 10.1177 17.4774 12.9569 17.4774 16.4549Z" fill="url(#paint8_radial_2049_5150)" fill-opacity="0.8"/>
<path id="Vector_10" d="M17.5101 20.6667C17.5101 23.7177 15.0316 26.1883 11.9728 26.1883C8.91398 26.1883 6.43555 23.7098 6.43555 20.6667C6.43555 17.6236 8.91398 15.1451 11.9728 15.1451C15.0395 15.1451 17.5101 17.6236 17.5101 20.6667Z" fill="url(#paint9_radial_2049_5150)" fill-opacity="0.5"/>
<path id="Vector_11" d="M15.7445 11.749C20.2151 11.749 23.8386 9.65493 23.8386 7.07453C23.8386 4.49414 20.2151 2.40002 15.7445 2.40002C11.2739 2.40002 7.65039 4.49414 7.65039 7.07453C7.65039 9.65493 11.2739 11.749 15.7445 11.749Z" fill="url(#paint10_radial_2049_5150)" fill-opacity="0.75"/>
<path id="Vector_12" d="M24.882 14.5176C24.8114 11.6392 22.4114 9.31763 19.4624 9.31763C18.0114 9.31763 16.7016 9.87449 15.7291 10.7921C14.7643 9.88233 13.4545 9.31763 12.0114 9.31763C9.06239 9.31763 6.66239 11.6549 6.5918 14.5725V14.5882V14.6039C6.5918 16.8235 7.41533 18.8 8.16827 20.1568C8.54474 20.847 8.92905 21.4039 9.21925 21.7961C9.36042 21.9921 9.48591 22.149 9.58003 22.2588C9.62709 22.3137 9.66631 22.3529 9.68984 22.3921C9.70552 22.4078 9.71337 22.4157 9.72121 22.4313C9.72905 22.4392 9.72905 22.4392 9.7369 22.447L9.74474 22.4549L9.75258 22.4627C10.38 23.1764 11.4781 23.2549 12.1996 22.6274C12.9212 22 12.9918 20.9176 12.3722 20.1961C12.3722 20.1961 12.3722 20.1961 12.3722 20.1882C12.3722 20.1804 12.3643 20.1804 12.3565 20.1725C12.3408 20.1568 12.3251 20.1333 12.2938 20.0941C12.2389 20.0235 12.1447 19.9137 12.0428 19.7568C11.8232 19.4588 11.5251 19.0196 11.2349 18.4784C10.631 17.3882 10.0977 16.0157 10.0898 14.6117C10.1291 13.5686 10.9918 12.7372 12.0428 12.7372C13.1094 12.7372 13.9722 13.5764 13.9957 14.6353C14.0036 14.9019 14.0741 15.1529 14.184 15.3804C14.4349 16.0235 15.0624 16.4863 15.8075 16.4863C16.7643 16.4863 17.5408 15.7255 17.5408 14.7765V14.5568C17.58 13.5294 18.4428 12.7059 19.4938 12.7059C20.5447 12.7059 21.4075 13.5294 21.4467 14.5568C21.4389 15.6784 21.0781 16.7843 20.6624 17.6549C20.4585 18.0863 20.2545 18.4314 20.1134 18.6745C20.0428 18.7921 19.9722 18.8863 19.9408 18.9412C19.9251 18.9647 19.9094 18.9882 19.9016 18.9961C19.8938 19.0039 19.8938 19.0039 19.8938 19.0039C19.8859 19.0117 19.8781 19.0274 19.8781 19.0274C20.1996 18.6353 20.6781 18.3921 21.2349 18.3921C22.1918 18.3921 22.9683 19.1529 22.9683 20.0941C22.9683 20.4314 22.8663 20.7451 22.6859 21.0196C22.6938 21.0274 22.6938 21.0274 22.6938 21.0274V21.0196L22.7016 21.0117C22.7094 21.0039 22.7094 21.0039 22.7094 20.9961C22.7173 20.9882 22.7251 20.9804 22.733 20.9568C22.7487 20.9333 22.78 20.8941 22.8114 20.847C22.8741 20.7529 22.9604 20.6274 23.0624 20.4549C23.2663 20.1255 23.5408 19.6627 23.8075 19.0902C24.333 17.9686 24.9134 16.3451 24.9134 14.5333V14.5176H24.882Z" fill="white"/>
<path id="Vector_13" d="M21.2587 18.3529C20.7097 18.3529 20.2234 18.6039 19.9019 18.9882C19.6666 19.2784 19.5254 19.647 19.5254 20.047C19.5254 20.9882 20.3019 21.749 21.2587 21.749C21.8234 21.749 22.3175 21.4823 22.6391 21.0745C22.6626 21.0353 22.694 21.0039 22.7175 20.9647C22.8901 20.698 22.9999 20.3843 22.9999 20.0392C22.9842 19.1137 22.2156 18.3529 21.2587 18.3529Z" fill="#B5CD16"/>
</g>
</g>
<defs>
<radialGradient id="paint0_radial_2049_5150" cx="0" cy="0" r="1" gradientUnits="userSpaceOnUse" gradientTransform="translate(25.1824 5.79948) rotate(90) scale(19.5487 19.598)">
<stop offset="0.1531" stop-color="#66B32E"/>
<stop offset="0.3626" stop-color="#61B22F"/>
<stop offset="0.869" stop-color="#46AF5C"/>
<stop offset="1" stop-color="#34AE72"/>
</radialGradient>
<radialGradient id="paint1_radial_2049_5150" cx="0" cy="0" r="1" gradientUnits="userSpaceOnUse" gradientTransform="translate(4.61791 27.5947) rotate(-40.7389) scale(19.095 20.872)">
<stop offset="0.2448" stop-color="#63318A"/>
<stop offset="1" stop-color="#2F358B" stop-opacity="0"/>
</radialGradient>
<radialGradient id="paint2_radial_2049_5150" cx="0" cy="0" r="1" gradientUnits="userSpaceOnUse" gradientTransform="translate(10.9905 5.94344) scale(8.16145 30.1086)">
<stop stop-color="#FCBE33"/>
<stop offset="1" stop-color="#37AE73" stop-opacity="0"/>
</radialGradient>
<radialGradient id="paint3_radial_2049_5150" cx="0" cy="0" r="1" gradientUnits="userSpaceOnUse" gradientTransform="translate(9.41907 11.9594) rotate(90) scale(6.15677 6.17231)">
<stop offset="0.3646" stop-color="#E52826"/>
<stop offset="1" stop-color="#2F358B" stop-opacity="0"/>
</radialGradient>
<radialGradient id="paint4_radial_2049_5150" cx="0" cy="0" r="1" gradientUnits="userSpaceOnUse" gradientTransform="translate(20.2487 8.84543) rotate(90) scale(5.09396 5.10681)">
<stop offset="0.1354" stop-color="#EAE219"/>
<stop offset="0.9375" stop-color="#ADCA0D" stop-opacity="0"/>
</radialGradient>
<radialGradient id="paint5_radial_2049_5150" cx="0" cy="0" r="1" gradientUnits="userSpaceOnUse" gradientTransform="translate(5.15843 16.5162) rotate(90) scale(6.9788 10.2888)">
<stop stop-color="#7C59A1"/>
<stop offset="1" stop-color="#7B4896" stop-opacity="0"/>
</radialGradient>
<radialGradient id="paint6_radial_2049_5150" cx="0" cy="0" r="1" gradientUnits="userSpaceOnUse" gradientTransform="translate(15.2206 28.7982) rotate(90) scale(9.59935 8.10285)">
<stop stop-color="#4A9DD7"/>
<stop offset="0.776" stop-color="#6CBE9C" stop-opacity="0"/>
</radialGradient>
<linearGradient id="paint7_linear_2049_5150" x1="15.8064" y1="7.8638" x2="15.8064" y2="18.2453" gradientUnits="userSpaceOnUse">
<stop stop-color="#F6E826"/>
<stop offset="1" stop-color="#BBD032" stop-opacity="0"/>
</linearGradient>
<radialGradient id="paint8_radial_2049_5150" cx="0" cy="0" r="1" gradientUnits="userSpaceOnUse" gradientTransform="translate(10.6157 14.1738) rotate(135.072) scale(5.746 5.74597)">
<stop stop-color="#974D98"/>
<stop offset="0.8021" stop-color="#974D98" stop-opacity="0"/>
</radialGradient>
<radialGradient id="paint9_radial_2049_5150" cx="0" cy="0" r="1" gradientUnits="userSpaceOnUse" gradientTransform="translate(11.5338 18.6845) rotate(135.072) scale(5.00665 5.00663)">
<stop offset="0.1042" stop-color="#974D98"/>
<stop offset="1" stop-color="#974D98" stop-opacity="0"/>
</radialGradient>
<radialGradient id="paint10_radial_2049_5150" cx="0" cy="0" r="1" gradientUnits="userSpaceOnUse" gradientTransform="translate(14.036 4.09575) rotate(84.7925) scale(4.69407 8.12805)">
<stop offset="0.0459339" stop-color="#F0E529"/>
<stop offset="1" stop-color="#F1C115" stop-opacity="0"/>
</radialGradient>
</defs>
</svg>
