<svg width="32" height="32" viewBox="0 0 32 32" fill="none" xmlns="http://www.w3.org/2000/svg">
<g id="Ethereum ETH">
<g id="Group 273">
<path id="Vector" d="M29.5203 16.32C29.5203 23.8308 23.431 29.92 15.9203 29.92C8.40958 29.92 2.32031 23.8308 2.32031 16.32C2.32031 8.8093 8.40958 2.72003 15.9203 2.72003C23.431 2.72003 29.5203 8.8093 29.5203 16.32Z" fill="#2081E2"/>
<path id="Vector_2" d="M9.02891 16.7772L9.08654 16.685L12.6248 11.149C12.6594 11.0914 12.7363 11.076 12.79 11.1106C12.8093 11.1221 12.8246 11.1413 12.8361 11.1644C13.4278 12.4898 13.9387 14.1379 13.6967 15.1637C13.593 15.5863 13.3164 16.1587 13.0013 16.685C12.9629 16.7619 12.9168 16.8387 12.8669 16.9117C12.8438 16.9463 12.8054 16.9655 12.767 16.9655H9.1288C9.06349 16.9655 9.00586 16.9117 9.00586 16.8464C9.0097 16.8233 9.01739 16.8003 9.02891 16.7772Z" fill="white"/>
<path id="Vector_3" d="M24.7988 17.8068V18.6828C24.7988 18.7327 24.7681 18.7788 24.722 18.798C24.4492 18.9133 23.5118 19.3474 23.1199 19.8891C22.1249 21.2721 21.3642 23.2545 19.6661 23.2545H12.578C10.0655 23.2545 8.0293 21.2107 8.0293 18.6904V18.6098C8.0293 18.5444 8.08308 18.4868 8.15224 18.4868H12.1055C12.1784 18.4907 12.2361 18.5521 12.2361 18.6251C12.2361 18.629 12.2361 18.6328 12.2361 18.6367C12.2092 18.8979 12.2553 19.163 12.3782 19.3973C12.6126 19.8699 13.0966 20.1695 13.623 20.1695H15.5784V18.6405H13.646C13.5769 18.6405 13.5231 18.5829 13.5231 18.5137C13.5231 18.4907 13.5308 18.4638 13.5461 18.4446C13.5653 18.4138 13.5922 18.3792 13.6153 18.3408C13.7997 18.0796 14.0609 17.6762 14.3183 17.219C14.5027 16.904 14.6641 16.5813 14.8062 16.2432C14.8331 16.1817 14.8562 16.1203 14.8792 16.0626C14.9177 15.9551 14.9561 15.859 14.983 15.7591C15.0099 15.6746 15.0329 15.5863 15.056 15.5056C15.1213 15.2136 15.152 14.9139 15.1482 14.6143C15.1482 14.4913 15.1443 14.3646 15.1328 14.2455C15.129 14.111 15.1097 13.9804 15.0944 13.8459C15.0829 13.7268 15.0636 13.6116 15.0406 13.4925C15.0137 13.3157 14.9714 13.139 14.9292 12.9623L14.9138 12.8931C14.8792 12.7702 14.8523 12.655 14.8139 12.5359C14.7025 12.1555 14.5757 11.7829 14.4413 11.4333C14.3913 11.295 14.3375 11.1605 14.2799 11.0299C14.1992 10.8301 14.1147 10.6495 14.0379 10.4767C13.9995 10.3998 13.9649 10.3268 13.9303 10.2538C13.8919 10.1731 13.8535 10.0886 13.8151 10.0118C13.7882 9.95032 13.7536 9.89654 13.7344 9.83891L13.4962 9.3971C13.4731 9.36253 13.4847 9.31258 13.5231 9.29337C13.5423 9.28185 13.5653 9.27801 13.5845 9.28569L15.079 9.69292H15.0829C15.0867 9.69292 15.0867 9.69292 15.0867 9.69292L15.2826 9.74671L15.4978 9.80818L15.5784 9.83123V8.94377C15.5746 8.51733 15.9204 8.16772 16.3468 8.16772C16.5504 8.16772 16.7464 8.2484 16.8885 8.39439C17.0345 8.54038 17.1152 8.73631 17.1152 8.94377V10.2615L17.2727 10.3076C17.2842 10.3115 17.2996 10.3191 17.3111 10.3268C17.3495 10.3576 17.4072 10.3998 17.4763 10.4536C17.5339 10.4997 17.5916 10.5535 17.6645 10.6073C17.8067 10.7225 17.9796 10.8724 18.1678 11.0452C18.2178 11.0875 18.2677 11.1336 18.31 11.1759C18.552 11.4025 18.8248 11.6676 19.086 11.9596C19.159 12.0403 19.2282 12.1248 19.3012 12.2131C19.3742 12.3015 19.451 12.3899 19.5163 12.4782C19.6047 12.5973 19.7007 12.7164 19.7814 12.8432C19.8198 12.9047 19.8659 12.9661 19.9043 13.0238C20.0119 13.1851 20.1041 13.3503 20.1925 13.5155C20.2309 13.5924 20.2693 13.6769 20.3039 13.7576C20.4038 13.9727 20.4768 14.1994 20.5305 14.4337C20.5459 14.4837 20.5574 14.5336 20.5613 14.5835V14.5951C20.5766 14.6642 20.5843 14.7334 20.5882 14.8064C20.6112 15.0407 20.5997 15.2751 20.5497 15.5017C20.5267 15.6016 20.4998 15.6977 20.4691 15.7937C20.4345 15.8898 20.3999 15.9858 20.3577 16.0818C20.2731 16.2816 20.1733 16.4699 20.058 16.6504C20.0196 16.7157 19.9773 16.7887 19.9312 16.8541C19.8851 16.9194 19.8313 16.9924 19.7891 17.0577C19.7276 17.1422 19.6623 17.2305 19.5931 17.3074C19.5355 17.3919 19.4702 17.4687 19.4049 17.5456C19.3127 17.657 19.2205 17.7607 19.1283 17.8606C19.0707 17.9259 19.013 17.9951 18.9516 18.0527C18.8901 18.118 18.8286 18.1795 18.7748 18.2371C18.6826 18.3293 18.602 18.4023 18.5366 18.4638L18.383 18.6059C18.3599 18.6251 18.3292 18.6367 18.3023 18.6367H17.1113V20.1657H18.6096C18.9439 20.1657 19.2666 20.0466 19.5201 19.8276C19.8467 19.5433 20.1579 19.2398 20.446 18.9171C20.4614 18.9017 20.4806 18.8864 20.5036 18.8825L24.6451 17.6877C24.7104 17.6685 24.7757 17.7069 24.7949 17.7722C24.7988 17.7838 24.7988 17.7953 24.7988 17.8068Z" fill="white"/>
</g>
</g>
</svg>
