<svg width="24" height="24" viewBox="0 0 24 24" fill="none" xmlns="http://www.w3.org/2000/svg">
<g id="solar:turntable-music-note-line-duotone">
<g id="Group">
<path id="Vector" d="M12 22C7.286 22 4.929 22 3.464 20.535C2 19.072 2 16.714 2 12C2 7.286 2 4.929 3.464 3.464C4.93 2 7.286 2 12 2C16.714 2 19.071 2 20.535 3.464C21.776 4.705 21.965 6.587 21.995 10M19 20V12" stroke="#B6FFFA" stroke-width="1.5" stroke-linecap="round"/>
<path id="Vector_2" d="M17 22C18.1046 22 19 21.1046 19 20C19 18.8954 18.1046 18 17 18C15.8954 18 15 18.8954 15 20C15 21.1046 15.8954 22 17 22Z" stroke="#B6FFFA" stroke-width="1.5"/>
<path id="Vector_3" d="M22 15C21.2044 15 20.4413 14.6839 19.8787 14.1213C19.3161 13.5587 19 12.7956 19 12" stroke="#B6FFFA" stroke-width="1.5" stroke-linecap="round"/>
<path id="Vector_4" opacity="0.5" d="M9 12C9 11.2044 9.31607 10.4413 9.87868 9.87868C10.4413 9.31607 11.2044 9 12 9C12.7956 9 13.5587 9.31607 14.1213 9.87868C14.6839 10.4413 15 11.2044 15 12C15 12.7956 14.6839 13.5587 14.1213 14.1213C13.5587 14.6839 12.7956 15 12 15C11.2044 15 10.4413 14.6839 9.87868 14.1213C9.31607 13.5587 9 12.7956 9 12Z" stroke="#B6FFFA" stroke-width="1.5"/>
</g>
</g>
</svg>
