<svg width="24" height="24" viewBox="0 0 24 24" fill="none" xmlns="http://www.w3.org/2000/svg">
<g id="solar:code-square-line-duotone">
<g id="Group">
<path id="Vector" d="M15.5001 8.99998L15.6721 9.17198C17.0051 10.505 17.6721 11.172 17.6721 12C17.6721 12.828 17.0051 13.495 15.6721 14.828L15.5001 15M13.2941 7.16998L12.0001 12L10.7061 16.83M8.50012 8.99998L8.32812 9.17198C6.99513 10.505 6.32812 11.172 6.32812 12C6.32812 12.828 6.99513 13.495 8.32812 14.828L8.50012 15" stroke="#B6FFFA" stroke-width="1.5" stroke-linecap="round"/>
<path id="Vector_2" opacity="0.5" d="M2 12C2 7.286 2 4.929 3.464 3.464C4.93 2 7.286 2 12 2C16.714 2 19.071 2 20.535 3.464C22 4.93 22 7.286 22 12C22 16.714 22 19.071 20.535 20.535C19.072 22 16.714 22 12 22C7.286 22 4.929 22 3.464 20.535C2 19.072 2 16.714 2 12Z" stroke="#B6FFFA" stroke-width="1.5"/>
</g>
</g>
</svg>
