<svg width="24" height="24" viewBox="0 0 24 24" fill="none" xmlns="http://www.w3.org/2000/svg">
<g id="solar:shop-line-duotone">
<g id="Group">
<path id="Vector" d="M9.50003 2H14.5L15.152 8.517C15.1965 8.95761 15.1481 9.40264 15.0099 9.82339C14.8717 10.2441 14.6469 10.6312 14.3499 10.9597C14.0529 11.2882 13.6903 11.5507 13.2856 11.7304C12.8808 11.9101 12.4429 12.003 12 12.003C11.5572 12.003 11.1193 11.9101 10.7145 11.7304C10.3098 11.5507 9.94719 11.2882 9.65018 10.9597C9.35317 10.6312 9.12833 10.2441 8.99016 9.82339C8.852 9.40264 8.80358 8.95761 8.84803 8.517L9.50003 2Z" stroke="#B6FFFA" stroke-width="1.5"/>
<path id="Vector_2" d="M3.33002 5.351C3.50802 4.461 3.59702 4.016 3.77802 3.655C3.96662 3.27904 4.23217 2.94694 4.55743 2.68025C4.88269 2.41356 5.26039 2.21826 5.66602 2.107C6.05602 2 6.51002 2 7.41802 2H9.50002L8.77502 9.245C8.73676 9.65963 8.61428 10.0621 8.41508 10.4277C8.21588 10.7934 7.94414 11.1145 7.61651 11.3715C7.28888 11.6285 6.91225 11.8159 6.50968 11.9223C6.1071 12.0287 5.68706 12.0518 5.27525 11.9901C4.86344 11.9285 4.46853 11.7835 4.11471 11.564C3.76089 11.3445 3.45559 11.0551 3.21751 10.7135C2.97943 10.3718 2.81357 9.98523 2.73009 9.5773C2.64662 9.16936 2.64727 8.74867 2.73202 8.341L3.33002 5.351ZM20.67 5.351C20.492 4.461 20.403 4.016 20.222 3.655C20.0334 3.27904 19.7679 2.94694 19.4426 2.68025C19.1174 2.41356 18.7397 2.21826 18.334 2.107C17.944 2 17.49 2 16.582 2H14.5L15.225 9.245C15.2633 9.65963 15.3858 10.0621 15.585 10.4277C15.7842 10.7934 16.0559 11.1145 16.3835 11.3715C16.7112 11.6285 17.0878 11.8159 17.4904 11.9223C17.8929 12.0287 18.313 12.0518 18.7248 11.9901C19.1366 11.9285 19.5315 11.7835 19.8853 11.564C20.2392 11.3445 20.5445 11.0551 20.7825 10.7135C21.0206 10.3718 21.1865 9.98523 21.27 9.5773C21.3534 9.16936 21.3528 8.74867 21.268 8.341L20.67 5.351Z" stroke="#B6FFFA" stroke-width="1.5"/>
<path id="Vector_3" opacity="0.5" d="M8.75 21.5C8.75 21.6989 8.82902 21.8897 8.96967 22.0303C9.11032 22.171 9.30109 22.25 9.5 22.25C9.69891 22.25 9.88968 22.171 10.0303 22.0303C10.171 21.8897 10.25 21.6989 10.25 21.5H8.75ZM13.75 21.5C13.75 21.6989 13.829 21.8897 13.9697 22.0303C14.1103 22.171 14.3011 22.25 14.5 22.25C14.6989 22.25 14.8897 22.171 15.0303 22.0303C15.171 21.8897 15.25 21.6989 15.25 21.5H13.75ZM12.5 21.25H11.5V22.75H12.5V21.25ZM4.25 14V11H2.75V14H4.25ZM19.75 11V14H21.25V11H19.75ZM11.5 21.25C9.593 21.25 8.239 21.248 7.21 21.11C6.205 20.975 5.625 20.721 5.202 20.298L4.142 21.358C4.89 22.108 5.839 22.439 7.011 22.597C8.161 22.752 9.636 22.75 11.5 22.75V21.25ZM2.75 14C2.75 15.864 2.748 17.338 2.903 18.489C3.061 19.661 3.393 20.61 4.141 21.359L5.201 20.299C4.779 19.875 4.525 19.295 4.39 18.289C4.252 17.262 4.25 15.907 4.25 14H2.75ZM12.5 22.75C14.364 22.75 15.838 22.752 16.989 22.597C18.161 22.439 19.11 22.107 19.859 21.359L18.799 20.299C18.375 20.721 17.795 20.975 16.789 21.11C15.761 21.248 14.407 21.25 12.5 21.25V22.75ZM19.75 14C19.75 15.907 19.748 17.262 19.61 18.29C19.475 19.295 19.221 19.875 18.798 20.298L19.858 21.358C20.608 20.61 20.939 19.661 21.097 18.489C21.252 17.339 21.25 15.864 21.25 14H19.75ZM10.25 21.5V18.5H8.75V21.5H10.25ZM13.75 18.5V21.5H15.25V18.5H13.75ZM12 16.75C12.481 16.75 12.792 16.75 13.027 16.772C13.252 16.792 13.334 16.827 13.375 16.851L14.125 15.551C13.818 15.374 13.492 15.308 13.163 15.278C12.843 15.249 12.453 15.25 12 15.25V16.75ZM15.25 18.5C15.25 18.047 15.25 17.656 15.222 17.337C15.192 17.008 15.126 16.682 14.949 16.375L13.649 17.125C13.673 17.165 13.708 17.248 13.728 17.473C13.749 17.708 13.75 18.019 13.75 18.5H15.25ZM13.375 16.851C13.4889 16.917 13.5834 17.0109 13.649 17.125L14.949 16.375C14.7514 16.0328 14.4672 15.7486 14.125 15.551L13.375 16.851ZM10.25 18.5C10.25 18.019 10.25 17.708 10.272 17.473C10.292 17.248 10.327 17.166 10.351 17.125L9.051 16.375C8.874 16.682 8.808 17.008 8.778 17.337C8.749 17.657 8.75 18.047 8.75 18.5H10.25ZM12 15.25C11.547 15.25 11.156 15.25 10.837 15.278C10.508 15.308 10.182 15.374 9.875 15.551L10.625 16.851C10.665 16.827 10.748 16.793 10.973 16.772C11.208 16.751 11.519 16.75 12 16.75V15.25ZM10.351 17.125C10.417 17.0111 10.5109 16.9166 10.625 16.851L9.875 15.551C9.53274 15.7485 9.24854 16.0327 9.051 16.375L10.351 17.125Z" fill="#B6FFFA"/>
</g>
</g>
</svg>
