<svg width="24" height="24" viewBox="0 0 24 24" fill="none" xmlns="http://www.w3.org/2000/svg">
<g id="solar:sticker-smile-square-line-duotone">
<g id="Group">
<path id="Vector" d="M9 16C9.85 16.63 10.885 17 12 17C13.115 17 14.15 16.63 15 16" stroke="#B6FFFA" stroke-width="1.5" stroke-linecap="round"/>
<path id="Vector_2" d="M15 12C15.5523 12 16 11.3284 16 10.5C16 9.67157 15.5523 9 15 9C14.4477 9 14 9.67157 14 10.5C14 11.3284 14.4477 12 15 12Z" fill="#B6FFFA"/>
<path id="Vector_3" d="M9 12C9.55228 12 10 11.3284 10 10.5C10 9.67157 9.55228 9 9 9C8.44772 9 8 9.67157 8 10.5C8 11.3284 8.44772 12 9 12Z" fill="#B6FFFA"/>
<path id="Vector_4" opacity="0.5" d="M15 22H12C7.286 22 4.929 22 3.464 20.535C2 19.072 2 16.714 2 12C2 7.286 2 4.929 3.464 3.464C4.93 2 7.286 2 12 2C16.714 2 19.071 2 20.535 3.464C22 4.93 22 7.286 22 12V15M15 22C16.8565 22 18.637 21.2625 19.9497 19.9497C21.2625 18.637 22 16.8565 22 15M15 22C15 20.139 15 19.208 15.245 18.455C15.4888 17.7046 15.9068 17.0226 16.4647 16.4647C17.0226 15.9068 17.7046 15.4888 18.455 15.245C19.208 15 20.139 15 22 15" stroke="#B6FFFA" stroke-width="1.5"/>
</g>
</g>
</svg>
