<svg width="24" height="24" viewBox="0 0 24 24" fill="none" xmlns="http://www.w3.org/2000/svg">
<g id="solar:clapperboard-play-line-duotone">
<g id="Group">
<path id="Vector" d="M2 12C2 7.286 2 4.929 3.464 3.464C4.93 2 7.286 2 12 2C16.714 2 19.071 2 20.535 3.464C22 4.93 22 7.286 22 12C22 16.714 22 19.071 20.535 20.535C19.072 22 16.714 22 12 22C7.286 22 4.929 22 3.464 20.535C2 19.072 2 16.714 2 12Z" stroke="#B6FFFA" stroke-width="1.5"/>
<path id="Vector_2" opacity="0.5" d="M21.5 8H2.5M7 8L10.5 2.5M13.5 8L17 2.5M15 14.5C15 13.867 14.338 13.44 13.014 12.585C11.672 11.719 11.001 11.286 10.5 11.605C10 11.922 10 12.781 10 14.5C10 16.219 10 17.078 10.5 17.396C11 17.714 11.672 17.281 13.014 16.415C14.338 15.56 15 15.133 15 14.5Z" stroke="#B6FFFA" stroke-width="1.5" stroke-linecap="round"/>
</g>
</g>
</svg>
