<svg width="288" height="221" viewBox="0 0 288 221" fill="none" xmlns="http://www.w3.org/2000/svg">
<path d="M10.6665 90.3333C10.6665 52.6266 10.6665 33.7599 22.3865 22.0533C34.0932 10.3333 52.9598 10.3333 90.6665 10.3333H157.333C195.04 10.3333 213.907 10.3333 225.613 22.0533C237.333 33.7599 237.333 52.6266 237.333 90.3333C237.333 128.04 237.333 146.907 225.613 158.613C213.907 170.333 195.04 170.333 157.333 170.333H90.6665C52.9598 170.333 34.0932 170.333 22.3865 158.613C10.6665 146.907 10.6665 128.04 10.6665 90.3333Z" stroke="#B6FFFA" stroke-width="20"/>
<path opacity="0.5" d="M237.333 51.3467C250.333 52.6267 259.093 55.52 265.626 62.0533C277.333 73.76 277.333 92.6267 277.333 130.333C277.333 168.053 277.333 186.907 265.626 198.613C253.893 210.347 235.053 210.347 197.333 210.347H130.666C92.9597 210.347 74.1064 210.347 62.3864 198.613C55.853 192.08 52.9597 183.333 51.6797 170.333" stroke="#B6FFFA" stroke-width="20"/>
<path d="M157.333 90.3333C157.333 99.1739 153.821 107.652 147.57 113.904C141.319 120.155 132.84 123.667 124 123.667C115.159 123.667 106.681 120.155 100.43 113.904C94.1784 107.652 90.6665 99.1739 90.6665 90.3333C90.6665 81.4928 94.1784 73.0143 100.43 66.7631C106.681 60.5119 115.159 57 124 57C132.84 57 141.319 60.5119 147.57 66.7631C153.821 73.0143 157.333 81.4928 157.333 90.3333Z" stroke="#B6FFFA" stroke-width="20"/>
<path opacity="0.5" d="M197.333 117V63.6665M50.6665 117V63.6665" stroke="#B6FFFA" stroke-width="20" stroke-linecap="round"/>
</svg>
