<svg width="269" height="269" viewBox="0 0 269 269" fill="none" xmlns="http://www.w3.org/2000/svg">
<path d="M167.25 114.833C138.347 114.833 114.917 91.4027 114.917 62.4998C114.917 33.5969 138.347 10.1665 167.25 10.1665C196.153 10.1665 219.583 33.5969 219.583 62.4998C219.583 91.4027 196.153 114.833 167.25 114.833Z" stroke="#B6FFFA" stroke-width="20"/>
<path opacity="0.5" d="M121.458 40.7948C116.796 33.7703 109.996 28.4338 102.065 25.5751C94.1332 22.7165 85.4921 22.4877 77.4205 24.9225C69.3489 27.3574 62.2758 32.3266 57.2483 39.0945C52.2208 45.8623 49.5061 54.0691 49.5061 62.5C49.5061 70.9309 52.2208 79.1377 57.2483 85.9055C62.2758 92.6734 69.3489 97.6426 77.4205 100.077C85.4921 102.512 94.1332 102.284 102.065 99.4249C109.996 96.5662 116.796 91.2297 121.458 84.2052" stroke="#B6FFFA" stroke-width="20"/>
<path d="M167.25 258.75C116.67 258.75 75.6668 235.319 75.6668 206.416C75.6668 177.513 116.67 154.083 167.25 154.083C217.83 154.083 258.833 177.513 258.833 206.416C258.833 235.319 217.83 258.75 167.25 258.75Z" stroke="#B6FFFA" stroke-width="20"/>
<path opacity="0.5" d="M49.5 167.167C26.5518 172.204 10.25 184.947 10.25 199.875C10.25 213.351 23.5165 225.034 42.9583 230.882" stroke="#B6FFFA" stroke-width="20" stroke-linecap="round"/>
</svg>
