<svg width="320" height="392" viewBox="0 0 320 392" fill="none" xmlns="http://www.w3.org/2000/svg">
<path opacity="0.5" d="M50 122.628C50 60.79 99.2433 10.6666 160 10.6666C220.757 10.6666 270 60.79 270 122.628C270 183.99 234.892 255.582 180.112 281.193C173.817 284.141 166.951 285.669 160 285.669C153.049 285.669 146.183 284.141 139.888 281.193C85.1083 255.582 50 183.99 50 122.628Z" stroke="#B6FFFA" stroke-width="20"/>
<path d="M196.667 120.667C196.667 130.391 192.804 139.718 185.928 146.594C179.052 153.47 169.725 157.333 160.001 157.333C150.276 157.333 140.95 153.47 134.073 146.594C127.197 139.718 123.334 130.391 123.334 120.667C123.334 110.942 127.197 101.616 134.073 94.7394C140.95 87.8631 150.276 84 160.001 84C169.725 84 179.052 87.8631 185.928 94.7394C192.804 101.616 196.667 110.942 196.667 120.667Z" stroke="#B6FFFA" stroke-width="20"/>
<path d="M160 353.28L169.057 363.62C170.532 362.329 171.715 360.738 172.525 358.953C173.335 357.168 173.754 355.231 173.754 353.271C173.754 351.311 173.335 349.373 172.525 347.588C171.715 345.803 170.532 344.212 169.057 342.922L160 353.28ZM332.81 238.22C331.397 237.076 329.771 236.224 328.026 235.713C326.281 235.201 324.452 235.041 322.645 235.241C320.838 235.442 319.089 235.998 317.498 236.879C315.908 237.76 314.508 238.948 313.379 240.373C312.25 241.799 311.416 243.434 310.923 245.184C310.431 246.934 310.291 248.765 310.51 250.57C310.73 252.375 311.306 254.118 312.204 255.699C313.102 257.28 314.304 258.667 315.742 259.78L332.81 238.22ZM4.27699 259.78C5.69264 258.658 6.87345 257.268 7.75199 255.69C8.63054 254.112 9.18962 252.376 9.39732 250.582C9.60501 248.787 9.45725 246.97 8.96247 245.232C8.46769 243.495 7.63558 241.872 6.51366 240.457C5.39173 239.041 4.00196 237.86 2.42369 236.982C0.845417 236.103 -0.890446 235.544 -2.68478 235.336C-4.47912 235.129 -6.29679 235.276 -8.03403 235.771C-9.77126 236.266 -11.394 237.098 -12.8097 238.22L4.27699 259.78ZM132.5 329.208L141.557 318.868C139.57 317.129 137.123 315.998 134.51 315.612C131.897 315.226 129.228 315.601 126.823 316.691C124.417 317.782 122.376 319.542 120.945 321.762C119.513 323.982 118.751 326.567 118.75 329.208H132.5ZM132.5 377.333H118.75C118.751 379.975 119.513 382.56 120.945 384.78C122.376 386.999 124.417 388.76 126.823 389.85C129.228 390.941 131.897 391.316 134.51 390.93C137.123 390.544 139.57 389.413 141.557 387.673L132.5 377.333ZM204.44 337.312C202.643 337.495 200.899 338.03 199.309 338.887C197.719 339.743 196.313 340.905 195.171 342.305C194.03 343.706 193.175 345.317 192.656 347.047C192.138 348.778 191.965 350.594 192.148 352.391C192.331 354.188 192.866 355.932 193.723 357.522C194.58 359.113 195.741 360.519 197.142 361.66C198.542 362.802 200.153 363.656 201.884 364.175C203.614 364.694 205.43 364.866 207.227 364.683L204.44 337.312ZM133.307 338.742C90.352 336.193 53.172 327.65 27.1937 315.862C14.177 309.958 4.60699 303.542 -1.49801 297.217C-7.54801 290.947 -9.58301 285.538 -9.58301 281.083H-37.083C-37.083 294.723 -30.6663 306.622 -21.2797 316.32C-11.948 325.963 0.90366 334.14 15.827 340.905C45.7103 354.472 86.4287 363.51 131.694 366.205L133.307 338.742ZM315.724 259.78C326.247 268.103 329.584 275.455 329.584 281.083H357.084C357.084 263.667 346.689 249.22 332.81 238.22L315.742 259.78H315.724ZM-9.58301 281.083C-9.58301 275.455 -6.22801 268.103 4.27699 259.78L-12.8097 238.22C-26.688 249.22 -37.083 263.667 -37.083 281.083H-9.58301ZM169.057 342.922L141.557 318.868L123.444 339.548L150.944 363.62L169.057 342.922ZM118.75 329.208V352.455H146.25V329.208H118.75ZM118.75 352.455V377.333H146.25V352.455H118.75ZM141.557 387.673L169.057 363.62L150.944 342.922L123.444 366.993L141.557 387.673ZM329.584 281.083C329.584 289.462 321.792 301.47 298.069 313.35C275.519 324.662 242.904 333.425 204.44 337.312L207.227 364.683C247.835 360.558 283.97 351.19 310.389 337.935C335.67 325.285 357.084 306.347 357.084 281.083H329.584Z" fill="#B6FFFA"/>
</svg>
