<svg width="100" height="100" viewBox="0 0 100 100" fill="none" xmlns="http://www.w3.org/2000/svg">
<g id="carbon:music">
<path id="Vector" d="M78.125 12.5H31.25C29.5929 12.5017 28.0042 13.1607 26.8324 14.3324C25.6607 15.5042 25.0017 17.0929 25 18.75V64.2375C23.1085 63.1122 20.9509 62.5123 18.75 62.5C16.2777 62.5 13.861 63.2331 11.8054 64.6066C9.74976 65.9801 8.14761 67.9324 7.20151 70.2165C6.25542 72.5005 6.00787 75.0139 6.49019 77.4386C6.9725 79.8634 8.16301 82.0907 9.91117 83.8388C11.6593 85.587 13.8866 86.7775 16.3114 87.2598C18.7361 87.7421 21.2495 87.4946 23.5335 86.5485C25.8176 85.6024 27.7699 84.0002 29.1434 81.9446C30.5169 79.889 31.25 77.4723 31.25 75V37.5H78.125V64.2375C76.2335 63.1122 74.0759 62.5123 71.875 62.5C69.4027 62.5 66.986 63.2331 64.9304 64.6066C62.8748 65.9801 61.2726 67.9324 60.3265 70.2165C59.3804 72.5005 59.1329 75.0139 59.6152 77.4386C60.0975 79.8634 61.288 82.0907 63.0362 83.8388C64.7843 85.587 67.0116 86.7775 69.4364 87.2598C71.8611 87.7421 74.3745 87.4946 76.6585 86.5485C78.9426 85.6024 80.8949 84.0002 82.2684 81.9446C83.6419 79.889 84.375 77.4723 84.375 75V18.75C84.3734 17.0929 83.7143 15.5042 82.5426 14.3324C81.3709 13.1607 79.7821 12.5017 78.125 12.5ZM18.75 81.25C17.5139 81.25 16.3055 80.8834 15.2777 80.1967C14.2499 79.5099 13.4488 78.5338 12.9758 77.3918C12.5027 76.2497 12.3789 74.9931 12.6201 73.7807C12.8613 72.5683 13.4565 71.4547 14.3306 70.5806C15.2047 69.7065 16.3183 69.1112 17.5307 68.8701C18.7431 68.6289 19.9997 68.7527 21.1418 69.2258C22.2838 69.6988 23.2599 70.4999 23.9467 71.5277C24.6334 72.5555 25 73.7639 25 75C24.9984 76.6571 24.3393 78.2458 23.1676 79.4176C21.9959 80.5893 20.4071 81.2483 18.75 81.25ZM71.875 81.25C70.6389 81.25 69.4305 80.8834 68.4027 80.1967C67.3749 79.5099 66.5738 78.5338 66.1008 77.3918C65.6277 76.2497 65.5039 74.9931 65.7451 73.7807C65.9863 72.5683 66.5815 71.4547 67.4556 70.5806C68.3297 69.7065 69.4433 69.1112 70.6557 68.8701C71.8681 68.6289 73.1247 68.7527 74.2668 69.2258C75.4088 69.6988 76.3849 70.4999 77.0717 71.5277C77.7584 72.5555 78.125 73.7639 78.125 75C78.1225 76.6568 77.4632 78.2451 76.2917 79.4167C75.1201 80.5882 73.5318 81.2475 71.875 81.25ZM31.25 18.75H78.125V31.25H31.25V18.75Z" fill="#B6FFFA"/>
</g>
</svg>
