<svg width="80" height="80" viewBox="0 0 80 80" fill="none" xmlns="http://www.w3.org/2000/svg">
<g id="carbon:search">
<path id="Vector" d="M72.5 68.965L53.62 50.085C58.157 44.6383 60.4195 37.6521 59.9367 30.5797C59.4539 23.5074 56.2632 16.8935 51.0281 12.1138C45.7931 7.33409 38.9169 4.75667 31.8299 4.9177C24.743 5.07873 17.9909 7.9658 12.9784 12.9783C7.96587 17.9909 5.07879 24.7429 4.91776 31.8299C4.75673 38.9168 7.33415 45.7931 12.1138 51.0281C16.8935 56.2631 23.5075 59.4539 30.5798 59.9366C37.6521 60.4194 44.6383 58.157 50.085 53.62L68.965 72.5L72.5 68.965ZM10 32.5C10 28.0499 11.3196 23.6998 13.792 19.9997C16.2643 16.2995 19.7783 13.4157 23.8897 11.7127C28.001 10.0097 32.525 9.56415 36.8896 10.4323C41.2541 11.3005 45.2633 13.4434 48.4099 16.5901C51.5566 19.7368 53.6996 23.7459 54.5677 28.1105C55.4359 32.475 54.9903 36.999 53.2873 41.1104C51.5844 45.2217 48.7005 48.7357 45.0004 51.2081C41.3003 53.6804 36.9501 55 32.5 55C26.5347 54.9934 20.8156 52.6207 16.5975 48.4026C12.3793 44.1844 10.0067 38.4653 10 32.5Z" fill="#B6FFFA"/>
</g>
</svg>
