<svg width="80" height="80" viewBox="0 0 80 80" fill="none" xmlns="http://www.w3.org/2000/svg">
<g id="carbon:condition-wait-point">
<path id="Vector" d="M20 40L40 20L60 40L40 60L20 40Z" fill="#B6FFFA"/>
<path id="Vector_2" d="M40 10C45.9335 10 51.7336 11.7595 56.6671 15.0559C61.6006 18.3524 65.4458 23.0377 67.7164 28.5195C69.987 34.0013 70.5811 40.0333 69.4236 45.8527C68.266 51.6721 65.4088 57.0176 61.2132 61.2132C57.0176 65.4088 51.6722 68.266 45.8527 69.4236C40.0333 70.5811 34.0013 69.987 28.5195 67.7164C23.0377 65.4458 18.3524 61.6006 15.0559 56.6671C11.7595 51.7336 10 45.9334 10 40C10.0093 32.0463 13.173 24.4211 18.797 18.797C24.4211 13.1729 32.0464 10.0093 40 10ZM40 5C33.0777 5 26.3108 7.05271 20.5551 10.8986C14.7993 14.7444 10.3133 20.2107 7.66423 26.6061C5.01516 33.0015 4.32205 40.0388 5.67253 46.8282C7.02301 53.6175 10.3564 59.8539 15.2513 64.7487C20.1461 69.6436 26.3825 72.977 33.1719 74.3275C39.9612 75.678 46.9985 74.9848 53.3939 72.3358C59.7893 69.6867 65.2556 65.2007 69.1015 59.445C72.9473 53.6892 75 46.9223 75 40C75 30.7174 71.3125 21.815 64.7487 15.2513C58.185 8.68749 49.2826 5 40 5Z" fill="#B6FFFA"/>
</g>
</svg>
