<svg width="80" height="80" viewBox="0 0 80 80" fill="none" xmlns="http://www.w3.org/2000/svg">
<g id="carbon:automatic">
<path id="Vector" d="M65 40H55C53.6743 40.0013 52.4033 40.5286 51.4659 41.466C50.5285 42.4033 50.0013 43.6743 50 45V75H55V62.5H65V75H70V45C69.9987 43.6743 69.4715 42.4033 68.5341 41.466C67.5967 40.5286 66.3257 40.0013 65 40ZM55 57.5V45H65V57.5H55ZM40 67.5C35.4221 67.5017 30.9164 66.3591 26.8926 64.176C22.8687 61.9929 19.4544 58.8387 16.96 55H30V50H10V70H15V60.7875C18.0546 64.4521 21.8771 67.4006 26.1972 69.4246C30.5173 71.4486 35.2293 72.4985 40 72.5V67.5ZM50 25H63.04C59.808 20.0302 55.0561 16.2382 49.4929 14.1895C43.9298 12.1409 37.8535 11.9454 32.1701 13.6322C26.4868 15.319 21.501 18.7977 17.9561 23.5495C14.4113 28.3013 12.4975 34.0717 12.5 40H7.5C7.5028 33.3181 9.56429 26.7994 13.4039 21.3309C17.2436 15.8624 22.6749 11.7097 28.9587 9.43792C35.2425 7.16617 42.0737 6.88571 48.5227 8.63469C54.9716 10.3837 60.725 14.0772 65 19.2125V10H70V30H50V25Z" fill="#B6FFFA"/>
</g>
</svg>
