<svg width="80" height="80" viewBox="0 0 80 80" fill="none" xmlns="http://www.w3.org/2000/svg">
<g id="carbon:badge">
<path id="Vector" d="M57.5 5L61.4825 12.5L70 13.535L63.75 19.1675L65 27.5L57.5 22.8125L50 27.5L51.25 19.1675L45 13.535L53.75 12.5L57.5 5Z" fill="#B6FFFA"/>
<path id="Vector_2" d="M56.7925 33.1225L51.9475 31.8775C51.079 35.2231 49.2385 38.2362 46.6583 40.5363C44.0781 42.8363 40.8742 44.3199 37.4512 44.7999C34.0282 45.2798 30.5397 44.7344 27.4265 43.2326C24.3133 41.7308 21.7151 39.34 19.9601 36.3623C18.205 33.3845 17.3719 29.9534 17.566 26.5023C17.7601 23.0513 18.9727 19.7352 21.0506 16.973C23.1285 14.2109 25.9784 12.1265 29.2404 10.9833C32.5023 9.84006 36.0299 9.68929 39.3775 10.55L40.625 5.70751C35.745 4.43814 30.5798 4.84671 25.9601 6.86754C21.3403 8.88837 17.5343 12.404 15.154 16.8493C12.7736 21.2945 11.9573 26.4111 12.8363 31.3764C13.7152 36.3416 16.2384 40.867 20 44.225V75L35 65L50 75V44.27C53.3204 41.3107 55.6849 37.4301 56.7925 33.1225ZM45 65.6575L35 58.99L25 65.6575V47.625C28.1026 49.1836 31.5262 49.9966 34.9983 49.9992C38.4703 50.0018 41.8951 49.194 45 47.64V65.6575Z" fill="#B6FFFA"/>
</g>
</svg>
