<svg width="64" height="64" viewBox="0 0 64 64" fill="none" xmlns="http://www.w3.org/2000/svg">
<g id="solar:pie-chart-3-line-duotone">
<g id="Group">
<path id="Vector" d="M17.1848 9.82665C18.5834 8.89221 20.0674 8.0922 21.6168 7.43732C25.3581 5.85599 27.2274 5.06399 29.6168 6.64799C32.0008 8.22932 32.0008 10.8187 32.0008 16V21.3333C32.0008 26.3627 32.0008 28.8747 33.5634 30.4373C35.1261 32 37.6381 32 42.6674 32H48.0008C53.1794 32 55.7714 32 57.3528 34.3867C58.9341 36.7733 58.1448 38.6427 56.5634 42.3867C54.1728 48.0376 49.9069 52.6915 44.4848 55.5638C39.0627 58.4361 32.8162 59.3512 26.7981 58.1547C21.6249 57.126 16.873 54.5864 13.1432 50.8569C9.41349 47.1274 6.87349 42.3757 5.84447 37.2026C4.81544 32.0295 5.34361 26.6674 7.36218 21.7945C9.38075 16.9216 12.7991 12.7567 17.1848 9.82665Z" stroke="#B6FFFA" stroke-width="3"/>
<path id="Vector_2" opacity="0.5" d="M38.668 6.17334C43.2797 7.36886 47.488 9.77569 50.8568 13.1445C54.2256 16.5133 56.6324 20.7216 57.828 25.3333" stroke="#B6FFFA" stroke-width="3" stroke-linecap="round"/>
</g>
</g>
</svg>
