<svg width="65" height="64" viewBox="0 0 65 64" fill="none" xmlns="http://www.w3.org/2000/svg">
<g id="solar:star-circle-line-duotone">
<g id="Group">
<path id="Vector" opacity="0.5" d="M32.5006 58.6667C47.2282 58.6667 59.1673 46.7276 59.1673 32C59.1673 17.2724 47.2282 5.33337 32.5006 5.33337C17.7731 5.33337 5.83398 17.2724 5.83398 32C5.83398 46.7276 17.7731 58.6667 32.5006 58.6667Z" stroke="#B6FFFA" stroke-width="3"/>
<path id="Vector_2" d="M29.4631 24.968C30.8151 22.544 31.4898 21.3334 32.5005 21.3334C33.5111 21.3334 34.1858 22.544 35.5378 24.968L35.8845 25.5947C36.2711 26.2854 36.4631 26.6294 36.7618 26.856C37.0605 27.0827 37.4338 27.168 38.1805 27.336L38.8578 27.4907C41.4818 28.0827 42.7938 28.3814 43.1058 29.384C43.4178 30.3894 42.5245 31.4347 40.7351 33.5254L40.2711 34.0667C39.7645 34.6614 39.5111 34.9574 39.3965 35.3254C39.2818 35.6934 39.3191 36.0907 39.3965 36.8827L39.4658 37.6027C39.7378 40.3947 39.8711 41.7894 39.0551 42.4107C38.2391 43.032 37.0098 42.464 34.5538 41.336L33.9165 41.0427C33.2205 40.7227 32.8711 40.56 32.5005 40.56C32.1298 40.56 31.7805 40.72 31.0845 41.04L30.4471 41.3334C27.9938 42.4667 26.7618 43.032 25.9458 42.4107C25.1298 41.792 25.2631 40.3947 25.5351 37.6054L25.6045 36.8827C25.6818 36.0907 25.7191 35.6934 25.6045 35.3254C25.4898 34.9574 25.2365 34.6587 24.7298 34.0667L24.2658 33.5254C22.4791 31.4347 21.5831 30.3894 21.8951 29.384C22.2071 28.3814 23.5191 28.0827 26.1431 27.4907L26.8205 27.336C27.5671 27.168 27.9405 27.0827 28.2391 26.856C28.5378 26.6294 28.7298 26.2854 29.1138 25.5947L29.4631 24.968Z" stroke="#B6FFFA" stroke-width="3"/>
</g>
</g>
</svg>
