<svg width="64" height="64" viewBox="0 0 64 64" fill="none" xmlns="http://www.w3.org/2000/svg">
<g id="solar:face-scan-circle-line-duotone">
<g id="Group">
<path id="Vector" d="M24 42.6667C26.2667 44.3467 29.0267 45.3334 32 45.3334C34.9733 45.3334 37.7333 44.3467 40 42.6667" stroke="#B6FFFA" stroke-width="3" stroke-linecap="round"/>
<path id="Vector_2" d="M40.0007 32C41.4734 32 42.6673 30.2091 42.6673 28C42.6673 25.7909 41.4734 24 40.0007 24C38.5279 24 37.334 25.7909 37.334 28C37.334 30.2091 38.5279 32 40.0007 32Z" fill="#B6FFFA"/>
<path id="Vector_3" d="M24.0007 32C25.4734 32 26.6673 30.2091 26.6673 28C26.6673 25.7909 25.4734 24 24.0007 24C22.5279 24 21.334 25.7909 21.334 28C21.334 30.2091 22.5279 32 24.0007 32Z" fill="#B6FFFA"/>
<path id="Vector_4" opacity="0.5" d="M5.86719 26.6667C6.91622 21.5437 9.44662 16.8415 13.1443 13.1438C16.842 9.44613 21.5442 6.91574 26.6672 5.8667M5.86719 37.3334C6.91622 42.4564 9.44662 47.1586 13.1443 50.8562C16.842 54.5539 21.5442 57.0843 26.6672 58.1334M58.1339 26.6667C57.0848 21.5437 54.5544 16.8415 50.8567 13.1438C47.159 9.44613 42.4569 6.91574 37.3339 5.8667M58.1339 37.3334C57.0848 42.4564 54.5544 47.1586 50.8567 50.8562C47.159 54.5539 42.4569 57.0843 37.3339 58.1334" stroke="#B6FFFA" stroke-width="3" stroke-linecap="round"/>
</g>
</g>
</svg>
