<svg width="65" height="64" viewBox="0 0 65 64" fill="none" xmlns="http://www.w3.org/2000/svg">
<g id="solar:lock-keyhole-minimalistic-unlocked-line-duotone">
<g id="Group">
<path id="Vector" d="M5.83398 42.6667C5.83398 35.1254 5.83398 31.3521 8.17798 29.0107C10.5193 26.6667 14.2927 26.6667 21.834 26.6667H43.1673C50.7086 26.6667 54.482 26.6667 56.8233 29.0107C59.1673 31.3521 59.1673 35.1254 59.1673 42.6667C59.1673 50.2081 59.1673 53.9814 56.8233 56.3227C54.482 58.6667 50.7086 58.6667 43.1673 58.6667H21.834C14.2927 58.6667 10.5193 58.6667 8.17798 56.3227C5.83398 53.9814 5.83398 50.2081 5.83398 42.6667Z" stroke="#B6FFFA" stroke-width="3"/>
<path id="Vector_2" opacity="0.5" d="M16.5 26.6667V21.3334C16.4962 17.4363 17.9147 13.6718 20.4895 10.7465C23.0643 7.8211 26.6182 5.93602 30.4842 5.44504C34.3502 4.95405 38.2625 5.89092 41.4868 8.07979C44.711 10.2687 47.0256 13.5591 47.996 17.3334M32.5 37.3334V48" stroke="#B6FFFA" stroke-width="3" stroke-linecap="round"/>
</g>
</g>
</svg>
