<svg width="25" height="25" viewBox="0 0 25 25" fill="none" xmlns="http://www.w3.org/2000/svg">
<path d="M4.3636 10.8757H12.0408C12.9696 10.8824 13.8683 10.5459 14.5642 9.9306C15.2601 9.31535 15.7043 8.46475 15.8116 7.54212C15.915 6.50591 15.5716 5.47466 14.8674 4.70739C14.1683 3.93983 13.1787 3.50163 12.1405 3.49988H10.0689C9.73569 3.49988 9.4278 3.67773 9.26117 3.96623C9.09456 4.25485 9.09456 4.61043 9.26117 4.89904C9.42777 5.18753 9.73568 5.3654 10.0689 5.3654H12.1405C12.6655 5.36607 13.1648 5.59307 13.5107 5.98802C13.8565 6.38299 14.0157 6.90784 13.9471 7.42843C13.8784 7.87507 13.6499 8.28156 13.304 8.57231C12.9582 8.8632 12.5185 9.01843 12.0667 9.00945H4.36342C4.03021 9.00945 3.72232 9.18717 3.55569 9.4758C3.38906 9.76443 3.38908 10.1199 3.55569 10.4085C3.7223 10.6971 4.0302 10.8748 4.36342 10.8748L4.3636 10.8757Z" fill="white"/>
<path d="M21.4142 17.0293C21.3069 16.1067 20.8628 15.2562 20.1671 14.6411C19.4712 14.0258 18.5728 13.6891 17.644 13.6957H11.2308C10.8976 13.6957 10.5897 13.8734 10.4231 14.1621C10.2565 14.4507 10.2565 14.8063 10.4231 15.0947C10.5897 15.3834 10.8976 15.5611 11.2308 15.5611H17.6694C18.1211 15.5521 18.5608 15.7075 18.9066 15.9982C19.2525 16.2891 19.481 16.6956 19.5497 17.1421C19.6183 17.6627 19.4593 18.1875 19.1134 18.5825C18.7674 18.9776 18.2682 19.2045 17.7431 19.2053H15.6707C15.3375 19.2053 15.0296 19.383 14.863 19.6716C14.6964 19.9601 14.6964 20.3157 14.863 20.6043C15.0296 20.8929 15.3375 21.0707 15.6707 21.0707H17.7422C18.7808 21.0697 19.7712 20.6318 20.4707 19.8641C21.1747 19.0967 21.5178 18.0655 21.414 17.0294L21.4142 17.0293Z" fill="white"/>
<path d="M9.17558 14.6293C9.17544 14.3818 9.07714 14.1447 8.90236 13.9696C8.72745 13.7946 8.49024 13.696 8.24291 13.6957H4.36348C4.03026 13.6957 3.72237 13.8735 3.55574 14.1621C3.38913 14.4507 3.38913 14.8063 3.55574 15.0948C3.72235 15.3834 4.03026 15.5611 4.36348 15.5611H8.24291C8.49 15.5609 8.72692 15.4626 8.90171 15.2879C9.0765 15.1133 9.17506 14.8765 9.17559 14.6294L9.17558 14.6293Z" fill="white"/>
<path d="M16.136 11.4781C16.2155 11.4781 16.2919 11.4465 16.3481 11.3903L16.9803 10.7581H16.9802C17.849 10.9304 18.7451 10.6413 19.3496 9.99407C19.9542 9.34679 20.1813 8.43314 19.9501 7.57812C19.9226 7.4742 19.8414 7.39303 19.7375 7.36544C18.8825 7.13442 17.9688 7.36156 17.3215 7.96599C16.6743 8.57056 16.3852 9.46668 16.5575 10.3355L15.9239 10.9657C15.8382 11.0516 15.8124 11.1805 15.8589 11.2926C15.9054 11.4047 16.0147 11.4777 16.136 11.4779L16.136 11.4781Z" fill="white"/>
<path d="M9.66212 16.8243L9.02996 16.1921C8.91223 16.0784 8.72513 16.0802 8.6094 16.1959C8.49367 16.3116 8.49208 16.4987 8.60579 16.6164L9.23754 17.2486V17.2485C9.07482 18.0851 9.33651 18.9479 9.93653 19.5531C10.5605 20.1706 11.9553 20.6949 12.6305 20.0031H12.6307C12.8614 19.1484 12.6344 18.2352 12.0304 17.588C11.4262 16.9407 10.5306 16.6516 9.6621 16.8231L9.66212 16.8243Z" fill="white"/>
</svg>
