<svg width="25" height="25" viewBox="0 0 25 25" fill="none" xmlns="http://www.w3.org/2000/svg">
<path d="M12.113 16.6645C11.8623 16.446 11.6571 15.9951 11.6571 15.6624V4.10468C11.6571 3.77214 11.3851 3.50012 11.0526 3.50012H10.2771C9.9446 3.50012 9.67258 3.77213 9.67258 4.10468L9.67245 15.6621C9.67245 15.9949 9.4591 16.4358 9.19848 16.6423C9.19848 16.6423 8.08447 17.5245 8.08447 18.3586C8.08447 19.6463 9.21765 20.6903 10.6154 20.6903C12.013 20.6903 13.146 19.6462 13.146 18.3586C13.146 17.5645 12.113 16.6643 12.113 16.6643L12.113 16.6645Z" fill="white"/>
<path d="M11.4061 6.85839C11.4061 7.19094 11.1341 7.46295 10.8015 7.46295H10.5367C10.2042 7.46295 9.93214 7.19094 9.93214 6.85839L9.93201 4.36719C9.93201 4.03465 10.204 3.76263 10.5366 3.76263H10.8014C11.1339 3.76263 11.4059 4.03464 11.4059 4.36719L11.4061 6.85839Z" fill="white"/>
<path d="M14.6766 14.1013C14.6766 14.6723 14.2141 15.1349 13.6428 15.1349C13.0714 15.1349 12.6091 14.6725 12.6091 14.1013L13.6289 12.2406L14.6766 14.1013Z" fill="white"/>
<path d="M15.7891 15.7926C15.7858 16.124 15.5149 16.3899 15.1832 16.3867C14.8523 16.3837 14.5861 16.1128 14.5895 15.7812L15.1915 14.7071L15.7891 15.7926Z" fill="white"/>
<path d="M15.5714 13.1409C15.5696 13.3385 15.408 13.4971 15.2106 13.495C15.0133 13.4932 14.8543 13.3316 14.8565 13.1342L15.2157 12.4938L15.5714 13.1409Z" fill="white"/>
<path d="M12.0915 18.8375C12.0718 18.8372 12.0889 18.8371 12.1295 18.8371C12.1695 18.8371 12.0823 19.0814 11.9353 19.3796L11.8873 19.4767C11.7406 19.775 11.4019 20.0193 11.1349 20.0193H10.6492H10.1638C9.89691 20.0193 9.5582 19.775 9.41115 19.4767L9.3632 19.3796C9.21615 19.0814 9.12936 18.8371 9.17008 18.8371C9.21106 18.8371 9.51654 18.8371 9.84911 18.8374L11.5229 18.8376C11.8552 18.8376 12.1113 18.8375 12.0915 18.8375H12.0915Z" fill="white"/>
<path d="M10.4292 18.5755C10.0439 18.5533 9.82361 18.429 9.62647 18.0552C9.42933 17.681 9.45303 17.5372 9.65192 17.0997L9.6641 17.1011C10.1283 17.1842 10.2591 17.2483 10.454 17.6197C10.6518 17.9932 10.6292 18.2457 10.4291 18.5753" fill="white"/>
<path d="M10.8808 17.5099C10.7091 17.5002 10.611 17.4447 10.5232 17.2783C10.4355 17.1119 10.4459 17.0476 10.5347 16.8529L10.5398 16.8533C10.7466 16.8904 10.805 16.9192 10.8914 17.0843C10.9793 17.2505 10.9692 17.3632 10.8802 17.51" fill="white"/>
<path d="M11.1024 18.5756C10.927 18.3603 10.8861 18.1826 10.9891 17.8962C11.0926 17.6098 11.1804 17.5529 11.5094 17.446L11.5141 17.4535C11.6957 17.7403 11.7244 17.841 11.6227 18.1246C11.5198 18.411 11.3744 18.521 11.1024 18.5748" fill="white"/>
</svg>
