<svg width="25" height="25" viewBox="0 0 25 25" fill="none" xmlns="http://www.w3.org/2000/svg">
<path d="M8.30433 9.50996C9.32073 9.09867 9.86447 7.96912 9.45157 6.94871C9.03986 5.93231 6.27598 4.49982 6.27598 4.49982C6.27598 4.49982 5.28396 7.45295 5.69539 8.46908C6.10843 9.48963 7.28498 9.92262 8.30433 9.50982V9.50996Z" fill="white"/>
<path d="M12.5613 15.5288C12.5613 15.5288 11.541 18.4035 11.9523 19.4196C12.3651 20.4389 13.5388 20.8742 14.5583 20.4614C15.5776 20.0488 16.1179 18.9196 15.7053 17.9003C15.2938 16.8839 12.5613 15.5287 12.5613 15.5287V15.5288Z" fill="white"/>
<path d="M6.17661 14.3795C6.17661 14.3795 5.05725 17.4759 5.50039 18.5706C5.94463 19.668 7.23408 20.1473 8.33163 19.7028C9.42623 19.2596 9.93931 18.0511 9.49494 16.9534C9.05149 15.8589 6.17661 14.3796 6.17661 14.3796V14.3795Z" fill="white"/>
<path d="M12.5373 13.4415C13.1622 13.1885 13.4105 12.4518 13.1887 11.904C12.9345 11.276 11.3333 10.4676 11.3333 10.4676C11.3333 10.4676 10.7447 12.1626 10.9989 12.7909C11.2207 13.3384 11.9105 13.6953 12.5373 13.4415H12.5373Z" fill="white"/>
<path d="M18.6714 13.1813C18.4172 12.5533 16.816 11.7449 16.816 11.7449C16.816 11.7449 16.2274 13.4399 16.4815 14.0681C16.7033 14.6158 17.3933 14.9727 18.02 14.719C18.645 14.4658 18.8934 13.729 18.6714 13.1812L18.6714 13.1813Z" fill="white"/>
<path d="M17.449 7.13637C17.0376 6.12011 14.2735 4.68762 14.2735 4.68762C14.2735 4.68762 13.2815 7.64074 13.6929 8.65687C14.1061 9.67741 15.2827 10.1101 16.3019 9.6975C17.318 9.28635 17.8621 8.15705 17.449 7.13627V7.13637Z" fill="white"/>
<path d="M20.1984 19.2413C19.9442 18.6133 18.3429 17.8049 18.3429 17.8049C18.3429 17.8049 17.7543 19.4999 18.0085 20.1282C18.2303 20.6758 18.9202 21.0327 19.547 20.7788C20.1717 20.5258 20.4202 19.7891 20.1984 19.2413H20.1984Z" fill="white"/>
</svg>
