<svg width="80" height="80" viewBox="0 0 80 80" fill="none" xmlns="http://www.w3.org/2000/svg">
<g id="carbon:software-resource-cluster">
<path id="Vector" d="M40 32.5C38.75 32.5 37.5 32 36.5 31L29 23.5C28 22.5 27.5 21.25 27.5 20C27.5 18.75 28 17.5 29 16.5L36.5 9C37.5 8 38.75 7.5 40 7.5C41.25 7.5 42.5 8 43.5 9L51 16.5C52 17.5 52.5 18.75 52.5 20C52.5 21.25 52 22.5 51 23.5L43.5 31C42.5 32 41.25 32.5 40 32.5ZM40 12.5L32.5 20L40 27.5L47.5 20L40 12.5ZM40 72.5C38.75 72.5 37.5 72 36.5 71L29 63.5C28 62.5 27.5 61.25 27.5 60C27.5 58.75 28 57.5 29 56.5L36.5 49C37.5 48 38.75 47.5 40 47.5C41.25 47.5 42.5 48 43.5 49L51 56.5C52 57.5 52.5 58.75 52.5 60C52.5 61.25 52 62.5 51 63.5L43.5 71C42.5 72 41.25 72.5 40 72.5ZM40 52.5L32.5 60L40 67.5L47.5 60L40 52.5Z" fill="#B6FFFA"/>
<path id="Vector_2" opacity="0.5" d="M60 52.5C58.75 52.5 57.5 52 56.5 51L49 43.5C48 42.5 47.5 41.25 47.5 40C47.5 38.75 48 37.5 49 36.5L56.5 29C57.5 28 58.75 27.5 60 27.5C61.25 27.5 62.5 28 63.5 29L71 36.5C72 37.5 72.5 38.75 72.5 40C72.5 41.25 72 42.5 71 43.5L63.5 51C62.5 52 61.25 52.5 60 52.5ZM60 32.5L52.5 40L60 47.5L67.5 40L60 32.5ZM20 52.5C18.75 52.5 17.5 52 16.5 51L9 43.5C8 42.5 7.5 41.25 7.5 40C7.5 38.75 8 37.5 9 36.5L16.5 29C17.5 28 18.75 27.5 20 27.5C21.25 27.5 22.5 28 23.5 29L31 36.5C32 37.5 32.5 38.75 32.5 40C32.5 41.25 32 42.5 31 43.5L23.5 51C22.5 52 21.25 52.5 20 52.5ZM20 32.5L12.5 40L20 47.5L27.5 40L20 32.5Z" fill="#B6FFFA"/>
</g>
</svg>
