<svg width="80" height="80" viewBox="0 0 80 80" fill="none" xmlns="http://www.w3.org/2000/svg">
<g id="carbon:cube">
<path id="Vector" d="M71.26 20.34L41.26 2.84001C40.8776 2.61686 40.4428 2.49927 40 2.49927C39.5572 2.49927 39.1224 2.61686 38.74 2.84001L8.74 20.34C8.36256 20.5603 8.04944 20.8756 7.83187 21.2546C7.6143 21.6336 7.49987 22.063 7.5 22.5V57.5C7.49987 57.937 7.6143 58.3664 7.83187 58.7454C8.04944 59.1244 8.36256 59.4398 8.74 59.66L38.74 77.16C39.1224 77.3832 39.5572 77.5007 40 77.5007C40.4428 77.5007 40.8776 77.3832 41.26 77.16L71.26 59.66C71.6374 59.4398 71.9506 59.1244 72.1681 58.7454C72.3857 58.3664 72.5001 57.937 72.5 57.5V22.5C72.5001 22.063 72.3857 21.6336 72.1681 21.2546C71.9506 20.8756 71.6374 20.5603 71.26 20.34ZM40 7.89501L65.04 22.5L40 37.105L14.96 22.5L40 7.89501ZM12.5 26.85L37.5 41.4325V70.65L12.5 56.065V26.85ZM42.5 70.65V41.435L67.5 26.8525V56.065L42.5 70.65Z" fill="#B6FFFA"/>
</g>
</svg>
