<svg width="81" height="80" viewBox="0 0 81 80" fill="none" xmlns="http://www.w3.org/2000/svg">
<g id="carbon:currency-baht">
<path id="Vector" d="M54.172 39.1075C55.4288 37.9461 56.4324 36.5378 57.1198 34.9706C57.8073 33.4035 58.1637 31.7113 58.167 30V27.5C58.163 24.186 56.8448 21.0089 54.5014 18.6656C52.1581 16.3222 48.981 15.004 45.667 15H43.167V7.5H38.167V15H25.667V65H38.167V72.5H43.167V65H48.167C51.481 64.996 54.6581 63.6778 57.0014 61.3345C59.3448 58.9911 60.663 55.814 60.667 52.5V50C60.6589 47.7692 60.0518 45.5815 58.9093 43.6654C57.7668 41.7493 56.1307 40.1752 54.172 39.1075ZM30.667 20H45.667C47.6555 20.002 49.562 20.7928 50.9681 22.1989C52.3742 23.605 53.165 25.5115 53.167 27.5V30C53.165 31.9885 52.3742 33.895 50.9681 35.3011C49.562 36.7072 47.6555 37.498 45.667 37.5H30.667V20ZM55.667 52.5C55.665 54.4885 54.8742 56.395 53.4681 57.8011C52.062 59.2072 50.1555 59.998 48.167 60H30.667V42.5H48.167C50.1555 42.502 52.062 43.2928 53.4681 44.6989C54.8742 46.105 55.665 48.0115 55.667 50V52.5Z" fill="#B6FFFA"/>
</g>
</svg>
