<svg width="81" height="80" viewBox="0 0 81 80" fill="none" xmlns="http://www.w3.org/2000/svg">
<g id="carbon:ibm-watsonx-code-assistant-for-z" clip-path="url(#clip0_1443_1651)">
<path id="Vector" d="M73.592 62.5L67.142 68.95L70.667 72.5L80.667 62.5L70.667 52.5L67.117 56.025L73.592 62.5ZM58.167 75L53.3795 73.5575L60.667 50L65.4545 51.4425L58.167 75ZM45.242 62.5L51.692 56.05L48.167 52.5L38.167 62.5L48.167 72.5L51.717 68.975L45.242 62.5ZM45.667 47.5H40.667V12.5C40.667 9.7425 42.9095 7.5 45.667 7.5H68.167C70.9245 7.5 73.167 9.7425 73.167 12.5V40H68.167V12.5H45.667V47.5Z" fill="#B6FFFA"/>
<path id="Vector_2" opacity="0.5" d="M30.667 7.5H8.16699C5.40949 7.5 3.16699 9.745 3.16699 12.5V67.5C3.16699 70.2575 5.40949 72.5 8.16699 72.5H30.667C33.4245 72.5 35.667 70.2575 35.667 67.5V12.5C35.667 9.745 33.4245 7.5 30.667 7.5ZM30.667 25.0925L13.3545 12.5H30.667V25.0925ZM28.917 30L8.16699 45.09V14.91L28.917 30ZM30.667 34.9075L30.6695 64.45L9.96949 49.96L30.6695 34.91L30.667 34.9075ZM8.16699 54.8025L26.307 67.5H8.16699V54.8025ZM30.667 67.5L30.6695 67.495V67.5H30.667Z" fill="#B6FFFA"/>
</g>
<defs>
<clipPath id="clip0_1443_1651">
<rect width="80" height="80" fill="white" transform="translate(0.666992)"/>
</clipPath>
</defs>
</svg>
