<svg width="80" height="80" viewBox="0 0 80 80" fill="none" xmlns="http://www.w3.org/2000/svg">
<g id="carbon:app-connectivity">
<path id="Vector" d="M50 35H70C71.3257 34.9987 72.5967 34.4715 73.5341 33.5341C74.4715 32.5967 74.9987 31.3257 75 30V10C74.9987 8.67432 74.4715 7.40332 73.5341 6.46593C72.5967 5.52853 71.3257 5.00132 70 5H50C48.6743 5.00132 47.4033 5.52853 46.4659 6.46593C45.5285 7.40332 45.0013 8.67432 45 10H22.5C21.1743 10.0013 19.9033 10.5285 18.9659 11.4659C18.0285 12.4033 17.5013 13.6743 17.5 15V25H10C8.67432 25.0013 7.40332 25.5285 6.46593 26.4659C5.52853 27.4033 5.00132 28.6743 5 30V50C5.00132 51.3257 5.52853 52.5967 6.46593 53.5341C7.40332 54.4715 8.67432 54.9987 10 55H15V65C15.0013 66.3257 15.5285 67.5967 16.4659 68.5341C17.4033 69.4715 18.6743 69.9987 20 70H45C45.0013 71.3257 45.5285 72.5967 46.4659 73.5341C47.4033 74.4715 48.6743 74.9987 50 75H70C71.3257 74.9987 72.5967 74.4715 73.5341 73.5341C74.4715 72.5967 74.9987 71.3257 75 70V50C74.9987 48.6743 74.4715 47.4033 73.5341 46.4659C72.5967 45.5285 71.3257 45.0013 70 45H50C48.6743 45.0013 47.4033 45.5285 46.4659 46.4659C45.5285 47.4033 45.0013 48.6743 45 50V65H20V55H30C31.3257 54.9987 32.5967 54.4715 33.5341 53.5341C34.4715 52.5967 34.9987 51.3257 35 50V30C34.9987 28.6743 34.4715 27.4033 33.5341 26.4659C32.5967 25.5285 31.3257 25.0013 30 25H22.5V15H45V30C45.0013 31.3257 45.5285 32.5967 46.4659 33.5341C47.4033 34.4715 48.6743 34.9987 50 35ZM50 70V60H70V70H50ZM70 50V55H50V50H70ZM10 50V40H30V50H10ZM30 35H10V30H30V35ZM50 30V20H70V30H50ZM70 10V15H50V10H70Z" fill="#B6FFFA"/>
</g>
</svg>
