<svg width="81" height="80" viewBox="0 0 81 80" fill="none" xmlns="http://www.w3.org/2000/svg">
<g id="carbon:bare-metal-server-02">
<path id="Vector" d="M42.833 70V55H37.833V70H12.833V75H67.833V70H42.833Z" fill="#B6FFFA"/>
<path id="Vector_2" d="M22.833 42.5C24.2137 42.5 25.333 41.3807 25.333 40C25.333 38.6193 24.2137 37.5 22.833 37.5C21.4523 37.5 20.333 38.6193 20.333 40C20.333 41.3807 21.4523 42.5 22.833 42.5Z" fill="#B6FFFA"/>
<path id="Vector_3" d="M65.333 50H15.333C14.0073 49.9987 12.7363 49.4715 11.7989 48.5341C10.8615 47.5967 10.3343 46.3257 10.333 45V35C10.3343 33.6743 10.8615 32.4033 11.7989 31.4659C12.7363 30.5285 14.0073 30.0013 15.333 30H65.333C66.6587 30.0013 67.9297 30.5285 68.8671 31.4659C69.8045 32.4033 70.3317 33.6743 70.333 35V45C70.3317 46.3257 69.8045 47.5967 68.8671 48.5341C67.9297 49.4715 66.6587 49.9987 65.333 50ZM15.333 35V45H65.333V35H15.333Z" fill="#B6FFFA"/>
<path id="Vector_4" opacity="0.5" d="M22.833 17.5C24.2137 17.5 25.333 16.3807 25.333 15C25.333 13.6193 24.2137 12.5 22.833 12.5C21.4523 12.5 20.333 13.6193 20.333 15C20.333 16.3807 21.4523 17.5 22.833 17.5Z" fill="#B6FFFA"/>
<path id="Vector_5" opacity="0.5" d="M65.333 25H15.333C14.0073 24.9987 12.7363 24.4715 11.7989 23.5341C10.8615 22.5967 10.3343 21.3257 10.333 20V10C10.3343 8.67432 10.8615 7.40332 11.7989 6.46593C12.7363 5.52853 14.0073 5.00132 15.333 5H65.333C66.6587 5.00132 67.9297 5.52853 68.8671 6.46593C69.8045 7.40332 70.3317 8.67432 70.333 10V20C70.3317 21.3257 69.8045 22.5967 68.8671 23.5341C67.9297 24.4715 66.6587 24.9987 65.333 25ZM15.333 10V20H65.333V10H15.333Z" fill="#B6FFFA"/>
</g>
</svg>
