<svg width="80" height="80" viewBox="0 0 80 80" fill="none" xmlns="http://www.w3.org/2000/svg">
<g id="carbon:web-services-service">
<path id="Vector" d="M57.5 45H52.5V27.5H35V22.5H55C55.663 22.5 56.2989 22.7634 56.7678 23.2322C57.2366 23.7011 57.5 24.337 57.5 25V45Z" fill="#B6FFFA"/>
<path id="Vector_2" d="M45 57.5H25C24.337 57.5 23.7011 57.2366 23.2322 56.7678C22.7634 56.2989 22.5 55.663 22.5 55V35C22.5 34.337 22.7634 33.7011 23.2322 33.2322C23.7011 32.7634 24.337 32.5 25 32.5H45C45.663 32.5 46.2989 32.7634 46.7678 33.2322C47.2366 33.7011 47.5 34.337 47.5 35V55C47.5 55.663 47.2366 56.2989 46.7678 56.7678C46.2989 57.2366 45.663 57.5 45 57.5ZM27.5 52.5H42.5V37.5H27.5V52.5Z" fill="#B6FFFA"/>
<path id="Vector_3" opacity="0.5" d="M40 2.5C39.5573 2.49978 39.1225 2.61711 38.74 2.84L8.74 20.34C8.36256 20.5603 8.04944 20.8756 7.83187 21.2546C7.6143 21.6336 7.49987 22.063 7.5 22.5V57.5C7.49987 57.937 7.6143 58.3664 7.83187 58.7454C8.04944 59.1244 8.36256 59.4398 8.74 59.66L38.74 77.16C39.1224 77.3832 39.5572 77.5007 40 77.5007C40.4428 77.5007 40.8776 77.3832 41.26 77.16L68.76 61.1175L66.24 56.8L40 72.105L12.5 56.065V23.9375L40 7.895L67.5 23.935V42.5H72.5V22.5C72.5001 22.063 72.3857 21.6336 72.1681 21.2546C71.9506 20.8756 71.6374 20.5603 71.26 20.34L41.26 2.84C40.8775 2.61711 40.4427 2.49978 40 2.5Z" fill="#B6FFFA"/>
</g>
</svg>
