<svg width="81" height="80" viewBox="0 0 81 80" fill="none" xmlns="http://www.w3.org/2000/svg">
<g id="carbon:headset">
<path id="Vector" d="M63.167 25H63.017C62.3809 19.5186 59.7525 14.462 55.6318 10.7918C51.511 7.12164 46.1852 5.09375 40.667 5.09375C35.1488 5.09375 29.8229 7.12164 25.7022 10.7918C21.5814 14.462 18.9531 19.5186 18.317 25H18.167C14.8518 25 11.6724 26.317 9.32816 28.6612C6.98395 31.0054 5.66699 34.1848 5.66699 37.5C5.66699 40.8152 6.98395 43.9946 9.32816 46.3388C11.6724 48.683 14.8518 50 18.167 50H23.167V27.5C23.167 22.8587 25.0107 18.4075 28.2926 15.1256C31.5745 11.8438 36.0257 10 40.667 10C45.3083 10 49.7595 11.8438 53.0414 15.1256C56.3232 18.4075 58.167 22.8587 58.167 27.5V52.5C58.1653 54.7906 57.3773 57.0111 55.9348 58.7904C54.4923 60.5696 52.4827 61.7997 50.242 62.275C49.5746 59.9344 48.0766 57.9176 46.0286 56.6025C43.9806 55.2874 41.5233 54.7643 39.1173 55.1313C36.7112 55.4984 34.5217 56.7303 32.9589 58.5962C31.3962 60.462 30.5676 62.8338 30.6284 65.2669C30.6892 67.7 31.6353 70.0274 33.2893 71.8129C34.9434 73.5984 37.1918 74.7193 39.6131 74.9656C42.0345 75.212 44.4626 74.5668 46.4423 73.151C48.422 71.7352 49.8174 69.646 50.367 67.275C53.9145 66.7491 57.1561 64.9695 59.5044 62.259C61.8526 59.5484 63.152 56.0862 63.167 52.5V50C66.4822 50 69.6616 48.683 72.0058 46.3388C74.35 43.9946 75.667 40.8152 75.667 37.5C75.667 34.1848 74.35 31.0054 72.0058 28.6612C69.6616 26.317 66.4822 25 63.167 25ZM10.667 37.5C10.667 35.5109 11.4572 33.6032 12.8637 32.1967C14.2702 30.7902 16.1779 30 18.167 30V45C16.1779 45 14.2702 44.2098 12.8637 42.8033C11.4572 41.3968 10.667 39.4891 10.667 37.5ZM40.667 70C39.6781 70 38.7114 69.7068 37.8891 69.1574C37.0669 68.6079 36.426 67.8271 36.0476 66.9134C35.6692 65.9998 35.5701 64.9945 35.7631 64.0246C35.956 63.0547 36.4322 62.1637 37.1315 61.4645C37.8307 60.7652 38.7216 60.289 39.6915 60.0961C40.6614 59.9032 41.6668 60.0022 42.5804 60.3806C43.494 60.759 44.2749 61.3999 44.8243 62.2222C45.3737 63.0444 45.667 64.0111 45.667 65C45.667 66.3261 45.1402 67.5979 44.2025 68.5355C43.2648 69.4732 41.9931 70 40.667 70ZM63.167 45V30C65.1561 30 67.0638 30.7902 68.4703 32.1967C69.8768 33.6032 70.667 35.5109 70.667 37.5C70.667 39.4891 69.8768 41.3968 68.4703 42.8033C67.0638 44.2098 65.1561 45 63.167 45Z" fill="#B6FFFA"/>
</g>
</svg>
