<svg width="81" height="80" viewBox="0 0 81 80" fill="none" xmlns="http://www.w3.org/2000/svg">
<g id="carbon:ibm-cloud-direct-link-2-dedicated" clip-path="url(#clip0_1443_1702)">
<path id="Vector" opacity="0.5" d="M80.333 27.5H72.833V12.5C72.833 9.75 70.583 7.5 67.833 7.5H32.833C30.083 7.5 27.833 9.75 27.833 12.5V22.5H32.833V12.5H67.833V47.5H32.833V37.5H27.833V47.5C27.833 50.25 30.083 52.5 32.833 52.5H67.833C70.583 52.5 72.833 50.25 72.833 47.5V32.5H80.333V27.5Z" fill="#B6FFFA"/>
<path id="Vector_2" d="M52.833 42.5V32.5C52.833 29.75 50.583 27.5 47.833 27.5H12.833C10.083 27.5 7.83301 29.75 7.83301 32.5V47.5H0.333008V52.5H7.83301V67.5C7.83301 70.25 10.083 72.5 12.833 72.5H47.833C50.583 72.5 52.833 70.25 52.833 67.5V57.5H47.833V67.5H12.833V32.5H47.833V42.5H52.833Z" fill="#B6FFFA"/>
</g>
<defs>
<clipPath id="clip0_1443_1702">
<rect width="80" height="80" fill="white" transform="translate(0.333008)"/>
</clipPath>
</defs>
</svg>
