<svg width="64" height="64" viewBox="0 0 64 64" fill="none" xmlns="http://www.w3.org/2000/svg">
<g id="search-engine 1" clip-path="url(#clip0_326_930)">
<g id="Group">
<g id="Group_2">
<g id="Group_3">
<path id="Vector" d="M54.625 45.2501H9.375C6.86263 45.2501 4.5 46.2251 2.775 47.9875C0.975 49.7501 0 52.0751 0 54.6251C0 59.8001 4.2 64.0001 9.375 64.0001H54.625C57.1374 64.0001 59.5 63.0251 61.225 61.2625C63.025 59.5001 64 57.1751 64 54.6251C64 49.4501 59.8 45.2501 54.625 45.2501ZM17.125 37.5001C17.6047 37.5001 18.0845 37.317 18.4506 36.9508L29.7959 25.6074C30.5282 24.875 30.5282 23.6884 29.7959 22.956C29.0635 22.2236 27.8769 22.2236 27.1445 22.956L15.7992 34.2994C15.0669 35.0318 15.0669 36.2184 15.7992 36.9508C16.1655 37.317 16.6453 37.5001 17.125 37.5001Z" fill="url(#paint0_linear_326_930)"/>
</g>
</g>
<g id="Group_4">
<g id="Group_5">
<path id="Vector_2" d="M37.75 0C29.4772 0 22.75 6.72913 22.75 15C22.75 23.2709 29.4772 30 37.75 30C46.0228 30 52.75 23.2709 52.75 15C52.75 6.72913 46.0228 0 37.75 0ZM13.125 52.75H9.375C8.32487 52.75 7.5 53.5749 7.5 54.625C7.5 55.6749 8.32487 56.5 9.375 56.5H13.125C14.1751 56.5 15 55.6749 15 54.625C15 53.5749 14.1751 52.75 13.125 52.75Z" fill="url(#paint1_linear_326_930)"/>
</g>
</g>
</g>
</g>
<defs>
<linearGradient id="paint0_linear_326_930" x1="32" y1="64.0001" x2="32" y2="22.4068" gradientUnits="userSpaceOnUse">
<stop stop-color="#A93AFF"/>
<stop offset="1" stop-color="#FF81FF"/>
</linearGradient>
<linearGradient id="paint1_linear_326_930" x1="30.125" y1="56.5" x2="30.125" y2="0" gradientUnits="userSpaceOnUse">
<stop stop-color="#FFBEF9"/>
<stop offset="1" stop-color="#FFF1FF"/>
</linearGradient>
<clipPath id="clip0_326_930">
<rect width="64" height="64" fill="white"/>
</clipPath>
</defs>
</svg>
