<svg width="64" height="64" viewBox="0 0 64 64" fill="none" xmlns="http://www.w3.org/2000/svg">
<g id="nft 1">
<g id="Group">
<path id="Vector" d="M31.0625 63.7487L4.97351 48.6862C4.39339 48.3513 4.03601 47.7323 4.03601 47.0624V16.9374C4.03601 16.2675 4.39339 15.6485 4.97351 15.3137L31.0625 0.251156C31.6426 -0.0837187 32.3574 -0.0837187 32.9375 0.251156L59.0265 15.3137C59.6066 15.6485 59.964 16.2675 59.964 16.9374V47.0624C59.964 47.7323 59.6066 48.3513 59.0265 48.6862L32.9375 63.7487C32.3574 64.0835 31.6426 64.0835 31.0625 63.7487Z" fill="url(#paint0_linear_326_942)"/>
<path id="Vector_2" d="M31.0625 54.9626L20.2365 48.7126C19.3397 48.1948 19.0324 47.0481 19.5501 46.1513C20.0679 45.2546 21.2146 44.9472 22.1114 45.4649L32 51.1737L41.8885 45.4649C42.7852 44.9472 43.932 45.2544 44.4497 46.1513C44.9675 47.0481 44.6602 48.1948 43.7634 48.7126L32.9374 54.9626C32.3574 55.2976 31.6426 55.2976 31.0625 54.9626ZM44.4497 17.8481C44.9675 16.9513 44.6602 15.8046 43.7634 15.2868L32.9374 9.0368C32.3572 8.70193 31.6426 8.70193 31.0625 9.0368L20.2365 15.2868C19.3397 15.8046 19.0324 16.9513 19.5501 17.8481C20.0679 18.7448 21.2146 19.0522 22.1114 18.5344L32 12.8256L41.8885 18.5343C42.7852 19.052 43.932 18.7448 44.4497 17.8481ZM23.6029 22.6247C22.5674 22.6347 21.736 23.4822 21.746 24.5177L21.8345 33.6588L14.7929 23.4622C13.7476 21.9487 11.375 22.6883 11.375 24.5277V39.4997C11.375 40.5352 12.2145 41.3747 13.25 41.3747C14.2855 41.3747 15.125 40.5352 15.125 39.4997V30.5424L21.8309 40.2531C22.382 41.0489 23.301 41.3872 24.1723 41.1152C25.0614 40.8373 25.636 40.0048 25.636 38.9942L25.4958 24.4816C25.4859 23.4461 24.6384 22.6147 23.6029 22.6247ZM36.2046 26.3747C37.2401 26.3747 38.0796 25.5352 38.0796 24.4997C38.0796 23.4642 37.2401 22.6247 36.2046 22.6247H30.125C29.0895 22.6247 28.25 23.4642 28.25 24.4997V39.4997C28.25 40.5352 29.0895 41.3747 30.125 41.3747C31.1605 41.3747 32 40.5352 32 39.4997V33.7327H35.7215C36.757 33.7327 37.5965 32.8932 37.5965 31.8577C37.5965 30.8222 36.757 29.9827 35.7215 29.9827H32V26.3747H36.2046ZM50.75 22.6247H42.4661C41.4306 22.6247 40.5911 23.4642 40.5911 24.4997C40.5911 25.5352 41.4306 26.3747 42.4661 26.3747H44.7163V39.4997C44.7163 40.5352 45.5558 41.3747 46.5913 41.3747C47.6268 41.3747 48.4663 40.5352 48.4663 39.4997V26.3747H50.75C51.7855 26.3747 52.625 25.5352 52.625 24.4997C52.625 23.4642 51.7855 22.6247 50.75 22.6247Z" fill="url(#paint1_linear_326_942)"/>
</g>
</g>
<defs>
<linearGradient id="paint0_linear_326_942" x1="32" y1="63.9998" x2="32" y2="4.57762e-05" gradientUnits="userSpaceOnUse">
<stop stop-color="#A93AFF"/>
<stop offset="1" stop-color="#FF81FF"/>
</linearGradient>
<linearGradient id="paint1_linear_326_942" x1="32" y1="55.2138" x2="32" y2="8.78564" gradientUnits="userSpaceOnUse">
<stop stop-color="#FFBEF9"/>
<stop offset="1" stop-color="#FFF1FF"/>
</linearGradient>
</defs>
</svg>
