<svg width="64" height="64" viewBox="0 0 64 64" fill="none" xmlns="http://www.w3.org/2000/svg">
<g id="money-flow 1" clip-path="url(#clip0_326_950)">
<g id="Group">
<path id="Vector" d="M31.9999 52.6247C20.6285 52.6247 11.3739 43.3701 11.3739 31.9986C11.3739 20.6272 20.6285 11.3726 31.9999 11.3726C43.3714 11.3726 52.626 20.6272 52.626 31.9986C52.626 43.3701 43.3714 52.6247 31.9999 52.6247Z" fill="url(#paint0_linear_326_950)"/>
<path id="Vector_2" d="M33.8751 41.0284V43.2489C33.8751 44.2853 33.0364 45.124 32 45.124C30.9635 45.124 30.1249 44.2853 30.1249 43.2489V41.0165C29.1001 40.6528 28.1809 40.0269 27.5026 39.1216C26.8801 38.2939 27.0448 37.1183 27.8761 36.4993C28.7038 35.8694 29.8794 36.0452 30.4984 36.8728C31.4836 38.1839 33.8751 37.3746 33.8751 35.7485C33.8751 34.7157 33.0328 33.8734 32 33.8734C28.8981 33.8734 26.3747 31.35 26.3747 28.2481C26.3747 25.8068 27.947 23.7449 30.1249 22.9682V20.7478C30.1249 19.7113 30.9635 18.8727 32 18.8727C33.0364 18.8727 33.8751 19.7113 33.8751 20.7478V22.9801C34.8999 23.3439 35.819 23.9698 36.4973 24.8751C37.1198 25.7028 36.9551 26.8783 36.1238 27.4973C35.2998 28.1273 34.1168 27.9551 33.5015 27.1238C33.1426 26.6477 32.5932 26.373 32 26.373C30.9672 26.373 30.1249 27.2153 30.1249 28.2481C30.1249 29.2809 30.9672 30.1232 32 30.1232C35.1019 30.1232 37.6252 32.6466 37.6252 35.7485C37.6252 38.19 36.0529 40.2519 33.8751 41.0284ZM26.3711 57.7114C26.6641 56.719 26.0964 55.6752 25.1039 55.3821C14.8128 52.3425 7.62373 42.7253 7.62373 31.9983C7.62373 18.5576 18.5593 7.49708 32 7.49708C32.8679 7.49708 33.626 6.8983 33.8238 6.05226C34.0252 5.20622 33.615 4.3328 32.8386 3.94465L25.3382 0.194462C24.4117 -0.259686 23.291 0.106583 22.8222 1.03313C22.3608 1.95968 22.7344 3.08586 23.6609 3.54913L25.5506 4.49406C13.1391 7.41658 3.87354 18.7079 3.87354 31.9985C3.87354 44.377 12.1686 55.4701 24.0418 58.9786C25.0497 59.2725 26.0804 58.6933 26.3711 57.7114ZM41.1777 62.9636C41.6391 62.0371 41.2656 60.9128 40.339 60.4476L38.4493 59.5027C50.8608 56.5802 60.1264 45.2889 60.1264 31.9985C60.1264 19.6199 51.8313 8.52501 39.9581 5.01833C38.9729 4.72357 37.9219 5.29297 37.6289 6.28552C37.3359 7.27807 37.9035 8.32175 38.8961 8.61477C49.1871 11.6544 56.3762 21.2717 56.3762 31.9986C56.3762 45.4393 45.4406 56.4998 32 56.4998C31.132 56.4998 30.3739 57.0967 30.1761 57.9428C29.9747 58.7888 30.3849 59.6641 31.1613 60.0522L38.6617 63.8024C39.5847 64.2638 40.7115 63.8907 41.1777 62.9636Z" fill="url(#paint1_linear_326_950)"/>
</g>
</g>
<defs>
<linearGradient id="paint0_linear_326_950" x1="31.9999" y1="52.6247" x2="31.9999" y2="11.3726" gradientUnits="userSpaceOnUse">
<stop stop-color="#A93AFF"/>
<stop offset="1" stop-color="#FF81FF"/>
</linearGradient>
<linearGradient id="paint1_linear_326_950" x1="32" y1="64.0001" x2="32" y2="7.62939e-05" gradientUnits="userSpaceOnUse">
<stop stop-color="#FFBEF9"/>
<stop offset="1" stop-color="#FFF1FF"/>
</linearGradient>
<clipPath id="clip0_326_950">
<rect width="64" height="64" fill="white"/>
</clipPath>
</defs>
</svg>
