<svg width="64" height="64" viewBox="0 0 64 64" fill="none" xmlns="http://www.w3.org/2000/svg">
<g id="engineering" clip-path="url(#clip0_326_1030)">
<g id="Engineering_4_">
<g id="Group">
<g id="Group_2">
<path id="Vector" d="M54.5 26.375H47.8496C47.6555 25.833 47.4321 25.2984 47.1831 24.7746L51.8889 20.067C52.618 19.3379 52.6241 18.1509 51.8889 17.4156L46.5825 12.1129C45.8501 11.3805 44.6635 11.3805 43.9311 12.1129L39.2254 16.8186C38.7018 16.5677 38.167 16.3444 37.625 16.1502V9.5C37.625 8.46362 36.7864 7.625 35.75 7.625H28.25C27.2136 7.625 26.375 8.46362 26.375 9.5V16.1504C25.833 16.3445 25.2984 16.5679 24.7746 16.8188L20.0689 12.113C19.3365 11.3806 18.1499 11.3806 17.4175 12.113L12.1111 17.4158C11.3763 18.1506 11.3818 19.3378 12.1111 20.0671L16.8169 24.7747C16.5679 25.2984 16.3445 25.8331 16.1504 26.3751H9.5C8.46362 26.3751 7.625 27.2138 7.625 28.2501V35.7501C7.625 36.7865 8.46362 37.6251 9.5 37.6251H16.1504C16.3445 38.1671 16.5679 38.7017 16.8169 39.2255L12.1111 43.9331C11.382 44.6623 11.3759 45.8493 12.1111 46.5845L17.4175 51.8872C18.1499 52.6196 19.3365 52.6196 20.0689 51.8872L24.7746 47.1815C25.2983 47.4324 25.833 47.6558 26.375 47.8499V54.5C26.375 55.5364 27.2136 56.375 28.25 56.375H35.75C36.7864 56.375 37.625 55.5364 37.625 54.5V47.8496C38.167 47.6555 38.7016 47.4321 39.2254 47.1813L43.9311 51.887C44.6635 52.6194 45.8501 52.6194 46.5825 51.887L51.8889 46.5843C52.6237 45.8494 52.6182 44.6623 51.8889 43.9329L47.1831 39.2253C47.4321 38.7016 47.6555 38.1669 47.8496 37.6249H54.5C55.5364 37.6249 56.375 36.7862 56.375 35.7499V28.2499C56.375 27.2136 55.5364 26.375 54.5 26.375Z" fill="url(#paint0_linear_326_1030)"/>
</g>
</g>
<g id="Group_3">
<g id="Group_4">
<path id="Vector_2" d="M32 22.625C26.8291 22.625 22.625 26.8309 22.625 32C22.625 37.1691 26.8291 41.375 32 41.375C37.1709 41.375 41.375 37.1691 41.375 32C41.375 26.8309 37.1709 22.625 32 22.625ZM31.875 60.25C24.364 60.25 17.2997 57.324 11.9861 52.0121C6.676 46.6984 3.75 39.636 3.75 32.125C3.75 23.1968 7.88812 14.9644 15.1025 9.53525C15.8386 8.98225 16.062 7.977 15.6335 7.16225C15.2014 6.34375 14.2382 5.96837 13.374 6.26137L4.76438 9.13425L5.95087 12.6901L6.8335 12.3971C2.428 17.9673 0 24.8411 0 32.125C0 40.6376 3.31425 48.643 9.33475 54.6635C15.3589 60.684 23.3606 64 31.875 64C32.9114 64 33.75 63.1614 33.75 62.125C33.75 61.0886 32.9114 60.25 31.875 60.25ZM58.0491 51.3099C57.7561 51.4069 57.4595 51.5058 57.1592 51.6046C61.5684 46.0254 64 39.137 64 31.875C64 23.3624 60.6857 15.357 54.6652 9.3365C48.6411 3.316 40.6394 0 32.125 0C31.0886 0 30.25 0.838625 30.25 1.875C30.25 2.91138 31.0886 3.75 32.125 3.75C39.636 3.75 46.7002 6.676 52.0139 11.9879C57.324 17.3016 60.25 24.364 60.25 31.875C60.25 40.5706 56.2913 48.6676 49.3881 54.0875C48.5671 54.7299 48.429 55.9219 49.0841 56.737C49.454 57.1947 49.681 57.4786 50.3402 57.4786C51.4022 57.4786 53.5775 56.7535 59.2355 54.8657C60.217 54.5399 60.748 53.4777 60.422 52.4945C60.0925 51.5112 59.0305 50.9858 58.0491 51.3099Z" fill="url(#paint1_linear_326_1030)"/>
</g>
</g>
</g>
</g>
<defs>
<linearGradient id="paint0_linear_326_1030" x1="32" y1="56.375" x2="32" y2="7.625" gradientUnits="userSpaceOnUse">
<stop stop-color="#A93AFF"/>
<stop offset="1" stop-color="#FF81FF"/>
</linearGradient>
<linearGradient id="paint1_linear_326_1030" x1="32" y1="64" x2="32" y2="0" gradientUnits="userSpaceOnUse">
<stop stop-color="#FFBEF9"/>
<stop offset="1" stop-color="#FFF1FF"/>
</linearGradient>
<clipPath id="clip0_326_1030">
<rect width="64" height="64" fill="white"/>
</clipPath>
</defs>
</svg>
