<svg width="64" height="64" viewBox="0 0 64 64" fill="none" xmlns="http://www.w3.org/2000/svg">
<g id="user" clip-path="url(#clip0_326_1046)">
<g id="Group">
<g id="Group_2">
<g id="Group_3">
<path id="Vector" d="M33.8487 15.2497L34.9432 13.7769L32.9966 11.4194C30.6883 4.77733 24.4047 0 17.0333 0C7.68739 0 0 7.68513 0 17.0333C0 24.4045 4.77708 30.6881 11.4191 32.9964L13.5264 35.1937L15.2474 33.8485C15.8344 33.9095 16.4302 33.9413 17.0333 33.9413C26.3564 33.9413 33.9413 26.3564 33.9413 17.0333C33.9413 16.431 33.9096 15.8359 33.8487 15.2497ZM52.6948 31.0212L50.7241 28.4305L48.8493 30.1504C48.2715 30.09 47.6853 30.0587 47.092 30.0587C37.7461 30.0587 30.0587 37.7438 30.0587 47.092C30.0587 47.733 30.0962 48.3655 30.1664 48.9882L29.3072 50.9746L31.0688 52.8287C33.4407 59.3366 39.7277 64 47.092 64C56.4151 64 64 56.4151 64 47.092C64 39.6774 59.2724 33.3553 52.6948 31.0212Z" fill="url(#paint0_linear_326_1046)"/>
</g>
</g>
<g id="Group_4">
<g id="Group_5">
<path id="Vector_2" d="M24.5479 15.1546C24.5479 11.011 21.1768 7.63989 17.0333 7.63989C12.8897 7.63989 9.51858 11.011 9.51858 15.1546C9.51858 19.2982 12.8897 22.6692 17.0333 22.6692C21.1768 22.6692 24.5479 19.2982 24.5479 15.1546ZM17.0333 30.1839C20.6107 30.1839 23.8585 28.7474 26.2317 26.4217C23.8423 24.0834 20.5819 22.6692 17.0333 22.6692C13.4644 22.6692 10.1377 24.0947 7.7356 26.4106C10.1325 28.7429 13.4159 30.1839 17.0333 30.1839ZM48.8493 30.1504C50.183 30.2898 51.4708 30.5868 52.6949 31.0212C52.1085 20.4087 43.5747 11.8953 32.9967 11.4195C33.4206 12.6394 33.7111 13.9219 33.8488 15.2498C41.6692 16.0806 47.9166 22.3043 48.8493 30.1504ZM15.2474 33.8485C13.9203 33.7106 12.6384 33.4202 11.4192 32.9964C11.8918 43.6969 20.4413 52.3199 31.0688 52.8287C30.6237 51.6073 30.3169 50.3209 30.1664 48.988C22.3142 48.1013 16.071 41.7758 15.2474 33.8485ZM54.6066 45.2133C54.6066 41.0697 51.2356 37.6986 47.092 37.6986C42.9484 37.6986 39.5773 41.0697 39.5773 45.2133C39.5773 49.3569 42.9484 52.728 47.092 52.728C51.2356 52.728 54.6066 49.3569 54.6066 45.2133ZM47.092 52.728C43.5231 52.728 40.1964 54.1534 37.7943 56.4693C40.1912 58.8016 43.4746 60.2426 47.092 60.2426C50.6694 60.2426 53.9172 58.8061 56.2904 56.4804C53.901 54.1421 50.6406 52.728 47.092 52.728Z" fill="url(#paint1_linear_326_1046)"/>
</g>
</g>
</g>
</g>
<defs>
<linearGradient id="paint0_linear_326_1046" x1="32" y1="64" x2="32" y2="0" gradientUnits="userSpaceOnUse">
<stop stop-color="#A93AFF"/>
<stop offset="1" stop-color="#FF81FF"/>
</linearGradient>
<linearGradient id="paint1_linear_326_1046" x1="32.013" y1="60.2426" x2="32.013" y2="7.63989" gradientUnits="userSpaceOnUse">
<stop stop-color="#FFBEF9"/>
<stop offset="1" stop-color="#FFF1FF"/>
</linearGradient>
<clipPath id="clip0_326_1046">
<rect width="64" height="64" fill="white"/>
</clipPath>
</defs>
</svg>
