<svg width="64" height="64" viewBox="0 0 64 64" fill="none" xmlns="http://www.w3.org/2000/svg">
<g clip-path="url(#clip0_326_1054)">
<path d="M46.9978 15.124H24.4978C23.9998 15.124 23.5236 15.3218 23.1721 15.6734L15.6721 23.1734C14.4924 24.3531 15.3311 26.374 16.9978 26.374H37.6228V46.999C37.6228 48.6634 39.6474 49.5008 40.8234 48.3246L48.3234 40.8246C48.6749 40.4731 48.8728 39.997 48.8728 39.499V16.999C48.8728 15.9626 48.0341 15.124 46.9978 15.124Z" fill="url(#paint0_linear_326_1054)"/>
<path d="M31.8772 30.2489H9.37716C8.87916 30.2489 8.40304 30.4466 8.05154 30.7983L0.551535 38.2982C-0.628214 39.478 0.210535 41.4989 1.87716 41.4989H22.5022V62.1239C22.5022 63.8056 24.5327 64.6198 25.7028 63.4495L33.2028 55.9495C33.5543 55.598 33.7522 55.1219 33.7522 54.6239V32.1239C33.7522 31.0875 32.9137 30.2489 31.8772 30.2489ZM62.1228 0H39.6228C39.1248 0 38.6487 0.19775 38.2972 0.549375L30.7972 8.04937C29.6174 9.229 30.4562 11.25 32.1228 11.25H52.7478V31.875C52.7478 33.5568 54.7783 34.3709 55.9484 33.2006L63.4484 25.7006C63.7999 25.3491 63.9978 24.873 63.9978 24.375V1.875C63.9978 0.838625 63.1592 0 62.1228 0Z" fill="url(#paint1_linear_326_1054)"/>
</g>
<defs>
<linearGradient id="paint0_linear_326_1054" x1="26.9204" y1="37.0764" x2="48.3239" y2="15.6729" gradientUnits="userSpaceOnUse">
<stop stop-color="#FFBEF9"/>
<stop offset="1" stop-color="#FFF1FF"/>
</linearGradient>
<linearGradient id="paint1_linear_326_1054" x1="11.7978" y1="52.2016" x2="63.4498" y2="0.549625" gradientUnits="userSpaceOnUse">
<stop stop-color="#A93AFF"/>
<stop offset="1" stop-color="#FF81FF"/>
</linearGradient>
<clipPath id="clip0_326_1054">
<rect width="64" height="64" fill="white"/>
</clipPath>
</defs>
</svg>
