<svg width="64" height="64" viewBox="0 0 64 64" fill="none" xmlns="http://www.w3.org/2000/svg">
<g id="badge 1" clip-path="url(#clip0_326_1070)">
<g id="Group">
<g id="Group_2">
<g id="Group_3">
<path id="Vector" d="M39.8882 41.2161L37.2258 40.654C36.6252 40.5276 36.0228 40.6961 35.5778 41.099L32.0001 44.3453L28.4222 41.0988C27.9772 40.696 27.3693 40.5276 26.7742 40.6538L24.1118 41.216C23.2457 41.3991 22.625 42.1645 22.625 43.0507V62.125C22.625 62.775 22.9618 63.3775 23.5148 63.7198C24.0678 64.0622 24.7563 64.0897 25.3386 63.8022L32.0001 60.4715L38.6615 63.8022C38.927 63.9341 39.2126 64 39.5001 64C39.8425 64 40.185 63.9066 40.4852 63.7198C41.0382 63.3775 41.3751 62.775 41.3751 62.125V43.0508C41.3751 42.1646 40.7543 41.3992 39.8882 41.2161ZM39.6758 18.3481L36.6948 17.9141L35.3655 15.2188C34.0445 12.5412 29.9526 12.5407 28.6382 15.217L27.3052 17.9141L24.3242 18.3481C21.2683 18.7942 20.0166 22.5605 22.2478 24.744L24.4048 26.8442L23.8995 29.7996C23.3526 32.8633 26.6228 35.2142 29.3341 33.7638L32.0001 32.363L34.6551 33.7563C37.404 35.225 40.6428 32.849 40.1043 29.8105L39.5953 26.8442L41.756 24.7403C43.9731 22.5706 42.7423 18.7957 39.6758 18.3481Z" fill="url(#paint0_linear_326_1070)"/>
</g>
</g>
<g id="Group_4">
<g id="Group_5">
<path id="Vector_2" d="M55.8898 23.1162L52.1489 18.9927L53.3336 13.5233C53.5369 12.5822 52.9949 11.6409 52.0811 11.3426L46.7638 9.61219L45.0334 4.29481C44.7331 3.37931 43.7883 2.83731 42.8526 3.04231L37.3833 4.22706L33.2598 0.486187C32.5456 -0.162062 31.4544 -0.162062 30.7403 0.486187L26.6168 4.22706L21.1474 3.04231C20.208 2.83906 19.265 3.37919 18.9666 4.29481L17.2363 9.61219L11.9189 11.3426C11.0051 11.6411 10.4631 12.5822 10.6664 13.5233L11.8511 18.9927L8.11027 23.1162C7.46389 23.8303 7.46389 24.9216 8.11027 25.6357L11.8511 29.7592L10.6664 35.2286C10.4631 36.1697 11.0051 37.1109 11.9189 37.4093L17.2363 39.1397L18.9666 44.4571C19.2651 45.3744 20.2099 45.9054 21.1529 45.7077L26.6131 44.5212L30.7404 48.2657C31.4509 48.9106 32.5449 48.9147 33.2599 48.2657L37.3871 44.5212L42.8474 45.7077C43.7995 45.9183 44.7353 45.3763 45.0336 44.4571L46.764 39.1397L52.0814 37.4093C52.9951 37.1108 53.5371 36.1697 53.3339 35.2286L52.1491 29.7592L55.89 25.6357C56.5361 24.9217 56.5361 23.8303 55.8898 23.1162ZM40.443 23.4001L37.581 26.1888L38.2566 30.1274C38.5191 31.6548 36.9099 32.8268 35.5356 32.1032L32 30.2446L28.4643 32.1031C27.1026 32.8314 25.4799 31.6602 25.7433 30.1273L26.4189 26.1887L23.5569 23.3999C22.4471 22.3181 23.0609 20.4258 24.5969 20.2029L28.5501 19.6279L30.3189 16.0464C30.9488 14.7647 33.0508 14.7647 33.6808 16.0464L35.4495 19.6279L39.4028 20.2029C40.9366 20.4256 41.5544 22.3164 40.443 23.4001Z" fill="url(#paint1_linear_326_1070)"/>
</g>
</g>
</g>
</g>
<defs>
<linearGradient id="paint0_linear_326_1070" x1="31.9996" y1="64" x2="31.9996" y2="13.2101" gradientUnits="userSpaceOnUse">
<stop stop-color="#FFBEF9"/>
<stop offset="1" stop-color="#FFF1FF"/>
</linearGradient>
<linearGradient id="paint1_linear_326_1070" x1="32" y1="48.7509" x2="32" y2="6.39271e-05" gradientUnits="userSpaceOnUse">
<stop stop-color="#A93AFF"/>
<stop offset="1" stop-color="#FF81FF"/>
</linearGradient>
<clipPath id="clip0_326_1070">
<rect width="64" height="64" fill="white"/>
</clipPath>
</defs>
</svg>
