<svg width="81" height="80" viewBox="0 0 81 80" fill="none" xmlns="http://www.w3.org/2000/svg">
<g id="solar:card-transfer-line-duotone">
<g id="Group">
<path id="Vector" d="M73.6667 36.6666C73.6333 26.2866 73.3067 20.7833 69.76 17.24C65.8567 13.3333 59.57 13.3333 47 13.3333H33.6667C21.0967 13.3333 14.81 13.3333 10.9067 17.24C7 21.1433 7 27.43 7 40C7 52.57 7 58.8566 10.9067 62.76C14.81 66.6666 21.0967 66.6666 33.6667 66.6666H38.6667" stroke="#B6FFFA" stroke-width="4" stroke-linecap="round"/>
<path id="Vector_2" opacity="0.5" d="M67.0002 66.6666V46.6666M67.0002 46.6666L73.6668 53.3333M67.0002 46.6666L60.3335 53.3333" stroke="#B6FFFA" stroke-width="4" stroke-linecap="round" stroke-linejoin="round"/>
<path id="Vector_3" d="M52.0002 46.6666V66.6666M52.0002 66.6666L58.6668 60M52.0002 66.6666L45.3335 60" stroke="#B6FFFA" stroke-width="4" stroke-linecap="round" stroke-linejoin="round"/>
<path id="Vector_4" opacity="0.5" d="M33.6668 53.3333H20.3335" stroke="#B6FFFA" stroke-width="4" stroke-linecap="round"/>
<path id="Vector_5" opacity="0.4" d="M7 33.3333H73.6667" stroke="#B6FFFA" stroke-width="4" stroke-linecap="round"/>
</g>
</g>
</svg>
