<svg width="80" height="80" viewBox="0 0 80 80" fill="none" xmlns="http://www.w3.org/2000/svg">
<g id="solar:square-transfer-vertical-line-duotone">
<g id="Group">
<path id="Vector" opacity="0.5" d="M6.66699 39.9998C6.66699 24.2865 6.66699 16.4298 11.547 11.5465C16.4337 6.6665 24.287 6.6665 40.0003 6.6665C55.7137 6.6665 63.5703 6.6665 68.4503 11.5465C73.3337 16.4332 73.3337 24.2865 73.3337 39.9998C73.3337 55.7132 73.3337 63.5698 68.4503 68.4498C63.5737 73.3332 55.7137 73.3332 40.0003 73.3332C24.287 73.3332 16.4303 73.3332 11.547 68.4498C6.66699 63.5732 6.66699 55.7132 6.66699 39.9998Z" stroke="#A38EF8" stroke-width="5"/>
<path id="Vector_2" d="M33.334 23.333V56.6663L23.334 45.2097M46.6673 56.6663V23.333L56.6673 34.793" stroke="#A38EF8" stroke-width="5" stroke-linecap="round" stroke-linejoin="round"/>
</g>
</g>
</svg>
