<svg width="80" height="80" viewBox="0 0 80 80" fill="none" xmlns="http://www.w3.org/2000/svg">
<g id="solar:cart-plus-line-duotone">
<g id="Group">
<path id="Vector" opacity="0.5" d="M25 60C26.3261 60 27.5979 60.5268 28.5355 61.4645C29.4732 62.4022 30 63.6739 30 65C30 66.3261 29.4732 67.5978 28.5355 68.5355C27.5979 69.4732 26.3261 70 25 70C23.6739 70 22.4021 69.4732 21.4645 68.5355C20.5268 67.5978 20 66.3261 20 65C20 63.6739 20.5268 62.4022 21.4645 61.4645C22.4021 60.5268 23.6739 60 25 60ZM55 60C56.3261 60 57.5978 60.5268 58.5355 61.4645C59.4732 62.4022 60 63.6739 60 65C60 66.3261 59.4732 67.5978 58.5355 68.5355C57.5978 69.4732 56.3261 70 55 70C53.6739 70 52.4021 69.4732 51.4645 68.5355C50.5268 67.5978 50 66.3261 50 65C50 63.6739 50.5268 62.4022 51.4645 61.4645C52.4021 60.5268 53.6739 60 55 60Z" stroke="#A38EF8" stroke-width="5"/>
<path id="Vector_2" d="M7.49674 7.64024C6.87083 7.42011 6.18311 7.45763 5.58487 7.74456C4.98663 8.0315 4.52687 8.54432 4.30674 9.17024C4.08661 9.79615 4.12414 10.4839 4.41107 11.0821C4.698 11.6804 5.21083 12.1401 5.83674 12.3602L7.49674 7.64024ZM68.8601 32.9436L71.3067 33.4469L71.3101 33.4336L68.8601 32.9436ZM19.0267 32.5336V23.4602H14.0267V32.5336H19.0267ZM8.36674 7.9469L7.49674 7.64024L5.83674 12.3602L6.70674 12.6636L8.36674 7.9469ZM36.4601 54.1669H54.1334V49.1669H36.4601V54.1669ZM19.0267 23.4602C19.0267 21.1036 19.0301 19.1369 18.8601 17.5402C18.6767 15.8836 18.2934 14.3736 17.3534 13.0002L13.2234 15.8202C13.5234 16.2602 13.7567 16.8669 13.8867 18.0769C14.0234 19.3436 14.0267 20.9936 14.0267 23.4602H19.0267ZM6.70674 12.6636C8.93341 13.4469 10.3967 13.9669 11.4734 14.5002C12.4834 14.9936 12.9301 15.3936 13.2234 15.8236L17.3534 13.0002C16.4067 11.6136 15.1434 10.7269 13.6734 10.0036C12.2734 9.3169 10.4801 8.69024 8.36674 7.9469L6.70674 12.6636ZM14.0267 32.5336C14.0267 37.3769 14.0734 40.8669 14.5267 43.5336C15.0167 46.3802 15.9934 48.4202 17.8101 50.3402L21.4401 46.9002C20.3734 45.7736 19.7967 44.6736 19.4567 42.6902C19.0901 40.5236 19.0267 37.4969 19.0267 32.5336H14.0267ZM36.4601 49.1669C31.7367 49.1669 28.4601 49.1602 25.9901 48.8102C23.6067 48.4736 22.3501 47.8602 21.4401 46.9002L17.8101 50.3402C19.7901 52.4302 22.3001 53.3402 25.2867 53.7602C28.1867 54.1736 31.8901 54.1669 36.4601 54.1669V49.1669ZM16.5267 22.9002H56.9601V17.9002H16.5301L16.5267 22.9002ZM66.4101 32.4369L64.7434 40.5202L69.6434 41.5269L71.3067 33.4469L66.4101 32.4369ZM56.9667 22.9002C59.8201 22.9002 62.3334 22.9036 64.3167 23.1236C65.3001 23.2369 66.0401 23.3902 66.5567 23.5702C67.0934 23.7602 67.1801 23.9036 67.1367 23.8469L71.1001 20.8002C70.3167 19.7802 69.2167 19.2036 68.2134 18.8536C67.1284 18.4969 66.007 18.2621 64.8701 18.1536C62.5534 17.8969 59.7267 17.9002 56.9667 17.9002V22.9002ZM71.3101 33.4336C71.8767 30.6069 72.3567 28.2336 72.4734 26.3336C72.5967 24.3802 72.3734 22.4536 71.1001 20.8002L67.1367 23.8469C67.3434 24.1169 67.5701 24.6002 67.4834 26.0269C67.3934 27.5069 67.0034 29.4836 66.4101 32.4536L71.3101 33.4336ZM54.1334 54.1669C56.6734 54.1669 58.8067 54.1702 60.5267 53.9602C62.3101 53.7436 63.9401 53.2636 65.3601 52.1069L62.2001 48.2302C61.7834 48.5702 61.1934 48.8436 59.9167 48.9969C58.5734 49.1636 56.8001 49.1669 54.1334 49.1669V54.1669ZM64.7501 40.5202C64.2101 43.1302 63.8501 44.8636 63.4167 46.1469C63.0067 47.3669 62.6167 47.8902 62.2001 48.2302L65.3601 52.1069C66.7834 50.9469 67.5801 49.4502 68.1534 47.7436C68.7067 46.1036 69.1334 44.0169 69.6467 41.5302L64.7501 40.5202Z" fill="#A38EF8"/>
<path id="Vector_3" opacity="0.5" d="M43.3337 43.3333V36.6667M43.3337 36.6667V30M43.3337 36.6667H50.0003M43.3337 36.6667H36.667" stroke="#A38EF8" stroke-width="5" stroke-linecap="round"/>
</g>
</g>
</svg>
