<svg width="80" height="80" viewBox="0 0 80 80" fill="none" xmlns="http://www.w3.org/2000/svg">
<g id="solar:presentation-graph-line-duotone">
<g id="Group">
<path id="Vector" d="M6.66699 6.6665H73.3337M30.0003 34.9998L34.3103 30.6898C35.4203 29.5798 35.977 29.0232 36.667 29.0232C37.357 29.0232 37.9137 29.5798 39.0237 30.6898L40.977 32.6432C42.087 33.7532 42.6437 34.3098 43.3337 34.3098C44.0237 34.3098 44.5803 33.7532 45.6903 32.6432L50.0003 28.3332" stroke="#A38EF8" stroke-width="5" stroke-linecap="round"/>
<path id="Vector_2" opacity="0.5" d="M40.0007 69.9998V56.6665M40.0007 69.9998L33.334 73.3332M40.0007 69.9998L46.6673 73.3332" stroke="#A38EF8" stroke-width="5" stroke-linecap="round"/>
<path id="Vector_3" d="M66.6673 6.6665V34.9998C66.6673 45.2132 66.6673 50.3198 63.3207 53.4932C59.974 56.6665 54.5873 56.6665 43.8106 56.6665H36.1907C25.4173 56.6665 20.0273 56.6665 16.6807 53.4932C13.334 50.3198 13.334 45.2132 13.334 34.9998V6.6665" stroke="#A38EF8" stroke-width="5"/>
</g>
</g>
</svg>
