<svg width="80" height="80" viewBox="0 0 80 80" fill="none" xmlns="http://www.w3.org/2000/svg">
<g id="solar:wallet-money-line-duotone">
<g id="Group">
<path id="Vector" opacity="0.5" d="M20 30H33.3333" stroke="#A38EF8" stroke-width="5" stroke-linecap="round" stroke-linejoin="round"/>
<path id="Vector_2" d="M69.4433 33.3335H60.77C54.82 33.3335 50 37.8102 50 43.3335C50 48.8568 54.8233 53.3335 60.7667 53.3335H69.4433C69.7233 53.3335 69.86 53.3335 69.9767 53.3268C71.7767 53.2168 73.21 51.8868 73.3267 50.2168C73.3333 50.1102 73.3333 49.9802 73.3333 49.7235V36.9435C73.3333 36.6868 73.3333 36.5568 73.3267 36.4502C73.2067 34.7802 71.7767 33.4502 69.9767 33.3402C69.86 33.3335 69.7233 33.3335 69.4433 33.3335Z" stroke="#A38EF8" stroke-width="5"/>
<path id="Vector_3" d="M69.8837 33.3337C69.6237 27.0937 68.7903 23.267 66.0937 20.5737C62.1903 16.667 55.9037 16.667 43.3337 16.667H33.3337C20.7637 16.667 14.477 16.667 10.5737 20.5737C6.66699 24.477 6.66699 30.7637 6.66699 43.3337C6.66699 55.9037 6.66699 62.1903 10.5737 66.0937C14.477 70.0003 20.7637 70.0003 33.3337 70.0003H43.3337C55.9037 70.0003 62.1903 70.0003 66.0937 66.0937C68.7903 63.4003 69.627 59.5737 69.8837 53.3337" stroke="#A38EF8" stroke-width="5"/>
<path id="Vector_4" opacity="0.5" d="M20 16.6668L32.45 8.41012C34.2009 7.27126 36.2447 6.66504 38.3333 6.66504C40.422 6.66504 42.4658 7.27126 44.2167 8.41012L56.6667 16.6668" stroke="#A38EF8" stroke-width="5" stroke-linecap="round"/>
<path id="Vector_5" opacity="0.5" d="M59.9707 43.3335H60.0007" stroke="#A38EF8" stroke-width="5" stroke-linecap="round" stroke-linejoin="round"/>
</g>
</g>
</svg>
