<svg width="80" height="80" viewBox="0 0 80 80" fill="none" xmlns="http://www.w3.org/2000/svg">
<g id="solar:shield-keyhole-line-duotone">
<g id="Group">
<path id="Vector" opacity="0.5" d="M10 34.7232C10 24.0632 10 18.7332 11.26 16.9398C12.5167 15.1498 17.5267 13.4332 27.55 10.0032L29.46 9.34984C34.6833 7.55984 37.2933 6.6665 40 6.6665C42.7033 6.6665 45.3167 7.55984 50.54 9.34984L52.45 10.0032C62.4733 13.4332 67.4833 15.1498 68.74 16.9398C70 18.7332 70 24.0665 70 34.7232V39.9698C70 58.7632 55.87 67.8865 47.0033 71.7565C44.6 72.8065 43.4 73.3332 40 73.3332C36.6 73.3332 35.4 72.8065 32.9967 71.7565C24.13 67.8832 10 58.7665 10 39.9698V34.7232Z" stroke="#A38EF8" stroke-width="5"/>
<path id="Vector_2" d="M38.3338 53.3332H41.6671C42.5512 53.3332 43.399 52.982 44.0241 52.3569C44.6493 51.7318 45.0005 50.8839 45.0005 49.9999V45.3299C46.911 44.2316 48.4051 42.5327 49.2504 40.4975C50.0956 38.4624 50.2447 36.2049 49.6744 34.0762C49.1042 31.9476 47.8465 30.067 46.097 28.727C44.3475 27.387 42.2042 26.6626 40.0005 26.6665C37.7981 26.6653 35.657 27.3912 33.9095 28.7315C32.1619 30.0717 30.9057 31.9514 30.3358 34.0787C29.7658 36.206 29.9141 38.462 30.7576 40.4964C31.601 42.5308 33.0925 44.2299 35.0005 45.3299V49.9999C35.0005 50.8839 35.3517 51.7318 35.9768 52.3569C36.6019 52.982 37.4497 53.3332 38.3338 53.3332Z" stroke="#A38EF8" stroke-width="5" stroke-linejoin="round"/>
</g>
</g>
</svg>
