<svg width="80" height="80" viewBox="0 0 80 80" fill="none" xmlns="http://www.w3.org/2000/svg">
<g id="solar:bill-check-line-duotone">
<g id="Group">
<path id="Vector" opacity="0.5" d="M55.85 6.6665H24.15C20.2867 6.6665 18.3567 6.6665 16.7967 7.20984C15.3259 7.73135 13.9952 8.58485 12.9078 9.70405C11.8204 10.8232 11.0056 12.178 10.5267 13.6632C10 15.2698 10 17.2565 10 21.2332V67.9132C10 70.7732 13.2833 72.2932 15.36 70.3932C15.9426 69.8548 16.7067 69.5558 17.5 69.5558C18.2933 69.5558 19.0574 69.8548 19.64 70.3932L21.25 71.8665C22.2707 72.8104 23.6098 73.3346 25 73.3346C26.3902 73.3346 27.7293 72.8104 28.75 71.8665C29.7707 70.9226 31.1098 70.3984 32.5 70.3984C33.8902 70.3984 35.2293 70.9226 36.25 71.8665C37.2707 72.8104 38.6098 73.3346 40 73.3346C41.3902 73.3346 42.7293 72.8104 43.75 71.8665C44.7707 70.9226 46.1098 70.3984 47.5 70.3984C48.8902 70.3984 50.2293 70.9226 51.25 71.8665C52.2707 72.8104 53.6098 73.3346 55 73.3346C56.3902 73.3346 57.7293 72.8104 58.75 71.8665L60.36 70.3932C60.9426 69.8548 61.7067 69.5558 62.5 69.5558C63.2933 69.5558 64.0574 69.8548 64.64 70.3932C66.7167 72.2932 70 70.7732 70 67.9132V21.2332C70 17.2565 70 15.2665 69.4733 13.6665C68.9951 12.1806 68.1806 10.8251 67.0931 9.70523C66.0056 8.5854 64.6746 7.73147 63.2033 7.20984C61.6433 6.6665 59.7133 6.6665 55.85 6.6665Z" stroke="#A38EF8" stroke-width="5"/>
<path id="Vector_2" d="M31.667 34.6665L36.4303 39.9998L48.3337 26.6665" stroke="#A38EF8" stroke-width="5" stroke-linecap="round" stroke-linejoin="round"/>
<path id="Vector_3" d="M25 51.6665H55" stroke="#A38EF8" stroke-width="5" stroke-linecap="round"/>
</g>
</g>
</svg>
