<svg width="80" height="80" viewBox="0 0 80 80" fill="none" xmlns="http://www.w3.org/2000/svg">
<g id="solar:pie-chart-3-line-duotone">
<g id="Group">
<path id="Vector" d="M21.48 12.2833C23.2283 11.1152 25.0833 10.1152 27.02 9.29659C31.6966 7.31992 34.0333 6.32992 37.02 8.30992C40 10.2866 40 13.5233 40 19.9999V26.6666C40 32.9533 40 36.0933 41.9533 38.0466C43.9067 39.9999 47.0466 39.9999 53.3333 39.9999H60C66.4733 39.9999 69.7133 39.9999 71.69 42.9833C73.6666 45.9666 72.68 48.3033 70.7033 52.9833C67.715 60.047 62.3826 65.8644 55.605 69.4547C48.8275 73.0451 41.0192 74.1889 33.4966 72.6933C27.0302 71.4075 21.0902 68.2329 16.4281 63.5711C11.7659 58.9092 8.59089 52.9695 7.30461 46.5032C6.01832 40.0368 6.67854 33.3342 9.20175 27.2431C11.725 21.1519 15.9978 15.9459 21.48 12.2833Z" stroke="#A38EF8" stroke-width="5"/>
<path id="Vector_2" opacity="0.5" d="M48.333 7.7168C54.0977 9.2112 59.3581 12.2197 63.5691 16.4307C67.7801 20.6418 70.7886 25.9021 72.283 31.6668" stroke="#A38EF8" stroke-width="5" stroke-linecap="round"/>
</g>
</g>
</svg>
