<svg width="80" height="80" viewBox="0 0 80 80" fill="none" xmlns="http://www.w3.org/2000/svg">
<g id="solar:text-field-focus-line-duotone">
<g id="Group">
<path id="Vector" d="M27.5 51.6663C27.5 52.3294 27.7634 52.9653 28.2322 53.4341C28.7011 53.903 29.337 54.1664 30 54.1664C30.663 54.1664 31.2989 53.903 31.7678 53.4341C32.2366 52.9653 32.5 52.3294 32.5 51.6663H27.5ZM37.5 34.7497C37.5 35.4127 37.7634 36.0486 38.2322 36.5174C38.7011 36.9863 39.337 37.2497 40 37.2497C40.663 37.2497 41.2989 36.9863 41.7678 36.5174C42.2366 36.0486 42.5 35.4127 42.5 34.7497H37.5ZM17.5 34.7497C17.5 35.4127 17.7634 36.0486 18.2322 36.5174C18.7011 36.9863 19.337 37.2497 20 37.2497C20.663 37.2497 21.2989 36.9863 21.7678 36.5174C22.2366 36.0486 22.5 35.4127 22.5 34.7497H17.5ZM23.3333 49.1663C22.6703 49.1663 22.0344 49.4297 21.5656 49.8986C21.0967 50.3674 20.8333 51.0033 20.8333 51.6663C20.8333 52.3294 21.0967 52.9653 21.5656 53.4341C22.0344 53.903 22.6703 54.1664 23.3333 54.1664V49.1663ZM36.6667 54.1664C37.3297 54.1664 37.9656 53.903 38.4344 53.4341C38.9033 52.9653 39.1667 52.3294 39.1667 51.6663C39.1667 51.0033 38.9033 50.3674 38.4344 49.8986C37.9656 49.4297 37.3297 49.1663 36.6667 49.1663V54.1664ZM26.4167 30.833H30V25.833H26.4167V30.833ZM30 30.833H33.5833V25.833H30V30.833ZM32.5 51.6663V28.333H27.5V51.6663H32.5ZM33.5833 30.833C35.1 30.833 36.0033 30.8363 36.6567 30.9197C37.2467 30.993 37.2767 31.093 37.2233 31.043L40.54 27.3064C39.54 26.413 38.37 26.093 37.2733 25.9564C36.24 25.8297 34.97 25.833 33.5833 25.833V30.833ZM42.5 34.7497C42.5 33.363 42.5033 32.093 42.3767 31.0597C42.24 29.963 41.92 28.793 41.0267 27.793L37.29 31.113C37.24 31.0563 37.34 31.0863 37.4133 31.6797C37.4967 32.3297 37.5 33.233 37.5 34.7497H42.5ZM37.2233 31.043C37.2468 31.064 37.2657 31.0862 37.2867 31.1097L41.0267 27.793C40.8742 27.6213 40.7117 27.4588 40.54 27.3064L37.2233 31.043ZM26.4167 25.833C25.03 25.833 23.76 25.8297 22.7267 25.9564C21.63 26.093 20.46 26.413 19.46 27.3064L22.78 31.043C22.7233 31.093 22.7533 30.993 23.3467 30.9197C23.9967 30.8363 24.9 30.833 26.4167 30.833V25.833ZM22.5 34.7497C22.5 33.233 22.5033 32.3297 22.5867 31.6764C22.66 31.0864 22.76 31.0564 22.71 31.1097L18.9733 27.793C18.08 28.793 17.76 29.963 17.6233 31.0597C17.4967 32.093 17.5 33.363 17.5 34.7497H22.5ZM19.46 27.3064C19.2867 27.4597 19.1267 27.6197 18.9733 27.793L22.71 31.1097C22.731 31.0862 22.7532 31.0673 22.7767 31.0464L19.46 27.3064ZM23.3333 54.1664H36.6667V49.1663H23.3333V54.1664Z" fill="#A38EF8"/>
<path id="Vector_2" opacity="0.5" d="M40.0003 13.333H33.3337C20.7637 13.333 14.477 13.333 10.5737 17.2397C6.66699 21.143 6.66699 27.4297 6.66699 39.9997C6.66699 52.5697 6.66699 58.8563 10.5737 62.7597C14.477 66.6663 20.7637 66.6663 33.3337 66.6663H40.0003M50.0003 13.333C60.3803 13.3663 65.8837 13.693 69.427 17.2397C73.3337 21.143 73.3337 27.4297 73.3337 39.9997C73.3337 52.5697 73.3337 58.8563 69.427 62.7597C65.8837 66.3063 60.3803 66.633 50.0003 66.6663" stroke="#A38EF8" stroke-width="5" stroke-linecap="round"/>
<path id="Vector_3" d="M50 6.6665V73.3332" stroke="#A38EF8" stroke-width="5" stroke-linecap="round"/>
</g>
</g>
</svg>
