<svg width="80" height="80" viewBox="0 0 80 80" fill="none" xmlns="http://www.w3.org/2000/svg">
<g id="solar:code-scan-line-duotone">
<g id="Group">
<path id="Vector" d="M18.334 51.6663C18.334 48.523 18.334 46.953 19.3107 45.9763C20.2873 44.9997 21.8573 44.9997 25.0007 44.9997H28.334C31.4773 44.9997 33.0473 44.9997 34.024 45.9763C35.0006 46.953 35.0007 48.523 35.0007 51.6663V54.9997C35.0007 58.143 35.0006 59.713 34.024 60.6897C33.0473 61.6663 31.4773 61.6663 28.334 61.6663C23.6207 61.6663 21.264 61.6663 19.8007 60.1997C18.334 58.7363 18.334 56.3797 18.334 51.6663ZM18.334 28.333C18.334 23.6197 18.334 21.263 19.8007 19.7997C21.264 18.333 23.6207 18.333 28.334 18.333C31.4773 18.333 33.0473 18.333 34.024 19.3097C35.0006 20.2863 35.0007 21.8563 35.0007 24.9997V28.333C35.0007 31.4763 35.0006 33.0463 34.024 34.023C33.0473 34.9997 31.4773 34.9997 28.334 34.9997H25.0007C21.8573 34.9997 20.2873 34.9997 19.3107 34.023C18.334 33.0463 18.334 31.4763 18.334 28.333ZM45.0007 51.6663C45.0007 48.523 45.0007 46.953 45.9773 45.9763C46.954 44.9997 48.524 44.9997 51.6673 44.9997H55.0007C58.144 44.9997 59.714 44.9997 60.6907 45.9763C61.6673 46.953 61.6673 48.523 61.6673 51.6663C61.6673 56.3797 61.6673 58.7363 60.2006 60.1997C58.7373 61.6663 56.3807 61.6663 51.6673 61.6663C48.524 61.6663 46.954 61.6663 45.9773 60.6897C45.0007 59.713 45.0007 58.143 45.0007 54.9997V51.6663ZM45.0007 24.9997C45.0007 21.8563 45.0007 20.2863 45.9773 19.3097C46.954 18.333 48.524 18.333 51.6673 18.333C56.3807 18.333 58.7373 18.333 60.2006 19.7997C61.6673 21.263 61.6673 23.6197 61.6673 28.333C61.6673 31.4763 61.6673 33.0463 60.6907 34.023C59.714 34.9997 58.144 34.9997 55.0007 34.9997H51.6673C48.524 34.9997 46.954 34.9997 45.9773 34.023C45.0007 33.0463 45.0007 31.4763 45.0007 28.333V24.9997Z" stroke="#A38EF8" stroke-width="5"/>
<path id="Vector_2" opacity="0.5" d="M73.3337 46.6665C73.3337 59.2365 73.3337 65.5232 69.427 69.4265C65.5237 73.3332 59.237 73.3332 46.667 73.3332M33.3337 73.3332C20.7637 73.3332 14.477 73.3332 10.5737 69.4265C6.66699 65.5232 6.66699 59.2365 6.66699 46.6665M33.3337 6.6665C20.7637 6.6665 14.477 6.6665 10.5737 10.5732C6.66699 14.4765 6.66699 20.7632 6.66699 33.3332M46.667 6.6665C59.237 6.6665 65.5237 6.6665 69.427 10.5732C73.3337 14.4765 73.3337 20.7632 73.3337 33.3332" stroke="#A38EF8" stroke-width="5" stroke-linecap="round"/>
</g>
</g>
</svg>
