<svg width="80" height="80" viewBox="0 0 80 80" fill="none" xmlns="http://www.w3.org/2000/svg">
<g id="solar:user-id-line-duotone">
<g id="Group">
<path id="Vector" d="M30.0007 36.6668C33.6825 36.6668 36.6673 33.6821 36.6673 30.0002C36.6673 26.3183 33.6825 23.3335 30.0007 23.3335C26.3188 23.3335 23.334 26.3183 23.334 30.0002C23.334 33.6821 26.3188 36.6668 30.0007 36.6668Z" stroke="#A38EF8" stroke-width="5"/>
<path id="Vector_2" d="M43.3337 50.0002C43.3337 53.6835 43.3337 56.6668 30.0003 56.6668C16.667 56.6668 16.667 53.6835 16.667 50.0002C16.667 46.3168 22.6337 43.3335 30.0003 43.3335C37.367 43.3335 43.3337 46.3168 43.3337 50.0002Z" stroke="#A38EF8" stroke-width="5"/>
<path id="Vector_3" opacity="0.5" d="M6.66699 40.0002C6.66699 27.4302 6.66699 21.1435 10.5737 17.2402C14.477 13.3335 20.7637 13.3335 33.3337 13.3335H46.667C59.237 13.3335 65.5237 13.3335 69.427 17.2402C73.3337 21.1435 73.3337 27.4302 73.3337 40.0002C73.3337 52.5702 73.3337 58.8568 69.427 62.7602C65.5237 66.6668 59.237 66.6668 46.667 66.6668H33.3337C20.7637 66.6668 14.477 66.6668 10.5737 62.7602C6.66699 58.8568 6.66699 52.5702 6.66699 40.0002Z" stroke="#A38EF8" stroke-width="5"/>
<path id="Vector_4" d="M63.3337 40H50.0003M63.3337 30H46.667" stroke="#A38EF8" stroke-width="5" stroke-linecap="round"/>
<path id="Vector_5" opacity="0.9" d="M63.334 50H53.334" stroke="#A38EF8" stroke-width="5" stroke-linecap="round"/>
</g>
</g>
</svg>
