<svg width="80" height="80" viewBox="0 0 80 80" fill="none" xmlns="http://www.w3.org/2000/svg">
<g id="solar:bag-line-duotone">
<g id="Group">
<path id="Vector" d="M19.2204 23.0733C15.5137 26.1467 14.5404 31.35 12.5871 41.75C9.84372 56.3833 8.47372 63.6967 12.4737 68.5167C16.4737 73.3333 23.9137 73.3333 38.7971 73.3333H41.2037C56.0871 73.3333 63.5304 73.3333 67.5271 68.5167C71.5271 63.6967 70.1504 56.3833 67.4104 41.75C65.4571 31.35 64.4837 26.1467 60.7771 23.0733M60.7837 23.0733C57.0804 20 51.7871 20 41.2004 20H38.7937C28.2104 20 22.9171 20 19.2137 23.0733" stroke="#A38EF8" stroke-width="5"/>
<path id="Vector_2" opacity="0.5" d="M33.334 52.2233C33.334 55.29 36.3173 57.7766 40.0007 57.7766C43.684 57.7766 46.6673 55.29 46.6673 52.2233C46.6673 49.1566 43.684 46.6666 40.0007 46.6666C36.3173 46.6666 33.334 44.18 33.334 41.11C33.334 38.0433 36.3173 35.5566 40.0007 35.5566C43.684 35.5566 46.6673 38.0433 46.6673 41.11" stroke="#A38EF8" stroke-width="5" stroke-linecap="round"/>
<path id="Vector_3" opacity="0.5" d="M30 19.9998V16.6665C30 14.0143 31.0536 11.4708 32.9289 9.59544C34.8043 7.72007 37.3478 6.6665 40 6.6665C42.6522 6.6665 45.1957 7.72007 47.0711 9.59544C48.9464 11.4708 50 14.0143 50 16.6665V19.9998" stroke="#A38EF8" stroke-width="5" stroke-linecap="round"/>
</g>
</g>
</svg>
