<svg width="80" height="80" viewBox="0 0 80 80" fill="none" xmlns="http://www.w3.org/2000/svg">
<g id="solar:passport-line-duotone">
<g id="Group">
<path id="Vector" d="M13.333 20.0001V63.3334C13.333 65.9856 14.3866 68.5291 16.2619 70.4045C18.1373 72.2799 20.6808 73.3334 23.333 73.3334H56.6663C59.3185 73.3334 61.862 72.2799 63.7374 70.4045C65.6128 68.5291 66.6663 65.9856 66.6663 63.3334V30.0001C66.6663 27.3479 65.6128 24.8044 63.7374 22.929C61.862 21.0537 59.3185 20.0001 56.6663 20.0001H13.333ZM13.333 20.0001V16.6667" stroke="#B6FFFA" stroke-width="4"/>
<path id="Vector_2" opacity="0.5" d="M40 53.3334C45.5228 53.3334 50 48.8562 50 43.3334C50 37.8105 45.5228 33.3334 40 33.3334C34.4772 33.3334 30 37.8105 30 43.3334C30 48.8562 34.4772 53.3334 40 53.3334Z" stroke="#B6FFFA" stroke-width="4"/>
<path id="Vector_3" d="M59.9997 20V22.5H62.4997V20H59.9997ZM16.8997 22.5H59.9997V17.5H16.903L16.8997 22.5ZM62.4997 20V14.3534H57.4997V20H62.4997ZM52.0363 5.28004L16.0463 10.42L16.753 15.37L52.743 10.2334L52.0363 5.28337V5.28004ZM16.0463 10.42C14.5988 10.6264 13.2744 11.3483 12.3166 12.4531C11.3589 13.5579 10.832 14.9712 10.833 16.4334H15.833C15.8322 16.1753 15.9249 15.9257 16.0941 15.7307C16.2633 15.5358 16.4974 15.4055 16.753 15.37L16.0463 10.4234V10.42ZM62.4997 14.3534C62.4995 13.0401 62.2172 11.7422 61.6718 10.5476C61.1264 9.35294 60.3306 8.28943 59.3385 7.42906C58.3463 6.56869 57.1808 5.93155 55.921 5.56078C54.6612 5.19002 53.3364 5.09427 52.0363 5.28004L52.743 10.2334C53.3339 10.1488 53.9361 10.1889 54.5087 10.3574C55.0814 10.5258 55.6112 10.8153 56.0622 11.2063C56.5133 11.5973 56.875 12.0806 57.123 12.6236C57.371 13.1666 57.4995 13.7565 57.4997 14.3534H62.4997ZM16.903 17.5C16.6192 17.5 16.3471 17.3873 16.1464 17.1866C15.9457 16.986 15.833 16.7172 15.833 16.4334H10.833C10.8326 17.2306 10.9893 18.0168 11.2942 18.7534C11.5991 19.4901 12.0462 20.1594 12.6099 20.7232C13.1736 21.2869 13.843 21.734 14.5796 22.0389C15.3162 22.3438 16.1024 22.5005 16.8997 22.5L16.903 17.5Z" fill="#B6FFFA"/>
<path id="Vector_4" opacity="0.5" d="M33.333 63.3334H46.6663" stroke="#B6FFFA" stroke-width="4" stroke-linecap="round"/>
</g>
</g>
</svg>
