<svg width="81" height="80" viewBox="0 0 81 80" fill="none" xmlns="http://www.w3.org/2000/svg">
<g id="solar:emoji-funny-circle-line-duotone">
<g id="Group">
<path id="Vector" opacity="0.5" d="M40.6673 73.3333C59.0768 73.3333 74.0006 58.4095 74.0006 40C74.0006 21.5905 59.0768 6.66663 40.6673 6.66663C22.2578 6.66663 7.33398 21.5905 7.33398 40C7.33398 58.4095 22.2578 73.3333 40.6673 73.3333Z" stroke="#B6FFFA" stroke-width="4"/>
<path id="Vector_2" d="M30.377 53.1133C34.5703 54.1633 39.327 54.1633 44.117 52.88C48.907 51.5966 53.027 49.2166 56.1336 46.21" stroke="#B6FFFA" stroke-width="4" stroke-linecap="round"/>
<path id="Vector_3" d="M50.3245 37.4104C52.1028 36.9339 52.9649 34.3854 52.2502 31.7181C51.5355 29.0507 49.5146 27.2747 47.7364 27.7512C45.9581 28.2276 45.096 30.7762 45.8107 33.4435C46.5254 36.1109 48.5463 37.8869 50.3245 37.4104Z" fill="#B6FFFA"/>
<path id="Vector_4" d="M31.0081 42.5896C32.7864 42.1131 33.6485 39.5646 32.9338 36.8973C32.2191 34.2299 30.1982 32.4539 28.4199 32.9304C26.6417 33.4068 25.7796 35.9554 26.4943 38.6227C27.209 41.2901 29.2299 43.0661 31.0081 42.5896Z" fill="#B6FFFA"/>
<path id="Vector_5" d="M44.001 53.3333L45.5943 56.58C45.8825 57.1712 46.2846 57.6998 46.7775 58.1354C47.2703 58.5709 47.8443 58.905 48.4665 59.1184C49.0886 59.3318 49.7468 59.4204 50.4033 59.379C51.0597 59.3376 51.7015 59.1671 52.292 58.8772C52.8824 58.5874 53.4099 58.1839 53.8441 57.6898C54.2784 57.1958 54.6109 56.6209 54.8226 55.9982C55.0343 55.3754 55.121 54.717 55.0779 54.0607C55.0347 53.4043 54.8624 52.763 54.571 52.1733L53.0376 49.0566" stroke="#B6FFFA" stroke-width="4"/>
</g>
</g>
</svg>
