<svg width="81" height="80" viewBox="0 0 81 80" fill="none" xmlns="http://www.w3.org/2000/svg">
<g id="solar:users-group-two-rounded-line-duotone">
<g id="Group">
<path id="Vector" d="M40.3324 33.3333C47.6962 33.3333 53.6657 27.3638 53.6657 20C53.6657 12.6362 47.6962 6.66663 40.3324 6.66663C32.9686 6.66663 26.999 12.6362 26.999 20C26.999 27.3638 32.9686 33.3333 40.3324 33.3333Z" stroke="#B6FFFA" stroke-width="4"/>
<path id="Vector_2" opacity="0.5" d="M60.333 29.9999C65.8563 29.9999 70.333 26.2666 70.333 21.6666C70.333 17.0666 65.8563 13.3333 60.333 13.3333M20.333 29.9999C14.8097 29.9999 10.333 26.2666 10.333 21.6666C10.333 17.0666 14.8097 13.3333 20.333 13.3333" stroke="#B6FFFA" stroke-width="4" stroke-linecap="round"/>
<path id="Vector_3" d="M40.333 69.9999C51.3787 69.9999 60.333 64.0304 60.333 56.6666C60.333 49.3028 51.3787 43.3333 40.333 43.3333C29.2873 43.3333 20.333 49.3028 20.333 56.6666C20.333 64.0304 29.2873 69.9999 40.333 69.9999Z" stroke="#B6FFFA" stroke-width="4"/>
<path id="Vector_4" opacity="0.5" d="M66.9994 63.3333C72.846 62.05 76.9994 58.8033 76.9994 55C76.9994 51.1966 72.846 47.95 66.9994 46.6666M13.666 63.3333C7.81935 62.05 3.66602 58.8033 3.66602 55C3.66602 51.1966 7.81935 47.95 13.666 46.6666" stroke="#B6FFFA" stroke-width="4" stroke-linecap="round"/>
</g>
</g>
</svg>
