<svg width="81" height="80" viewBox="0 0 81 80" fill="none" xmlns="http://www.w3.org/2000/svg">
<g id="solar:cart-check-line-duotone">
<g id="Group">
<path id="Vector" opacity="0.5" d="M25.667 60C26.9931 60 28.2648 60.5268 29.2025 61.4645C30.1402 62.4022 30.667 63.6739 30.667 65C30.667 66.3261 30.1402 67.5978 29.2025 68.5355C28.2648 69.4732 26.9931 70 25.667 70C24.3409 70 23.0691 69.4732 22.1315 68.5355C21.1938 67.5978 20.667 66.3261 20.667 65C20.667 63.6739 21.1938 62.4022 22.1315 61.4645C23.0691 60.5268 24.3409 60 25.667 60ZM55.667 60C56.9931 60 58.2648 60.5268 59.2025 61.4645C60.1402 62.4022 60.667 63.6739 60.667 65C60.667 66.3261 60.1402 67.5978 59.2025 68.5355C58.2648 69.4732 56.9931 70 55.667 70C54.3409 70 53.0691 69.4732 52.1315 68.5355C51.1938 67.5978 50.667 66.3261 50.667 65C50.667 63.6739 51.1938 62.4022 52.1315 61.4645C53.0691 60.5268 54.3409 60 55.667 60Z" stroke="#B6FFFA" stroke-width="4"/>
<path id="Vector_2" d="M8.16373 7.63999C7.53782 7.41986 6.8501 7.45739 6.25186 7.74432C5.65362 8.03125 5.19386 8.54408 4.97373 9.16999C4.7536 9.7959 4.79113 10.4836 5.07806 11.0819C5.36499 11.6801 5.87782 12.1399 6.50373 12.36L8.16373 7.63999ZM69.5271 32.9433L71.9737 33.4467L71.9771 33.4333L69.5271 32.9433ZM69.7804 22.3267L67.8004 23.8467L69.7837 22.3233L69.7804 22.3267ZM19.6937 32.5333V23.46H14.6937V32.5333H19.6937ZM9.03373 7.94666L8.16373 7.63999L6.50373 12.36L7.37373 12.6633L9.03373 7.94666ZM37.1271 54.1667H54.8004V49.1667H37.1271V54.1667ZM19.6937 23.46C19.6937 21.1033 19.6971 19.1367 19.5271 17.54C19.3437 15.8833 18.9604 14.3733 18.0204 13L13.8904 15.82C14.1904 16.26 14.4237 16.8667 14.5537 18.0767C14.6904 19.3433 14.6937 20.9933 14.6937 23.46H19.6937ZM7.37373 12.6633C9.6004 13.4467 11.0637 13.9667 12.1404 14.5C13.1504 14.9933 13.5971 15.3933 13.8904 15.8233L18.0204 13C17.0737 11.6133 15.8104 10.7267 14.3404 10.0033C12.9404 9.31666 11.1471 8.68999 9.03373 7.94666L7.37373 12.6633ZM14.6937 32.5333C14.6937 37.3767 14.7404 40.8667 15.1937 43.5333C15.6837 46.38 16.6604 48.42 18.4771 50.34L22.1071 46.9C21.0404 45.7733 20.4637 44.6733 20.1237 42.69C19.7571 40.5233 19.6937 37.4967 19.6937 32.5333H14.6937ZM37.1271 49.1667C32.4037 49.1667 29.1271 49.16 26.6571 48.81C24.2737 48.4733 23.0171 47.86 22.1071 46.9L18.4771 50.34C20.4571 52.43 22.9671 53.34 25.9537 53.76C28.8537 54.1733 32.5571 54.1667 37.1271 54.1667V49.1667ZM17.1937 22.9H57.6271V17.9H17.1971L17.1937 22.9ZM67.0771 32.4367L65.4104 40.52L70.3104 41.5267L71.9737 33.4467L67.0771 32.4367ZM57.6337 22.9C60.4871 22.9 63.0004 22.9033 64.9837 23.1233C65.9671 23.2367 66.7071 23.39 67.2237 23.57C67.7604 23.76 67.8471 23.9033 67.8037 23.8467L71.7671 20.8C70.9837 19.78 69.8837 19.2033 68.8804 18.8533C67.7954 18.4966 66.674 18.2618 65.5371 18.1533C63.2204 17.8967 60.3937 17.9 57.6337 17.9V22.9ZM71.9771 33.4333C72.5437 30.6067 73.0237 28.2333 73.1404 26.3333C73.2637 24.38 73.0404 22.4533 71.7671 20.8L67.8037 23.8467C68.0104 24.1167 68.2371 24.6 68.1504 26.0267C68.0604 27.5067 67.6704 29.4833 67.0771 32.4533L71.9771 33.4333ZM54.8004 54.1667C57.3404 54.1667 59.4737 54.17 61.1937 53.96C62.9771 53.7433 64.6071 53.2633 66.0271 52.1067L62.8671 48.23C62.4504 48.57 61.8604 48.8433 60.5837 48.9967C59.2404 49.1633 57.4671 49.1667 54.8004 49.1667V54.1667ZM65.4171 40.52C64.8771 43.13 64.5171 44.8633 64.0837 46.1467C63.6737 47.3667 63.2837 47.89 62.8671 48.23L66.0271 52.1067C67.4504 50.9467 68.2471 49.45 68.8204 47.7433C69.3737 46.1033 69.8004 44.0167 70.3137 41.53L65.4171 40.52Z" fill="#B6FFFA"/>
<path id="Vector_3" opacity="0.5" d="M37.334 36L41.144 40L50.6673 30" stroke="#B6FFFA" stroke-width="4" stroke-linecap="round" stroke-linejoin="round"/>
</g>
</g>
</svg>
