<svg width="81" height="80" viewBox="0 0 81 80" fill="none" xmlns="http://www.w3.org/2000/svg">
<g id="solar:hearts-line-duotone">
<g id="Group">
<path id="Vector" d="M55.3335 43.86L53.5768 45.64C54.0447 46.1021 54.6758 46.3612 55.3335 46.3612C55.9911 46.3612 56.6222 46.1021 57.0901 45.64L55.3335 43.86ZM39.5001 50.2C39.5001 46.9666 41.4201 44.24 44.0668 43.09C46.5901 41.9933 50.1001 42.21 53.5768 45.64L57.0901 42.0833C52.3135 37.3666 46.6568 36.5133 42.0768 38.5033C39.8135 39.5044 37.8913 41.1437 36.5455 43.2206C35.1998 45.2976 34.489 47.7219 34.5001 50.1966H39.5001V50.2ZM48.2668 69.2333C49.1935 69.9266 50.2601 70.7266 51.3601 71.3333C52.4601 71.9466 53.8135 72.5 55.3335 72.5V67.5C55.0201 67.5 54.5401 67.38 53.7901 66.9666C52.9112 66.4431 52.0672 65.863 51.2635 65.23L48.2635 69.23L48.2668 69.2333ZM62.4001 69.2333C64.9501 67.3233 68.4201 64.99 71.1335 62.0833C73.9335 59.0866 76.1668 55.26 76.1668 50.1966H71.1668C71.1668 53.6133 69.7135 56.28 67.4801 58.67C65.1635 61.1533 62.2535 63.0966 59.4035 65.23L62.4035 69.23L62.4001 69.2333ZM59.4035 65.23C58.5996 65.8618 57.7556 66.4408 56.8768 66.9633C56.1268 67.38 55.6468 67.5 55.3335 67.5V72.5C56.8535 72.5 58.2035 71.9466 59.3068 71.3333C60.4068 70.7266 61.4701 69.9266 62.4001 69.2333L59.4035 65.23ZM76.1668 50.1966C76.1752 46.8963 74.9095 43.7233 72.6335 41.3333L69.0168 44.7866C70.3401 46.17 71.1668 48.0766 71.1668 50.1966H76.1668ZM72.6335 41.3333C71.4987 40.1344 70.1334 39.1738 68.6194 38.5156C67.1055 37.8575 65.4742 37.512 63.8235 37.5C60.3435 37.4833 56.7535 38.9466 53.5768 42.0833L57.0901 45.64C59.4568 43.3066 61.8168 42.49 63.8001 42.5C65.8101 42.51 67.6635 43.37 69.0168 44.7866L72.6335 41.3333ZM51.2635 65.23C50.7832 64.8718 50.301 64.5162 49.8168 64.1633L46.8635 68.1966L48.2635 69.23L51.2635 65.23ZM49.8168 64.1633C44.3968 60.1933 39.5001 56.4733 39.5001 50.1966H34.5001C34.5001 59.42 41.9235 64.58 46.8635 68.1966L49.8168 64.1633Z" fill="#B6FFFA"/>
<path id="Vector_2" opacity="0.5" d="M40.3333 17.7233L38.4933 19.4166C38.7275 19.6712 39.0119 19.8744 39.3286 20.0134C39.6453 20.1524 39.9875 20.2242 40.3333 20.2242C40.6792 20.2242 41.0213 20.1524 41.338 20.0134C41.6548 19.8744 41.9392 19.6712 42.1733 19.4166L40.3333 17.7233ZM31.7967 62.5333C21.6167 54.1399 9.5 45.9099 9.5 30.3966H4.5C4.5 48.7833 19.18 58.6133 28.6167 66.3899L31.7967 62.5333ZM9.5 30.3966C9.5 22.7966 13.6067 16.4833 19.12 13.8499C24.44 11.3066 31.62 11.9499 38.4933 19.4166L42.1733 16.0299C34.0467 7.19995 24.56 5.70661 16.9633 9.33328C9.56 12.8766 4.5 21.0433 4.5 30.3966H9.5ZM28.6167 66.3899C30.3233 67.7966 32.1567 69.2966 34.0167 70.4333C35.87 71.5666 38.0033 72.4999 40.3333 72.4999V67.4999C39.33 67.4999 38.1333 67.0899 36.62 66.1666C35.1133 65.2466 33.55 63.9766 31.7967 62.5333L28.6167 66.3899ZM76.1667 30.3999C76.1667 21.0499 71.1067 12.8799 63.7 9.33995C56.1067 5.70995 46.62 7.20661 38.4933 16.0333L42.1733 19.4199C49.0467 11.9533 56.2267 11.3099 61.5467 13.8533C67.06 16.4866 71.1667 22.7999 71.1667 30.3999H76.1667ZM73.08 44.1399C75.137 39.8531 76.1925 35.1547 76.1667 30.3999H71.1667C71.1918 34.4085 70.3026 38.37 68.5667 41.9833L73.08 44.1399ZM46.7967 64.2166C44.04 66.3766 42.02 67.4999 40.3333 67.4999V72.4999C43.9433 72.4999 47.2167 70.2399 49.8833 68.1499L46.7967 64.2166Z" fill="#B6FFFA"/>
</g>
</g>
</svg>
