<svg width="1440" height="80" viewBox="0 0 1440 80" fill="none" xmlns="http://www.w3.org/2000/svg">
<g opacity="0.2" clip-path="url(#clip0_2_907)">
<rect width="35.427" height="376.453" transform="matrix(0.98155 0.191208 -0.345822 0.9383 55.8196 -140)" fill="#FF1180"/>
<rect width="35.427" height="376.453" transform="matrix(0.98155 0.191208 -0.345822 0.9383 150.779 -140)" fill="#FF1180"/>
<rect width="35.427" height="376.453" transform="matrix(0.98155 0.191208 -0.345822 0.9383 245.738 -140)" fill="#FF1180"/>
<rect width="35.427" height="376.453" transform="matrix(0.98155 0.191208 -0.345822 0.9383 340.698 -140)" fill="#FF1180"/>
<rect width="35.427" height="376.453" transform="matrix(0.98155 0.191208 -0.345822 0.9383 435.657 -140)" fill="#FF1180"/>
<rect width="35.427" height="376.453" transform="matrix(0.98155 0.191208 -0.345822 0.9383 530.616 -140)" fill="#FF1180"/>
<rect width="35.427" height="376.453" transform="matrix(0.98155 0.191208 -0.345822 0.9383 625.576 -140)" fill="#FF1180"/>
<rect width="35.427" height="376.453" transform="matrix(0.98155 0.191208 -0.345822 0.9383 720.535 -140)" fill="#FF1180"/>
<rect width="35.427" height="376.453" transform="matrix(0.98155 0.191208 -0.345822 0.9383 815.494 -140)" fill="#FF1180"/>
<rect width="35.427" height="376.453" transform="matrix(0.98155 0.191208 -0.345822 0.9383 910.454 -140)" fill="#FF1180"/>
<rect width="35.427" height="376.453" transform="matrix(0.98155 0.191208 -0.345822 0.9383 1005.41 -140)" fill="#FF1180"/>
<rect width="35.427" height="376.453" transform="matrix(0.98155 0.191208 -0.345822 0.9383 1100.37 -140)" fill="#FF1180"/>
<rect width="35.427" height="376.453" transform="matrix(0.98155 0.191208 -0.345822 0.9383 1195.33 -140)" fill="#FF1180"/>
<rect width="35.427" height="376.453" transform="matrix(0.98155 0.191208 -0.345822 0.9383 1290.29 -140)" fill="#FF1180"/>
<rect width="35.427" height="376.453" transform="matrix(0.98155 0.191208 -0.345822 0.9383 1385.25 -140)" fill="#FF1180"/>
<rect width="35.427" height="376.453" transform="matrix(0.98155 0.191208 -0.345822 0.9383 1480.21 -140)" fill="#FF1180"/>
</g>
<defs>
<clipPath id="clip0_2_907">
<rect width="3298.62" height="80" fill="white" transform="translate(-929)"/>
</clipPath>
</defs>
</svg>
