<svg width="215" height="360" viewBox="0 0 215 360" fill="none" xmlns="http://www.w3.org/2000/svg">
<g opacity="0.2">
<path opacity="0.5" d="M90 121.605C90 71.01 130.29 30 180 30C229.71 30 270 71.01 270 121.605C270 171.81 241.275 230.385 196.455 251.34C191.305 253.752 185.687 255.002 180 255.002C174.313 255.002 168.695 253.752 163.545 251.34C118.725 230.385 90 171.81 90 121.605Z" stroke="#B6FFFA" stroke-width="20"/>
<path d="M210 120C210 127.956 206.839 135.587 201.213 141.213C195.587 146.839 187.956 150 180 150C172.044 150 164.413 146.839 158.787 141.213C153.161 135.587 150 127.956 150 120C150 112.044 153.161 104.413 158.787 98.7868C164.413 93.1607 172.044 90 180 90C187.956 90 195.587 93.1607 201.213 98.7868C206.839 104.413 210 112.044 210 120Z" stroke="#B6FFFA" stroke-width="20"/>
<path d="M180 310.32L187.41 318.78C188.617 317.724 189.584 316.422 190.247 314.962C190.91 313.502 191.253 311.916 191.253 310.313C191.253 308.709 190.91 307.124 190.247 305.663C189.584 304.203 188.617 302.901 187.41 301.845L180 310.32ZM321.39 216.18C320.234 215.244 318.903 214.547 317.476 214.129C316.048 213.71 314.552 213.579 313.073 213.743C311.595 213.907 310.163 214.362 308.862 215.083C307.561 215.804 306.415 216.775 305.492 217.942C304.568 219.108 303.885 220.446 303.483 221.878C303.08 223.31 302.965 224.808 303.145 226.284C303.324 227.761 303.795 229.187 304.53 230.481C305.265 231.774 306.249 232.909 307.425 233.82L321.39 216.18ZM52.59 233.82C53.7483 232.902 54.7144 231.765 55.4332 230.474C56.152 229.182 56.6094 227.762 56.7794 226.294C56.9493 224.826 56.8284 223.339 56.4236 221.917C56.0188 220.496 55.3379 219.168 54.42 218.01C53.5021 216.852 52.365 215.886 51.0737 215.167C49.7824 214.448 48.3621 213.991 46.894 213.821C45.4259 213.651 43.9387 213.772 42.5174 214.176C41.096 214.581 39.7683 215.262 38.61 216.18L52.59 233.82ZM157.5 290.625L164.91 282.165C163.284 280.742 161.282 279.817 159.144 279.501C157.007 279.185 154.823 279.491 152.855 280.384C150.886 281.276 149.217 282.717 148.046 284.533C146.874 286.349 146.251 288.464 146.25 290.625H157.5ZM157.5 330H146.25C146.251 332.161 146.874 334.276 148.046 336.092C149.217 337.909 150.886 339.349 152.855 340.241C154.823 341.134 157.007 341.44 159.144 341.124C161.282 340.808 163.284 339.883 164.91 338.46L157.5 330ZM216.36 297.255C214.89 297.405 213.463 297.843 212.162 298.544C210.86 299.245 209.71 300.195 208.776 301.341C207.842 302.486 207.143 303.805 206.719 305.221C206.294 306.637 206.153 308.122 206.303 309.593C206.452 311.063 206.89 312.49 207.591 313.791C208.292 315.092 209.243 316.243 210.388 317.176C211.534 318.11 212.852 318.81 214.268 319.234C215.684 319.658 217.17 319.8 218.64 319.65L216.36 297.255ZM158.16 298.425C123.015 296.34 92.595 289.35 71.34 279.705C60.69 274.875 52.86 269.625 47.865 264.45C42.915 259.32 41.25 254.895 41.25 251.25H18.75C18.75 262.41 24 272.145 31.68 280.08C39.315 287.97 49.83 294.66 62.04 300.195C86.49 311.295 119.805 318.69 156.84 320.895L158.16 298.425ZM307.41 233.82C316.02 240.63 318.75 246.645 318.75 251.25H341.25C341.25 237 332.745 225.18 321.39 216.18L307.425 233.82H307.41ZM41.25 251.25C41.25 246.645 43.995 240.63 52.59 233.82L38.61 216.18C27.255 225.18 18.75 237 18.75 251.25H41.25ZM187.41 301.845L164.91 282.165L150.09 299.085L172.59 318.78L187.41 301.845ZM146.25 290.625V309.645H168.75V290.625H146.25ZM146.25 309.645V330H168.75V309.645H146.25ZM164.91 338.46L187.41 318.78L172.59 301.845L150.09 321.54L164.91 338.46ZM318.75 251.25C318.75 258.105 312.375 267.93 292.965 277.65C274.515 286.905 247.83 294.075 216.36 297.255L218.64 319.65C251.865 316.275 281.43 308.61 303.045 297.765C323.73 287.415 341.25 271.92 341.25 251.25H318.75Z" fill="#B6FFFA"/>
</g>
</svg>
