<svg width="225" height="360" viewBox="0 0 225 360" fill="none" xmlns="http://www.w3.org/2000/svg">
<g opacity="0.2">
<path d="M210 318.75H150V341.25H210V318.75ZM41.25 210V150H18.75V210H41.25ZM318.75 203.445V210H341.25V203.445H318.75ZM223.365 69.165L282.75 122.61L297.795 105.87L238.425 52.425L223.365 69.165ZM341.25 203.445C341.25 178.11 341.475 162.06 335.1 147.72L314.535 156.885C318.525 165.855 318.75 176.13 318.75 203.445H341.25ZM282.75 122.61C303.045 140.88 310.545 147.93 314.535 156.885L335.1 147.72C328.71 133.365 316.635 122.82 297.795 105.87L282.75 122.61ZM150.45 41.25C174.18 41.25 183.135 41.43 191.1 44.49L199.17 23.49C186.39 18.57 172.47 18.75 150.45 18.75V41.25ZM238.425 52.44C222.135 37.785 211.95 28.38 199.17 23.49L191.115 44.49C199.095 47.55 205.815 53.37 223.365 69.165L238.425 52.44ZM150 318.75C121.395 318.75 101.085 318.72 85.65 316.65C70.575 314.625 61.875 310.815 55.53 304.47L39.63 320.37C50.85 331.62 65.085 336.585 82.665 338.955C99.915 341.28 122.04 341.25 150 341.25V318.75ZM18.75 210C18.75 237.96 18.72 260.07 21.045 277.335C23.415 294.915 28.395 309.15 39.615 320.385L55.515 304.485C49.185 298.125 45.375 289.425 43.35 274.335C41.28 258.93 41.25 238.605 41.25 210H18.75ZM210 341.25C237.96 341.25 260.07 341.28 277.335 338.955C294.915 336.585 309.15 331.605 320.385 320.385L304.485 304.485C298.125 310.815 289.425 314.625 274.335 316.65C258.93 318.72 238.605 318.75 210 318.75V341.25ZM318.75 210C318.75 238.605 318.72 258.93 316.65 274.35C314.625 289.425 310.815 298.125 304.47 304.47L320.37 320.37C331.62 309.15 336.585 294.915 338.955 277.335C341.28 260.085 341.25 237.96 341.25 210H318.75ZM41.25 150C41.25 121.395 41.28 101.085 43.35 85.65C45.375 70.575 49.185 61.875 55.53 55.53L39.63 39.63C28.38 50.85 23.415 65.085 21.045 82.665C18.72 99.915 18.75 122.04 18.75 150H41.25ZM150.45 18.75C122.325 18.75 100.11 18.72 82.785 21.045C65.13 23.415 50.85 28.395 39.615 39.615L55.515 55.515C61.875 49.185 70.59 45.375 85.77 43.35C101.265 41.28 121.695 41.25 150.45 41.25V18.75Z" fill="#B6FFFA"/>
<path opacity="0.5" d="M195 37.5V75C195 110.355 195 128.04 205.98 139.02C216.96 150 234.645 150 270 150H330" stroke="#B6FFFA" stroke-width="20"/>
<path opacity="0.5" d="M127.5 277.5V202.5M127.5 202.5L97.5 230.625M127.5 202.5L157.5 230.625" stroke="#B6FFFA" stroke-width="20" stroke-linecap="round" stroke-linejoin="round"/>
</g>
</svg>
