<svg width="24" height="24" viewBox="0 0 24 24" fill="none" xmlns="http://www.w3.org/2000/svg">
<g id="solar:lightbulb-outline">
<path id="Vector" fill-rule="evenodd" clip-rule="evenodd" d="M12 2.74989C10.6332 2.75015 9.29871 3.16533 8.17301 3.94051C7.04731 4.71568 6.18345 5.81433 5.69571 7.09113C5.20797 8.36793 5.11932 9.76272 5.4415 11.091C5.76368 12.4193 6.4815 13.6184 7.50001 14.5299L7.503 14.5339C8.06 15.0329 8.48301 15.4109 8.78501 15.6889C9.07 15.9489 9.295 16.1629 9.414 16.3089L9.426 16.3239C9.64801 16.5969 9.84001 16.8349 9.96801 17.1199C10.095 17.4039 10.143 17.7069 10.199 18.0539L10.202 18.0739C10.231 18.2519 10.242 18.4699 10.247 18.7499H13.753C13.758 18.4699 13.769 18.2519 13.798 18.0739L13.801 18.0539C13.857 17.7069 13.905 17.4039 14.032 17.1199C14.16 16.8349 14.352 16.5969 14.574 16.3239L14.586 16.3089C14.705 16.1629 14.93 15.9489 15.215 15.6889C15.517 15.4109 15.94 15.0329 16.497 14.5339L16.501 14.5299C17.5196 13.6184 18.2374 12.4191 18.5596 11.0907C18.8817 9.76238 18.793 8.36751 18.3051 7.09067C17.8173 5.81382 16.9532 4.71518 15.8274 3.94008C14.7015 3.16498 13.3669 2.74995 12 2.74989ZM13.744 20.2499H10.256C10.26 20.3539 10.265 20.4449 10.272 20.5269C10.292 20.7519 10.327 20.8339 10.351 20.8749C10.4168 20.9886 10.5112 21.0831 10.625 21.1489C10.665 21.1729 10.748 21.2069 10.973 21.2279C11.208 21.2489 11.519 21.2499 12 21.2499C12.481 21.2499 12.792 21.2499 13.027 21.2279C13.252 21.2079 13.334 21.1729 13.375 21.1489C13.4888 21.0831 13.5833 20.9886 13.649 20.8749C13.673 20.8349 13.708 20.7519 13.728 20.5269C13.735 20.4449 13.74 20.3539 13.744 20.2499ZM3.75001 9.49989C3.75011 8.12387 4.09438 6.76974 4.75149 5.56076C5.40859 4.35179 6.35766 3.32637 7.51228 2.57786C8.6669 1.82935 9.9904 1.38154 11.3623 1.27517C12.7342 1.16881 14.1109 1.40728 15.3671 1.96888C16.6233 2.53048 17.7191 3.39736 18.5547 4.49061C19.3903 5.58386 19.9391 6.86875 20.1513 8.2283C20.3635 9.58786 20.2323 10.9789 19.7696 12.2748C19.3068 13.5707 18.5273 14.7302 17.502 15.6479C17.0754 16.0277 16.6507 16.4097 16.228 16.7939C16.0788 16.9312 15.9321 17.0712 15.788 17.2139C15.7757 17.2266 15.7637 17.2396 15.752 17.2529C15.492 17.5739 15.435 17.6569 15.402 17.7319C15.368 17.8069 15.344 17.9039 15.279 18.3119C15.253 18.4729 15.25 18.7489 15.25 19.4999V19.5319C15.25 19.9719 15.25 20.3519 15.222 20.6619C15.192 20.9919 15.126 21.3179 14.949 21.6249C14.7514 21.9671 14.4672 22.2513 14.125 22.4489C13.818 22.6259 13.492 22.6919 13.163 22.7219C12.851 22.7499 12.472 22.7499 12.033 22.7499H11.968C11.528 22.7499 11.148 22.7499 10.838 22.7219C10.508 22.6919 10.182 22.6259 9.87501 22.4489C9.53274 22.2513 9.24854 21.9671 9.051 21.6249C8.874 21.3179 8.80801 20.9919 8.77801 20.6629C8.75001 20.3509 8.75001 19.9719 8.75001 19.5329V19.4999C8.75001 18.7499 8.747 18.4729 8.721 18.3119C8.656 17.9039 8.631 17.8069 8.598 17.7319C8.565 17.6569 8.50801 17.5739 8.24801 17.2519L8.23801 17.2419C8.08529 17.0895 7.92959 16.9401 7.77101 16.7939C7.47701 16.5239 7.06101 16.1509 6.49801 15.6479C5.63241 14.8748 4.94009 13.9273 4.46649 12.8678C3.99289 11.8082 3.74872 10.6605 3.75001 9.49989ZM9.89201 13.3499C9.97729 13.3005 10.0715 13.2685 10.1691 13.2556C10.2668 13.2426 10.3661 13.2491 10.4613 13.2745C10.5565 13.3 10.6457 13.3439 10.7239 13.4039C10.8021 13.4638 10.8677 13.5386 10.917 13.6239C11.0267 13.8141 11.1845 13.9721 11.3746 14.082C11.5647 14.1919 11.7804 14.2497 12 14.2497C12.2196 14.2497 12.4353 14.1919 12.6254 14.082C12.8155 13.9721 12.9734 13.8141 13.083 13.6239C13.1324 13.5386 13.1981 13.4639 13.2763 13.404C13.3546 13.3441 13.4439 13.3001 13.5391 13.2747C13.6343 13.2494 13.7336 13.243 13.8313 13.2559C13.929 13.2689 14.0232 13.301 14.1085 13.3504C14.1938 13.3998 14.2685 13.4655 14.3284 13.5437C14.3883 13.622 14.4322 13.7113 14.4576 13.8065C14.483 13.9017 14.4894 14.001 14.4765 14.0987C14.4635 14.1964 14.4314 14.2906 14.382 14.3759C14.0234 14.9949 13.4382 15.4503 12.75 15.6459V16.9999C12.75 17.1988 12.671 17.3896 12.5303 17.5302C12.3897 17.6709 12.1989 17.7499 12 17.7499C11.8011 17.7499 11.6103 17.6709 11.4697 17.5302C11.329 17.3896 11.25 17.1988 11.25 16.9999V15.6459C10.5618 15.4503 9.97662 14.9949 9.61801 14.3759C9.56866 14.2906 9.53661 14.1964 9.52368 14.0988C9.51074 14.0011 9.51718 13.9018 9.54263 13.8066C9.56807 13.7114 9.61202 13.6222 9.67197 13.544C9.73192 13.4658 9.80669 13.3992 9.89201 13.3499Z" fill="#EDC537"/>
</g>
</svg>
