<svg width="80" height="81" viewBox="0 0 80 81" fill="none" xmlns="http://www.w3.org/2000/svg">
<g id="solar:code-square-line-duotone">
<g id="Group">
<path id="Vector" d="M51.6668 30.4999L52.2402 31.0732C56.6835 35.5166 58.9068 37.7399 58.9068 40.4999C58.9068 43.2599 56.6835 45.4832 52.2402 49.9266L51.6668 50.4999M44.3135 24.3999L40.0002 40.4999L35.6868 56.5999M28.3335 30.4999L27.7602 31.0732C23.3168 35.5166 21.0935 37.7399 21.0935 40.4999C21.0935 43.2599 23.3168 45.4832 27.7602 49.9266L28.3335 50.4999" stroke="black" stroke-width="4" stroke-linecap="round"/>
<path id="Vector_2" opacity="0.5" d="M6.66675 40.4998C6.66675 24.7865 6.66675 16.9298 11.5467 12.0465C16.4334 7.1665 24.2867 7.1665 40.0001 7.1665C55.7134 7.1665 63.5701 7.1665 68.4501 12.0465C73.3334 16.9332 73.3334 24.7865 73.3334 40.4998C73.3334 56.2132 73.3334 64.0698 68.4501 68.9498C63.5734 73.8332 55.7134 73.8332 40.0001 73.8332C24.2867 73.8332 16.4301 73.8332 11.5467 68.9498C6.66675 64.0732 6.66675 56.2132 6.66675 40.4998Z" stroke="black" stroke-width="4"/>
</g>
</g>
</svg>
