<svg width="108" height="109" viewBox="0 0 108 109" fill="none" xmlns="http://www.w3.org/2000/svg">
<g id="solar:crown-star-line-duotone">
<g id="Group">
<path id="Vector" d="M97.2397 61.529L98.2747 50.567C99.0847 41.963 99.4897 37.6565 98.0137 35.879C97.6427 35.4156 97.1829 35.0308 96.6613 34.7472C96.1398 34.4637 95.5669 34.287 94.9762 34.2275C92.8342 34.0385 90.1477 37.0985 84.7702 43.2185C81.9892 46.3865 80.5987 47.966 79.0507 48.2135C78.1861 48.3483 77.301 48.2065 76.5217 47.8085C75.0862 47.0885 74.1367 45.131 72.2242 41.2205L62.1577 20.5925C58.5487 13.199 56.7442 9.5 53.9992 9.5C51.2542 9.5 49.4497 13.199 45.8407 20.5925L35.7742 41.2205C33.8662 45.1355 32.9122 47.0885 31.4767 47.8085C30.6972 48.2059 29.8123 48.3477 28.9477 48.2135C27.3997 47.966 26.0092 46.3865 23.2282 43.2185C17.8507 37.0985 15.1642 34.0385 13.0222 34.2275C12.4315 34.287 11.8586 34.4637 11.3371 34.7472C10.8155 35.0308 10.3558 35.4156 9.98471 35.879C8.51321 37.6565 8.91821 41.963 9.72821 50.567L10.7587 61.529C12.4597 79.583 13.3057 88.6145 18.6337 94.055C23.9482 99.5 31.9222 99.5 47.8792 99.5H60.1147C76.0672 99.5 84.0412 99.5 89.3647 94.055C94.6882 88.61 95.5387 79.583 97.2397 61.529Z" stroke="#B6FFFA" stroke-width="5"/>
<path id="Vector_2" opacity="0.5" d="M50.1563 56.8535C51.8663 53.7845 52.7213 52.25 53.9993 52.25C55.2773 52.25 56.1323 53.78 57.8423 56.8535L58.2833 57.6455C58.7693 58.5185 59.0123 58.9505 59.3903 59.2385C59.7728 59.5265 60.2453 59.6345 61.1903 59.846L62.0453 60.044C65.3663 60.7955 67.0268 61.169 67.4228 62.438C67.8188 63.7115 66.6848 65.0345 64.4213 67.6805L63.8363 68.3645C63.1928 69.116 62.8688 69.4895 62.7248 69.9575C62.5808 70.4255 62.6303 70.925 62.7248 71.9285L62.8148 72.842C63.1568 76.3745 63.3278 78.143 62.2973 78.926C61.2623 79.709 59.7053 78.9935 56.5958 77.5625L55.7948 77.1935C54.9083 76.7885 54.4673 76.5815 53.9993 76.5815C53.5313 76.5815 53.0903 76.7885 52.2038 77.1935L51.4028 77.5625C48.2933 78.998 46.7363 79.709 45.7013 78.926C44.6663 78.143 44.8418 76.3745 45.1838 72.842L45.2738 71.9285C45.3683 70.925 45.4178 70.4255 45.2738 69.9575C45.1298 69.494 44.8058 69.116 44.1623 68.3645L43.5773 67.6805C41.3138 65.0345 40.1798 63.7115 40.5758 62.438C40.9718 61.169 42.6323 60.7955 45.9533 60.044L46.8083 59.846C47.7533 59.6345 48.2258 59.531 48.6083 59.2385C48.9863 58.9505 49.2293 58.5185 49.7153 57.6455L50.1563 56.8535Z" stroke="#B6FFFA" stroke-width="5"/>
</g>
</g>
</svg>
