<svg width="64" height="65" viewBox="0 0 64 65" fill="none" xmlns="http://www.w3.org/2000/svg">
<g id="solar:diploma-verified-line-duotone">
<g id="Group">
<path id="Vector" opacity="0.5" d="M18.6654 48.4946C12.8654 48.4626 9.72403 48.2066 7.67603 46.1559C5.33203 43.8146 5.33203 40.0413 5.33203 32.4999V21.8333C5.33203 14.2919 5.33203 10.5186 7.67603 8.17725C10.0174 5.83325 13.7907 5.83325 21.332 5.83325H42.6654C50.2067 5.83325 53.98 5.83325 56.3214 8.17725C58.6654 10.5186 58.6654 14.2919 58.6654 21.8333V32.4999C58.6654 40.0413 58.6654 43.8146 56.3214 46.1559C54.3747 48.1026 51.444 48.4333 46.1854 48.4893L43.9987 48.4946" stroke="#B6FFFA" stroke-width="3"/>
<path id="Vector_2" opacity="0.5" d="M23.9974 16.5H39.9974M18.6641 25.8333H45.3307" stroke="#B6FFFA" stroke-width="3" stroke-linecap="round"/>
<path id="Vector_3" d="M29.04 37.6865C29.8654 36.9821 30.9149 36.5952 32 36.5952C33.0851 36.5952 34.1346 36.9821 34.96 37.6865C35.688 38.3105 36.5973 38.6865 37.5547 38.7638C38.6352 38.8497 39.6499 39.3178 40.4166 40.0841C41.1834 40.8503 41.6521 41.8646 41.7387 42.9452C41.8133 43.9052 42.192 44.8118 42.8133 45.5425C43.5163 46.3675 43.9023 47.416 43.9023 48.4998C43.9023 49.5837 43.5163 50.6321 42.8133 51.4572C42.1906 52.1882 41.8145 53.0972 41.7387 54.0545C41.6526 55.1359 41.1838 56.1512 40.4164 56.9181C39.6491 57.6849 38.6335 58.1531 37.552 58.2385C36.5956 58.3148 35.6876 58.6909 34.9573 59.3132C34.1323 60.0161 33.0839 60.4022 32 60.4022C30.9161 60.4022 29.8677 60.0161 29.0427 59.3132C28.312 58.6894 27.403 58.3124 26.4453 58.2358C25.3652 58.1493 24.3512 57.681 23.585 56.9148C22.8188 56.1486 22.3505 55.1346 22.264 54.0545C22.1875 53.0968 21.8104 52.1878 21.1867 51.4572C20.4837 50.6321 20.0977 49.5837 20.0977 48.4998C20.0977 47.416 20.4837 46.3675 21.1867 45.5425C21.8104 44.8118 22.1875 43.9028 22.264 42.9452C22.3505 41.8651 22.8188 40.8511 23.585 40.0849C24.3512 39.3187 25.3652 38.8504 26.4453 38.7638C27.4053 38.6865 28.3093 38.3105 29.04 37.6865Z" stroke="#B6FFFA" stroke-width="3"/>
<path id="Vector_4" d="M28 49.0333L30.2853 51.1666L36 45.8333" stroke="#B6FFFA" stroke-width="3" stroke-linecap="round" stroke-linejoin="round"/>
</g>
</g>
</svg>
