<svg width="80" height="80" viewBox="0 0 80 80" fill="none" xmlns="http://www.w3.org/2000/svg">
<g id="carbon:shopping-cart-plus">
<path id="Vector" d="M25 75C27.7614 75 30 72.7614 30 70C30 67.2386 27.7614 65 25 65C22.2386 65 20 67.2386 20 70C20 72.7614 22.2386 75 25 75Z" fill="#B6FFFA"/>
<path id="Vector_2" d="M60 75C62.7614 75 65 72.7614 65 70C65 67.2386 62.7614 65 60 65C57.2386 65 55 67.2386 55 70C55 72.7614 57.2386 75 60 75Z" fill="#B6FFFA"/>
<path id="Vector_3" d="M12.45 7.01C12.3368 6.44347 12.0308 5.93365 11.5842 5.56722C11.1375 5.20078 10.5777 5.00035 10 5H0V10H7.95L17.55 57.99C17.6632 58.5565 17.9692 59.0663 18.4158 59.4328C18.8625 59.7992 19.4223 59.9997 20 60H65V55H22.05L20.05 45H65C65.5687 44.9999 66.1204 44.8059 66.564 44.45C67.0076 44.0941 67.3166 43.5977 67.44 43.0425L73.11 17.5H67.9925L62.995 40H19.05L12.45 7.01Z" fill="#B6FFFA"/>
<path id="Vector_4" d="M45 15V5H40V15H30V20H40V30H45V20H55V15H45Z" fill="#B6FFFA"/>
</g>
</svg>
