<svg width="80" height="80" viewBox="0 0 80 80" fill="none" xmlns="http://www.w3.org/2000/svg">
<g id="carbon:automatic">
<path id="Vector" d="M65 40.0001H55C53.6743 40.0014 52.4033 40.5286 51.4659 41.466C50.5285 42.4034 50.0013 43.6744 50 45.0001V75.0001H55V62.5001H65V75.0001H70V45.0001C69.9987 43.6744 69.4715 42.4034 68.5341 41.466C67.5967 40.5286 66.3257 40.0014 65 40.0001ZM55 57.5001V45.0001H65V57.5001H55ZM40 67.5001C35.4221 67.5018 30.9164 66.3591 26.8926 64.1761C22.8687 61.993 19.4544 58.8387 16.96 55.0001H30V50.0001H10V70.0001H15V60.7876C18.0546 64.4522 21.8771 67.4007 26.1972 69.4247C30.5173 71.4486 35.2293 72.4985 40 72.5001V67.5001ZM50 25.0001H63.04C59.808 20.0302 55.0561 16.2382 49.4929 14.1896C43.9298 12.141 37.8535 11.9455 32.1701 13.6322C26.4868 15.319 21.501 18.7977 17.9561 23.5495C14.4113 28.3014 12.4975 34.0717 12.5 40.0001H7.5C7.5028 33.3182 9.56429 26.7995 13.4039 21.3309C17.2436 15.8624 22.6749 11.7097 28.9587 9.43798C35.2425 7.16623 42.0737 6.88577 48.5227 8.63475C54.9716 10.3837 60.725 14.0772 65 19.2126V10.0001H70V30.0001H50V25.0001Z" fill="#B6FFFA"/>
</g>
</svg>
