<svg width="80" height="80" viewBox="0 0 80 80" fill="none" xmlns="http://www.w3.org/2000/svg">
<g id="carbon:face-wink">
<path id="Vector" d="M40 5C33.0777 5 26.3108 7.05271 20.5551 10.8986C14.7993 14.7444 10.3133 20.2107 7.66423 26.6061C5.01516 33.0015 4.32205 40.0388 5.67253 46.8282C7.02301 53.6175 10.3564 59.8539 15.2513 64.7487C20.1461 69.6436 26.3825 72.977 33.1719 74.3275C39.9612 75.678 46.9985 74.9848 53.3939 72.3358C59.7893 69.6867 65.2556 65.2007 69.1015 59.445C72.9473 53.6892 75 46.9223 75 40C75 30.7174 71.3125 21.815 64.7487 15.2513C58.185 8.68749 49.2826 5 40 5ZM40 70C34.0666 70 28.2664 68.2405 23.3329 64.9441C18.3994 61.6476 14.5543 56.9623 12.2836 51.4805C10.013 45.9987 9.4189 39.9667 10.5765 34.1473C11.734 28.3279 14.5912 22.9824 18.7868 18.7868C22.9824 14.5912 28.3279 11.734 34.1473 10.5764C39.9667 9.41888 45.9987 10.013 51.4805 12.2836C56.9623 14.5542 61.6477 18.3994 64.9441 23.3329C68.2405 28.2664 70 34.0666 70 40C70 47.9565 66.8393 55.5871 61.2132 61.2132C55.5871 66.8393 47.9565 70 40 70Z" fill="#B6FFFA"/>
<path id="Vector_2" d="M51.25 27.5C50.0139 27.5 48.8055 27.8666 47.7777 28.5533C46.7499 29.2401 45.9488 30.2162 45.4758 31.3582C45.0027 32.5003 44.8789 33.7569 45.1201 34.9693C45.3612 36.1817 45.9565 37.2953 46.8306 38.1694C47.7047 39.0435 48.8183 39.6388 50.0307 39.8799C51.2431 40.1211 52.4997 39.9973 53.6418 39.5242C54.7838 39.0512 55.7599 38.2501 56.4467 37.2223C57.1334 36.1945 57.5 34.9861 57.5 33.75C57.5 32.0924 56.8415 30.5027 55.6694 29.3306C54.4973 28.1585 52.9076 27.5 51.25 27.5ZM20 32.5H35V37.5H20V32.5ZM40 60C43.4509 59.9942 46.8416 59.0955 49.8424 57.3914C52.8433 55.6873 55.3521 53.2357 57.125 50.275L52.85 47.775C51.5159 49.9905 49.6315 51.8235 47.38 53.0959C45.1285 54.3683 42.5862 55.0369 40 55.0369C37.4138 55.0369 34.8715 54.3683 32.62 53.0959C30.3685 51.8235 28.4841 49.9905 27.15 47.775L22.875 50.275C24.6479 53.2357 27.1567 55.6873 30.1576 57.3914C33.1584 59.0955 36.5491 59.9942 40 60Z" fill="#B6FFFA"/>
</g>
</svg>
