<svg width="24" height="24" viewBox="0 0 24 24" fill="none" xmlns="http://www.w3.org/2000/svg">
<path opacity="0.1" d="M3.28735 20.8843H2.25373L8.82078 2.63555H9.97914L16.5462 20.8843H15.5126L9.44451 3.89193H9.35541L3.28735 20.8843ZM5.05163 14.0499H13.7483V14.9677H5.05163V14.0499ZM21.0037 2.63555V20.8843H20.0235V2.63555H21.0037Z" fill="white"/>
<path fill-rule="evenodd" clip-rule="evenodd" d="M2.77921 0.0754766C1.86964 0.295483 1.11337 1.0979 0.851839 2.12052C0.761188 2.47505 0.755979 2.66535 0.75817 5.5431C0.76075 8.88487 0.753107 8.79451 1.0513 9.0149C1.30159 9.19986 1.74257 9.11466 1.94422 8.84237C2.04437 8.70717 2.04636 8.65459 2.07032 5.55615C2.09422 2.46317 2.09651 2.40333 2.19928 2.18099C2.36544 1.8216 2.64431 1.57745 3.02195 1.4608C3.33909 1.36284 3.44356 1.36061 7.66199 1.36041C11.7985 1.36026 11.9839 1.35647 12.1276 1.26879C12.4349 1.0814 12.53 0.57021 12.3129 0.272601C12.103 -0.0150771 12.319 -0.00295459 7.4913 0.00147571C3.82364 0.00483495 3.01898 0.0174932 2.77921 0.0754766ZM14.1938 0.0820005C13.9873 0.186575 13.8033 0.449131 13.8033 0.639099C13.8033 0.849319 13.9171 1.0814 14.0925 1.22901L14.2489 1.36061H17.4565C20.5625 1.36061 20.6726 1.36372 20.9288 1.45958C21.2644 1.58519 21.601 1.88007 21.747 2.17661L21.8606 2.40733L21.8849 5.54749C21.9086 8.59203 21.9123 8.69159 22.0067 8.81744C22.1489 9.00697 22.3351 9.10147 22.5665 9.10147C22.8272 9.10147 23.0169 8.98842 23.1483 8.75469C23.2522 8.56988 23.2523 8.56345 23.2342 5.4154C23.2145 1.98401 23.2273 2.14793 22.9295 1.53972C22.7193 1.11037 22.3629 0.710714 21.9459 0.436863C21.279 -0.00120154 21.5312 0.0243089 17.7224 0.00936275C14.5949 -0.00290578 14.3515 0.00210895 14.1938 0.0820005ZM3.76157 2.87957C3.68119 2.93891 3.67662 3.1152 3.68854 5.69354L3.70125 8.44422L6.40324 8.46856C9.40353 8.49559 9.24881 8.47786 9.55786 8.8299C9.69939 8.99105 9.81029 9.26398 9.81087 9.45258C9.81151 9.63486 9.60411 10.0769 9.46181 10.1966C9.09214 10.5076 9.3696 10.4866 5.2835 10.5133L1.55913 10.5377L1.5455 11.1882C1.53634 11.6263 1.55022 11.8608 1.588 11.9063C1.67349 12.0093 8.80744 12.0043 9.29569 11.9009C10.0275 11.7459 10.6569 11.291 11.017 10.6567C11.5446 9.7277 11.3789 8.54812 10.6177 7.81361L10.3173 7.52384L10.6171 7.22939C11.3741 6.48622 11.5205 5.40947 11.0087 4.34975C10.7979 3.91324 10.5063 3.59012 10.061 3.29937C9.35947 2.8414 9.43011 2.85055 6.45193 2.83225C4.37125 2.81949 3.83007 2.82898 3.76157 2.87957ZM13.0481 2.87859C13.0346 2.91394 13.0292 4.96936 13.0361 7.44619L13.0487 11.9495H13.7546H14.4605L14.4674 8.15211L14.4743 4.35471H16.0253C17.5069 4.35471 17.5864 4.35939 17.8014 4.45875C18.1344 4.61274 18.3915 4.87067 18.5777 5.2377C18.7256 5.52884 18.7435 5.60678 18.7437 5.95751C18.7439 6.2131 18.7128 6.44061 18.6549 6.60735C18.49 7.08276 18.0734 7.49171 17.5926 7.65018C17.5033 7.67963 17.1017 7.71697 16.7 7.73318L15.9698 7.76264L15.9556 8.13668L15.9414 8.51073L16.5425 9.13472C17.1709 9.78699 18.5817 11.279 18.9856 11.7183L19.2206 11.9739H20.7865C21.9394 11.9739 22.3677 11.9585 22.4107 11.9154C22.4722 11.854 22.4965 10.7385 22.4396 10.5903C22.4138 10.5229 22.2559 10.5133 21.1701 10.5133H19.9301L19.7999 10.3764C19.7284 10.3011 19.3795 9.94249 19.0247 9.57955C18.6699 9.21665 18.3798 8.90035 18.3799 8.87669C18.3799 8.85308 18.4783 8.79324 18.5985 8.74383C18.8918 8.62324 19.3999 8.22495 19.6186 7.94428C20.3676 6.98281 20.4833 5.69992 19.9259 4.53411C19.7058 4.0737 19.0665 3.43306 18.5865 3.19198C17.9097 2.85196 17.9257 2.85371 15.3731 2.83302C13.4997 2.81783 13.068 2.82631 13.0481 2.87859ZM8.95354 4.39025C9.2049 4.46537 9.5416 4.79526 9.67772 5.09978C9.99456 5.80868 9.60913 6.69231 8.88037 6.92765C8.66805 6.99624 8.37531 7.00803 6.88449 7.00803H5.13745V5.6692V4.33037H6.9453C8.23471 4.33037 8.8106 4.34756 8.95354 4.39025ZM21.0718 13.3348C20.6111 13.3494 20.214 13.3833 20.1894 13.4101C20.1646 13.4368 19.8534 13.7874 19.4977 14.189C19.142 14.5907 18.8377 14.9302 18.8215 14.9436C18.8053 14.957 18.5968 15.187 18.3583 15.4548C18.1198 15.7226 17.691 16.1936 17.4054 16.5015C17.1197 16.8095 16.4511 17.5434 15.9195 18.1325C15.3879 18.7216 14.8619 19.3021 14.7505 19.4226C13.4471 20.8328 13.303 21.0105 13.3668 21.1297C13.4165 21.2226 13.491 21.2243 16.9088 21.2121L20.4001 21.1996V20.4693V19.7391L18.4405 19.7264C17.3627 19.7193 16.481 19.7002 16.481 19.6838C16.481 19.651 17.1488 18.8997 17.6219 18.4002C17.7868 18.2262 18.063 17.9297 18.2358 17.7414C18.9133 17.0032 19.689 16.1675 20.0858 15.7483C20.3146 15.5066 20.6362 15.1664 20.8005 14.9923C21.5696 14.1776 21.9338 13.8119 21.9353 13.8526C21.9362 13.8769 21.9355 14.4069 21.9337 15.0303C21.9301 16.2722 21.9548 16.406 22.2225 16.5966C22.4358 16.7485 22.5845 16.7631 22.8265 16.6561C23.1896 16.4954 23.1994 16.4522 23.1994 15.0144C23.1994 13.5997 23.19 13.5579 22.8322 13.3847C22.6184 13.2812 22.6925 13.2833 21.0718 13.3348ZM3.70938 13.3695C3.69151 13.3873 3.67691 14.1314 3.67691 15.0229C3.67691 16.9905 3.6104 16.8293 4.40718 16.7936C5.0818 16.7635 5.08876 16.7568 5.08876 16.1514C5.08876 15.9156 5.10736 15.7226 5.13004 15.7226C5.15273 15.7226 5.29922 15.8595 5.45555 16.0269C5.61188 16.1942 5.8848 16.4845 6.06206 16.6719C6.43202 17.0632 7.82673 18.5522 8.15453 18.9059C8.27575 19.0367 8.62808 19.4091 8.93747 19.7335C9.24681 20.0579 9.64958 20.4876 9.83249 20.6884C10.3452 21.2514 10.2956 21.224 10.8024 21.2232C11.0471 21.2228 11.2749 21.205 11.3085 21.1836C11.3569 21.1529 11.3671 20.3343 11.3572 17.2531L11.3447 13.3614L10.6914 13.3477C10.332 13.3402 10.0185 13.3536 9.99461 13.3775C9.97017 13.402 9.95313 14.542 9.95561 15.9882C9.95834 17.6037 9.94271 18.5492 9.9134 18.5386C9.8878 18.5294 9.64067 18.2762 9.36429 17.9759C8.78324 17.3444 7.97624 16.4821 6.86828 15.3089C5.72877 14.1023 5.51689 13.8764 5.25838 13.5926L5.02557 13.337H4.38371C4.03065 13.337 3.7272 13.3516 3.70938 13.3695ZM13.0457 13.4003C13.0323 13.4352 13.0275 13.7583 13.0351 14.1184L13.0487 14.7732L14.9999 14.7859L16.951 14.7986L17.3176 14.3965C17.5192 14.1753 17.7965 13.8738 17.9337 13.7265C18.0709 13.5792 18.1836 13.4314 18.184 13.3979C18.1854 13.3066 13.0807 13.3091 13.0457 13.4003ZM4.35401 18.7289C4.15197 18.9364 3.91697 19.1891 3.83177 19.2904L3.67691 19.4747V20.2909C3.67691 20.8608 3.69453 21.1247 3.73533 21.1655C3.77447 21.2047 3.99229 21.2239 4.39505 21.2239H4.99636L5.0669 21.0551C5.12196 20.9233 5.13745 20.6253 5.13745 19.6959C5.13745 19.0412 5.12416 18.4709 5.10789 18.4286C5.08837 18.3777 5.01768 18.3515 4.89986 18.3515C4.74125 18.3515 4.68035 18.3936 4.35401 18.7289Z" fill="white" fill-opacity="0.2"/>
<path fill-rule="evenodd" clip-rule="evenodd" d="M1.21561 13.3397C1.13431 13.3636 1.00286 13.4509 0.923501 13.5337L0.779297 13.6843V16.2978C0.779297 17.7353 0.791517 19.5796 0.806463 20.3963C0.837037 22.0682 0.843123 22.1021 1.22242 22.7162C1.5971 23.3228 2.23409 23.8047 2.84839 23.9461C2.98782 23.9782 4.27096 23.997 6.37802 23.9977C9.43503 23.9987 9.70138 23.9923 9.85551 23.9137C10.3531 23.66 10.3497 23.062 9.84923 22.8016C9.74018 22.7448 9.1658 22.7332 6.47963 22.7332C3.36693 22.7332 3.23149 22.7294 2.98276 22.6363C2.64275 22.5091 2.34903 22.2367 2.19495 21.9055L2.07041 21.6378L2.06983 17.7186C2.06934 14.0856 2.06306 13.7871 1.98414 13.6292C1.85985 13.3804 1.51663 13.2511 1.21561 13.3397ZM22.3973 18.7278C22.223 18.7721 22.0663 18.9051 21.9992 19.0658C21.9494 19.1847 21.9327 19.5128 21.9327 20.3685C21.9327 21.4173 21.9241 21.5355 21.8288 21.7902C21.7028 22.1269 21.436 22.4279 21.1205 22.589L20.886 22.7088L16.4452 22.7227L12.0044 22.7366L11.8324 22.8988C11.6726 23.0495 11.6603 23.0819 11.6603 23.353C11.6603 23.6065 11.6779 23.6626 11.7942 23.779C11.8678 23.8527 11.9788 23.9324 12.0408 23.956C12.2107 24.0208 20.7003 24.0112 21.0175 23.9458C21.3804 23.8711 21.9146 23.5994 22.2147 23.337C22.5636 23.0317 22.8923 22.5557 23.0445 22.1351C23.1674 21.7955 23.1722 21.7407 23.1892 20.487C23.2066 19.1968 23.2061 19.1894 23.0931 19.0153C23.0265 18.9129 22.9034 18.8097 22.7959 18.7663C22.6076 18.6904 22.562 18.686 22.3973 18.7278Z" fill="white" fill-opacity="0.2"/>
<path fill-rule="evenodd" clip-rule="evenodd" d="M3.76176 2.87947C3.68139 2.93882 3.67681 3.1151 3.68874 5.69344L3.70144 8.44413L6.40344 8.46847C9.40372 8.49549 9.249 8.47777 9.55805 8.82981C9.69958 8.99095 9.81048 9.26388 9.81107 9.45248C9.8117 9.63476 9.6043 10.0768 9.462 10.1965C9.09234 10.5075 9.36979 10.4865 5.28369 10.5132L1.55932 10.5376L1.54569 11.1881C1.53654 11.6262 1.55041 11.8607 1.58819 11.9062C1.67368 12.0092 8.80763 12.0042 9.29589 11.9008C10.0277 11.7458 10.6571 11.2909 11.0172 10.6566C11.5448 9.7276 11.3791 8.54802 10.6179 7.81351L10.3175 7.52374L10.6173 7.2293C11.3743 6.48613 11.5207 5.40937 11.0089 4.34965C10.798 3.91314 10.5065 3.59002 10.0612 3.29928C9.35966 2.8413 9.4303 2.85045 6.45212 2.83215C4.37144 2.81939 3.83026 2.82889 3.76176 2.87947ZM13.0483 2.8785C13.0348 2.91384 13.0294 4.96926 13.0363 7.44609L13.0489 11.9494H13.7548H14.4607L14.4676 8.15202L14.4745 4.35461H16.0255C17.5071 4.35461 17.5866 4.35929 17.8016 4.45865C18.1346 4.61264 18.3917 4.87057 18.5779 5.23761C18.7257 5.52874 18.7437 5.60669 18.7439 5.95741C18.7441 6.21301 18.713 6.44051 18.6551 6.60725C18.4902 7.08266 18.0736 7.49161 17.5928 7.65008C17.5035 7.67953 17.1019 7.71687 16.7002 7.73309L15.97 7.76254L15.9558 8.13659L15.9416 8.51063L16.5427 9.13462C17.1711 9.7869 18.5819 11.2789 18.9858 11.7182L19.2208 11.9738H20.7867C21.9396 11.9738 22.3679 11.9584 22.4109 11.9153C22.4724 11.8539 22.4967 10.7384 22.4398 10.5902C22.4139 10.5228 22.2561 10.5132 21.1702 10.5132H19.9303L19.8001 10.3763C19.7286 10.301 19.3797 9.9424 19.0249 9.57945C18.6701 9.21656 18.3799 8.90025 18.38 8.87659C18.3801 8.85298 18.4785 8.79315 18.5987 8.74373C18.892 8.62314 19.4001 8.22485 19.6188 7.94418C20.3678 6.98271 20.4835 5.69982 19.9261 4.53402C19.706 4.07361 19.0667 3.43297 18.5867 3.19188C17.9099 2.85187 17.9259 2.85362 15.3733 2.83293C13.4998 2.81774 13.0682 2.82621 13.0483 2.8785ZM8.95373 4.39016C9.20509 4.46528 9.54179 4.79516 9.67791 5.09968C9.99475 5.80858 9.60932 6.69221 8.88056 6.92755C8.66824 6.99615 8.3755 7.00793 6.88469 7.00793H5.13764V5.6691V4.33027H6.94549C8.2349 4.33027 8.81079 4.34746 8.95373 4.39016ZM21.072 13.3347C20.6113 13.3493 20.2142 13.3832 20.1895 13.41C20.1648 13.4367 19.8536 13.7873 19.4979 14.1889C19.1421 14.5906 18.8379 14.9301 18.8217 14.9435C18.8054 14.9569 18.597 15.187 18.3585 15.4547C18.12 15.7225 17.6912 16.1935 17.4056 16.5014C17.1199 16.8094 16.4513 17.5433 15.9197 18.1324C15.3881 18.7215 14.8621 19.302 14.7507 19.4225C13.4473 20.8327 13.3032 21.0104 13.367 21.1296C13.4167 21.2225 13.4912 21.2242 16.909 21.212L20.4003 21.1995V20.4692V19.739L18.4407 19.7263C17.3629 19.7192 16.4811 19.7001 16.4811 19.6837C16.4811 19.6509 17.149 18.8996 17.6221 18.4001C17.787 18.2261 18.0632 17.9297 18.236 17.7413C18.9135 17.0031 19.6892 16.1674 20.0859 15.7482C20.3148 15.5065 20.6364 15.1663 20.8007 14.9922C21.5698 14.1775 21.934 13.8118 21.9355 13.8525C21.9364 13.8768 21.9357 14.4068 21.9339 15.0302C21.9303 16.2721 21.955 16.4059 22.2227 16.5965C22.436 16.7484 22.5847 16.763 22.8267 16.656C23.1898 16.4954 23.1996 16.4521 23.1996 15.0143C23.1996 13.5996 23.1902 13.5578 22.8323 13.3846C22.6186 13.2811 22.6927 13.2832 21.072 13.3347ZM3.70957 13.3694C3.69171 13.3872 3.6771 14.1313 3.6771 15.0228C3.6771 16.9904 3.6106 16.8292 4.40737 16.7935C5.08199 16.7634 5.08895 16.7567 5.08895 16.1513C5.08895 15.9155 5.10755 15.7225 5.13024 15.7225C5.15293 15.7225 5.29942 15.8594 5.45574 16.0268C5.61207 16.1941 5.885 16.4844 6.06226 16.6718C6.43221 17.0631 7.82693 18.5521 8.15472 18.9058C8.27594 19.0366 8.62827 19.409 8.93766 19.7334C9.24701 20.0578 9.64977 20.4875 9.83268 20.6883C10.3454 21.2513 10.2958 21.2239 10.8026 21.2231C11.0473 21.2227 11.2751 21.2049 11.3087 21.1835C11.3571 21.1528 11.3673 20.3342 11.3574 17.253L11.3449 13.3613L10.6916 13.3476C10.3322 13.3401 10.0187 13.3535 9.9948 13.3774C9.97036 13.4019 9.95332 14.5419 9.95581 15.9881C9.95853 17.6036 9.9429 18.5491 9.9136 18.5385C9.88799 18.5293 9.64087 18.2761 9.36448 17.9758C8.78343 17.3443 7.97644 16.482 6.86847 15.3088C5.72896 14.1022 5.51709 13.8763 5.25857 13.5925L5.02576 13.3369H4.3839C4.03084 13.3369 3.72739 13.3515 3.70957 13.3694ZM13.0459 13.4002C13.0325 13.4351 13.0277 13.7582 13.0353 14.1183L13.0489 14.7731L15.0001 14.7858L16.9512 14.7985L17.3178 14.3964C17.5194 14.1752 17.7967 13.8737 17.9339 13.7264C18.0711 13.5791 18.1838 13.4313 18.1842 13.3978C18.1855 13.3065 13.0809 13.309 13.0459 13.4002ZM4.35421 18.7288C4.15216 18.9363 3.91717 19.189 3.83197 19.2903L3.6771 19.4746V20.2908C3.6771 20.8607 3.69473 21.1246 3.73552 21.1654C3.77467 21.2046 3.99248 21.2238 4.39525 21.2238H4.99655L5.06709 21.055C5.12216 20.9232 5.13764 20.6252 5.13764 19.6958C5.13764 19.0411 5.12435 18.4708 5.10809 18.4285C5.08856 18.3776 5.01787 18.3515 4.90006 18.3515C4.74144 18.3515 4.68054 18.3935 4.35421 18.7288Z" fill="white"/>
<rect x="21.9355" y="13.291" width="1.2658" height="3.50529" rx="0.6329" fill="#3B3A3A"/>
</svg>
