<svg width="80" height="80" viewBox="0 0 80 80" fill="none" xmlns="http://www.w3.org/2000/svg">
<g id="solar:crown-star-line-duotone">
<g id="Group">
<path id="Vector" d="M72.0307 45.2065L72.7974 37.0865C73.3974 30.7132 73.6974 27.5232 72.6041 26.2065C72.3292 25.8632 71.9886 25.5782 71.6023 25.3682C71.216 25.1581 70.7916 25.0272 70.3541 24.9832C68.7674 24.8432 66.7774 27.1098 62.7941 31.6432C60.7341 33.9898 59.7041 35.1598 58.5574 35.3432C57.9169 35.443 57.2613 35.338 56.6841 35.0432C55.6207 34.5098 54.9174 33.0598 53.5007 30.1632L46.0441 14.8832C43.3707 9.4065 42.0341 6.6665 40.0007 6.6665C37.9674 6.6665 36.6307 9.4065 33.9574 14.8832L26.5007 30.1632C25.0874 33.0632 24.3807 34.5098 23.3174 35.0432C22.74 35.3376 22.0845 35.4425 21.4441 35.3432C20.2974 35.1598 19.2674 33.9898 17.2074 31.6432C13.2241 27.1098 11.2341 24.8432 9.64739 24.9832C9.20984 25.0272 8.78548 25.1581 8.39914 25.3682C8.0128 25.5782 7.67224 25.8632 7.39739 26.2065C6.30739 27.5232 6.60739 30.7132 7.20739 37.0865L7.97072 45.2065C9.23072 58.5798 9.85738 65.2698 13.8041 69.2998C17.7407 73.3332 23.6474 73.3332 35.4674 73.3332H44.5307C56.3474 73.3332 62.2541 73.3332 66.1974 69.2998C70.1407 65.2665 70.7707 58.5798 72.0307 45.2065Z" stroke="#B6FFFA" stroke-width="5"/>
<path id="Vector_2" opacity="0.5" d="M37.1543 41.743C38.4209 39.4697 39.0543 38.333 40.0009 38.333C40.9476 38.333 41.5809 39.4663 42.8476 41.743L43.1743 42.3297C43.5343 42.9763 43.7143 43.2963 43.9943 43.5097C44.2776 43.723 44.6276 43.803 45.3276 43.9597L45.9609 44.1063C48.4209 44.663 49.6509 44.9397 49.9443 45.8797C50.2376 46.823 49.3976 47.803 47.7209 49.763L47.2876 50.2697C46.8109 50.8263 46.5709 51.103 46.4643 51.4497C46.3576 51.7963 46.3943 52.1663 46.4643 52.9097L46.5309 53.5863C46.7843 56.203 46.9109 57.513 46.1476 58.093C45.3809 58.673 44.2276 58.143 41.9243 57.083L41.3309 56.8097C40.6743 56.5097 40.3476 56.3563 40.0009 56.3563C39.6543 56.3563 39.3276 56.5097 38.6709 56.8097L38.0776 57.083C35.7743 58.1463 34.6209 58.673 33.8543 58.093C33.0876 57.513 33.2176 56.203 33.4709 53.5863L33.5376 52.9097C33.6076 52.1663 33.6443 51.7963 33.5376 51.4497C33.4309 51.1063 33.1909 50.8263 32.7143 50.2697L32.2809 49.763C30.6043 47.803 29.7643 46.823 30.0576 45.8797C30.3509 44.9397 31.5809 44.663 34.0409 44.1063L34.6743 43.9597C35.3743 43.803 35.7243 43.7263 36.0076 43.5097C36.2876 43.2963 36.4676 42.9763 36.8276 42.3297L37.1543 41.743Z" stroke="#B6FFFA" stroke-width="5"/>
</g>
</g>
</svg>
