<svg width="80" height="80" viewBox="0 0 80 80" fill="none" xmlns="http://www.w3.org/2000/svg">
<g id="solar:shield-user-line-duotone">
<g id="Group">
<path id="Vector" opacity="0.5" d="M10 34.7232C10 24.0632 10 18.7332 11.26 16.9398C12.5167 15.1498 17.5267 13.4332 27.55 10.0032L29.46 9.34984C34.6833 7.55984 37.2933 6.6665 40 6.6665C42.7033 6.6665 45.3167 7.55984 50.54 9.34984L52.45 10.0032C62.4733 13.4332 67.4833 15.1498 68.74 16.9398C70 18.7332 70 24.0665 70 34.7232V39.9698C70 58.7632 55.87 67.8865 47.0033 71.7565C44.6 72.8065 43.4 73.3332 40 73.3332C36.6 73.3332 35.4 72.8065 32.9967 71.7565C24.13 67.8832 10 58.7665 10 39.9698V34.7232Z" stroke="#B6FFFA" stroke-width="5"/>
<path id="Vector_2" d="M40.0007 36.6663C43.6825 36.6663 46.6673 33.6816 46.6673 29.9997C46.6673 26.3178 43.6825 23.333 40.0007 23.333C36.3188 23.333 33.334 26.3178 33.334 29.9997C33.334 33.6816 36.3188 36.6663 40.0007 36.6663Z" stroke="#B6FFFA" stroke-width="5"/>
<path id="Vector_3" d="M53.3327 49.9997C53.3327 53.683 53.3327 56.6663 39.9993 56.6663C26.666 56.6663 26.666 53.683 26.666 49.9997C26.666 46.3163 32.6327 43.333 39.9993 43.333C47.366 43.333 53.3327 46.3163 53.3327 49.9997Z" stroke="#B6FFFA" stroke-width="5"/>
</g>
</g>
</svg>
