<svg width="80" height="80" viewBox="0 0 80 80" fill="none" xmlns="http://www.w3.org/2000/svg">
<g id="solar:sale-square-line-duotone">
<g id="Group">
<path id="Vector" d="M30 50L50 30" stroke="#B6FFFA" stroke-width="5" stroke-linecap="round"/>
<path id="Vector_2" d="M51.6654 48.333C51.6654 49.2171 51.3142 50.0649 50.6891 50.69C50.0639 51.3152 49.2161 51.6663 48.332 51.6663C47.448 51.6663 46.6001 51.3152 45.975 50.69C45.3499 50.0649 44.9987 49.2171 44.9987 48.333C44.9987 47.449 45.3499 46.6011 45.975 45.976C46.6001 45.3509 47.448 44.9997 48.332 44.9997C49.2161 44.9997 50.0639 45.3509 50.6891 45.976C51.3142 46.6011 51.6654 47.449 51.6654 48.333ZM34.9987 31.6663C34.9987 32.5504 34.6475 33.3982 34.0224 34.0234C33.3973 34.6485 32.5494 34.9997 31.6654 34.9997C30.7813 34.9997 29.9335 34.6485 29.3083 34.0234C28.6832 33.3982 28.332 32.5504 28.332 31.6663C28.332 30.7823 28.6832 29.9344 29.3083 29.3093C29.9335 28.6842 30.7813 28.333 31.6654 28.333C32.5494 28.333 33.3973 28.6842 34.0224 29.3093C34.6475 29.9344 34.9987 30.7823 34.9987 31.6663Z" fill="#B6FFFA"/>
<path id="Vector_3" opacity="0.5" d="M6.66602 39.9998C6.66602 24.2865 6.66602 16.4298 11.546 11.5465C16.4327 6.6665 24.286 6.6665 39.9993 6.6665C55.7127 6.6665 63.5693 6.6665 68.4493 11.5465C73.3327 16.4332 73.3327 24.2865 73.3327 39.9998C73.3327 55.7132 73.3327 63.5698 68.4493 68.4498C63.5727 73.3332 55.7127 73.3332 39.9993 73.3332C24.286 73.3332 16.4293 73.3332 11.546 68.4498C6.66602 63.5732 6.66602 55.7132 6.66602 39.9998Z" stroke="#B6FFFA" stroke-width="5"/>
</g>
</g>
</svg>
