<svg width="80" height="80" viewBox="0 0 80 80" fill="none" xmlns="http://www.w3.org/2000/svg">
<g id="solar:gallery-line-duotone">
<g id="Group">
<path id="Vector" d="M6.66602 39.9998C6.66602 24.2865 6.66602 16.4298 11.546 11.5465C16.4327 6.6665 24.286 6.6665 39.9993 6.6665C55.7127 6.6665 63.5693 6.6665 68.4493 11.5465C73.3327 16.4332 73.3327 24.2865 73.3327 39.9998C73.3327 55.7132 73.3327 63.5698 68.4493 68.4498C63.5727 73.3332 55.7127 73.3332 39.9993 73.3332C24.286 73.3332 16.4293 73.3332 11.546 68.4498C6.66602 63.5732 6.66602 55.7132 6.66602 39.9998Z" stroke="#B6FFFA" stroke-width="5"/>
<path id="Vector_2" opacity="0.5" d="M53.3327 33.3333C57.0146 33.3333 59.9993 30.3486 59.9993 26.6667C59.9993 22.9848 57.0146 20 53.3327 20C49.6508 20 46.666 22.9848 46.666 26.6667C46.666 30.3486 49.6508 33.3333 53.3327 33.3333Z" stroke="#B6FFFA" stroke-width="5"/>
<path id="Vector_3" opacity="0.5" d="M6.66602 41.6665L12.506 36.5565C13.9698 35.2767 15.8652 34.6009 17.8084 34.6659C19.7517 34.7309 21.5977 35.5318 22.9727 36.9065L37.2727 51.2065C38.3824 52.3159 39.8479 52.9984 41.4112 53.1338C42.9745 53.2691 44.5355 52.8487 45.8193 51.9465L46.816 51.2465C48.668 49.9458 50.9064 49.3117 53.1654 49.4479C55.4244 49.5842 57.5704 50.4826 59.2527 51.9965L69.9993 61.6665" stroke="#B6FFFA" stroke-width="5" stroke-linecap="round"/>
</g>
</g>
</svg>
