<svg width="80" height="80" viewBox="0 0 80 80" fill="none" xmlns="http://www.w3.org/2000/svg">
<g id="solar:file-smile-line-duotone">
<g id="Group">
<path id="Vector" d="M46.666 70.8334H33.3327V75.8334H46.666V70.8334ZM9.16602 46.6667V33.3334H4.16602V46.6667H9.16602ZM70.8327 45.21V46.6667H75.8327V45.21H70.8327ZM49.636 15.37L62.8327 27.2467L66.176 23.5267L52.9827 11.65L49.636 15.37ZM75.8327 45.21C75.8327 39.58 75.8827 36.0134 74.466 32.8267L69.896 34.8634C70.7827 36.8567 70.8327 39.14 70.8327 45.21H75.8327ZM62.8327 27.2467C67.3427 31.3067 69.0094 32.8734 69.896 34.8634L74.466 32.8267C73.046 29.6367 70.3627 27.2934 66.176 23.5267L62.8327 27.2467ZM33.4327 9.16669C38.706 9.16669 40.696 9.20669 42.466 9.88669L44.2593 5.22002C41.4193 4.12669 38.326 4.16669 33.4327 4.16669V9.16669ZM52.9827 11.6534C49.3627 8.39669 47.0993 6.30669 44.2593 5.22002L42.4694 9.88669C44.2427 10.5667 45.736 11.86 49.636 15.37L52.9827 11.6534ZM33.3327 70.8334C26.976 70.8334 22.4627 70.8267 19.0327 70.3667C15.6827 69.9167 13.7494 69.07 12.3394 67.66L8.80602 71.1934C11.2994 73.6934 14.4627 74.7967 18.3694 75.3234C22.2027 75.84 27.1194 75.8334 33.3327 75.8334V70.8334ZM4.16602 46.6667C4.16602 52.88 4.15935 57.7934 4.67602 61.63C5.20269 65.5367 6.30935 68.7 8.80269 71.1967L12.336 67.6634C10.9294 66.25 10.0827 64.3167 9.63269 60.9634C9.17269 57.54 9.16602 53.0234 9.16602 46.6667H4.16602ZM46.666 75.8334C52.8794 75.8334 57.7927 75.84 61.6294 75.3234C65.536 74.7967 68.6993 73.69 71.196 71.1967L67.6627 67.6634C66.2494 69.07 64.316 69.9167 60.9627 70.3667C57.5394 70.8267 53.0227 70.8334 46.666 70.8334V75.8334ZM70.8327 46.6667C70.8327 53.0234 70.826 57.54 70.366 60.9667C69.916 64.3167 69.0694 66.25 67.6594 67.66L71.1927 71.1934C73.6927 68.7 74.796 65.5367 75.3227 61.63C75.8394 57.7967 75.8327 52.88 75.8327 46.6667H70.8327ZM9.16602 33.3334C9.16602 26.9767 9.17269 22.4634 9.63269 19.0334C10.0827 15.6834 10.9294 13.75 12.3394 12.34L8.80602 8.80669C6.30602 11.3 5.20269 14.4634 4.67602 18.37C4.15935 22.2034 4.16602 27.12 4.16602 33.3334H9.16602ZM33.4327 4.16669C27.1827 4.16669 22.246 4.16002 18.396 4.67669C14.4727 5.20336 11.2994 6.31002 8.80269 8.80336L12.336 12.3367C13.7494 10.93 15.686 10.0834 19.0594 9.63336C22.5027 9.17336 27.0427 9.16669 33.4327 9.16669V4.16669Z" fill="#B6FFFA"/>
<path id="Vector_2" opacity="0.5" d="M43.332 8.3335V16.6668C43.332 24.5235 43.332 28.4535 45.772 30.8935C48.212 33.3335 52.142 33.3335 59.9987 33.3335H73.332" stroke="#B6FFFA" stroke-width="5"/>
<path id="Vector_3" opacity="0.5" d="M56.6654 53.3335C58.5063 53.3335 59.9987 51.0949 59.9987 48.3335C59.9987 45.5721 58.5063 43.3335 56.6654 43.3335C54.8244 43.3335 53.332 45.5721 53.332 48.3335C53.332 51.0949 54.8244 53.3335 56.6654 53.3335Z" fill="#B6FFFA"/>
<path id="Vector_4" opacity="0.5" d="M30 58.3335C32.9613 60.3079 36.4408 61.3615 40 61.3615C43.5592 61.3615 47.0387 60.3079 50 58.3335" stroke="#B6FFFA" stroke-width="5" stroke-linecap="round" stroke-linejoin="round"/>
<path id="Vector_5" opacity="0.5" d="M23.3333 53.3335C25.1743 53.3335 26.6667 51.0949 26.6667 48.3335C26.6667 45.5721 25.1743 43.3335 23.3333 43.3335C21.4924 43.3335 20 45.5721 20 48.3335C20 51.0949 21.4924 53.3335 23.3333 53.3335Z" fill="#B6FFFA"/>
</g>
</g>
</svg>
