<svg width="80" height="80" viewBox="0 0 80 80" fill="none" xmlns="http://www.w3.org/2000/svg">
<g id="solar:server-square-update-line-duotone">
<g id="Group">
<path id="Vector" opacity="0.5" d="M43.3327 72.5C43.9957 72.5 44.6316 72.2366 45.1004 71.7678C45.5693 71.2989 45.8327 70.6631 45.8327 70C45.8327 69.337 45.5693 68.7011 45.1004 68.2322C44.6316 67.7634 43.9957 67.5 43.3327 67.5V72.5ZM70.8327 43.3333C70.8327 43.9964 71.0961 44.6323 71.5649 45.1011C72.0338 45.5699 72.6696 45.8333 73.3327 45.8333C73.9957 45.8333 74.6316 45.5699 75.1005 45.1011C75.5693 44.6323 75.8327 43.9964 75.8327 43.3333H70.8327ZM33.3327 12.5H46.666V7.5H33.3327V12.5ZM9.16602 43.3333V40H4.16602V43.3333H9.16602ZM9.16602 40V36.6667H4.16602V40H9.16602ZM43.3327 67.5H33.3327V72.5H43.3327V67.5ZM70.8327 36.6667V40H75.8327V36.6667H70.8327ZM4.16602 43.3333C4.16602 49.5467 4.15935 54.46 4.67602 58.2967C5.20269 62.2033 6.30935 65.3667 8.80269 67.8633L12.336 64.33C10.9294 62.9167 10.0827 60.9833 9.63269 57.63C9.17269 54.2067 9.16602 49.69 9.16602 43.3333H4.16602ZM33.3327 67.5C26.976 67.5 22.4627 67.4933 19.0327 67.0333C15.6827 66.5833 13.7494 65.7367 12.3394 64.3267L8.80602 67.86C11.2994 70.36 14.4627 71.4633 18.3694 71.99C22.2027 72.5067 27.1194 72.5 33.3327 72.5V67.5ZM46.666 12.5C53.0227 12.5 57.5394 12.5067 60.966 12.9667C64.316 13.4167 66.2494 14.2633 67.6594 15.6733L71.1927 12.14C68.6994 9.64 65.536 8.53667 61.6294 8.01C57.796 7.49334 52.8794 7.5 46.666 7.5V12.5ZM75.8327 36.6667C75.8327 30.4533 75.8394 25.54 75.3227 21.7033C74.796 17.7967 73.6894 14.6333 71.196 12.1367L67.6627 15.67C69.0694 17.0833 69.916 19.0167 70.366 22.37C70.826 25.7967 70.8327 30.31 70.8327 36.6667H75.8327ZM33.3327 7.5C27.1194 7.5 22.206 7.49334 18.3694 8.01C14.4627 8.53667 11.2994 9.64334 8.80269 12.1367L12.336 15.67C13.7494 14.2633 15.6827 13.4167 19.036 12.9667C22.4627 12.5067 26.976 12.5 33.3327 12.5V7.5ZM9.16602 36.6667C9.16602 30.31 9.17269 25.7967 9.63269 22.3667C10.0827 19.0167 10.9294 17.0833 12.3394 15.6733L8.80602 12.14C6.30602 14.6333 5.20269 17.7967 4.67602 21.7033C4.15935 25.5367 4.16602 30.4533 4.16602 36.6667H9.16602ZM6.66602 42.5H73.3327V37.5H6.66602V42.5ZM70.8327 40V43.3333H75.8327V40H70.8327Z" fill="#B6FFFA"/>
<path id="Vector_2" d="M45 24.9998H60M20 58.3332V51.6665M20 28.3332V21.6665M30 58.3332V51.6665M30 28.3332V21.6665" stroke="#B6FFFA" stroke-width="5" stroke-linecap="round"/>
<path id="Vector_3" d="M51.9459 60L50.3193 61.9C51.2559 62.7 52.6359 62.7 53.5726 61.9L51.9459 60ZM55.5193 60.2333C56.0232 59.8024 56.3352 59.1889 56.3868 58.5278C56.4384 57.8667 56.2252 57.2122 55.7943 56.7083C55.3633 56.2044 54.7498 55.8924 54.0887 55.8408C53.4277 55.7892 52.7732 56.0024 52.2693 56.4333L55.5193 60.2333ZM51.6259 56.4333C51.122 56.0019 50.4674 55.7883 49.806 55.8396C49.1446 55.8909 48.5307 56.2028 48.0993 56.7067C47.6678 57.2106 47.4543 57.8652 47.5055 58.5266C47.5568 59.188 47.8687 59.8019 48.3726 60.2333L51.6259 56.4333ZM67.9626 55.45C68.3472 55.9902 68.9306 56.3554 69.5844 56.4654C70.2383 56.5755 70.9091 56.4212 71.4493 56.0367C71.9894 55.6521 72.3547 55.0687 72.4647 54.4148C72.5747 53.761 72.4205 53.0902 72.0359 52.55L67.9626 55.45ZM61.6826 47.5C55.3026 47.5 49.4493 52 49.4493 58.3333H54.4493C54.4493 55.4633 57.3059 52.5 61.6826 52.5V47.5ZM49.4493 58.3333V60H54.4493V58.3333H49.4493ZM53.5726 61.9L55.5193 60.2333L52.2693 56.4333L50.3193 58.1L53.5726 61.9ZM53.5726 58.1L51.6259 56.4333L48.3726 60.2333L50.3193 61.9L53.5726 58.1ZM72.0359 52.55C69.8159 49.4333 65.9393 47.5 61.6826 47.5V52.5C64.4693 52.5 66.7626 53.7667 67.9626 55.45L72.0359 52.55ZM71.3826 60L73.0126 58.1C72.5595 57.7118 71.9826 57.4984 71.3859 57.4984C70.7893 57.4984 70.2123 57.7118 69.7593 58.1L71.3826 60ZM67.8126 59.7667C67.3087 60.1976 66.9966 60.8111 66.945 61.4722C66.8935 62.1333 67.1066 62.7878 67.5376 63.2917C67.9686 63.7956 68.5821 64.1076 69.2431 64.1592C69.9042 64.2108 70.5587 63.9976 71.0626 63.5667L67.8126 59.7667ZM71.7059 63.5667C72.2098 63.9981 72.8645 64.2117 73.5259 64.1604C74.1873 64.1091 74.8012 63.7972 75.2326 63.2933C75.664 62.7894 75.8776 62.1348 75.8263 61.4734C75.7751 60.812 75.4632 60.1981 74.9593 59.7667L71.7059 63.5667ZM55.3693 64.55C55.1788 64.2825 54.9376 64.0552 54.6593 63.881C54.3811 63.7067 54.0712 63.589 53.7474 63.5346C53.4237 63.4801 53.0923 63.4899 52.7724 63.5635C52.4524 63.637 52.1501 63.7729 51.8826 63.9633C51.6151 64.1537 51.3878 64.395 51.2136 64.6733C51.0393 64.9515 50.9216 65.2614 50.8672 65.5852C50.8127 65.9089 50.8225 66.2403 50.8961 66.5602C50.9696 66.8802 51.1055 67.1825 51.2959 67.45L55.3693 64.55ZM61.6493 72.5C68.0293 72.5 73.8826 68 73.8826 61.6667H68.8826C68.8826 64.5367 66.0259 67.5 61.6493 67.5V72.5ZM73.8826 61.6667V60H68.8826V61.6667H73.8826ZM69.7593 58.1L67.8126 59.7667L71.0626 63.5667L73.0126 61.9L69.7593 58.1ZM69.7593 61.9L71.7059 63.5667L74.9593 59.7667L73.0126 58.1L69.7593 61.9ZM51.2959 67.45C53.5159 70.5667 57.3926 72.5 61.6493 72.5V67.5C58.8626 67.5 56.5693 66.2333 55.3693 64.55L51.2959 67.45Z" fill="#B6FFFA"/>
</g>
</g>
</svg>
