<svg width="80" height="80" viewBox="0 0 80 80" fill="none" xmlns="http://www.w3.org/2000/svg">
<g id="solar:scale-line-duotone">
<g id="Group">
<path id="Vector" opacity="0.5" d="M36.666 6.6665C23.1493 6.68984 16.0727 7.02317 11.5493 11.5465C6.66602 16.4265 6.66602 24.2832 6.66602 39.9965C6.66602 55.7098 6.66602 63.5665 11.5493 68.4498C16.4293 73.3298 24.286 73.3298 39.9993 73.3298C55.7127 73.3298 63.5693 73.3298 68.4527 68.4498C72.976 63.9265 73.306 56.8498 73.3327 43.3298" stroke="#B6FFFA" stroke-width="5" stroke-linecap="round"/>
<path id="Vector_2" d="M43.3333 36.6665L73.3333 6.6665M73.3333 6.6665H55.52M73.3333 6.6665V24.4798M70 9.99984L40 39.9998M40 39.9998H53.3333M40 39.9998V26.6665" stroke="#B6FFFA" stroke-width="5" stroke-linecap="round" stroke-linejoin="round"/>
</g>
</g>
</svg>
