<svg width="80" height="80" viewBox="0 0 80 80" fill="none" xmlns="http://www.w3.org/2000/svg">
<g id="solar:eye-scan-line-duotone">
<g id="Group">
<path id="Vector" opacity="0.5" d="M33.3327 73.3332C20.7627 73.3332 14.476 73.3332 10.5727 69.4265C6.66602 65.5232 6.66602 62.5698 6.66602 49.9998M73.3327 49.9998C73.3327 62.5698 73.3327 65.5232 69.426 69.4265C65.5227 73.3332 59.236 73.3332 46.666 73.3332M46.666 6.6665C59.236 6.6665 65.5227 6.6665 69.426 10.5732C73.3327 14.4765 73.3327 17.4298 73.3327 29.9998M33.3327 6.6665C20.7627 6.6665 14.476 6.6665 10.5727 10.5732C6.66602 14.4765 6.66602 17.4298 6.66602 29.9998" stroke="#B6FFFA" stroke-width="5" stroke-linecap="round"/>
<path id="Vector_2" d="M19.6393 46.8663C17.656 44.5663 16.666 43.4163 16.666 39.9997C16.666 36.583 17.656 35.433 19.6393 33.133C23.5993 28.5397 30.2393 23.333 39.9994 23.333C49.756 23.333 56.3994 28.5397 60.3594 33.133C62.3427 35.433 63.3327 36.583 63.3327 39.9997C63.3327 43.4163 62.3427 44.5663 60.3594 46.8663C56.3994 51.4597 49.7594 56.6663 39.9994 56.6663C30.2427 56.6663 23.5993 51.4597 19.6393 46.8663Z" stroke="#B6FFFA" stroke-width="5"/>
<path id="Vector_3" d="M39.9987 46.6663C43.6806 46.6663 46.6654 43.6816 46.6654 39.9997C46.6654 36.3178 43.6806 33.333 39.9987 33.333C36.3168 33.333 33.332 36.3178 33.332 39.9997C33.332 43.6816 36.3168 46.6663 39.9987 46.6663Z" stroke="#B6FFFA" stroke-width="5"/>
</g>
</g>
</svg>
