<svg width="80" height="80" viewBox="0 0 80 80" fill="none" xmlns="http://www.w3.org/2000/svg">
<g id="solar:server-path-line-duotone">
<g id="Group">
<path id="Vector" opacity="0.5" d="M73.3327 63.3332H46.666M6.66602 63.3332H33.3327M39.9993 56.6665V46.6665" stroke="#B6FFFA" stroke-width="5" stroke-linecap="round"/>
<path id="Vector_2" d="M39.9987 69.9998C43.6806 69.9998 46.6654 67.0151 46.6654 63.3332C46.6654 59.6513 43.6806 56.6665 39.9987 56.6665C36.3168 56.6665 33.332 59.6513 33.332 63.3332C33.332 67.0151 36.3168 69.9998 39.9987 69.9998Z" stroke="#B6FFFA" stroke-width="5"/>
<path id="Vector_3" d="M16.666 26.6665C14.0139 26.6665 11.4703 27.7201 9.59495 29.5954C7.71958 31.4708 6.66602 34.0143 6.66602 36.6665C6.66602 39.3187 7.71958 41.8622 9.59495 43.7376C11.4703 45.6129 14.0139 46.6665 16.666 46.6665H63.3327C64.6459 46.6665 65.9463 46.4078 67.1595 45.9053C68.3728 45.4028 69.4752 44.6662 70.4037 43.7376C71.3323 42.809 72.0689 41.7066 72.5715 40.4933C73.074 39.2801 73.3327 37.9797 73.3327 36.6665C73.3327 35.3533 73.074 34.0529 72.5715 32.8397C72.0689 31.6264 71.3323 30.524 70.4037 29.5954C69.4752 28.6668 68.3728 27.9303 67.1595 27.4277C65.9463 26.9252 64.6459 26.6665 63.3327 26.6665M16.666 26.6665H63.3327M16.666 26.6665C14.0139 26.6665 11.4703 25.6129 9.59495 23.7376C7.71958 21.8622 6.66602 19.3187 6.66602 16.6665C6.66602 14.0143 7.71958 11.4708 9.59495 9.59544C11.4703 7.72007 14.0139 6.6665 16.666 6.6665H63.3327C65.9848 6.6665 68.5284 7.72007 70.4037 9.59544C72.2791 11.4708 73.3327 14.0143 73.3327 16.6665C73.3327 19.3187 72.2791 21.8622 70.4037 23.7376C68.5284 25.6129 65.9848 26.6665 63.3327 26.6665" stroke="#B6FFFA" stroke-width="5"/>
<path id="Vector_4" opacity="0.5" d="M43.332 16.6665H63.332M43.332 36.6665H63.332" stroke="#B6FFFA" stroke-width="5" stroke-linecap="round"/>
<path id="Vector_5" opacity="0.5" d="M19.9993 19.9997C21.8403 19.9997 23.3327 18.5073 23.3327 16.6663C23.3327 14.8254 21.8403 13.333 19.9993 13.333C18.1584 13.333 16.666 14.8254 16.666 16.6663C16.666 18.5073 18.1584 19.9997 19.9993 19.9997Z" fill="#B6FFFA"/>
<path id="Vector_6" opacity="0.5" d="M19.9993 39.9997C21.8403 39.9997 23.3327 38.5073 23.3327 36.6663C23.3327 34.8254 21.8403 33.333 19.9993 33.333C18.1584 33.333 16.666 34.8254 16.666 36.6663C16.666 38.5073 18.1584 39.9997 19.9993 39.9997Z" fill="#B6FFFA"/>
</g>
</g>
</svg>
