<svg width="80" height="80" viewBox="0 0 80 80" fill="none" xmlns="http://www.w3.org/2000/svg">
<g id="solar:code-scan-line-duotone">
<g id="Group">
<path id="Vector" d="M18.332 51.6663C18.332 48.523 18.332 46.953 19.3087 45.9763C20.2854 44.9997 21.8554 44.9997 24.9987 44.9997H28.332C31.4754 44.9997 33.0454 44.9997 34.022 45.9763C34.9987 46.953 34.9987 48.523 34.9987 51.6663V54.9997C34.9987 58.143 34.9987 59.713 34.022 60.6897C33.0454 61.6663 31.4754 61.6663 28.332 61.6663C23.6187 61.6663 21.262 61.6663 19.7987 60.1997C18.332 58.7363 18.332 56.3797 18.332 51.6663ZM18.332 28.333C18.332 23.6197 18.332 21.263 19.7987 19.7997C21.262 18.333 23.6187 18.333 28.332 18.333C31.4754 18.333 33.0454 18.333 34.022 19.3097C34.9987 20.2863 34.9987 21.8563 34.9987 24.9997V28.333C34.9987 31.4763 34.9987 33.0463 34.022 34.023C33.0454 34.9997 31.4754 34.9997 28.332 34.9997H24.9987C21.8554 34.9997 20.2854 34.9997 19.3087 34.023C18.332 33.0463 18.332 31.4763 18.332 28.333ZM44.9987 51.6663C44.9987 48.523 44.9987 46.953 45.9754 45.9763C46.952 44.9997 48.522 44.9997 51.6654 44.9997H54.9987C58.142 44.9997 59.712 44.9997 60.6887 45.9763C61.6654 46.953 61.6654 48.523 61.6654 51.6663C61.6654 56.3797 61.6654 58.7363 60.1987 60.1997C58.7354 61.6663 56.3787 61.6663 51.6654 61.6663C48.522 61.6663 46.952 61.6663 45.9754 60.6897C44.9987 59.713 44.9987 58.143 44.9987 54.9997V51.6663ZM44.9987 24.9997C44.9987 21.8563 44.9987 20.2863 45.9754 19.3097C46.952 18.333 48.522 18.333 51.6654 18.333C56.3787 18.333 58.7354 18.333 60.1987 19.7997C61.6654 21.263 61.6654 23.6197 61.6654 28.333C61.6654 31.4763 61.6654 33.0463 60.6887 34.023C59.712 34.9997 58.142 34.9997 54.9987 34.9997H51.6654C48.522 34.9997 46.952 34.9997 45.9754 34.023C44.9987 33.0463 44.9987 31.4763 44.9987 28.333V24.9997Z" stroke="#B6FFFA" stroke-width="5"/>
<path id="Vector_2" opacity="0.5" d="M73.3327 46.6665C73.3327 59.2365 73.3327 65.5232 69.426 69.4265C65.5227 73.3332 59.236 73.3332 46.666 73.3332M33.3327 73.3332C20.7627 73.3332 14.476 73.3332 10.5727 69.4265C6.66602 65.5232 6.66602 59.2365 6.66602 46.6665M33.3327 6.6665C20.7627 6.6665 14.476 6.6665 10.5727 10.5732C6.66602 14.4765 6.66602 20.7632 6.66602 33.3332M46.666 6.6665C59.236 6.6665 65.5227 6.6665 69.426 10.5732C73.3327 14.4765 73.3327 20.7632 73.3327 33.3332" stroke="#B6FFFA" stroke-width="5" stroke-linecap="round"/>
</g>
</g>
</svg>
