<svg width="128" height="128" viewBox="0 0 128 128" fill="none" xmlns="http://www.w3.org/2000/svg">
<g id="solar:code-square-line-duotone">
<g id="Group">
<path id="Vector" d="M83.1986 48.5332L84.1159 49.4505C91.2252 56.5599 94.7826 60.1172 94.7826 64.5332C94.7826 68.9492 91.2252 72.5065 84.1159 79.6159L83.1986 80.5332M71.4332 38.7732L64.5319 64.5332L57.6306 90.2932M45.8652 48.5332L44.9479 49.4505C37.8386 56.5599 34.2812 60.1172 34.2812 64.5332C34.2812 68.9492 37.8386 72.5065 44.9479 79.6159L45.8652 80.5332" stroke="#B6FFFA" stroke-width="6" stroke-linecap="round"/>
<path id="Vector_2" opacity="0.5" d="M11.1992 64.5333C11.1992 39.3919 11.1992 26.8213 19.0072 19.008C26.8259 11.2 39.3912 11.2 64.5325 11.2C89.6739 11.2 102.245 11.2 110.053 19.008C117.866 26.8266 117.866 39.3919 117.866 64.5333C117.866 89.6746 117.866 102.245 110.053 110.053C102.25 117.867 89.6739 117.867 64.5325 117.867C39.3912 117.867 26.8206 117.867 19.0072 110.053C11.1992 102.251 11.1992 89.6746 11.1992 64.5333Z" stroke="#B6FFFA" stroke-width="6"/>
</g>
</g>
</svg>
