<svg width="1440" height="720" viewBox="0 0 1440 720" fill="none" xmlns="http://www.w3.org/2000/svg">
<g opacity="0.05" clip-path="url(#clip0_2049_5674)">
<rect width="64" height="1149.49" transform="matrix(0.846145 0.532953 -0.113255 0.993566 27.5781 -228.103)" fill="#B6FFFA"/>
<rect width="64" height="1149.49" transform="matrix(0.846145 0.532953 -0.113255 0.993566 139.918 -228.103)" fill="#B6FFFA"/>
<rect width="64" height="1149.49" transform="matrix(0.846145 0.532953 -0.113255 0.993566 252.258 -228.103)" fill="#B6FFFA"/>
<rect width="64" height="1149.49" transform="matrix(0.846145 0.532953 -0.113255 0.993566 364.596 -228.103)" fill="#B6FFFA"/>
<rect width="64" height="1149.49" transform="matrix(0.846145 0.532953 -0.113255 0.993566 476.936 -228.103)" fill="#B6FFFA"/>
<rect width="64" height="1149.49" transform="matrix(0.846145 0.532953 -0.113255 0.993566 589.275 -228.103)" fill="#B6FFFA"/>
<rect width="64" height="1149.49" transform="matrix(0.846145 0.532953 -0.113255 0.993566 701.613 -228.103)" fill="#B6FFFA"/>
<rect width="64" height="1149.49" transform="matrix(0.846145 0.532953 -0.113255 0.993566 813.953 -228.103)" fill="#B6FFFA"/>
<rect width="64" height="1149.49" transform="matrix(0.846145 0.532953 -0.113255 0.993566 926.293 -228.103)" fill="#B6FFFA"/>
<rect width="64" height="1149.49" transform="matrix(0.846145 0.532953 -0.113255 0.993566 1038.63 -228.103)" fill="#B6FFFA"/>
<rect width="64" height="1149.49" transform="matrix(0.846145 0.532953 -0.113255 0.993566 1150.97 -228.103)" fill="#B6FFFA"/>
<rect width="64" height="1149.49" transform="matrix(0.846145 0.532953 -0.113255 0.993566 1263.31 -228.103)" fill="#B6FFFA"/>
<rect width="64" height="1149.49" transform="matrix(0.846145 0.532953 -0.113255 0.993566 1375.65 -228.103)" fill="#B6FFFA"/>
<rect width="64" height="1149.49" transform="matrix(0.846145 0.532953 -0.113255 0.993566 1487.99 -228.103)" fill="#B6FFFA"/>
</g>
<defs>
<clipPath id="clip0_2049_5674">
<rect width="3891.53" height="1080" fill="white" transform="translate(-1226 -180)"/>
</clipPath>
</defs>
</svg>
