<svg width="80" height="80" viewBox="0 0 80 80" fill="none" xmlns="http://www.w3.org/2000/svg">
<g id="solar:face-scan-square-line-duotone">
<g id="Group">
<path id="Vector" d="M30 53.333C32.8333 55.433 36.2833 56.6663 40 56.6663C43.7167 56.6663 47.1667 55.433 50 53.333" stroke="#B6FFFA" stroke-width="5" stroke-linecap="round"/>
<path id="Vector_2" d="M49.9993 40C51.8403 40 53.3327 37.7614 53.3327 35C53.3327 32.2386 51.8403 30 49.9993 30C48.1584 30 46.666 32.2386 46.666 35C46.666 37.7614 48.1584 40 49.9993 40Z" fill="#B6FFFA"/>
<path id="Vector_3" d="M29.9993 40C31.8403 40 33.3327 37.7614 33.3327 35C33.3327 32.2386 31.8403 30 29.9993 30C28.1584 30 26.666 32.2386 26.666 35C26.666 37.7614 28.1584 40 29.9993 40Z" fill="#B6FFFA"/>
<path id="Vector_4" opacity="0.5" d="M73.3327 46.6665C73.3327 59.2365 73.3327 65.5232 69.426 69.4265C65.5227 73.3332 59.236 73.3332 46.666 73.3332M33.3327 73.3332C20.7627 73.3332 14.476 73.3332 10.5727 69.4265C6.66602 65.5232 6.66602 59.2365 6.66602 46.6665M33.3327 6.6665C20.7627 6.6665 14.476 6.6665 10.5727 10.5732C6.66602 14.4765 6.66602 20.7632 6.66602 33.3332M46.666 6.6665C59.236 6.6665 65.5227 6.6665 69.426 10.5732C73.3327 14.4765 73.3327 20.7632 73.3327 33.3332" stroke="#B6FFFA" stroke-width="5" stroke-linecap="round"/>
</g>
</g>
</svg>
