<svg width="80" height="80" viewBox="0 0 80 80" fill="none" xmlns="http://www.w3.org/2000/svg">
<g id="solar:devices-line-duotone">
<g id="Group">
<path id="Vector" d="M20.0293 26.6665C20.1493 18.3998 20.7626 13.7165 23.906 10.5732C27.8093 6.6665 34.096 6.6665 46.666 6.6665C59.236 6.6665 65.5226 6.6665 69.426 10.5732C73.3326 14.4765 73.3326 20.7632 73.3326 33.3332V46.6665C73.3326 59.2365 73.3326 65.5232 69.426 69.4265C65.526 73.3332 59.2393 73.3332 46.666 73.3332H39.9993" stroke="#B6FFFA" stroke-width="5" stroke-linecap="round"/>
<path id="Vector_2" opacity="0.5" d="M6.66602 48.3332C6.66602 43.6498 6.66602 41.3098 7.78935 39.6298C8.27587 38.9016 8.90111 38.2764 9.62935 37.7898C11.3093 36.6665 13.6527 36.6665 18.3327 36.6665C23.0127 36.6665 25.356 36.6665 27.036 37.7898C27.7643 38.2764 28.3895 38.9016 28.876 39.6298C29.9994 41.3098 29.9994 43.6532 29.9994 48.3332V61.6665C29.9994 66.3465 29.9994 68.6898 28.876 70.3698C28.3895 71.0981 27.7643 71.7233 27.036 72.2098C25.356 73.3332 23.0127 73.3332 18.3327 73.3332C13.6527 73.3332 11.3093 73.3332 9.62935 72.2098C8.90111 71.7233 8.27587 71.0981 7.78935 70.3698C6.66602 68.6898 6.66602 66.3465 6.66602 61.6665V48.3332Z" stroke="#B6FFFA" stroke-width="5"/>
<path id="Vector_3" opacity="0.5" d="M56.6667 63.333H40" stroke="#B6FFFA" stroke-width="5" stroke-linecap="round"/>
</g>
</g>
</svg>
