<svg width="56" height="56" viewBox="0 0 56 56" fill="none" xmlns="http://www.w3.org/2000/svg">
<g id="Ethereum ETH">
<g id="Group">
<path id="Vector" d="M27.9992 51.8002C41.1436 51.8002 51.7992 41.1446 51.7992 28.0002C51.7992 14.8558 41.1436 4.2002 27.9992 4.2002C14.8548 4.2002 4.19922 14.8558 4.19922 28.0002C4.19922 41.1446 14.8548 51.8002 27.9992 51.8002Z" fill="#627EEA"/>
<g id="Group_2">
<path id="Vector_2" d="M28.7402 10.1504V23.3445L39.892 28.3277L28.7402 10.1504Z" fill="white" fill-opacity="0.602"/>
<path id="Vector_3" d="M28.7392 10.1504L17.5859 28.3277L28.7392 23.3445V10.1504Z" fill="white"/>
<path id="Vector_4" d="M28.7402 36.8779V45.8431L39.8994 30.4043L28.7402 36.8779Z" fill="white" fill-opacity="0.602"/>
<path id="Vector_5" d="M28.7392 45.8431V36.8764L17.5859 30.4043L28.7392 45.8431Z" fill="white"/>
<path id="Vector_6" d="M28.7402 34.8029L39.892 28.3278L28.7402 23.3477V34.8029Z" fill="white" fill-opacity="0.2"/>
<path id="Vector_7" d="M17.5859 28.3278L28.7392 34.8029V23.3477L17.5859 28.3278Z" fill="white" fill-opacity="0.602"/>
</g>
</g>
</g>
</svg>
