<svg width="57" height="56" viewBox="0 0 57 56" fill="none" xmlns="http://www.w3.org/2000/svg">
<g id="Polygon MATIC Icon">
<path id="Vector" d="M28.316 4.2373C41.42 4.2373 52.0414 14.8586 52.0414 27.9626C52.0414 41.0666 41.42 51.6786 28.3254 51.6786C15.2214 51.6786 4.60938 41.0573 4.60938 27.9626C4.60005 14.8586 15.2214 4.2373 28.316 4.2373Z" fill="#8247E5"/>
<g id="Group">
<g id="Clip path group">
<mask id="mask0_2049_5819" style="mask-type:luminance" maskUnits="userSpaceOnUse" x="12" y="14" width="32" height="28">
<g id="SVGID_00000119824040907289936360000005545950198423505064_">
<path id="Vector_2" d="M43.6968 14.4946H12.6074V41.7386H43.6968V14.4946Z" fill="white"/>
</g>
</mask>
<g mask="url(#mask0_2049_5819)">
<g id="Group_2">
<path id="Vector_3" d="M36.0905 22.7919C35.5212 22.4652 34.7932 22.4652 34.1492 22.7919L29.6132 25.4799L26.5332 27.1879L22.0812 29.8665C21.5119 30.1932 20.7839 30.1932 20.1399 29.8665L16.6585 27.7479C16.0892 27.4212 15.6879 26.7679 15.6879 26.0399V21.9705C15.6879 21.3172 16.0145 20.6732 16.6585 20.2625L20.1399 18.2279C20.7092 17.9012 21.4372 17.9012 22.0812 18.2279L25.5625 20.3465C26.1319 20.6732 26.5332 21.3265 26.5332 22.0545V24.7425L29.6132 22.9505V20.1879C29.6132 19.5345 29.2865 18.8905 28.6425 18.4799L22.1652 14.6532C21.5959 14.3265 20.8679 14.3265 20.2239 14.6532L13.5879 18.5639C12.9439 18.8905 12.6172 19.5439 12.6172 20.1879V27.8319C12.6172 28.4852 12.9439 29.1292 13.5879 29.5399L20.1492 33.3665C20.7185 33.6932 21.4465 33.6932 22.0905 33.3665L26.5425 30.7625L29.6225 28.9705L34.0745 26.3665C34.6439 26.0399 35.3719 26.0399 36.0159 26.3665L39.4972 28.4012C40.0665 28.7279 40.4679 29.3812 40.4679 30.1092V34.1785C40.4679 34.8319 40.1412 35.4759 39.4972 35.8865L36.0999 37.9212C35.5305 38.2479 34.8025 38.2479 34.1585 37.9212L30.6679 35.8865C30.0985 35.5599 29.6972 34.9065 29.6972 34.1785V31.5745L26.6172 33.3665V36.0545C26.6172 36.7079 26.9439 37.3519 27.5879 37.7625L34.1492 41.5892C34.7185 41.9159 35.4465 41.9159 36.0905 41.5892L42.6519 37.7625C43.2212 37.4359 43.6225 36.7825 43.6225 36.0545V28.3265C43.6225 27.6732 43.2959 27.0292 42.6519 26.6185L36.0905 22.7919Z" fill="white"/>
</g>
</g>
</g>
</g>
</g>
</svg>
