<svg width="57" height="56" viewBox="0 0 57 56" fill="none" xmlns="http://www.w3.org/2000/svg">
<g id="Near NEAR Icon">
<path id="Vector" d="M28.6481 49.5599C40.5761 49.5599 50.2455 39.8906 50.2455 27.9626C50.2455 16.0346 40.5761 6.36523 28.6481 6.36523C16.7201 6.36523 7.05078 16.0346 7.05078 27.9626C7.05078 39.8906 16.7201 49.5599 28.6481 49.5599Z" fill="#EDEDED"/>
<path id="Vector_2" d="M35.6196 17.5931L30.7476 24.8264C30.4116 25.3211 31.0556 25.9184 31.5222 25.4984L36.3196 21.3264C36.4502 21.2238 36.6276 21.2984 36.6276 21.4851V34.5331C36.6276 34.7104 36.3942 34.7944 36.2916 34.6638L21.7876 17.2851C21.3209 16.7158 20.6489 16.4078 19.8929 16.4078H19.3702C18.0262 16.4078 16.9062 17.5278 16.9062 18.8998V37.2678C16.9062 38.6398 18.0169 39.7598 19.3983 39.7598C20.2569 39.7598 21.0596 39.3211 21.5262 38.5651L26.3982 31.3318C26.7343 30.8371 26.0902 30.2398 25.6236 30.6598L20.8262 34.7944C20.6956 34.8971 20.5183 34.8224 20.5183 34.6358V21.6158C20.5183 21.4384 20.7516 21.3544 20.8542 21.4851L35.3676 38.8638C35.8342 39.4331 36.5342 39.7504 37.2622 39.7504H37.7849C39.1569 39.7504 40.2769 38.6304 40.2769 37.2584V18.8904C40.2769 17.5184 39.1662 16.3984 37.7849 16.3984C36.8889 16.3984 36.0862 16.8464 35.6196 17.5931Z" fill="black"/>
</g>
</svg>
