<svg width="56" height="56" viewBox="0 0 56 56" fill="none" xmlns="http://www.w3.org/2000/svg">
<g id="Solana">
<path id="Vector" d="M27.9634 4.52686H28.0008C40.5914 4.52686 50.8021 14.7375 50.8021 27.3282V28.5975C50.8021 41.1882 40.5914 51.3989 28.0008 51.3989H27.9634C15.3728 51.3989 5.16211 41.1882 5.16211 28.5975V27.3282C5.16211 14.7375 15.3728 4.52686 27.9634 4.52686Z" fill="white"/>
<path id="Vector_2" d="M37.7338 22.1669C37.6591 22.2509 37.5658 22.3162 37.4631 22.3535C37.3605 22.4002 37.2485 22.4189 37.1365 22.4189H15.9965C15.2498 22.4189 14.8672 21.4855 15.3898 20.9255L18.8618 17.2389C18.9365 17.1549 19.0298 17.0895 19.1418 17.0429C19.2445 16.9962 19.3565 16.9775 19.4685 16.9775H40.6925C41.4485 16.9775 41.8218 17.9202 41.2898 18.4802L37.7338 22.1669ZM37.7338 38.6495C37.5751 38.8082 37.3605 38.9015 37.1365 38.9015H15.9965C15.2498 38.9015 14.8672 37.9869 15.3898 37.4455L18.8618 33.8429C18.9365 33.7589 19.0392 33.6935 19.1418 33.6562C19.2445 33.6095 19.3565 33.5909 19.4685 33.5909H40.6925C41.4485 33.5909 41.8218 34.5149 41.2898 35.0562L37.7338 38.6495ZM37.7338 25.5362C37.5751 25.3775 37.3605 25.2842 37.1365 25.2842H15.9965C15.2498 25.2842 14.8672 26.1989 15.3898 26.7402L18.8618 30.3429C18.9365 30.4269 19.0392 30.4922 19.1418 30.5295C19.2445 30.5762 19.3565 30.5949 19.4685 30.5949H40.6925C41.4485 30.5949 41.8218 29.6709 41.2898 29.1295L37.7338 25.5362Z" fill="url(#paint0_linear_2049_5839)"/>
</g>
<defs>
<linearGradient id="paint0_linear_2049_5839" x1="16.7622" y1="39.1752" x2="39.8561" y2="16.6913" gradientUnits="userSpaceOnUse">
<stop stop-color="#CF41E8"/>
<stop offset="1" stop-color="#10F2B0"/>
</linearGradient>
</defs>
</svg>
