<svg width="57" height="56" viewBox="0 0 57 56" fill="none" xmlns="http://www.w3.org/2000/svg">
<g id="Binance Smart Chain">
<g id="Light">
<g id="OneArt-_x2022_-Desktop-_x2022_-Light">
<g id="Block">
<g id="TVL">
<g id="Icons_x2F_Icon-24_x2F_cake">
<path id="Oval" d="M28.3152 49.4947C40.207 49.4947 49.8472 39.8545 49.8472 27.9627C49.8472 16.0709 40.207 6.43066 28.3152 6.43066C16.4234 6.43066 6.7832 16.0709 6.7832 27.9627C6.7832 39.8545 16.4234 49.4947 28.3152 49.4947Z" fill="#F3BA2F"/>
<g id="Icons_x2F_icon-24_x2F_networks_x2F_binance_x5F_smart_x5F_chain">
<path id="Combined-Shape" fill-rule="evenodd" clip-rule="evenodd" d="M33.8989 30.2527L37.1469 33.4913L28.3176 42.3113L19.4976 33.4913L22.7456 30.2527L28.3176 35.8247L33.8989 30.2527ZM28.3176 24.6713L31.6122 27.966L28.3176 31.2607L25.0322 27.9753V27.966L25.6109 27.3873L25.8909 27.1073L28.3176 24.6713ZM17.2109 24.718L20.4589 27.966L17.2109 31.2047L13.9629 27.9567L17.2109 24.718ZM39.4242 24.718L42.6722 27.966L39.4242 31.2047L36.1762 27.9567L39.4242 24.718ZM28.3176 13.6113L37.1376 22.4313L33.8896 25.6793L28.3176 20.098L22.7456 25.67L19.4976 22.4313L28.3176 13.6113Z" fill="#131415"/>
</g>
</g>
</g>
</g>
</g>
</g>
</g>
</svg>
