<svg width="57" height="56" viewBox="0 0 57 56" fill="none" xmlns="http://www.w3.org/2000/svg">
<g id="Frame">
<g id="Group 274">
<path id="Vector" d="M28.3276 4.2002C41.504 4.2002 52.1825 14.8649 52.1825 28.0002C52.1825 41.1492 41.4903 51.8002 28.3276 51.8002C15.1511 51.8002 4.47266 41.1355 4.47266 28.0002C4.47266 14.8512 15.1648 4.2002 28.3276 4.2002Z" fill="url(#paint0_radial_2049_5859)"/>
<path id="Vector_2" d="M28.3277 51.8001C15.1238 51.8001 4.4316 41.1079 4.44533 27.9315V26.9158C4.45905 20.1079 9.99042 14.604 16.812 14.604H39.8296C46.6512 14.604 52.1826 20.1217 52.1963 26.9295V27.9452C52.21 41.1216 41.5316 51.8001 28.3277 51.8001Z" fill="url(#paint1_radial_2049_5859)"/>
<path id="Vector_3" d="M4.47277 28.5904C4.4316 15.1394 15.3708 4.2002 28.8492 4.2002H29.7139C36.6865 4.2002 35.7669 9.82764 35.7669 16.7865V19.8747C35.7669 26.8335 30.1257 32.461 23.1532 32.461H17.0728C10.1139 32.461 4.47277 35.5355 4.47277 28.5904Z" fill="url(#paint2_radial_2049_5859)"/>
<path id="Vector_4" d="M17.1413 32.4611C23.3178 32.4611 28.3138 27.465 28.3138 21.316C28.3138 15.1533 23.304 10.1709 17.1413 10.1709C10.9648 10.1709 5.96875 15.167 5.96875 21.316C5.96875 27.465 10.9786 32.4611 17.1413 32.4611Z" fill="url(#paint3_radial_2049_5859)" fill-opacity="0.56"/>
<path id="Vector_5" d="M36.0967 25.0219C41.2163 25.0219 45.3614 20.8905 45.3614 15.7846C45.3614 10.6787 41.2163 6.54736 36.0967 6.54736C30.9771 6.54736 26.832 10.6787 26.832 15.7846C26.832 20.8905 30.9909 25.0219 36.0967 25.0219Z" fill="url(#paint4_radial_2049_5859)" fill-opacity="0.56"/>
<path id="Vector_6" d="M28.3276 29.3316C28.3276 36.3042 19.9825 41.9728 9.68839 41.9728C8.94722 41.9728 4.45898 36.3179 4.45898 29.3316C4.45898 22.3591 5.94134 16.6904 9.68839 16.6904C19.9825 16.6904 28.3276 22.3453 28.3276 29.3316Z" fill="url(#paint5_radial_2049_5859)" fill-opacity="0.96"/>
<path id="Vector_7" d="M43.2473 45.3353C43.2473 47.4353 37.3866 51.7863 27.2846 51.7863C20.4356 51.7863 11.9258 46.5569 11.9258 44.4569C11.9258 29.0569 20.4356 27.9863 27.2846 27.9863C34.1473 28.0001 43.2473 33.4353 43.2473 45.3353Z" fill="url(#paint6_radial_2049_5859)" fill-opacity="0.46"/>
<path id="Vector_8" d="M4.47266 28.0002C4.47266 14.8512 15.1648 4.2002 28.3276 4.2002C41.504 4.2002 52.1825 14.8649 52.1825 28.0002V30.9786H4.47266V28.0002Z" fill="url(#paint7_linear_2049_5859)" fill-opacity="0.8"/>
<path id="Vector_9" d="M31.2509 28.7963C31.2509 34.9178 26.2686 39.8864 20.1333 39.8864C13.998 39.8864 9.01562 34.9178 9.01562 28.7963C9.01562 22.6747 13.998 17.7061 20.1333 17.7061C26.2686 17.7061 31.2509 22.6747 31.2509 28.7963Z" fill="url(#paint8_radial_2049_5859)" fill-opacity="0.8"/>
<path id="Vector_10" d="M31.3062 36.1666C31.3062 41.5059 26.9689 45.8294 21.616 45.8294C16.263 45.8294 11.9258 41.4921 11.9258 36.1666C11.9258 30.8412 16.263 26.5039 21.616 26.5039C26.9826 26.5039 31.3062 30.8412 31.3062 36.1666Z" fill="url(#paint9_radial_2049_5859)" fill-opacity="0.5"/>
<path id="Vector_11" d="M28.2174 20.561C36.041 20.561 42.3821 16.8963 42.3821 12.3806C42.3821 7.8649 36.041 4.2002 28.2174 4.2002C20.3939 4.2002 14.0527 7.8649 14.0527 12.3806C14.0527 16.8963 20.3939 20.561 28.2174 20.561Z" fill="url(#paint10_radial_2049_5859)" fill-opacity="0.75"/>
<path id="Vector_12" d="M44.209 25.4062C44.0855 20.3689 39.8855 16.3062 34.7247 16.3062C32.1855 16.3062 29.8933 17.2807 28.1914 18.8865C26.5031 17.2944 24.211 16.3062 21.6855 16.3062C16.5247 16.3062 12.3247 20.3963 12.2012 25.5022V25.5297V25.5571C12.2012 29.4414 13.6423 32.9003 14.96 35.2748C15.6188 36.4826 16.2914 37.4571 16.7992 38.1434C17.0463 38.4865 17.2659 38.7611 17.4306 38.9532C17.5129 39.0493 17.5816 39.1179 17.6227 39.1865C17.6502 39.214 17.6639 39.2277 17.6776 39.2552C17.6914 39.2689 17.6914 39.2689 17.7051 39.2826L17.7188 39.2963L17.7325 39.3101C18.8306 40.5591 20.7522 40.6963 22.0149 39.5983C23.2776 38.5003 23.4012 36.6061 22.3169 35.3434C22.3169 35.3434 22.3169 35.3434 22.3169 35.3297C22.3169 35.316 22.3031 35.316 22.2894 35.3022C22.262 35.2748 22.2345 35.2336 22.1796 35.165C22.0835 35.0414 21.9188 34.8493 21.7404 34.5748C21.3561 34.0532 20.8345 33.2846 20.3267 32.3375C19.2698 30.4297 18.3365 28.0277 18.3227 25.5709C18.3914 23.7454 19.9012 22.2905 21.7404 22.2905C23.6071 22.2905 25.1169 23.7591 25.158 25.612C25.1718 26.0787 25.2953 26.5179 25.4874 26.916C25.9267 28.0414 27.0247 28.8512 28.3286 28.8512C30.0031 28.8512 31.362 27.5199 31.362 25.8591V25.4748C31.4306 23.6767 32.9404 22.2356 34.7796 22.2356C36.6188 22.2356 38.1286 23.6767 38.1973 25.4748C38.1835 27.4375 37.5522 29.3728 36.8247 30.8963C36.4678 31.6512 36.111 32.2552 35.8639 32.6807C35.7404 32.8865 35.6169 33.0512 35.562 33.1473C35.5345 33.1885 35.5071 33.2297 35.4933 33.2434C35.4796 33.2571 35.4796 33.2571 35.4796 33.2571C35.4659 33.2709 35.4522 33.2983 35.4522 33.2983C36.0149 32.612 36.8522 32.1865 37.8267 32.1865C39.5012 32.1865 40.86 33.5179 40.86 35.165C40.86 35.7552 40.6816 36.3042 40.3659 36.7846C40.3796 36.7983 40.3796 36.7983 40.3796 36.7983V36.7846L40.3933 36.7709C40.4071 36.7571 40.4071 36.7571 40.4071 36.7434C40.4208 36.7297 40.4345 36.716 40.4482 36.6748C40.4757 36.6336 40.5306 36.565 40.5855 36.4826C40.6953 36.3179 40.8463 36.0983 41.0247 35.7963C41.3816 35.2199 41.862 34.4101 42.3286 33.4081C43.2482 31.4454 44.2639 28.6042 44.2639 25.4336V25.4062H44.209Z" fill="white"/>
<path id="Vector_13" d="M37.8673 32.1177C36.9065 32.1177 36.0556 32.5569 35.4928 33.2294C35.081 33.7373 34.834 34.3824 34.834 35.0824C34.834 36.7294 36.1928 38.0608 37.8673 38.0608C38.8556 38.0608 39.7203 37.5941 40.283 36.8804C40.3242 36.8118 40.3791 36.7569 40.4203 36.6883C40.7222 36.2216 40.9144 35.6726 40.9144 35.0687C40.8869 33.449 39.5418 32.1177 37.8673 32.1177Z" fill="#B5CD16"/>
</g>
</g>
<defs>
<radialGradient id="paint0_radial_2049_5859" cx="0" cy="0" r="1" gradientUnits="userSpaceOnUse" gradientTransform="translate(44.7343 10.1492) rotate(90) scale(34.2102 34.2966)">
<stop offset="0.1531" stop-color="#66B32E"/>
<stop offset="0.3626" stop-color="#61B22F"/>
<stop offset="0.869" stop-color="#46AF5C"/>
<stop offset="1" stop-color="#34AE72"/>
</radialGradient>
<radialGradient id="paint1_radial_2049_5859" cx="0" cy="0" r="1" gradientUnits="userSpaceOnUse" gradientTransform="translate(8.74637 48.2908) rotate(-40.7389) scale(33.4163 36.5259)">
<stop offset="0.2448" stop-color="#63318A"/>
<stop offset="1" stop-color="#2F358B" stop-opacity="0"/>
</radialGradient>
<radialGradient id="paint2_radial_2049_5859" cx="0" cy="0" r="1" gradientUnits="userSpaceOnUse" gradientTransform="translate(19.8984 10.4012) scale(14.2825 52.69)">
<stop stop-color="#FCBE33"/>
<stop offset="1" stop-color="#37AE73" stop-opacity="0"/>
</radialGradient>
<radialGradient id="paint3_radial_2049_5859" cx="0" cy="0" r="1" gradientUnits="userSpaceOnUse" gradientTransform="translate(17.1474 20.9292) rotate(90) scale(10.7744 10.8015)">
<stop offset="0.3646" stop-color="#E52826"/>
<stop offset="1" stop-color="#2F358B" stop-opacity="0"/>
</radialGradient>
<radialGradient id="paint4_radial_2049_5859" cx="0" cy="0" r="1" gradientUnits="userSpaceOnUse" gradientTransform="translate(36.0993 15.4797) rotate(90) scale(8.91443 8.93692)">
<stop offset="0.1354" stop-color="#EAE219"/>
<stop offset="0.9375" stop-color="#ADCA0D" stop-opacity="0"/>
</radialGradient>
<radialGradient id="paint5_radial_2049_5859" cx="0" cy="0" r="1" gradientUnits="userSpaceOnUse" gradientTransform="translate(9.6923 28.9036) rotate(90) scale(12.2129 18.0054)">
<stop stop-color="#7C59A1"/>
<stop offset="1" stop-color="#7B4896" stop-opacity="0"/>
</radialGradient>
<radialGradient id="paint6_radial_2049_5859" cx="0" cy="0" r="1" gradientUnits="userSpaceOnUse" gradientTransform="translate(27.2996 50.3969) rotate(90) scale(16.7989 14.18)">
<stop stop-color="#4A9DD7"/>
<stop offset="0.776" stop-color="#6CBE9C" stop-opacity="0"/>
</radialGradient>
<linearGradient id="paint7_linear_2049_5859" x1="28.3262" y1="13.7618" x2="28.3262" y2="31.9295" gradientUnits="userSpaceOnUse">
<stop stop-color="#F6E826"/>
<stop offset="1" stop-color="#BBD032" stop-opacity="0"/>
</linearGradient>
<radialGradient id="paint8_radial_2049_5859" cx="0" cy="0" r="1" gradientUnits="userSpaceOnUse" gradientTransform="translate(19.243 24.8042) rotate(135.072) scale(10.0555 10.0554)">
<stop stop-color="#974D98"/>
<stop offset="0.8021" stop-color="#974D98" stop-opacity="0"/>
</radialGradient>
<radialGradient id="paint9_radial_2049_5859" cx="0" cy="0" r="1" gradientUnits="userSpaceOnUse" gradientTransform="translate(20.8477 32.6978) rotate(135.072) scale(8.76164 8.7616)">
<stop offset="0.1042" stop-color="#974D98"/>
<stop offset="1" stop-color="#974D98" stop-opacity="0"/>
</radialGradient>
<radialGradient id="paint10_radial_2049_5859" cx="0" cy="0" r="1" gradientUnits="userSpaceOnUse" gradientTransform="translate(25.2275 7.16772) rotate(84.7925) scale(8.21462 14.2241)">
<stop offset="0.0459339" stop-color="#F0E529"/>
<stop offset="1" stop-color="#F1C115" stop-opacity="0"/>
</radialGradient>
</defs>
</svg>
