<svg width="57" height="56" viewBox="0 0 57 56" fill="none" xmlns="http://www.w3.org/2000/svg">
<g id="Ethereum ETH">
<g id="Group 273">
<path id="Vector" d="M52.3266 28.5603C52.3266 41.704 41.6703 52.3603 28.5266 52.3603C15.3828 52.3603 4.72656 41.704 4.72656 28.5603C4.72656 15.4165 15.3828 4.76025 28.5266 4.76025C41.6703 4.76025 52.3266 15.4165 52.3266 28.5603Z" fill="#2081E2"/>
<path id="Vector_2" d="M16.4642 29.3603L16.565 29.1989L22.757 19.5109C22.8176 19.41 22.952 19.3831 23.0461 19.4436C23.0798 19.4638 23.1067 19.4974 23.1268 19.5377C24.1622 21.8572 25.0564 24.7415 24.6328 26.5366C24.4513 27.2761 23.9672 28.2779 23.4159 29.1989C23.3487 29.3334 23.268 29.4679 23.1806 29.5956C23.1403 29.6561 23.073 29.6897 23.0058 29.6897H16.639C16.5247 29.6897 16.4238 29.5956 16.4238 29.4813C16.4306 29.441 16.444 29.4006 16.4642 29.3603Z" fill="white"/>
<path id="Vector_3" d="M44.0654 31.1624V32.6952C44.0654 32.7826 44.0116 32.8633 43.9309 32.8969C43.4536 33.0986 41.8131 33.8584 41.1273 34.8063C39.386 37.2267 38.0549 40.6958 35.0832 40.6958H22.679C18.282 40.6958 14.7188 37.1191 14.7188 32.7087V32.5675C14.7188 32.4532 14.8129 32.3524 14.9339 32.3524H21.852C21.9798 32.3591 22.0806 32.4667 22.0806 32.5944C22.0806 32.6011 22.0806 32.6078 22.0806 32.6146C22.0336 33.0717 22.1142 33.5356 22.3294 33.9458C22.7395 34.7727 23.5866 35.2971 24.5077 35.2971H27.9298V32.6213H24.548C24.427 32.6213 24.3329 32.5204 24.3329 32.3994C24.3329 32.3591 24.3463 32.312 24.3732 32.2784C24.4068 32.2246 24.4539 32.1641 24.4942 32.0969C24.8169 31.6397 25.2741 30.9338 25.7246 30.1337C26.0473 29.5824 26.3297 29.0177 26.5784 28.426C26.6255 28.3185 26.6658 28.2109 26.7061 28.11C26.7734 27.9218 26.8406 27.7537 26.8877 27.5789C26.9347 27.431 26.9751 27.2764 27.0154 27.1352C27.1297 26.6242 27.1835 26.0998 27.1768 25.5754C27.1768 25.3603 27.17 25.1384 27.1499 24.93C27.1432 24.6947 27.1095 24.4661 27.0826 24.2308C27.0625 24.0224 27.0289 23.8207 26.9885 23.6123C26.9415 23.303 26.8675 22.9937 26.7935 22.6845L26.7667 22.5634C26.7062 22.3483 26.6591 22.1466 26.5919 21.9382C26.3969 21.2726 26.175 20.6204 25.9397 20.0086C25.8523 19.7666 25.7582 19.5313 25.6573 19.3027C25.5162 18.9531 25.3682 18.6371 25.2338 18.3346C25.1665 18.2001 25.106 18.0724 25.0455 17.9446C24.9783 17.8034 24.9111 17.6555 24.8438 17.5211C24.7968 17.4135 24.7363 17.3194 24.7026 17.2185L24.2858 16.4454C24.2455 16.3849 24.2656 16.2974 24.3329 16.2638C24.3665 16.2437 24.4068 16.2369 24.4404 16.2504L27.0558 16.963H27.0625C27.0692 16.963 27.0692 16.963 27.0692 16.963L27.4121 17.0572L27.7886 17.1647L27.9298 17.2051V15.652C27.923 14.9058 28.5281 14.2939 29.2744 14.2939C29.6307 14.2939 29.9736 14.4351 30.2224 14.6906C30.4778 14.9461 30.619 15.289 30.619 15.652V17.9581L30.8947 18.0387C30.9148 18.0455 30.9417 18.0589 30.9619 18.0724C31.0291 18.1261 31.13 18.2001 31.251 18.2942C31.3519 18.3749 31.4527 18.469 31.5804 18.5632C31.8292 18.7649 32.1317 19.0271 32.4612 19.3296C32.5486 19.4036 32.636 19.4842 32.7099 19.5582C33.1335 19.9548 33.6108 20.4187 34.068 20.9297C34.1958 21.0709 34.3168 21.2188 34.4445 21.3734C34.5723 21.5281 34.7067 21.6827 34.821 21.8373C34.9756 22.0458 35.1437 22.2542 35.2849 22.476C35.3521 22.5836 35.4328 22.6912 35.5 22.792C35.6883 23.0744 35.8497 23.3635 36.0043 23.6526C36.0715 23.7871 36.1387 23.935 36.1993 24.0761C36.3741 24.4526 36.5018 24.8493 36.5959 25.2594C36.6228 25.3468 36.643 25.4342 36.6497 25.5216V25.5418C36.6766 25.6628 36.6901 25.7838 36.6968 25.9116C36.7371 26.3217 36.7169 26.7318 36.6295 27.1285C36.5892 27.3033 36.5421 27.4713 36.4884 27.6394C36.4278 27.8075 36.3673 27.9756 36.2934 28.1437C36.1455 28.4933 35.9707 28.8227 35.769 29.1387C35.7017 29.253 35.6278 29.3807 35.5471 29.495C35.4664 29.6093 35.3723 29.7371 35.2984 29.8513C35.1908 29.9993 35.0765 30.1539 34.9555 30.2884C34.8546 30.4363 34.7403 30.5707 34.626 30.7052C34.4647 30.9002 34.3033 31.0817 34.142 31.2565C34.0411 31.3708 33.9403 31.4918 33.8327 31.5926C33.7251 31.7069 33.6176 31.8145 33.5234 31.9154C33.3621 32.0767 33.2209 32.2045 33.1066 32.312L32.8377 32.5608C32.7973 32.5944 32.7436 32.6146 32.6965 32.6146H30.6123V35.2904H33.2343C33.8193 35.2904 34.384 35.082 34.8277 34.6987C35.3992 34.2012 35.9438 33.6701 36.448 33.1054C36.4749 33.0785 36.5085 33.0516 36.5489 33.0448L43.7964 30.9539C43.9107 30.9203 44.025 30.9876 44.0586 31.1019C44.0654 31.122 44.0654 31.1422 44.0654 31.1624Z" fill="white"/>
</g>
</g>
</svg>
