<svg width="80" height="80" viewBox="0 0 80 80" fill="none" xmlns="http://www.w3.org/2000/svg">
<g id="solar:cpu-line-duotone">
<g id="Group">
<path id="Vector" opacity="0.5" d="M23.332 33.3334C23.332 28.62 23.332 26.2634 24.7987 24.8C26.2587 23.3334 28.6154 23.3334 33.332 23.3334H46.6654C51.3787 23.3334 53.7354 23.3334 55.1987 24.8C56.6654 26.2634 56.6654 28.62 56.6654 33.3334V46.6667C56.6654 51.38 56.6654 53.7367 55.1987 55.2C53.7354 56.6667 51.3787 56.6667 46.6654 56.6667H33.332C28.6187 56.6667 26.262 56.6667 24.7987 55.2C23.332 53.74 23.332 51.3834 23.332 46.6667V33.3334Z" stroke="#B6FFFA" stroke-width="5"/>
<path id="Vector_2" d="M13.332 40C13.332 27.43 13.332 21.1434 17.2387 17.24C21.142 13.3334 27.4287 13.3334 39.9987 13.3334C52.5687 13.3334 58.8554 13.3334 62.7587 17.24C66.6654 21.1434 66.6654 27.43 66.6654 40C66.6654 52.57 66.6654 58.8567 62.7587 62.76C58.8554 66.6667 52.5687 66.6667 39.9987 66.6667C27.4287 66.6667 21.142 66.6667 17.2387 62.76C13.332 58.8567 13.332 52.57 13.332 40Z" stroke="#B6FFFA" stroke-width="5"/>
<path id="Vector_3" opacity="0.5" d="M13.3327 40H6.66602M73.3327 40H66.666M13.3327 30H6.66602M73.3327 30H66.666M13.3327 50H6.66602M73.3327 50H66.666M39.9994 66.6667V73.3334M39.9994 6.66669V13.3334M29.9994 66.6667V73.3334M29.9994 6.66669V13.3334M49.9994 66.6667V73.3334M49.9994 6.66669V13.3334" stroke="#B6FFFA" stroke-width="5" stroke-linecap="round"/>
</g>
</g>
</svg>
