<svg width="80" height="80" viewBox="0 0 80 80" fill="none" xmlns="http://www.w3.org/2000/svg">
<g id="solar:shop-line-duotone">
<g id="Group">
<path id="Vector" d="M31.6661 6.66669H48.3328L50.5061 28.39C50.6543 29.8587 50.4929 31.3422 50.0323 32.7446C49.5718 34.1471 48.8223 35.4374 47.8323 36.5324C46.8423 37.6273 45.6337 38.5025 44.2845 39.1015C42.9354 39.7005 41.4756 40.01 39.9995 40.01C38.5233 40.01 37.0635 39.7005 35.7144 39.1015C34.3652 38.5025 33.1566 37.6273 32.1666 36.5324C31.1766 35.4374 30.4271 34.1471 29.9666 32.7446C29.506 31.3422 29.3446 29.8587 29.4928 28.39L31.6661 6.66669Z" stroke="#B6FFFA" stroke-width="3"/>
<path id="Vector_2" d="M11.0994 17.8367C11.6928 14.87 11.9894 13.3867 12.5928 12.1834C13.2214 10.9301 14.1066 9.82314 15.1908 8.93419C16.275 8.04524 17.534 7.39421 18.8861 7.02335C20.1861 6.66669 21.6994 6.66669 24.7261 6.66669H31.6661L29.2494 30.8167C29.1219 32.1988 28.7136 33.5403 28.0496 34.7591C27.3856 35.978 26.4798 37.0485 25.3877 37.9051C24.2956 38.7617 23.0402 39.3864 21.6983 39.741C20.3564 40.0956 18.9562 40.1725 17.5835 39.9672C16.2108 39.7618 14.8945 39.2785 13.7151 38.5467C12.5356 37.815 11.518 36.8502 10.7244 35.7115C9.93078 34.5728 9.37792 33.2841 9.09966 31.9243C8.8214 30.5645 8.82359 29.1623 9.10609 27.8034L11.0994 17.8367ZM68.8994 17.8367C68.3061 14.87 68.0094 13.3867 67.4061 12.1834C66.7774 10.9301 65.8923 9.82314 64.8081 8.93419C63.7239 8.04524 62.4649 7.39421 61.1128 7.02335C59.8128 6.66669 58.2994 6.66669 55.2728 6.66669H48.3328L50.7494 30.8167C50.877 32.1988 51.2852 33.5403 51.9492 34.7591C52.6133 35.978 53.519 37.0485 54.6111 37.9051C55.7032 38.7617 56.9587 39.3864 58.3006 39.741C59.6425 40.0956 61.0426 40.1725 62.4153 39.9672C63.788 39.7618 65.1044 39.2785 66.2838 38.5467C67.4632 37.815 68.4809 36.8502 69.2745 35.7115C70.0681 34.5728 70.6209 33.2841 70.8992 31.9243C71.1775 30.5645 71.1753 29.1623 70.8928 27.8034L68.8994 17.8367Z" stroke="#B6FFFA" stroke-width="3"/>
<path id="Vector_3" opacity="0.5" d="M29.166 71.6667C29.166 72.3297 29.4294 72.9656 29.8983 73.4345C30.3671 73.9033 31.003 74.1667 31.666 74.1667C32.3291 74.1667 32.9649 73.9033 33.4338 73.4345C33.9026 72.9656 34.166 72.3297 34.166 71.6667H29.166ZM45.8327 71.6667C45.8327 72.3297 46.0961 72.9656 46.5649 73.4345C47.0338 73.9033 47.6696 74.1667 48.3327 74.1667C48.9957 74.1667 49.6316 73.9033 50.1005 73.4345C50.5693 72.9656 50.8327 72.3297 50.8327 71.6667H45.8327ZM41.666 70.8334H38.3327V75.8334H41.666V70.8334ZM14.166 46.6667V36.6667H9.16602V46.6667H14.166ZM65.8327 36.6667V46.6667H70.8327V36.6667H65.8327ZM38.3327 70.8334C31.976 70.8334 27.4627 70.8267 24.0327 70.3667C20.6827 69.9167 18.7494 69.07 17.3394 67.66L13.806 71.1934C16.2994 73.6934 19.4627 74.7967 23.3694 75.3234C27.2027 75.84 32.1194 75.8334 38.3327 75.8334V70.8334ZM9.16602 46.6667C9.16602 52.88 9.15935 57.7934 9.67602 61.63C10.2027 65.5367 11.3094 68.7 13.8027 71.1967L17.336 67.6634C15.9294 66.25 15.0827 64.3167 14.6327 60.9634C14.1727 57.54 14.166 53.0234 14.166 46.6667H9.16602ZM41.666 75.8334C47.8794 75.8334 52.7927 75.84 56.6294 75.3234C60.536 74.7967 63.6994 73.69 66.196 71.1967L62.6627 67.6634C61.2494 69.07 59.316 69.9167 55.9627 70.3667C52.536 70.8267 48.0227 70.8334 41.666 70.8334V75.8334ZM65.8327 46.6667C65.8327 53.0234 65.826 57.54 65.366 60.9667C64.916 64.3167 64.0694 66.25 62.6594 67.66L66.1927 71.1934C68.6927 68.7 69.796 65.5367 70.3227 61.63C70.8394 57.7967 70.8327 52.88 70.8327 46.6667H65.8327ZM34.166 71.6667V61.6667H29.166V71.6667H34.166ZM45.8327 61.6667V71.6667H50.8327V61.6667H45.8327ZM39.9994 55.8334C41.6027 55.8334 42.6394 55.8334 43.4227 55.9067C44.1727 55.9734 44.446 56.09 44.5827 56.17L47.0827 51.8367C46.0594 51.2467 44.9727 51.0267 43.876 50.9267C42.8094 50.83 41.5094 50.8334 39.9994 50.8334V55.8334ZM50.8327 61.6667C50.8327 60.1567 50.8327 58.8534 50.7394 57.79C50.6394 56.6934 50.4194 55.6067 49.8294 54.5834L45.496 57.0834C45.576 57.2167 45.6927 57.4934 45.7594 58.2434C45.8294 59.0267 45.8327 60.0634 45.8327 61.6667H50.8327ZM44.5827 56.17C44.9623 56.3901 45.2773 56.7029 45.496 57.0834L49.8294 54.5834C49.1708 53.4426 48.2235 52.4953 47.0827 51.8367L44.5827 56.17ZM34.166 61.6667C34.166 60.0634 34.166 59.0267 34.2394 58.2434C34.306 57.4934 34.4227 57.22 34.5027 57.0834L30.1694 54.5834C29.5794 55.6067 29.3594 56.6934 29.2594 57.79C29.1627 58.8567 29.166 60.1567 29.166 61.6667H34.166ZM39.9994 50.8334C38.4894 50.8334 37.186 50.8334 36.1227 50.9267C35.026 51.0267 33.9394 51.2467 32.916 51.8367L35.416 56.17C35.5494 56.09 35.826 55.9767 36.576 55.9067C37.3594 55.8367 38.396 55.8334 39.9994 55.8334V50.8334ZM34.5027 57.0834C34.7228 56.7037 35.0356 56.3887 35.416 56.17L32.916 51.8367C31.7751 52.4952 30.8278 53.4425 30.1694 54.5834L34.5027 57.0834Z" fill="#B6FFFA"/>
</g>
</g>
</svg>
