<svg width="80" height="80" viewBox="0 0 80 80" fill="none" xmlns="http://www.w3.org/2000/svg">
<g id="solar:sticker-smile-square-line-duotone">
<g id="Group">
<path id="Vector" d="M30 53.3334C32.8333 55.4334 36.2833 56.6667 40 56.6667C43.7167 56.6667 47.1667 55.4334 50 53.3334" stroke="#B6FFFA" stroke-width="5" stroke-linecap="round"/>
<path id="Vector_2" d="M49.9993 40C51.8403 40 53.3327 37.7614 53.3327 35C53.3327 32.2386 51.8403 30 49.9993 30C48.1584 30 46.666 32.2386 46.666 35C46.666 37.7614 48.1584 40 49.9993 40Z" fill="#B6FFFA"/>
<path id="Vector_3" d="M29.9993 40C31.8403 40 33.3327 37.7614 33.3327 35C33.3327 32.2386 31.8403 30 29.9993 30C28.1584 30 26.666 32.2386 26.666 35C26.666 37.7614 28.1584 40 29.9993 40Z" fill="#B6FFFA"/>
<path id="Vector_4" opacity="0.5" d="M49.9994 73.3334H39.9994C24.286 73.3334 16.4293 73.3334 11.546 68.45C6.66602 63.5734 6.66602 55.7134 6.66602 40C6.66602 24.2867 6.66602 16.43 11.546 11.5467C16.4327 6.66669 24.286 6.66669 39.9994 6.66669C55.7127 6.66669 63.5694 6.66669 68.4494 11.5467C73.3327 16.4334 73.3327 24.2867 73.3327 40V50M49.9994 73.3334C56.1877 73.3334 62.1227 70.875 66.4985 66.4992C70.8744 62.1233 73.3327 56.1884 73.3327 50M49.9994 73.3334C49.9994 67.13 49.9994 64.0267 50.816 61.5167C51.6288 59.0154 53.022 56.742 54.8817 54.8824C56.7414 53.0227 59.0148 51.6295 61.516 50.8167C64.026 50 67.1294 50 73.3327 50" stroke="#B6FFFA" stroke-width="5"/>
</g>
</g>
</svg>
