<svg width="80" height="80" viewBox="0 0 80 80" fill="none" xmlns="http://www.w3.org/2000/svg">
<g id="solar:maximize-square-3-line-duotone">
<g id="Group">
<path id="Vector" opacity="0.5" d="M43.3327 73.3334C56.8494 73.3067 63.926 72.9767 68.4494 68.45C73.3327 63.5734 73.3327 55.7134 73.3327 40C73.3327 24.2867 73.3327 16.43 68.4494 11.5467C63.5694 6.66669 55.7127 6.66669 39.9994 6.66669C24.286 6.66669 16.4293 6.66669 11.546 11.5467C7.02268 16.0734 6.69268 23.1467 6.66602 36.6667" stroke="#B6FFFA" stroke-width="5" stroke-linecap="round"/>
<path id="Vector_2" d="M40 40L56.6667 23.3334M56.6667 23.3334H44.1667M56.6667 23.3334V35.8334" stroke="#B6FFFA" stroke-width="5" stroke-linecap="round" stroke-linejoin="round"/>
<path id="Vector_3" d="M6.66602 60C6.66602 53.7134 6.66602 50.5734 8.61935 48.62C10.5727 46.6667 13.7127 46.6667 19.9993 46.6667C26.286 46.6667 29.426 46.6667 31.3793 48.62C33.3327 50.5734 33.3327 53.7134 33.3327 60C33.3327 66.2867 33.3327 69.4267 31.3793 71.38C29.426 73.3334 26.286 73.3334 19.9993 73.3334C13.7127 73.3334 10.5727 73.3334 8.61935 71.38C6.66602 69.4267 6.66602 66.2867 6.66602 60Z" stroke="#B6FFFA" stroke-width="5"/>
</g>
</g>
</svg>
