<svg width="80" height="80" viewBox="0 0 80 80" fill="none" xmlns="http://www.w3.org/2000/svg">
<g id="solar:turntable-music-note-line-duotone">
<g id="Group">
<path id="Vector" d="M40.0013 73.3333C24.288 73.3333 16.4313 73.3333 11.548 68.45C6.66797 63.5733 6.66797 55.7133 6.66797 40C6.66797 24.2866 6.66797 16.43 11.548 11.5466C16.4346 6.66663 24.288 6.66663 40.0013 6.66663C55.7146 6.66663 63.5713 6.66663 68.4513 11.5466C72.588 15.6833 73.218 21.9566 73.318 33.3333M63.3346 66.6666V40" stroke="#B6FFFA" stroke-width="5" stroke-linecap="round"/>
<path id="Vector_2" d="M56.6667 73.3333C60.3486 73.3333 63.3333 70.3486 63.3333 66.6667C63.3333 62.9848 60.3486 60 56.6667 60C52.9848 60 50 62.9848 50 66.6667C50 70.3486 52.9848 73.3333 56.6667 73.3333Z" stroke="#B6FFFA" stroke-width="5"/>
<path id="Vector_3" d="M73.3359 50C70.6838 50 68.1402 48.9464 66.2649 47.0711C64.3895 45.1957 63.3359 42.6522 63.3359 40" stroke="#B6FFFA" stroke-width="5" stroke-linecap="round"/>
<path id="Vector_4" opacity="0.5" d="M30 40C30 37.3478 31.0536 34.8043 32.9289 32.9289C34.8043 31.0536 37.3478 30 40 30C42.6522 30 45.1957 31.0536 47.0711 32.9289C48.9464 34.8043 50 37.3478 50 40C50 42.6522 48.9464 45.1957 47.0711 47.0711C45.1957 48.9464 42.6522 50 40 50C37.3478 50 34.8043 48.9464 32.9289 47.0711C31.0536 45.1957 30 42.6522 30 40Z" stroke="#B6FFFA" stroke-width="5"/>
</g>
</g>
</svg>
