<svg width="80" height="80" viewBox="0 0 80 80" fill="none" xmlns="http://www.w3.org/2000/svg">
<g id="solar:chart-square-line-duotone">
<g id="Group">
<path id="Vector" opacity="0.5" d="M6.66602 40C6.66602 24.2866 6.66602 16.43 11.546 11.5466C16.4327 6.66663 24.286 6.66663 39.9993 6.66663C55.7127 6.66663 63.5693 6.66663 68.4493 11.5466C73.3327 16.4333 73.3327 24.2866 73.3327 40C73.3327 55.7133 73.3327 63.57 68.4493 68.45C63.5727 73.3333 55.7127 73.3333 39.9993 73.3333C24.286 73.3333 16.4293 73.3333 11.546 68.45C6.66602 63.5733 6.66602 55.7133 6.66602 40Z" stroke="#B6FFFA" stroke-width="5"/>
<path id="Vector_2" d="M23.332 60V30M39.9987 60V20M56.6654 60V43.3333" stroke="#B6FFFA" stroke-width="5" stroke-linecap="round"/>
</g>
</g>
</svg>
