<svg width="80" height="80" viewBox="0 0 80 80" fill="none" xmlns="http://www.w3.org/2000/svg">
<g id="solar:clapperboard-play-line-duotone">
<g id="Group">
<path id="Vector" d="M6.66602 40C6.66602 24.2866 6.66602 16.43 11.546 11.5466C16.4327 6.66663 24.286 6.66663 39.9993 6.66663C55.7127 6.66663 63.5693 6.66663 68.4493 11.5466C73.3327 16.4333 73.3327 24.2866 73.3327 40C73.3327 55.7133 73.3327 63.57 68.4493 68.45C63.5727 73.3333 55.7127 73.3333 39.9993 73.3333C24.286 73.3333 16.4293 73.3333 11.546 68.45C6.66602 63.5733 6.66602 55.7133 6.66602 40Z" stroke="#B6FFFA" stroke-width="5"/>
<path id="Vector_2" opacity="0.5" d="M71.6654 26.6666H8.33203M23.332 26.6666L34.9987 8.33325M44.9987 26.6666L56.6654 8.33325M49.9987 48.3333C49.9987 46.2233 47.792 44.7999 43.3787 41.9499C38.9054 39.0633 36.6687 37.6199 34.9987 38.6833C33.332 39.7399 33.332 42.6033 33.332 48.3333C33.332 54.0633 33.332 56.9266 34.9987 57.9866C36.6654 59.0466 38.9054 57.6033 43.3787 54.7166C47.792 51.8666 49.9987 50.4433 49.9987 48.3333Z" stroke="#B6FFFA" stroke-width="5" stroke-linecap="round"/>
</g>
</g>
</svg>
