<svg width="80" height="80" viewBox="0 0 80 80" fill="none" xmlns="http://www.w3.org/2000/svg">
<g id="solar:question-square-line-duotone">
<g id="Group">
<path id="Vector" opacity="0.5" d="M6.66602 40C6.66602 24.2866 6.66602 16.43 11.546 11.5466C16.4327 6.66663 24.286 6.66663 39.9993 6.66663C55.7127 6.66663 63.5693 6.66663 68.4493 11.5466C73.3327 16.4333 73.3327 24.2866 73.3327 40C73.3327 55.7133 73.3327 63.57 68.4493 68.45C63.5727 73.3333 55.7127 73.3333 39.9993 73.3333C24.286 73.3333 16.4293 73.3333 11.546 68.45C6.66602 63.5733 6.66602 55.7133 6.66602 40Z" stroke="#B6FFFA" stroke-width="5"/>
<path id="Vector_2" d="M33.75 29.5833C33.7501 28.4887 34.0377 27.4134 34.584 26.465C35.1302 25.5165 35.916 24.7281 36.8626 24.1786C37.8092 23.6292 38.8836 23.338 39.9781 23.3341C41.0726 23.3303 42.149 23.614 43.0994 24.1568C44.0499 24.6995 44.8411 25.4824 45.394 26.4271C45.9469 27.3717 46.242 28.4449 46.2498 29.5394C46.2577 30.634 45.9779 31.7113 45.4386 32.6638C44.8993 33.6162 44.1193 34.4103 43.1767 34.9666C41.5933 35.9033 40 37.3266 40 39.1666V43.3333" stroke="#B6FFFA" stroke-width="5" stroke-linecap="round"/>
<path id="Vector_3" d="M39.9993 56.6667C41.8403 56.6667 43.3327 55.1743 43.3327 53.3333C43.3327 51.4924 41.8403 50 39.9993 50C38.1584 50 36.666 51.4924 36.666 53.3333C36.666 55.1743 38.1584 56.6667 39.9993 56.6667Z" fill="#B6FFFA"/>
</g>
</g>
</svg>
