<svg width="80" height="80" viewBox="0 0 80 80" fill="none" xmlns="http://www.w3.org/2000/svg">
<g id="carbon:data-share">
<path id="Vector" d="M12.5 62.5V39.57L3.535 48.535L0 45L15 30L30 45L26.465 48.535L17.5 39.57V62.5H47.5V67.5H17.5C16.1743 67.4987 14.9033 66.9715 13.9659 66.0341C13.0285 65.0967 12.5013 63.8257 12.5 62.5ZM60 55H70C71.3257 55.0013 72.5967 55.5285 73.5341 56.4659C74.4715 57.4033 74.9987 58.6743 75 60V70C74.9987 71.3257 74.4715 72.5967 73.5341 73.5341C72.5967 74.4715 71.3257 74.9987 70 75H60C58.6743 74.9987 57.4033 74.4715 56.4659 73.5341C55.5285 72.5967 55.0013 71.3257 55 70V60C55.0013 58.6743 55.5285 57.4033 56.4659 56.4659C57.4033 55.5285 58.6743 55.0013 60 55ZM70 70V60H59.9975L60 70H70ZM67.5 15V37.93L76.465 28.965L80 32.5L65 47.5L50 32.5L53.535 28.965L62.5 37.93V15H32.5V10H62.5C63.8257 10.0013 65.0967 10.5285 66.0341 11.4659C66.9715 12.4033 67.4987 13.6743 67.5 15ZM5 15H20V20H5V15ZM5 5H25V10H5V5Z" fill="#B6FFFA"/>
</g>
</svg>
