<svg width="80" height="80" viewBox="0 0 80 80" fill="none" xmlns="http://www.w3.org/2000/svg">
<g id="carbon:rocket">
<path id="Vector" d="M18.2197 58.23L38.2122 38.2375L41.7472 41.7725L21.7547 61.765L18.2197 58.23Z" fill="#B6FFFA"/>
<path id="Vector_2" d="M42.4995 75C42.1829 75.0008 41.869 74.9414 41.5746 74.825C41.165 74.6617 40.8059 74.393 40.5337 74.0462C40.2614 73.6993 40.0858 73.2866 40.0246 72.85L37.5246 55.35L42.5246 54.65L44.3996 67.825L52.4995 61.3V42.5C52.4977 42.171 52.5607 41.8448 52.6851 41.5402C52.8095 41.2356 52.9929 40.9586 53.2246 40.725L63.3996 30.55C65.4961 28.4676 67.159 25.9902 68.2919 23.261C69.4247 20.5318 70.0052 17.605 69.9995 14.65V10H65.3495C62.3946 9.99439 59.4678 10.5748 56.7386 11.7077C54.0094 12.8406 51.5319 14.5034 49.4496 16.6L39.2746 26.775C39.041 27.0067 38.7639 27.19 38.4593 27.3144C38.1547 27.4388 37.8286 27.5019 37.4995 27.5H18.6996L12.1746 35.65L25.3496 37.525L24.6496 42.525L7.14955 40.025C6.71291 39.9638 6.30023 39.7881 5.95337 39.5159C5.60652 39.2437 5.33783 38.8846 5.17455 38.475C5.00925 38.0626 4.95687 37.6135 5.02278 37.1741C5.08869 36.7347 5.27052 36.3208 5.54955 35.975L15.5496 23.475C15.7799 23.1758 16.0749 22.9326 16.4127 22.7637C16.7504 22.5949 17.122 22.5047 17.4996 22.5H36.4746L45.8996 13.05C48.4475 10.4878 51.4787 8.45684 54.8175 7.07498C58.1562 5.69312 61.7361 4.98783 65.3495 5H69.9995C71.3256 5 72.5974 5.52679 73.5351 6.46447C74.4728 7.40215 74.9995 8.67392 74.9995 10V14.65C75.0117 18.2634 74.3064 21.8433 72.9246 25.1821C71.5427 28.5209 69.5118 31.5521 66.9496 34.1L57.4995 43.525V62.5C57.4978 62.8755 57.4115 63.2458 57.2471 63.5834C57.0826 63.921 56.8442 64.2172 56.5496 64.45L44.0496 74.45C43.6097 74.8029 43.0635 74.9967 42.4995 75Z" fill="#B6FFFA"/>
</g>
</svg>
