<svg width="80" height="81" viewBox="0 0 80 81" fill="none" xmlns="http://www.w3.org/2000/svg">
<g id="carbon:crop-growth">
<path id="Vector" d="M65 33C67.6511 32.9967 70.1928 31.9421 72.0674 30.0674C73.9421 28.1928 74.9967 25.6511 75 23V15.5H67.5C64.9404 15.5038 62.4807 16.4941 60.6325 18.265C59.3374 15.9151 57.436 13.9553 55.1264 12.5896C52.8167 11.2239 50.1832 10.5024 47.5 10.5H40V18C40.0046 21.9768 41.5865 25.7894 44.3985 28.6015C47.2106 31.4135 51.0232 32.9954 55 33H57.5V65.5H27.5V53H30C32.6511 52.9967 35.1928 51.9421 37.0674 50.0674C38.9421 48.1928 39.9967 45.6511 40 43V35.5H32.5C29.9404 35.5038 27.4807 36.4941 25.6325 38.265C24.3374 35.9151 22.436 33.9552 20.1264 32.5896C17.8167 31.2239 15.1832 30.5024 12.5 30.5H5V38C5.00463 41.9768 6.58647 45.7894 9.39851 48.6015C12.2106 51.4135 16.0232 52.9954 20 53H22.5V65.5H5V70.5H75V65.5H62.5V33H65ZM62.5 25.5C62.5013 24.1743 63.0285 22.9033 63.9659 21.9659C64.9033 21.0285 66.1743 20.5013 67.5 20.5H70V23C69.9987 24.3257 69.4715 25.5967 68.5341 26.5341C67.5967 27.4715 66.3257 27.9987 65 28H62.5V25.5ZM27.5 45.5C27.5013 44.1743 28.0285 42.9033 28.9659 41.9659C29.9033 41.0285 31.1743 40.5013 32.5 40.5H35V43C34.9987 44.3257 34.4715 45.5967 33.5341 46.5341C32.5967 47.4715 31.3257 47.9987 30 48H27.5V45.5ZM22.5 48H20C17.3489 47.9967 14.8072 46.9421 12.9326 45.0674C11.0579 43.1928 10.0033 40.6511 10 38V35.5H12.5C15.1511 35.5033 17.6928 36.5579 19.5674 38.4326C21.4421 40.3072 22.4967 42.8489 22.5 45.5V48ZM57.5 28H55C52.3489 27.9967 49.8072 26.9421 47.9326 25.0674C46.0579 23.1928 45.0033 20.6511 45 18V15.5H47.5C50.1511 15.5033 52.6928 16.5579 54.5674 18.4326C56.4421 20.3072 57.4967 22.8489 57.5 25.5V28Z" fill="#B6FFFA"/>
</g>
</svg>
