<svg width="80" height="81" viewBox="0 0 80 81" fill="none" xmlns="http://www.w3.org/2000/svg">
<g id="carbon:partnership">
<path id="Vector" d="M20 23C18.0222 23 16.0888 22.4135 14.4443 21.3147C12.7998 20.2159 11.5181 18.6541 10.7612 16.8268C10.0043 14.9996 9.8063 12.9889 10.1921 11.0491C10.578 9.10929 11.5304 7.32746 12.9289 5.92894C14.3275 4.53041 16.1093 3.578 18.0491 3.19215C19.9889 2.8063 21.9996 3.00433 23.8268 3.76121C25.6541 4.51809 27.2159 5.79981 28.3147 7.4443C29.4135 9.08879 30 11.0222 30 13C30 15.6522 28.9464 18.1957 27.0711 20.0711C25.1957 21.9464 22.6522 23 20 23ZM20 8C19.0111 8 18.0444 8.29325 17.2221 8.84266C16.3999 9.39206 15.759 10.173 15.3806 11.0866C15.0022 12.0002 14.9031 13.0056 15.0961 13.9755C15.289 14.9454 15.7652 15.8363 16.4645 16.5355C17.1637 17.2348 18.0546 17.711 19.0245 17.9039C19.9945 18.0969 20.9998 17.9978 21.9134 17.6194C22.827 17.241 23.6079 16.6001 24.1573 15.7779C24.7068 14.9556 25 13.9889 25 13C25 11.6739 24.4732 10.4022 23.5355 9.46447C22.5979 8.52679 21.3261 8 20 8ZM60 23C58.0222 23 56.0888 22.4135 54.4443 21.3147C52.7998 20.2159 51.5181 18.6541 50.7612 16.8268C50.0043 14.9996 49.8063 12.9889 50.1921 11.0491C50.578 9.10929 51.5304 7.32746 52.9289 5.92894C54.3275 4.53041 56.1093 3.578 58.0491 3.19215C59.9889 2.8063 61.9996 3.00433 63.8268 3.76121C65.6541 4.51809 67.2159 5.79981 68.3147 7.4443C69.4135 9.08879 70 11.0222 70 13C70 15.6522 68.9464 18.1957 67.0711 20.0711C65.1957 21.9464 62.6522 23 60 23ZM60 8C59.0111 8 58.0444 8.29325 57.2221 8.84266C56.3999 9.39206 55.759 10.173 55.3806 11.0866C55.0022 12.0002 54.9031 13.0056 55.0961 13.9755C55.289 14.9454 55.7652 15.8363 56.4645 16.5355C57.1637 17.2348 58.0546 17.711 59.0245 17.9039C59.9945 18.0969 60.9998 17.9978 61.9134 17.6194C62.827 17.241 63.6079 16.6001 64.1573 15.7779C64.7068 14.9556 65 13.9889 65 13C65 11.6739 64.4732 10.4022 63.5355 9.46447C62.5979 8.52679 61.3261 8 60 8ZM65 75.5H55C53.6739 75.5 52.4021 74.9732 51.4645 74.0355C50.5268 73.0979 50 71.8261 50 70.5V53H55V70.5H65V48H70V33C70 32.337 69.7366 31.7011 69.2678 31.2322C68.7989 30.7634 68.163 30.5 67.5 30.5H51.45L40 50.5L28.55 30.5H12.5C11.837 30.5 11.2011 30.7634 10.7322 31.2322C10.2634 31.7011 10 32.337 10 33V48H15V70.5H25V53H30V70.5C30 71.8261 29.4732 73.0979 28.5355 74.0355C27.5979 74.9732 26.3261 75.5 25 75.5H15C13.6739 75.5 12.4021 74.9732 11.4645 74.0355C10.5268 73.0979 10 71.8261 10 70.5V53C8.67392 53 7.40215 52.4732 6.46447 51.5355C5.52678 50.5979 5 49.3261 5 48V33C5 31.0109 5.79018 29.1032 7.1967 27.6967C8.60322 26.2902 10.5109 25.5 12.5 25.5H31.45L40 40.5L48.55 25.5H67.5C69.4891 25.5 71.3968 26.2902 72.8033 27.6967C74.2098 29.1032 75 31.0109 75 33V48C75 49.3261 74.4732 50.5979 73.5355 51.5355C72.5979 52.4732 71.3261 53 70 53V70.5C70 71.8261 69.4732 73.0979 68.5355 74.0355C67.5979 74.9732 66.3261 75.5 65 75.5Z" fill="#B6FFFA"/>
</g>
</svg>
