<svg width="24" height="24" viewBox="0 0 24 24" fill="none" xmlns="http://www.w3.org/2000/svg">
<g id="solar:cart-large-minimalistic-line-duotone">
<g id="Group">
<path id="Vector" opacity="0.5" d="M7.5 18C7.89782 18 8.27936 18.158 8.56066 18.4393C8.84196 18.7206 9 19.1022 9 19.5C9 19.8978 8.84196 20.2794 8.56066 20.5607C8.27936 20.842 7.89782 21 7.5 21C7.10218 21 6.72064 20.842 6.43934 20.5607C6.15804 20.2794 6 19.8978 6 19.5C6 19.1022 6.15804 18.7206 6.43934 18.4393C6.72064 18.158 7.10218 18 7.5 18ZM16.5 18C16.8978 18 17.2794 18.158 17.5607 18.4393C17.842 18.7206 18 19.1022 18 19.5C18 19.8978 17.842 20.2794 17.5607 20.5607C17.2794 20.842 16.8978 21 16.5 21C16.1022 21 15.7206 20.842 15.4393 20.5607C15.158 20.2794 15 19.8978 15 19.5C15 19.1022 15.158 18.7206 15.4393 18.4393C15.7206 18.158 16.1022 18 16.5 18Z" stroke="#A38EF8" stroke-width="1.5"/>
<path id="Vector_2" d="M2.24951 2.29202C2.06174 2.22598 1.85542 2.23724 1.67595 2.32332C1.49648 2.4094 1.35855 2.56325 1.29251 2.75102C1.22647 2.9388 1.23773 3.14511 1.32381 3.32458C1.40989 3.50406 1.56374 3.64198 1.75151 3.70802L2.24951 2.29202ZM20.6585 9.88302L21.3925 10.034L21.3935 10.03L20.6585 9.88302ZM5.70851 9.76002V7.03802H4.20851V9.76002H5.70851ZM2.51051 2.38402L2.24951 2.29202L1.75151 3.70802L2.01251 3.79902L2.51051 2.38402ZM10.9385 16.25H16.2405V14.75H10.9385V16.25ZM5.70851 7.03802C5.70851 6.33102 5.70951 5.74102 5.65851 5.26202C5.60351 4.76502 5.48851 4.31202 5.20651 3.90002L3.96751 4.74602C4.05751 4.87802 4.12751 5.06002 4.16651 5.42302C4.20751 5.80302 4.20851 6.29802 4.20851 7.03802H5.70851ZM2.01251 3.79902C2.68051 4.03402 3.11951 4.19002 3.44251 4.35002C3.74551 4.49802 3.87951 4.61802 3.96751 4.74702L5.20651 3.90002C4.92251 3.48402 4.54351 3.21802 4.10251 3.00102C3.68251 2.79502 3.14451 2.60702 2.51051 2.38402L2.01251 3.79902ZM4.20851 9.76002C4.20851 11.213 4.22251 12.26 4.35851 13.06C4.50551 13.914 4.79851 14.526 5.34351 15.102L6.43251 14.07C6.11251 13.732 5.93951 13.402 5.83751 12.807C5.72751 12.157 5.70851 11.249 5.70851 9.76002H4.20851ZM10.9385 14.75C9.52151 14.75 8.53851 14.748 7.79751 14.643C7.08251 14.542 6.70551 14.358 6.43251 14.07L5.34351 15.102C5.93751 15.729 6.69051 16.002 7.58651 16.128C8.45651 16.252 9.56751 16.25 10.9385 16.25V14.75ZM4.95851 6.87002H17.0885V5.37002H4.95951L4.95851 6.87002ZM19.9235 9.73102L19.4235 12.156L20.8935 12.458L21.3925 10.034L19.9235 9.73102ZM17.0905 6.87002C17.9465 6.87002 18.7005 6.87102 19.2955 6.93702C19.5905 6.97102 19.8125 7.01702 19.9675 7.07102C20.1285 7.12802 20.1545 7.17102 20.1415 7.15402L21.3305 6.24002C21.0955 5.93402 20.7655 5.76102 20.4645 5.65602C20.139 5.54901 19.8026 5.47858 19.4615 5.44602C18.7665 5.36902 17.9185 5.37002 17.0905 5.37002V6.87002ZM21.3935 10.03C21.5635 9.18202 21.7075 8.47002 21.7425 7.90002C21.7795 7.31402 21.7125 6.73602 21.3305 6.24002L20.1415 7.15402C20.2035 7.23502 20.2715 7.38002 20.2455 7.80802C20.2185 8.25202 20.1015 8.84502 19.9235 9.73602L21.3935 10.03ZM16.2405 16.25C17.0025 16.25 17.6425 16.251 18.1585 16.188C18.6935 16.123 19.1825 15.979 19.6085 15.632L18.6605 14.469C18.5355 14.571 18.3585 14.653 17.9755 14.699C17.5725 14.749 17.0405 14.75 16.2405 14.75V16.25ZM19.4255 12.156C19.2635 12.939 19.1555 13.459 19.0255 13.844C18.9025 14.21 18.7855 14.367 18.6605 14.469L19.6085 15.632C20.0355 15.284 20.2745 14.835 20.4465 14.323C20.6125 13.831 20.7405 13.205 20.8945 12.459L19.4255 12.156Z" fill="#A38EF8"/>
</g>
</g>
</svg>
