<svg width="24" height="24" viewBox="0 0 24 24" fill="none" xmlns="http://www.w3.org/2000/svg">
<g id="solar:hashtag-chat-line-duotone">
<g id="Group">
<path id="Vector" d="M18.189 22.075L18.46 21.618L17.169 20.854L16.898 21.312L18.189 22.075ZM15.54 21.618L15.811 22.076L17.102 21.312L16.831 20.854L15.54 21.618ZM16.898 21.312C16.9086 21.294 16.9234 21.279 16.9412 21.2682C16.959 21.2573 16.9792 21.2511 17 21.25C17.027 21.25 17.075 21.266 17.102 21.312L15.812 22.076C16.343 22.975 17.657 22.974 18.189 22.075L16.898 21.312ZM16.25 12.75H17.75V11.25H16.25V12.75ZM21.25 16.25V16.75H22.75V16.25H21.25ZM12.75 16.75V16.25H11.25V16.75H12.75ZM11.25 16.75C11.25 17.322 11.25 17.789 11.275 18.169C11.302 18.556 11.358 18.907 11.497 19.244L12.883 18.67C12.833 18.547 12.793 18.377 12.772 18.067C12.7512 17.6283 12.7439 17.1891 12.75 16.75H11.25ZM14.908 19.746C14.28 19.736 14.016 19.694 13.83 19.616L13.256 21.003C13.731 21.199 14.254 21.235 14.882 21.246L14.908 19.746ZM11.498 19.244C11.8276 20.0402 12.46 20.6729 13.256 21.003L13.83 19.617C13.4013 19.4394 13.0606 19.0987 12.883 18.67L11.498 19.244ZM21.25 16.75C21.25 17.343 21.25 17.75 21.228 18.067C21.207 18.377 21.168 18.547 21.117 18.67L22.503 19.244C22.642 18.907 22.698 18.556 22.724 18.169C22.75 17.789 22.75 17.322 22.75 16.75H21.25ZM19.118 21.246C19.746 21.235 20.268 21.199 20.744 21.003L20.17 19.617C19.984 19.694 19.72 19.735 19.092 19.746L19.118 21.246ZM21.117 18.67C20.9394 19.0987 20.5987 19.4394 20.17 19.617L20.744 21.003C21.1384 20.8396 21.4968 20.6 21.7986 20.298C22.1004 19.996 22.3398 19.6385 22.503 19.244L21.117 18.67ZM17.75 12.75C18.583 12.75 19.155 12.75 19.596 12.793C20.025 12.833 20.251 12.908 20.414 13.008L21.198 11.728C20.76 11.46 20.277 11.351 19.738 11.299C19.209 11.249 18.554 11.25 17.75 11.25V12.75ZM22.75 16.25C22.75 15.446 22.75 14.79 22.7 14.263C22.65 13.723 22.541 13.24 22.272 12.802L20.992 13.586C21.092 13.749 21.166 13.976 21.207 14.405C21.249 14.845 21.25 15.417 21.25 16.25H22.75ZM20.414 13.008C20.65 13.152 20.848 13.35 20.992 13.586L22.272 12.802C22.0037 12.3646 21.6357 11.9969 21.198 11.729L20.414 13.008ZM16.25 11.25C15.446 11.25 14.79 11.25 14.263 11.3C13.723 11.35 13.24 11.46 12.802 11.729L13.586 13.008C13.749 12.908 13.976 12.834 14.405 12.793C14.845 12.751 15.417 12.75 16.25 12.75V11.25ZM12.75 16.25C12.75 15.417 12.75 14.845 12.793 14.405C12.833 13.975 12.908 13.749 13.008 13.585L11.728 12.802C11.46 13.24 11.351 13.723 11.299 14.262C11.249 14.791 11.25 15.446 11.25 16.25H12.75ZM12.802 11.729C12.3647 11.997 11.997 12.3647 11.729 12.802L13.008 13.586C13.152 13.35 13.35 13.152 13.586 13.008L12.802 11.729ZM16.831 20.854C16.733 20.689 16.634 20.519 16.534 20.382C16.4137 20.2097 16.2583 20.0649 16.078 19.957L15.324 21.253C15.287 21.232 15.284 21.213 15.322 21.266C15.37 21.331 15.428 21.428 15.54 21.618L16.831 20.854ZM14.881 21.246C15.108 21.25 15.227 21.252 15.311 21.262C15.382 21.27 15.364 21.276 15.324 21.253L16.078 19.957C15.8931 19.8531 15.6883 19.7897 15.477 19.771C15.307 19.752 15.107 19.749 14.907 19.746L14.881 21.246ZM18.46 21.618C18.572 21.428 18.63 21.331 18.678 21.266C18.717 21.213 18.713 21.232 18.676 21.253L17.922 19.957C17.716 20.077 17.575 20.233 17.466 20.382C17.366 20.519 17.266 20.688 17.169 20.854L18.46 21.618ZM19.092 19.746C18.894 19.749 18.693 19.752 18.523 19.771C18.339 19.791 18.13 19.835 17.922 19.957L18.676 21.253C18.636 21.276 18.618 21.27 18.688 21.262C18.773 21.252 18.892 21.25 19.118 21.246L19.092 19.746Z" fill="#A38EF8"/>
<path id="Vector_2" opacity="0.5" d="M10 3L5 21M19 3L17.194 9.5M22 9H4M9 16H2" stroke="#A38EF8" stroke-width="1.5" stroke-linecap="round" stroke-linejoin="round"/>
</g>
</g>
</svg>
