<svg width="24" height="24" viewBox="0 0 24 24" fill="none" xmlns="http://www.w3.org/2000/svg">
<g id="solar:archive-minimalistic-line-duotone">
<g id="Group">
<path id="Vector" opacity="0.5" d="M2 12C2 7.286 2 4.929 3.464 3.464C4.93 2 7.286 2 12 2C16.714 2 19.071 2 20.535 3.464C22 4.93 22 7.286 22 12" stroke="#A38EF8" stroke-width="1.5"/>
<path id="Vector_2" d="M2 14C2 11.2 2 9.8 2.545 8.73C3.02436 7.78923 3.78923 7.02436 4.73 6.545C5.8 6 7.2 6 10 6H14C16.8 6 18.2 6 19.27 6.545C20.2108 7.02436 20.9756 7.78923 21.455 8.73C22 9.8 22 11.2 22 14C22 16.8 22 18.2 21.455 19.27C20.9756 20.2108 20.2108 20.9756 19.27 21.455C18.2 22 16.8 22 14 22H10C7.2 22 5.8 22 4.73 21.455C3.78923 20.9756 3.02436 20.2108 2.545 19.27C2 18.2 2 16.8 2 14Z" stroke="#A38EF8" stroke-width="1.5"/>
<path id="Vector_3" d="M9.5 14.4L10.929 16L14.5 12" stroke="#A38EF8" stroke-width="1.5" stroke-linecap="round" stroke-linejoin="round"/>
</g>
</g>
</svg>
