<svg width="24" height="24" viewBox="0 0 24 24" fill="none" xmlns="http://www.w3.org/2000/svg">
<g id="solar:shield-keyhole-line-duotone">
<g id="Group">
<path id="Vector" opacity="0.5" d="M3 10.417C3 7.219 3 5.62 3.378 5.082C3.755 4.545 5.258 4.03 8.265 3.001L8.838 2.805C10.405 2.268 11.188 2 12 2C12.811 2 13.595 2.268 15.162 2.805L15.735 3.001C18.742 4.03 20.245 4.545 20.622 5.082C21 5.62 21 7.22 21 10.417V11.991C21 17.629 16.761 20.366 14.101 21.527C13.38 21.842 13.02 22 12 22C10.98 22 10.62 21.842 9.899 21.527C7.239 20.365 3 17.63 3 11.991V10.417Z" stroke="#A38EF8" stroke-width="1.5"/>
<path id="Vector_2" d="M11.4996 16H12.4996C12.7649 16 13.0192 15.8946 13.2068 15.7071C13.3943 15.5196 13.4996 15.2652 13.4996 15V13.599C14.0728 13.2695 14.521 12.7599 14.7746 12.1493C15.0282 11.5388 15.0729 10.8615 14.9018 10.2229C14.7308 9.58432 14.3535 9.02015 13.8286 8.61814C13.3037 8.21614 12.6608 7.99883 11.9996 8C11.339 7.99965 10.6966 8.21742 10.1723 8.61949C9.64808 9.02157 9.27121 9.58547 9.10024 10.2237C8.92926 10.8619 8.97375 11.5386 9.22679 12.149C9.47983 12.7593 9.92726 13.269 10.4996 13.599V15C10.4996 15.2652 10.605 15.5196 10.7925 15.7071C10.9801 15.8946 11.2344 16 11.4996 16Z" stroke="#A38EF8" stroke-width="1.5" stroke-linejoin="round"/>
</g>
</g>
</svg>
