<svg width="24" height="24" viewBox="0 0 24 24" fill="none" xmlns="http://www.w3.org/2000/svg">
<g id="solar:pie-chart-3-line-duotone">
<g id="Group">
<path id="Vector" d="M6.44478 3.68503C6.96928 3.33461 7.52576 3.03461 8.10678 2.78903C9.50978 2.19603 10.2108 1.89903 11.1068 2.49303C12.0008 3.08603 12.0008 4.05703 12.0008 6.00003V8.00003C12.0008 9.88603 12.0008 10.828 12.5868 11.414C13.1728 12 14.1148 12 16.0008 12H18.0008C19.9428 12 20.9148 12 21.5078 12.895C22.1008 13.79 21.8048 14.491 21.2118 15.895C20.3153 18.0141 18.7156 19.7594 16.6823 20.8365C14.649 21.9136 12.3066 22.2567 10.0498 21.808C8.10983 21.4223 6.32785 20.4699 4.9292 19.0714C3.53055 17.6728 2.57805 15.8909 2.19216 13.951C1.80628 12.0111 2.00434 10.0003 2.76131 8.17297C3.51827 6.34563 4.80013 4.78381 6.44478 3.68503Z" stroke="#A38EF8" stroke-width="1.5"/>
<path id="Vector_2" opacity="0.5" d="M14.5 2.31506C16.2294 2.76338 17.8075 3.66594 19.0708 4.92925C20.3341 6.19255 21.2367 7.77065 21.685 9.50006" stroke="#A38EF8" stroke-width="1.5" stroke-linecap="round"/>
</g>
</g>
</svg>
