<svg width="24" height="24" viewBox="0 0 24 24" fill="none" xmlns="http://www.w3.org/2000/svg">
<g id="solar:bag-line-duotone">
<g id="Group">
<path id="Vector" d="M5.7668 6.922C4.6548 7.844 4.3628 9.405 3.7768 12.525C2.9538 16.915 2.5428 19.109 3.7428 20.555C4.9428 22 7.1748 22 11.6398 22H12.3618C16.8268 22 19.0598 22 20.2588 20.555C21.4588 19.109 21.0458 16.915 20.2238 12.525C19.6378 9.405 19.3458 7.844 18.2338 6.922M18.2358 6.922C17.1248 6 15.5368 6 12.3608 6H11.6388C8.4638 6 6.8758 6 5.7648 6.922" stroke="#A38EF8" stroke-width="1.5"/>
<path id="Vector_2" opacity="0.5" d="M10 15.667C10 16.587 10.895 17.333 12 17.333C13.105 17.333 14 16.587 14 15.667C14 14.747 13.105 14 12 14C10.895 14 10 13.254 10 12.333C10 11.413 10.895 10.667 12 10.667C13.105 10.667 14 11.413 14 12.333" stroke="#A38EF8" stroke-width="1.5" stroke-linecap="round"/>
<path id="Vector_3" opacity="0.5" d="M9 6V5C9 4.20435 9.31607 3.44129 9.87868 2.87868C10.4413 2.31607 11.2044 2 12 2C12.7956 2 13.5587 2.31607 14.1213 2.87868C14.6839 3.44129 15 4.20435 15 5V6" stroke="#A38EF8" stroke-width="1.5" stroke-linecap="round"/>
</g>
</g>
</svg>
